<?xml version="1.0" encoding="utf-8" standalone="no"?>
<!DOCTYPE svg PUBLIC "-//W3C//DTD SVG 1.1//EN"
  "http://www.w3.org/Graphics/SVG/1.1/DTD/svg11.dtd">
<!-- Created with matplotlib (http://matplotlib.org/) -->
<svg height="288pt" version="1.1" viewBox="0 0 432 288" width="432pt" xmlns="http://www.w3.org/2000/svg" xmlns:xlink="http://www.w3.org/1999/xlink">
 <defs>
  <style type="text/css">
*{stroke-linecap:butt;stroke-linejoin:round;}
  </style>
 </defs>
 <g id="figure_1">
  <g id="patch_1">
   <path d="M 0 288 
L 432 288 
L 432 0 
L 0 0 
z
" style="fill:#ffffff;"/>
  </g>
  <g id="axes_1">
   <g id="patch_2">
    <path d="M 47.504646 256.065354 
L 429.165354 256.065354 
L 429.165354 5.354646 
L 47.504646 5.354646 
z
" style="fill:#ffffff;"/>
   </g>
   <g id="matplotlib.axis_1">
    <g id="xtick_1">
     <g id="line2d_1">
      <path clip-path="url(#p77d9d3fd75)" d="M 66.587681 256.065354 
L 66.587681 5.354646 
" style="fill:none;stroke:#000000;stroke-linecap:square;stroke-opacity:0.1;stroke-width:0.5;"/>
     </g>
     <g id="line2d_2">
      <defs>
       <path d="M 0 0 
L 0 -3.5 
" id="m126d3faf93" style="stroke:#000000;stroke-width:0.8;"/>
      </defs>
      <g>
       <use style="stroke:#000000;stroke-width:0.8;" x="66.587681" xlink:href="#m126d3faf93" y="256.065354"/>
      </g>
     </g>
     <g id="text_1">
      <!-- 0 -->
      <defs>
       <path d="M 31.78125 66.40625 
Q 24.171875 66.40625 20.328125 58.90625 
Q 16.5 51.421875 16.5 36.375 
Q 16.5 21.390625 20.328125 13.890625 
Q 24.171875 6.390625 31.78125 6.390625 
Q 39.453125 6.390625 43.28125 13.890625 
Q 47.125 21.390625 47.125 36.375 
Q 47.125 51.421875 43.28125 58.90625 
Q 39.453125 66.40625 31.78125 66.40625 
z
M 31.78125 74.21875 
Q 44.046875 74.21875 50.515625 64.515625 
Q 56.984375 54.828125 56.984375 36.375 
Q 56.984375 17.96875 50.515625 8.265625 
Q 44.046875 -1.421875 31.78125 -1.421875 
Q 19.53125 -1.421875 13.0625 8.265625 
Q 6.59375 17.96875 6.59375 36.375 
Q 6.59375 54.828125 13.0625 64.515625 
Q 19.53125 74.21875 31.78125 74.21875 
z
" id="DejaVuSans-30"/>
      </defs>
      <g transform="translate(63.406431 267.163792)scale(0.1 -0.1)">
       <use xlink:href="#DejaVuSans-30"/>
      </g>
     </g>
    </g>
    <g id="xtick_2">
     <g id="line2d_3">
      <path clip-path="url(#p77d9d3fd75)" d="M 104.753752 256.065354 
L 104.753752 5.354646 
" style="fill:none;stroke:#000000;stroke-linecap:square;stroke-opacity:0.1;stroke-width:0.5;"/>
     </g>
     <g id="line2d_4">
      <g>
       <use style="stroke:#000000;stroke-width:0.8;" x="104.753752" xlink:href="#m126d3faf93" y="256.065354"/>
      </g>
     </g>
     <g id="text_2">
      <!-- 1 -->
      <defs>
       <path d="M 12.40625 8.296875 
L 28.515625 8.296875 
L 28.515625 63.921875 
L 10.984375 60.40625 
L 10.984375 69.390625 
L 28.421875 72.90625 
L 38.28125 72.90625 
L 38.28125 8.296875 
L 54.390625 8.296875 
L 54.390625 0 
L 12.40625 0 
z
" id="DejaVuSans-31"/>
      </defs>
      <g transform="translate(101.572502 267.163792)scale(0.1 -0.1)">
       <use xlink:href="#DejaVuSans-31"/>
      </g>
     </g>
    </g>
    <g id="xtick_3">
     <g id="line2d_5">
      <path clip-path="url(#p77d9d3fd75)" d="M 142.919823 256.065354 
L 142.919823 5.354646 
" style="fill:none;stroke:#000000;stroke-linecap:square;stroke-opacity:0.1;stroke-width:0.5;"/>
     </g>
     <g id="line2d_6">
      <g>
       <use style="stroke:#000000;stroke-width:0.8;" x="142.919823" xlink:href="#m126d3faf93" y="256.065354"/>
      </g>
     </g>
     <g id="text_3">
      <!-- 2 -->
      <defs>
       <path d="M 19.1875 8.296875 
L 53.609375 8.296875 
L 53.609375 0 
L 7.328125 0 
L 7.328125 8.296875 
Q 12.9375 14.109375 22.625 23.890625 
Q 32.328125 33.6875 34.8125 36.53125 
Q 39.546875 41.84375 41.421875 45.53125 
Q 43.3125 49.21875 43.3125 52.78125 
Q 43.3125 58.59375 39.234375 62.25 
Q 35.15625 65.921875 28.609375 65.921875 
Q 23.96875 65.921875 18.8125 64.3125 
Q 13.671875 62.703125 7.8125 59.421875 
L 7.8125 69.390625 
Q 13.765625 71.78125 18.9375 73 
Q 24.125 74.21875 28.421875 74.21875 
Q 39.75 74.21875 46.484375 68.546875 
Q 53.21875 62.890625 53.21875 53.421875 
Q 53.21875 48.921875 51.53125 44.890625 
Q 49.859375 40.875 45.40625 35.40625 
Q 44.1875 33.984375 37.640625 27.21875 
Q 31.109375 20.453125 19.1875 8.296875 
z
" id="DejaVuSans-32"/>
      </defs>
      <g transform="translate(139.738573 267.163792)scale(0.1 -0.1)">
       <use xlink:href="#DejaVuSans-32"/>
      </g>
     </g>
    </g>
    <g id="xtick_4">
     <g id="line2d_7">
      <path clip-path="url(#p77d9d3fd75)" d="M 181.085894 256.065354 
L 181.085894 5.354646 
" style="fill:none;stroke:#000000;stroke-linecap:square;stroke-opacity:0.1;stroke-width:0.5;"/>
     </g>
     <g id="line2d_8">
      <g>
       <use style="stroke:#000000;stroke-width:0.8;" x="181.085894" xlink:href="#m126d3faf93" y="256.065354"/>
      </g>
     </g>
     <g id="text_4">
      <!-- 3 -->
      <defs>
       <path d="M 40.578125 39.3125 
Q 47.65625 37.796875 51.625 33 
Q 55.609375 28.21875 55.609375 21.1875 
Q 55.609375 10.40625 48.1875 4.484375 
Q 40.765625 -1.421875 27.09375 -1.421875 
Q 22.515625 -1.421875 17.65625 -0.515625 
Q 12.796875 0.390625 7.625 2.203125 
L 7.625 11.71875 
Q 11.71875 9.328125 16.59375 8.109375 
Q 21.484375 6.890625 26.8125 6.890625 
Q 36.078125 6.890625 40.9375 10.546875 
Q 45.796875 14.203125 45.796875 21.1875 
Q 45.796875 27.640625 41.28125 31.265625 
Q 36.765625 34.90625 28.71875 34.90625 
L 20.21875 34.90625 
L 20.21875 43.015625 
L 29.109375 43.015625 
Q 36.375 43.015625 40.234375 45.921875 
Q 44.09375 48.828125 44.09375 54.296875 
Q 44.09375 59.90625 40.109375 62.90625 
Q 36.140625 65.921875 28.71875 65.921875 
Q 24.65625 65.921875 20.015625 65.03125 
Q 15.375 64.15625 9.8125 62.3125 
L 9.8125 71.09375 
Q 15.4375 72.65625 20.34375 73.4375 
Q 25.25 74.21875 29.59375 74.21875 
Q 40.828125 74.21875 47.359375 69.109375 
Q 53.90625 64.015625 53.90625 55.328125 
Q 53.90625 49.265625 50.4375 45.09375 
Q 46.96875 40.921875 40.578125 39.3125 
z
" id="DejaVuSans-33"/>
      </defs>
      <g transform="translate(177.904644 267.163792)scale(0.1 -0.1)">
       <use xlink:href="#DejaVuSans-33"/>
      </g>
     </g>
    </g>
    <g id="xtick_5">
     <g id="line2d_9">
      <path clip-path="url(#p77d9d3fd75)" d="M 219.251965 256.065354 
L 219.251965 5.354646 
" style="fill:none;stroke:#000000;stroke-linecap:square;stroke-opacity:0.1;stroke-width:0.5;"/>
     </g>
     <g id="line2d_10">
      <g>
       <use style="stroke:#000000;stroke-width:0.8;" x="219.251965" xlink:href="#m126d3faf93" y="256.065354"/>
      </g>
     </g>
     <g id="text_5">
      <!-- 4 -->
      <defs>
       <path d="M 37.796875 64.3125 
L 12.890625 25.390625 
L 37.796875 25.390625 
z
M 35.203125 72.90625 
L 47.609375 72.90625 
L 47.609375 25.390625 
L 58.015625 25.390625 
L 58.015625 17.1875 
L 47.609375 17.1875 
L 47.609375 0 
L 37.796875 0 
L 37.796875 17.1875 
L 4.890625 17.1875 
L 4.890625 26.703125 
z
" id="DejaVuSans-34"/>
      </defs>
      <g transform="translate(216.070715 267.163792)scale(0.1 -0.1)">
       <use xlink:href="#DejaVuSans-34"/>
      </g>
     </g>
    </g>
    <g id="xtick_6">
     <g id="line2d_11">
      <path clip-path="url(#p77d9d3fd75)" d="M 257.418035 256.065354 
L 257.418035 5.354646 
" style="fill:none;stroke:#000000;stroke-linecap:square;stroke-opacity:0.1;stroke-width:0.5;"/>
     </g>
     <g id="line2d_12">
      <g>
       <use style="stroke:#000000;stroke-width:0.8;" x="257.418035" xlink:href="#m126d3faf93" y="256.065354"/>
      </g>
     </g>
     <g id="text_6">
      <!-- 5 -->
      <defs>
       <path d="M 10.796875 72.90625 
L 49.515625 72.90625 
L 49.515625 64.59375 
L 19.828125 64.59375 
L 19.828125 46.734375 
Q 21.96875 47.46875 24.109375 47.828125 
Q 26.265625 48.1875 28.421875 48.1875 
Q 40.625 48.1875 47.75 41.5 
Q 54.890625 34.8125 54.890625 23.390625 
Q 54.890625 11.625 47.5625 5.09375 
Q 40.234375 -1.421875 26.90625 -1.421875 
Q 22.3125 -1.421875 17.546875 -0.640625 
Q 12.796875 0.140625 7.71875 1.703125 
L 7.71875 11.625 
Q 12.109375 9.234375 16.796875 8.0625 
Q 21.484375 6.890625 26.703125 6.890625 
Q 35.15625 6.890625 40.078125 11.328125 
Q 45.015625 15.765625 45.015625 23.390625 
Q 45.015625 31 40.078125 35.4375 
Q 35.15625 39.890625 26.703125 39.890625 
Q 22.75 39.890625 18.8125 39.015625 
Q 14.890625 38.140625 10.796875 36.28125 
z
" id="DejaVuSans-35"/>
      </defs>
      <g transform="translate(254.236785 267.163792)scale(0.1 -0.1)">
       <use xlink:href="#DejaVuSans-35"/>
      </g>
     </g>
    </g>
    <g id="xtick_7">
     <g id="line2d_13">
      <path clip-path="url(#p77d9d3fd75)" d="M 295.584106 256.065354 
L 295.584106 5.354646 
" style="fill:none;stroke:#000000;stroke-linecap:square;stroke-opacity:0.1;stroke-width:0.5;"/>
     </g>
     <g id="line2d_14">
      <g>
       <use style="stroke:#000000;stroke-width:0.8;" x="295.584106" xlink:href="#m126d3faf93" y="256.065354"/>
      </g>
     </g>
     <g id="text_7">
      <!-- 6 -->
      <defs>
       <path d="M 33.015625 40.375 
Q 26.375 40.375 22.484375 35.828125 
Q 18.609375 31.296875 18.609375 23.390625 
Q 18.609375 15.53125 22.484375 10.953125 
Q 26.375 6.390625 33.015625 6.390625 
Q 39.65625 6.390625 43.53125 10.953125 
Q 47.40625 15.53125 47.40625 23.390625 
Q 47.40625 31.296875 43.53125 35.828125 
Q 39.65625 40.375 33.015625 40.375 
z
M 52.59375 71.296875 
L 52.59375 62.3125 
Q 48.875 64.0625 45.09375 64.984375 
Q 41.3125 65.921875 37.59375 65.921875 
Q 27.828125 65.921875 22.671875 59.328125 
Q 17.53125 52.734375 16.796875 39.40625 
Q 19.671875 43.65625 24.015625 45.921875 
Q 28.375 48.1875 33.59375 48.1875 
Q 44.578125 48.1875 50.953125 41.515625 
Q 57.328125 34.859375 57.328125 23.390625 
Q 57.328125 12.15625 50.6875 5.359375 
Q 44.046875 -1.421875 33.015625 -1.421875 
Q 20.359375 -1.421875 13.671875 8.265625 
Q 6.984375 17.96875 6.984375 36.375 
Q 6.984375 53.65625 15.1875 63.9375 
Q 23.390625 74.21875 37.203125 74.21875 
Q 40.921875 74.21875 44.703125 73.484375 
Q 48.484375 72.75 52.59375 71.296875 
z
" id="DejaVuSans-36"/>
      </defs>
      <g transform="translate(292.402856 267.163792)scale(0.1 -0.1)">
       <use xlink:href="#DejaVuSans-36"/>
      </g>
     </g>
    </g>
    <g id="xtick_8">
     <g id="line2d_15">
      <path clip-path="url(#p77d9d3fd75)" d="M 333.750177 256.065354 
L 333.750177 5.354646 
" style="fill:none;stroke:#000000;stroke-linecap:square;stroke-opacity:0.1;stroke-width:0.5;"/>
     </g>
     <g id="line2d_16">
      <g>
       <use style="stroke:#000000;stroke-width:0.8;" x="333.750177" xlink:href="#m126d3faf93" y="256.065354"/>
      </g>
     </g>
     <g id="text_8">
      <!-- 7 -->
      <defs>
       <path d="M 8.203125 72.90625 
L 55.078125 72.90625 
L 55.078125 68.703125 
L 28.609375 0 
L 18.3125 0 
L 43.21875 64.59375 
L 8.203125 64.59375 
z
" id="DejaVuSans-37"/>
      </defs>
      <g transform="translate(330.568927 267.163792)scale(0.1 -0.1)">
       <use xlink:href="#DejaVuSans-37"/>
      </g>
     </g>
    </g>
    <g id="xtick_9">
     <g id="line2d_17">
      <path clip-path="url(#p77d9d3fd75)" d="M 371.916248 256.065354 
L 371.916248 5.354646 
" style="fill:none;stroke:#000000;stroke-linecap:square;stroke-opacity:0.1;stroke-width:0.5;"/>
     </g>
     <g id="line2d_18">
      <g>
       <use style="stroke:#000000;stroke-width:0.8;" x="371.916248" xlink:href="#m126d3faf93" y="256.065354"/>
      </g>
     </g>
     <g id="text_9">
      <!-- 8 -->
      <defs>
       <path d="M 31.78125 34.625 
Q 24.75 34.625 20.71875 30.859375 
Q 16.703125 27.09375 16.703125 20.515625 
Q 16.703125 13.921875 20.71875 10.15625 
Q 24.75 6.390625 31.78125 6.390625 
Q 38.8125 6.390625 42.859375 10.171875 
Q 46.921875 13.96875 46.921875 20.515625 
Q 46.921875 27.09375 42.890625 30.859375 
Q 38.875 34.625 31.78125 34.625 
z
M 21.921875 38.8125 
Q 15.578125 40.375 12.03125 44.71875 
Q 8.5 49.078125 8.5 55.328125 
Q 8.5 64.0625 14.71875 69.140625 
Q 20.953125 74.21875 31.78125 74.21875 
Q 42.671875 74.21875 48.875 69.140625 
Q 55.078125 64.0625 55.078125 55.328125 
Q 55.078125 49.078125 51.53125 44.71875 
Q 48 40.375 41.703125 38.8125 
Q 48.828125 37.15625 52.796875 32.3125 
Q 56.78125 27.484375 56.78125 20.515625 
Q 56.78125 9.90625 50.3125 4.234375 
Q 43.84375 -1.421875 31.78125 -1.421875 
Q 19.734375 -1.421875 13.25 4.234375 
Q 6.78125 9.90625 6.78125 20.515625 
Q 6.78125 27.484375 10.78125 32.3125 
Q 14.796875 37.15625 21.921875 38.8125 
z
M 18.3125 54.390625 
Q 18.3125 48.734375 21.84375 45.5625 
Q 25.390625 42.390625 31.78125 42.390625 
Q 38.140625 42.390625 41.71875 45.5625 
Q 45.3125 48.734375 45.3125 54.390625 
Q 45.3125 60.0625 41.71875 63.234375 
Q 38.140625 66.40625 31.78125 66.40625 
Q 25.390625 66.40625 21.84375 63.234375 
Q 18.3125 60.0625 18.3125 54.390625 
z
" id="DejaVuSans-38"/>
      </defs>
      <g transform="translate(368.734998 267.163792)scale(0.1 -0.1)">
       <use xlink:href="#DejaVuSans-38"/>
      </g>
     </g>
    </g>
    <g id="xtick_10">
     <g id="line2d_19">
      <path clip-path="url(#p77d9d3fd75)" d="M 410.082319 256.065354 
L 410.082319 5.354646 
" style="fill:none;stroke:#000000;stroke-linecap:square;stroke-opacity:0.1;stroke-width:0.5;"/>
     </g>
     <g id="line2d_20">
      <g>
       <use style="stroke:#000000;stroke-width:0.8;" x="410.082319" xlink:href="#m126d3faf93" y="256.065354"/>
      </g>
     </g>
     <g id="text_10">
      <!-- 9 -->
      <defs>
       <path d="M 10.984375 1.515625 
L 10.984375 10.5 
Q 14.703125 8.734375 18.5 7.8125 
Q 22.3125 6.890625 25.984375 6.890625 
Q 35.75 6.890625 40.890625 13.453125 
Q 46.046875 20.015625 46.78125 33.40625 
Q 43.953125 29.203125 39.59375 26.953125 
Q 35.25 24.703125 29.984375 24.703125 
Q 19.046875 24.703125 12.671875 31.3125 
Q 6.296875 37.9375 6.296875 49.421875 
Q 6.296875 60.640625 12.9375 67.421875 
Q 19.578125 74.21875 30.609375 74.21875 
Q 43.265625 74.21875 49.921875 64.515625 
Q 56.59375 54.828125 56.59375 36.375 
Q 56.59375 19.140625 48.40625 8.859375 
Q 40.234375 -1.421875 26.421875 -1.421875 
Q 22.703125 -1.421875 18.890625 -0.6875 
Q 15.09375 0.046875 10.984375 1.515625 
z
M 30.609375 32.421875 
Q 37.25 32.421875 41.125 36.953125 
Q 45.015625 41.5 45.015625 49.421875 
Q 45.015625 57.28125 41.125 61.84375 
Q 37.25 66.40625 30.609375 66.40625 
Q 23.96875 66.40625 20.09375 61.84375 
Q 16.21875 57.28125 16.21875 49.421875 
Q 16.21875 41.5 20.09375 36.953125 
Q 23.96875 32.421875 30.609375 32.421875 
z
" id="DejaVuSans-39"/>
      </defs>
      <g transform="translate(406.901069 267.163792)scale(0.1 -0.1)">
       <use xlink:href="#DejaVuSans-39"/>
      </g>
     </g>
    </g>
    <g id="text_11">
     <!-- Time since earthquake (hour) -->
     <defs>
      <path d="M -0.296875 72.90625 
L 61.375 72.90625 
L 61.375 64.59375 
L 35.5 64.59375 
L 35.5 0 
L 25.59375 0 
L 25.59375 64.59375 
L -0.296875 64.59375 
z
" id="DejaVuSans-54"/>
      <path d="M 9.421875 54.6875 
L 18.40625 54.6875 
L 18.40625 0 
L 9.421875 0 
z
M 9.421875 75.984375 
L 18.40625 75.984375 
L 18.40625 64.59375 
L 9.421875 64.59375 
z
" id="DejaVuSans-69"/>
      <path d="M 52 44.1875 
Q 55.375 50.25 60.0625 53.125 
Q 64.75 56 71.09375 56 
Q 79.640625 56 84.28125 50.015625 
Q 88.921875 44.046875 88.921875 33.015625 
L 88.921875 0 
L 79.890625 0 
L 79.890625 32.71875 
Q 79.890625 40.578125 77.09375 44.375 
Q 74.3125 48.1875 68.609375 48.1875 
Q 61.625 48.1875 57.5625 43.546875 
Q 53.515625 38.921875 53.515625 30.90625 
L 53.515625 0 
L 44.484375 0 
L 44.484375 32.71875 
Q 44.484375 40.625 41.703125 44.40625 
Q 38.921875 48.1875 33.109375 48.1875 
Q 26.21875 48.1875 22.15625 43.53125 
Q 18.109375 38.875 18.109375 30.90625 
L 18.109375 0 
L 9.078125 0 
L 9.078125 54.6875 
L 18.109375 54.6875 
L 18.109375 46.1875 
Q 21.1875 51.21875 25.484375 53.609375 
Q 29.78125 56 35.6875 56 
Q 41.65625 56 45.828125 52.96875 
Q 50 49.953125 52 44.1875 
z
" id="DejaVuSans-6d"/>
      <path d="M 56.203125 29.59375 
L 56.203125 25.203125 
L 14.890625 25.203125 
Q 15.484375 15.921875 20.484375 11.0625 
Q 25.484375 6.203125 34.421875 6.203125 
Q 39.59375 6.203125 44.453125 7.46875 
Q 49.3125 8.734375 54.109375 11.28125 
L 54.109375 2.78125 
Q 49.265625 0.734375 44.1875 -0.34375 
Q 39.109375 -1.421875 33.890625 -1.421875 
Q 20.796875 -1.421875 13.15625 6.1875 
Q 5.515625 13.8125 5.515625 26.8125 
Q 5.515625 40.234375 12.765625 48.109375 
Q 20.015625 56 32.328125 56 
Q 43.359375 56 49.78125 48.890625 
Q 56.203125 41.796875 56.203125 29.59375 
z
M 47.21875 32.234375 
Q 47.125 39.59375 43.09375 43.984375 
Q 39.0625 48.390625 32.421875 48.390625 
Q 24.90625 48.390625 20.390625 44.140625 
Q 15.875 39.890625 15.1875 32.171875 
z
" id="DejaVuSans-65"/>
      <path id="DejaVuSans-20"/>
      <path d="M 44.28125 53.078125 
L 44.28125 44.578125 
Q 40.484375 46.53125 36.375 47.5 
Q 32.28125 48.484375 27.875 48.484375 
Q 21.1875 48.484375 17.84375 46.4375 
Q 14.5 44.390625 14.5 40.28125 
Q 14.5 37.15625 16.890625 35.375 
Q 19.28125 33.59375 26.515625 31.984375 
L 29.59375 31.296875 
Q 39.15625 29.25 43.1875 25.515625 
Q 47.21875 21.78125 47.21875 15.09375 
Q 47.21875 7.46875 41.1875 3.015625 
Q 35.15625 -1.421875 24.609375 -1.421875 
Q 20.21875 -1.421875 15.453125 -0.5625 
Q 10.6875 0.296875 5.421875 2 
L 5.421875 11.28125 
Q 10.40625 8.6875 15.234375 7.390625 
Q 20.0625 6.109375 24.8125 6.109375 
Q 31.15625 6.109375 34.5625 8.28125 
Q 37.984375 10.453125 37.984375 14.40625 
Q 37.984375 18.0625 35.515625 20.015625 
Q 33.0625 21.96875 24.703125 23.78125 
L 21.578125 24.515625 
Q 13.234375 26.265625 9.515625 29.90625 
Q 5.8125 33.546875 5.8125 39.890625 
Q 5.8125 47.609375 11.28125 51.796875 
Q 16.75 56 26.8125 56 
Q 31.78125 56 36.171875 55.265625 
Q 40.578125 54.546875 44.28125 53.078125 
z
" id="DejaVuSans-73"/>
      <path d="M 54.890625 33.015625 
L 54.890625 0 
L 45.90625 0 
L 45.90625 32.71875 
Q 45.90625 40.484375 42.875 44.328125 
Q 39.84375 48.1875 33.796875 48.1875 
Q 26.515625 48.1875 22.3125 43.546875 
Q 18.109375 38.921875 18.109375 30.90625 
L 18.109375 0 
L 9.078125 0 
L 9.078125 54.6875 
L 18.109375 54.6875 
L 18.109375 46.1875 
Q 21.34375 51.125 25.703125 53.5625 
Q 30.078125 56 35.796875 56 
Q 45.21875 56 50.046875 50.171875 
Q 54.890625 44.34375 54.890625 33.015625 
z
" id="DejaVuSans-6e"/>
      <path d="M 48.78125 52.59375 
L 48.78125 44.1875 
Q 44.96875 46.296875 41.140625 47.34375 
Q 37.3125 48.390625 33.40625 48.390625 
Q 24.65625 48.390625 19.8125 42.84375 
Q 14.984375 37.3125 14.984375 27.296875 
Q 14.984375 17.28125 19.8125 11.734375 
Q 24.65625 6.203125 33.40625 6.203125 
Q 37.3125 6.203125 41.140625 7.25 
Q 44.96875 8.296875 48.78125 10.40625 
L 48.78125 2.09375 
Q 45.015625 0.34375 40.984375 -0.53125 
Q 36.96875 -1.421875 32.421875 -1.421875 
Q 20.0625 -1.421875 12.78125 6.34375 
Q 5.515625 14.109375 5.515625 27.296875 
Q 5.515625 40.671875 12.859375 48.328125 
Q 20.21875 56 33.015625 56 
Q 37.15625 56 41.109375 55.140625 
Q 45.0625 54.296875 48.78125 52.59375 
z
" id="DejaVuSans-63"/>
      <path d="M 34.28125 27.484375 
Q 23.390625 27.484375 19.1875 25 
Q 14.984375 22.515625 14.984375 16.5 
Q 14.984375 11.71875 18.140625 8.90625 
Q 21.296875 6.109375 26.703125 6.109375 
Q 34.1875 6.109375 38.703125 11.40625 
Q 43.21875 16.703125 43.21875 25.484375 
L 43.21875 27.484375 
z
M 52.203125 31.203125 
L 52.203125 0 
L 43.21875 0 
L 43.21875 8.296875 
Q 40.140625 3.328125 35.546875 0.953125 
Q 30.953125 -1.421875 24.3125 -1.421875 
Q 15.921875 -1.421875 10.953125 3.296875 
Q 6 8.015625 6 15.921875 
Q 6 25.140625 12.171875 29.828125 
Q 18.359375 34.515625 30.609375 34.515625 
L 43.21875 34.515625 
L 43.21875 35.40625 
Q 43.21875 41.609375 39.140625 45 
Q 35.0625 48.390625 27.6875 48.390625 
Q 23 48.390625 18.546875 47.265625 
Q 14.109375 46.140625 10.015625 43.890625 
L 10.015625 52.203125 
Q 14.9375 54.109375 19.578125 55.046875 
Q 24.21875 56 28.609375 56 
Q 40.484375 56 46.34375 49.84375 
Q 52.203125 43.703125 52.203125 31.203125 
z
" id="DejaVuSans-61"/>
      <path d="M 41.109375 46.296875 
Q 39.59375 47.171875 37.8125 47.578125 
Q 36.03125 48 33.890625 48 
Q 26.265625 48 22.1875 43.046875 
Q 18.109375 38.09375 18.109375 28.8125 
L 18.109375 0 
L 9.078125 0 
L 9.078125 54.6875 
L 18.109375 54.6875 
L 18.109375 46.1875 
Q 20.953125 51.171875 25.484375 53.578125 
Q 30.03125 56 36.53125 56 
Q 37.453125 56 38.578125 55.875 
Q 39.703125 55.765625 41.0625 55.515625 
z
" id="DejaVuSans-72"/>
      <path d="M 18.3125 70.21875 
L 18.3125 54.6875 
L 36.8125 54.6875 
L 36.8125 47.703125 
L 18.3125 47.703125 
L 18.3125 18.015625 
Q 18.3125 11.328125 20.140625 9.421875 
Q 21.96875 7.515625 27.59375 7.515625 
L 36.8125 7.515625 
L 36.8125 0 
L 27.59375 0 
Q 17.1875 0 13.234375 3.875 
Q 9.28125 7.765625 9.28125 18.015625 
L 9.28125 47.703125 
L 2.6875 47.703125 
L 2.6875 54.6875 
L 9.28125 54.6875 
L 9.28125 70.21875 
z
" id="DejaVuSans-74"/>
      <path d="M 54.890625 33.015625 
L 54.890625 0 
L 45.90625 0 
L 45.90625 32.71875 
Q 45.90625 40.484375 42.875 44.328125 
Q 39.84375 48.1875 33.796875 48.1875 
Q 26.515625 48.1875 22.3125 43.546875 
Q 18.109375 38.921875 18.109375 30.90625 
L 18.109375 0 
L 9.078125 0 
L 9.078125 75.984375 
L 18.109375 75.984375 
L 18.109375 46.1875 
Q 21.34375 51.125 25.703125 53.5625 
Q 30.078125 56 35.796875 56 
Q 45.21875 56 50.046875 50.171875 
Q 54.890625 44.34375 54.890625 33.015625 
z
" id="DejaVuSans-68"/>
      <path d="M 14.796875 27.296875 
Q 14.796875 17.390625 18.875 11.75 
Q 22.953125 6.109375 30.078125 6.109375 
Q 37.203125 6.109375 41.296875 11.75 
Q 45.40625 17.390625 45.40625 27.296875 
Q 45.40625 37.203125 41.296875 42.84375 
Q 37.203125 48.484375 30.078125 48.484375 
Q 22.953125 48.484375 18.875 42.84375 
Q 14.796875 37.203125 14.796875 27.296875 
z
M 45.40625 8.203125 
Q 42.578125 3.328125 38.25 0.953125 
Q 33.9375 -1.421875 27.875 -1.421875 
Q 17.96875 -1.421875 11.734375 6.484375 
Q 5.515625 14.40625 5.515625 27.296875 
Q 5.515625 40.1875 11.734375 48.09375 
Q 17.96875 56 27.875 56 
Q 33.9375 56 38.25 53.625 
Q 42.578125 51.265625 45.40625 46.390625 
L 45.40625 54.6875 
L 54.390625 54.6875 
L 54.390625 -20.796875 
L 45.40625 -20.796875 
z
" id="DejaVuSans-71"/>
      <path d="M 8.5 21.578125 
L 8.5 54.6875 
L 17.484375 54.6875 
L 17.484375 21.921875 
Q 17.484375 14.15625 20.5 10.265625 
Q 23.53125 6.390625 29.59375 6.390625 
Q 36.859375 6.390625 41.078125 11.03125 
Q 45.3125 15.671875 45.3125 23.6875 
L 45.3125 54.6875 
L 54.296875 54.6875 
L 54.296875 0 
L 45.3125 0 
L 45.3125 8.40625 
Q 42.046875 3.421875 37.71875 1 
Q 33.40625 -1.421875 27.6875 -1.421875 
Q 18.265625 -1.421875 13.375 4.4375 
Q 8.5 10.296875 8.5 21.578125 
z
M 31.109375 56 
z
" id="DejaVuSans-75"/>
      <path d="M 9.078125 75.984375 
L 18.109375 75.984375 
L 18.109375 31.109375 
L 44.921875 54.6875 
L 56.390625 54.6875 
L 27.390625 29.109375 
L 57.625 0 
L 45.90625 0 
L 18.109375 26.703125 
L 18.109375 0 
L 9.078125 0 
z
" id="DejaVuSans-6b"/>
      <path d="M 31 75.875 
Q 24.46875 64.65625 21.28125 53.65625 
Q 18.109375 42.671875 18.109375 31.390625 
Q 18.109375 20.125 21.3125 9.0625 
Q 24.515625 -2 31 -13.1875 
L 23.1875 -13.1875 
Q 15.875 -1.703125 12.234375 9.375 
Q 8.59375 20.453125 8.59375 31.390625 
Q 8.59375 42.28125 12.203125 53.3125 
Q 15.828125 64.359375 23.1875 75.875 
z
" id="DejaVuSans-28"/>
      <path d="M 30.609375 48.390625 
Q 23.390625 48.390625 19.1875 42.75 
Q 14.984375 37.109375 14.984375 27.296875 
Q 14.984375 17.484375 19.15625 11.84375 
Q 23.34375 6.203125 30.609375 6.203125 
Q 37.796875 6.203125 41.984375 11.859375 
Q 46.1875 17.53125 46.1875 27.296875 
Q 46.1875 37.015625 41.984375 42.703125 
Q 37.796875 48.390625 30.609375 48.390625 
z
M 30.609375 56 
Q 42.328125 56 49.015625 48.375 
Q 55.71875 40.765625 55.71875 27.296875 
Q 55.71875 13.875 49.015625 6.21875 
Q 42.328125 -1.421875 30.609375 -1.421875 
Q 18.84375 -1.421875 12.171875 6.21875 
Q 5.515625 13.875 5.515625 27.296875 
Q 5.515625 40.765625 12.171875 48.375 
Q 18.84375 56 30.609375 56 
z
" id="DejaVuSans-6f"/>
      <path d="M 8.015625 75.875 
L 15.828125 75.875 
Q 23.140625 64.359375 26.78125 53.3125 
Q 30.421875 42.28125 30.421875 31.390625 
Q 30.421875 20.453125 26.78125 9.375 
Q 23.140625 -1.703125 15.828125 -13.1875 
L 8.015625 -13.1875 
Q 14.5 -2 17.703125 9.0625 
Q 20.90625 20.125 20.90625 31.390625 
Q 20.90625 42.671875 17.703125 53.65625 
Q 14.5 64.65625 8.015625 75.875 
z
" id="DejaVuSans-29"/>
     </defs>
     <g transform="translate(149.296875 282.361604)scale(0.12 -0.12)">
      <use xlink:href="#DejaVuSans-54"/>
      <use x="61.037109" xlink:href="#DejaVuSans-69"/>
      <use x="88.820312" xlink:href="#DejaVuSans-6d"/>
      <use x="186.232422" xlink:href="#DejaVuSans-65"/>
      <use x="247.755859" xlink:href="#DejaVuSans-20"/>
      <use x="279.542969" xlink:href="#DejaVuSans-73"/>
      <use x="331.642578" xlink:href="#DejaVuSans-69"/>
      <use x="359.425781" xlink:href="#DejaVuSans-6e"/>
      <use x="422.804688" xlink:href="#DejaVuSans-63"/>
      <use x="477.785156" xlink:href="#DejaVuSans-65"/>
      <use x="539.308594" xlink:href="#DejaVuSans-20"/>
      <use x="571.095703" xlink:href="#DejaVuSans-65"/>
      <use x="632.619141" xlink:href="#DejaVuSans-61"/>
      <use x="693.898438" xlink:href="#DejaVuSans-72"/>
      <use x="735.011719" xlink:href="#DejaVuSans-74"/>
      <use x="774.220703" xlink:href="#DejaVuSans-68"/>
      <use x="837.599609" xlink:href="#DejaVuSans-71"/>
      <use x="901.076172" xlink:href="#DejaVuSans-75"/>
      <use x="964.455078" xlink:href="#DejaVuSans-61"/>
      <use x="1025.734375" xlink:href="#DejaVuSans-6b"/>
      <use x="1083.597656" xlink:href="#DejaVuSans-65"/>
      <use x="1145.121094" xlink:href="#DejaVuSans-20"/>
      <use x="1176.908203" xlink:href="#DejaVuSans-28"/>
      <use x="1215.921875" xlink:href="#DejaVuSans-68"/>
      <use x="1279.300781" xlink:href="#DejaVuSans-6f"/>
      <use x="1340.482422" xlink:href="#DejaVuSans-75"/>
      <use x="1403.861328" xlink:href="#DejaVuSans-72"/>
      <use x="1444.974609" xlink:href="#DejaVuSans-29"/>
     </g>
    </g>
   </g>
   <g id="matplotlib.axis_2">
    <g id="ytick_1">
     <g id="line2d_21">
      <path clip-path="url(#p77d9d3fd75)" d="M 47.504646 224.726516 
L 429.165354 224.726516 
" style="fill:none;stroke:#000000;stroke-linecap:square;stroke-opacity:0.1;stroke-width:0.5;"/>
     </g>
     <g id="line2d_22">
      <defs>
       <path d="M 0 0 
L 3.5 0 
" id="m7df42101af" style="stroke:#000000;stroke-width:0.8;"/>
      </defs>
      <g>
       <use style="stroke:#000000;stroke-width:0.8;" x="47.504646" xlink:href="#m7df42101af" y="224.726516"/>
      </g>
     </g>
     <g id="text_12">
      <!-- -0.10 -->
      <defs>
       <path d="M 4.890625 31.390625 
L 31.203125 31.390625 
L 31.203125 23.390625 
L 4.890625 23.390625 
z
" id="DejaVuSans-2d"/>
       <path d="M 10.6875 12.40625 
L 21 12.40625 
L 21 0 
L 10.6875 0 
z
" id="DejaVuSans-2e"/>
      </defs>
      <g transform="translate(18.131208 228.525734)scale(0.1 -0.1)">
       <use xlink:href="#DejaVuSans-2d"/>
       <use x="36.083984" xlink:href="#DejaVuSans-30"/>
       <use x="99.707031" xlink:href="#DejaVuSans-2e"/>
       <use x="131.494141" xlink:href="#DejaVuSans-31"/>
       <use x="195.117188" xlink:href="#DejaVuSans-30"/>
      </g>
     </g>
    </g>
    <g id="ytick_2">
     <g id="line2d_23">
      <path clip-path="url(#p77d9d3fd75)" d="M 47.504646 193.387677 
L 429.165354 193.387677 
" style="fill:none;stroke:#000000;stroke-linecap:square;stroke-opacity:0.1;stroke-width:0.5;"/>
     </g>
     <g id="line2d_24">
      <g>
       <use style="stroke:#000000;stroke-width:0.8;" x="47.504646" xlink:href="#m7df42101af" y="193.387677"/>
      </g>
     </g>
     <g id="text_13">
      <!-- -0.05 -->
      <g transform="translate(18.131208 197.186896)scale(0.1 -0.1)">
       <use xlink:href="#DejaVuSans-2d"/>
       <use x="36.083984" xlink:href="#DejaVuSans-30"/>
       <use x="99.707031" xlink:href="#DejaVuSans-2e"/>
       <use x="131.494141" xlink:href="#DejaVuSans-30"/>
       <use x="195.117188" xlink:href="#DejaVuSans-35"/>
      </g>
     </g>
    </g>
    <g id="ytick_3">
     <g id="line2d_25">
      <path clip-path="url(#p77d9d3fd75)" d="M 47.504646 162.048839 
L 429.165354 162.048839 
" style="fill:none;stroke:#000000;stroke-linecap:square;stroke-opacity:0.1;stroke-width:0.5;"/>
     </g>
     <g id="line2d_26">
      <g>
       <use style="stroke:#000000;stroke-width:0.8;" x="47.504646" xlink:href="#m7df42101af" y="162.048839"/>
      </g>
     </g>
     <g id="text_14">
      <!-- 0.00 -->
      <g transform="translate(21.739021 165.848057)scale(0.1 -0.1)">
       <use xlink:href="#DejaVuSans-30"/>
       <use x="63.623047" xlink:href="#DejaVuSans-2e"/>
       <use x="95.410156" xlink:href="#DejaVuSans-30"/>
       <use x="159.033203" xlink:href="#DejaVuSans-30"/>
      </g>
     </g>
    </g>
    <g id="ytick_4">
     <g id="line2d_27">
      <path clip-path="url(#p77d9d3fd75)" d="M 47.504646 130.71 
L 429.165354 130.71 
" style="fill:none;stroke:#000000;stroke-linecap:square;stroke-opacity:0.1;stroke-width:0.5;"/>
     </g>
     <g id="line2d_28">
      <g>
       <use style="stroke:#000000;stroke-width:0.8;" x="47.504646" xlink:href="#m7df42101af" y="130.71"/>
      </g>
     </g>
     <g id="text_15">
      <!-- 0.05 -->
      <g transform="translate(21.739021 134.509219)scale(0.1 -0.1)">
       <use xlink:href="#DejaVuSans-30"/>
       <use x="63.623047" xlink:href="#DejaVuSans-2e"/>
       <use x="95.410156" xlink:href="#DejaVuSans-30"/>
       <use x="159.033203" xlink:href="#DejaVuSans-35"/>
      </g>
     </g>
    </g>
    <g id="ytick_5">
     <g id="line2d_29">
      <path clip-path="url(#p77d9d3fd75)" d="M 47.504646 99.371161 
L 429.165354 99.371161 
" style="fill:none;stroke:#000000;stroke-linecap:square;stroke-opacity:0.1;stroke-width:0.5;"/>
     </g>
     <g id="line2d_30">
      <g>
       <use style="stroke:#000000;stroke-width:0.8;" x="47.504646" xlink:href="#m7df42101af" y="99.371161"/>
      </g>
     </g>
     <g id="text_16">
      <!-- 0.10 -->
      <g transform="translate(21.739021 103.17038)scale(0.1 -0.1)">
       <use xlink:href="#DejaVuSans-30"/>
       <use x="63.623047" xlink:href="#DejaVuSans-2e"/>
       <use x="95.410156" xlink:href="#DejaVuSans-31"/>
       <use x="159.033203" xlink:href="#DejaVuSans-30"/>
      </g>
     </g>
    </g>
    <g id="ytick_6">
     <g id="line2d_31">
      <path clip-path="url(#p77d9d3fd75)" d="M 47.504646 68.032323 
L 429.165354 68.032323 
" style="fill:none;stroke:#000000;stroke-linecap:square;stroke-opacity:0.1;stroke-width:0.5;"/>
     </g>
     <g id="line2d_32">
      <g>
       <use style="stroke:#000000;stroke-width:0.8;" x="47.504646" xlink:href="#m7df42101af" y="68.032323"/>
      </g>
     </g>
     <g id="text_17">
      <!-- 0.15 -->
      <g transform="translate(21.739021 71.831542)scale(0.1 -0.1)">
       <use xlink:href="#DejaVuSans-30"/>
       <use x="63.623047" xlink:href="#DejaVuSans-2e"/>
       <use x="95.410156" xlink:href="#DejaVuSans-31"/>
       <use x="159.033203" xlink:href="#DejaVuSans-35"/>
      </g>
     </g>
    </g>
    <g id="ytick_7">
     <g id="line2d_33">
      <path clip-path="url(#p77d9d3fd75)" d="M 47.504646 36.693484 
L 429.165354 36.693484 
" style="fill:none;stroke:#000000;stroke-linecap:square;stroke-opacity:0.1;stroke-width:0.5;"/>
     </g>
     <g id="line2d_34">
      <g>
       <use style="stroke:#000000;stroke-width:0.8;" x="47.504646" xlink:href="#m7df42101af" y="36.693484"/>
      </g>
     </g>
     <g id="text_18">
      <!-- 0.20 -->
      <g transform="translate(21.739021 40.492703)scale(0.1 -0.1)">
       <use xlink:href="#DejaVuSans-30"/>
       <use x="63.623047" xlink:href="#DejaVuSans-2e"/>
       <use x="95.410156" xlink:href="#DejaVuSans-32"/>
       <use x="159.033203" xlink:href="#DejaVuSans-30"/>
      </g>
     </g>
    </g>
    <g id="ytick_8">
     <g id="line2d_35">
      <path clip-path="url(#p77d9d3fd75)" d="M 47.504646 5.354646 
L 429.165354 5.354646 
" style="fill:none;stroke:#000000;stroke-linecap:square;stroke-opacity:0.1;stroke-width:0.5;"/>
     </g>
     <g id="line2d_36">
      <g>
       <use style="stroke:#000000;stroke-width:0.8;" x="47.504646" xlink:href="#m7df42101af" y="5.354646"/>
      </g>
     </g>
     <g id="text_19">
      <!-- 0.25 -->
      <g transform="translate(21.739021 9.153864)scale(0.1 -0.1)">
       <use xlink:href="#DejaVuSans-30"/>
       <use x="63.623047" xlink:href="#DejaVuSans-2e"/>
       <use x="95.410156" xlink:href="#DejaVuSans-32"/>
       <use x="159.033203" xlink:href="#DejaVuSans-35"/>
      </g>
     </g>
    </g>
    <g id="text_20">
     <!-- Amplitude (m) -->
     <defs>
      <path d="M 34.1875 63.1875 
L 20.796875 26.90625 
L 47.609375 26.90625 
z
M 28.609375 72.90625 
L 39.796875 72.90625 
L 67.578125 0 
L 57.328125 0 
L 50.6875 18.703125 
L 17.828125 18.703125 
L 11.1875 0 
L 0.78125 0 
z
" id="DejaVuSans-41"/>
      <path d="M 18.109375 8.203125 
L 18.109375 -20.796875 
L 9.078125 -20.796875 
L 9.078125 54.6875 
L 18.109375 54.6875 
L 18.109375 46.390625 
Q 20.953125 51.265625 25.265625 53.625 
Q 29.59375 56 35.59375 56 
Q 45.5625 56 51.78125 48.09375 
Q 58.015625 40.1875 58.015625 27.296875 
Q 58.015625 14.40625 51.78125 6.484375 
Q 45.5625 -1.421875 35.59375 -1.421875 
Q 29.59375 -1.421875 25.265625 0.953125 
Q 20.953125 3.328125 18.109375 8.203125 
z
M 48.6875 27.296875 
Q 48.6875 37.203125 44.609375 42.84375 
Q 40.53125 48.484375 33.40625 48.484375 
Q 26.265625 48.484375 22.1875 42.84375 
Q 18.109375 37.203125 18.109375 27.296875 
Q 18.109375 17.390625 22.1875 11.75 
Q 26.265625 6.109375 33.40625 6.109375 
Q 40.53125 6.109375 44.609375 11.75 
Q 48.6875 17.390625 48.6875 27.296875 
z
" id="DejaVuSans-70"/>
      <path d="M 9.421875 75.984375 
L 18.40625 75.984375 
L 18.40625 0 
L 9.421875 0 
z
" id="DejaVuSans-6c"/>
      <path d="M 45.40625 46.390625 
L 45.40625 75.984375 
L 54.390625 75.984375 
L 54.390625 0 
L 45.40625 0 
L 45.40625 8.203125 
Q 42.578125 3.328125 38.25 0.953125 
Q 33.9375 -1.421875 27.875 -1.421875 
Q 17.96875 -1.421875 11.734375 6.484375 
Q 5.515625 14.40625 5.515625 27.296875 
Q 5.515625 40.1875 11.734375 48.09375 
Q 17.96875 56 27.875 56 
Q 33.9375 56 38.25 53.625 
Q 42.578125 51.265625 45.40625 46.390625 
z
M 14.796875 27.296875 
Q 14.796875 17.390625 18.875 11.75 
Q 22.953125 6.109375 30.078125 6.109375 
Q 37.203125 6.109375 41.296875 11.75 
Q 45.40625 17.390625 45.40625 27.296875 
Q 45.40625 37.203125 41.296875 42.84375 
Q 37.203125 48.484375 30.078125 48.484375 
Q 22.953125 48.484375 18.875 42.84375 
Q 14.796875 37.203125 14.796875 27.296875 
z
" id="DejaVuSans-64"/>
     </defs>
     <g transform="translate(11.635583 173.890312)rotate(-90)scale(0.12 -0.12)">
      <use xlink:href="#DejaVuSans-41"/>
      <use x="68.408203" xlink:href="#DejaVuSans-6d"/>
      <use x="165.820312" xlink:href="#DejaVuSans-70"/>
      <use x="229.296875" xlink:href="#DejaVuSans-6c"/>
      <use x="257.080078" xlink:href="#DejaVuSans-69"/>
      <use x="284.863281" xlink:href="#DejaVuSans-74"/>
      <use x="324.072266" xlink:href="#DejaVuSans-75"/>
      <use x="387.451172" xlink:href="#DejaVuSans-64"/>
      <use x="450.927734" xlink:href="#DejaVuSans-65"/>
      <use x="512.451172" xlink:href="#DejaVuSans-20"/>
      <use x="544.238281" xlink:href="#DejaVuSans-28"/>
      <use x="583.251953" xlink:href="#DejaVuSans-6d"/>
      <use x="680.664062" xlink:href="#DejaVuSans-29"/>
     </g>
    </g>
   </g>
   <g id="line2d_37">
    <path clip-path="url(#p77d9d3fd75)" d="M 66.587681 162.048839 
L 157.09292 162.154901 
L 160.498553 162.363159 
L 172.345386 163.39585 
L 175.792896 163.332266 
L 178.453389 163.048324 
L 179.957662 162.668355 
L 180.709852 162.300223 
L 181.468933 161.67302 
L 182.235117 160.604704 
L 183.001194 158.858985 
L 183.767272 156.139558 
L 184.533456 152.118244 
L 185.299534 146.475573 
L 186.065612 138.958514 
L 186.831796 129.452028 
L 187.980912 111.747878 
L 191.428475 54.064289 
L 192.194553 46.550865 
L 192.577592 44.239187 
L 192.960631 42.882153 
L 193.343669 42.295678 
L 193.726814 42.292293 
L 194.109853 42.588132 
L 194.492892 43.211712 
L 194.875931 44.229974 
L 195.25897 45.773286 
L 196.025154 50.436568 
L 196.784235 56.83646 
L 197.912466 68.361631 
L 200.935007 102.559963 
L 202.850308 126.045483 
L 205.148647 157.55122 
L 207.830026 194.477304 
L 208.979249 208.027497 
L 210.128365 219.137015 
L 210.894549 224.979796 
L 211.660627 229.518914 
L 212.426705 232.719863 
L 212.80985 233.795349 
L 213.192889 234.519527 
L 213.575928 234.914396 
L 213.958967 235.073033 
L 214.725044 234.926305 
L 215.491228 234.405641 
L 216.243312 233.318936 
L 216.995502 231.486491 
L 217.747691 228.864621 
L 218.499775 225.486357 
L 219.635003 219.20581 
L 221.167265 209.19322 
L 224.997867 183.284173 
L 226.146983 176.955069 
L 227.391939 171.429186 
L 228.34959 168.249109 
L 229.30724 166.148122 
L 229.786012 165.522893 
L 230.26489 165.145127 
L 231.126701 164.872728 
L 231.892885 164.907018 
L 232.658963 165.268898 
L 233.616613 166.1876 
L 234.950306 168.039905 
L 236.830727 170.711815 
L 237.958958 171.677327 
L 238.813772 172.090523 
L 239.29265 172.055718 
L 239.771422 171.752089 
L 240.250301 171.211557 
L 241.207951 169.478412 
L 242.165601 166.964472 
L 243.123252 163.860765 
L 244.080902 160.201246 
L 245.517324 153.410526 
L 247.911397 140.273047 
L 249.347926 132.627097 
L 250.30547 128.239685 
L 251.26312 124.62233 
L 252.220771 121.768465 
L 253.178421 119.788603 
L 254.127378 118.597501 
L 254.597457 118.163045 
L 255.067536 117.901259 
L 255.537614 117.93827 
L 256.007799 118.361319 
L 256.477878 119.103812 
L 257.418035 121.318251 
L 258.375686 124.330114 
L 259.333336 128.016966 
L 260.769759 134.760802 
L 262.685059 145.441661 
L 268.909733 182.140876 
L 269.867384 186.242366 
L 270.824928 189.27594 
L 271.782578 191.283186 
L 272.261456 191.946228 
L 273.210307 192.746259 
L 274.150571 193.237771 
L 274.62065 193.346141 
L 275.090729 193.247812 
L 275.560913 192.910531 
L 276.501071 191.764802 
L 277.937493 189.439711 
L 279.852794 185.827145 
L 281.289216 183.162773 
L 282.246867 181.732751 
L 283.204517 180.731437 
L 284.162167 180.192177 
L 284.64094 180.110226 
L 285.119712 180.172985 
L 285.59859 180.389756 
L 287.035012 181.538469 
L 288.471435 182.503811 
L 293.2335 184.720232 
L 294.173764 184.915868 
L 295.114028 184.835007 
L 295.584106 184.629757 
L 296.062878 184.240911 
L 297.020529 183.048556 
L 297.978179 181.315267 
L 298.935829 179.063923 
L 300.372252 175.088089 
L 302.287553 169.175234 
L 304.202853 162.547301 
L 307.075804 152.322385 
L 308.512227 148.112388 
L 309.469877 145.863482 
L 310.427527 144.073708 
L 311.376484 142.767881 
L 312.316642 141.931648 
L 312.786721 141.728084 
L 313.256799 141.746003 
L 314.197063 142.200567 
L 315.145914 142.93058 
L 316.103564 143.992102 
L 317.061215 145.343921 
L 318.018865 147.018487 
L 318.976515 149.094428 
L 320.412938 152.995788 
L 324.243539 164.670512 
L 325.679961 167.92449 
L 326.637612 169.546875 
L 327.595262 170.762089 
L 328.552912 171.629535 
L 329.031791 171.854874 
L 329.510563 171.861261 
L 330.929599 171.286613 
L 332.339835 170.396935 
L 335.665478 168.026375 
L 336.623128 167.717815 
L 340.453623 167.461492 
L 341.890152 167.691273 
L 342.847802 168.060267 
L 343.805453 168.68972 
L 344.762997 169.642822 
L 345.720647 170.947577 
L 346.678298 172.546955 
L 347.157176 172.336721 
L 349.072476 173.553583 
L 350.952791 173.885449 
L 352.833213 171.585573 
L 356.663814 168.605532 
L 360.494309 164.501496 
L 364.324911 160.161753 
L 368.155512 156.611393 
L 371.916248 154.611286 
L 375.746849 154.388128 
L 379.577345 155.607109 
L 383.407946 157.714458 
L 387.238547 160.564827 
L 390.999283 163.657272 
L 394.829885 166.477944 
L 398.66038 168.498911 
L 402.490981 169.626219 
L 406.321583 169.919099 
L 406.321583 169.919099 
" style="fill:none;stroke:#009afa;stroke-linecap:round;"/>
   </g>
   <g id="line2d_38">
    <path clip-path="url(#p77d9d3fd75)" d="M 46.868544 164.742368 
L 48.140747 164.984757 
L 50.04905 163.484659 
L 50.685152 164.242302 
L 51.957354 163.256187 
L 52.593455 163.3926 
L 53.229556 162.903925 
L 53.865657 163.043636 
L 55.13786 162.07401 
L 57.682265 162.657639 
L 58.318366 162.179586 
L 60.226669 162.631227 
L 60.86277 162.156551 
L 61.498872 162.309293 
L 62.134973 161.209044 
L 62.771074 161.989606 
L 63.407175 161.517013 
L 64.043276 161.671516 
L 64.679378 162.453033 
L 65.95158 161.509351 
L 66.587681 161.66432 
L 67.223782 161.192427 
L 67.859883 161.973921 
L 68.495985 160.874837 
L 69.132086 161.028979 
L 69.768187 161.809489 
L 70.404288 156.94852 
L 71.040389 167.7564 
L 71.676491 154.746113 
L 72.312592 163.045505 
L 72.948693 180.118962 
L 72.948693 145.64624 
L 72.948693 254.078621 
L 73.584794 133.887074 
L 73.584794 -1 
M 73.584794 -1 
L 73.584794 289 
M 73.584794 289 
L 73.584794 -1 
M 73.788164 -1 
L 74.220895 122.753714 
L 74.220895 1.159021 
L 74.220895 190.445606 
L 74.220895 130.901812 
L 74.856996 170.53632 
L 74.856996 143.584919 
L 74.856996 215.037471 
L 75.493098 218.317795 
L 75.493098 195.127055 
L 76.129199 135.728491 
L 76.7653 164.704162 
L 77.401401 147.296982 
L 78.037502 177.523387 
L 78.673604 146.950917 
L 79.309705 173.413526 
L 79.945806 152.86619 
L 80.581907 142.972295 
L 81.218008 164.415393 
L 81.854109 157.024838 
L 82.490211 176.583683 
L 83.126312 172.949709 
L 83.762413 161.792256 
L 84.398514 153.139676 
L 85.034615 165.795195 
L 85.670717 155.257583 
L 86.306818 150.985273 
L 86.942919 166.767276 
L 87.57902 165.623686 
L 88.215121 167.611283 
L 88.851222 152.673135 
L 89.487324 160.922878 
L 90.123425 162.275153 
L 90.759526 164.877981 
L 91.395627 144.913771 
L 92.031728 167.56723 
L 92.66783 165.146395 
L 93.303931 157.081269 
L 93.940032 157.787645 
L 94.576133 162.251234 
L 95.212234 155.429321 
L 95.848335 165.526787 
L 96.484437 158.070837 
L 97.120538 158.132468 
L 97.756639 162.577726 
L 98.39274 162.631662 
L 99.028841 157.667429 
L 99.664943 163.354374 
L 100.301044 159.63557 
L 100.937145 157.166152 
L 101.573246 163.46737 
L 102.209347 159.735851 
L 102.845448 158.507061 
L 103.48155 159.154155 
L 104.117651 165.437723 
L 104.753752 160.434725 
L 105.389853 159.814512 
L 106.025954 162.95024 
L 106.662056 158.559858 
L 107.298157 161.685944 
L 107.934258 156.659011 
L 108.570359 159.775189 
L 109.20646 160.379207 
L 109.842561 162.858438 
L 110.478663 157.811164 
L 111.114764 161.533519 
L 111.750865 159.609572 
L 112.386966 159.56058 
L 113.023067 158.879374 
L 113.659169 163.206882 
L 114.29527 157.5004 
L 114.931371 164.323828 
L 115.567472 157.97926 
L 117.475776 161.4748 
L 118.111877 159.494324 
L 118.747978 161.268525 
L 119.384079 160.529576 
L 120.02018 161.664856 
L 120.656281 160.286872 
L 121.292383 160.783003 
L 121.928484 161.899639 
L 123.200686 160.353215 
L 123.836787 160.823928 
L 124.472889 163.16848 
L 125.10899 159.865496 
L 126.381192 162.014556 
L 127.017293 159.945173 
L 127.653394 161.629697 
L 129.561698 161.001241 
L 130.197799 163.911795 
L 130.8339 158.04047 
L 131.470002 165.951182 
L 132.106103 161.319259 
L 132.742204 160.44085 
L 133.378305 158.928471 
L 134.014406 163.67662 
L 134.650507 162.776494 
L 135.286609 165.002924 
L 135.92271 163.461319 
L 136.558811 163.792628 
L 137.194912 163.489702 
L 137.831013 160.04539 
L 138.467115 162.234525 
L 139.103216 162.535747 
L 139.739317 167.216781 
L 140.375418 159.354615 
L 141.011519 163.393505 
L 141.64762 163.663992 
L 142.283722 162.046368 
L 142.919823 162.301259 
L 143.555924 161.921518 
L 144.192025 162.160665 
L 144.828126 163.018664 
L 145.464228 165.122257 
L 146.73643 161.784108 
L 147.372531 163.86362 
L 148.008632 163.427934 
L 148.644733 163.610902 
L 149.280835 161.905386 
L 149.916936 164.579123 
L 150.553037 162.85721 
L 151.189138 163.007386 
L 151.825239 161.268961 
L 152.461341 162.656123 
L 153.097442 163.408184 
L 154.369644 162.380124 
L 155.005745 162.480283 
L 155.641846 160.691689 
L 156.277948 163.908861 
L 156.914049 160.22302 
L 157.55015 160.916125 
L 158.186251 162.854271 
L 158.822352 161.649999 
L 159.458454 162.944283 
L 160.094555 161.09611 
L 160.730656 162.373231 
L 161.366757 162.388191 
L 162.002858 163.021303 
L 162.638959 161.765444 
L 163.275061 161.754482 
L 163.911162 162.988402 
L 164.547263 161.706529 
L 165.183364 161.042735 
L 165.819465 162.250559 
L 166.455567 162.822884 
L 167.091668 159.625812 
L 167.727769 161.43421 
L 168.36387 161.9803 
L 168.999971 161.264072 
L 169.636072 162.419402 
L 170.272174 162.939175 
L 170.908275 161.569831 
L 171.544376 163.325577 
L 172.180477 161.938642 
L 172.816578 163.05001 
L 173.45268 161.645464 
L 174.088781 162.112437 
L 174.724882 161.943821 
L 175.360983 161.139613 
L 176.633185 162.011856 
L 177.269287 161.1812 
L 177.905388 162.222059 
L 178.541489 161.373775 
L 179.17759 163.650564 
L 179.813691 162.157886 
L 180.449793 163.163511 
L 181.085894 162.906785 
L 181.721995 163.894819 
L 182.358096 163.620513 
L 182.994197 164.590981 
L 183.630298 164.299123 
L 184.2664 165.252055 
L 184.902501 164.315903 
L 185.538602 162.744229 
L 186.174703 158.656713 
L 186.810804 151.426592 
L 187.446906 139.173545 
L 188.083007 123.777916 
L 188.719108 100.852282 
L 188.719108 91.450631 
L 189.355209 73.530541 
L 189.355209 84.185746 
L 189.355209 62.875336 
L 189.99131 46.826921 
L 189.99131 56.855349 
L 189.99131 38.052046 
L 190.627411 25.128876 
L 190.627411 32.02342 
L 190.627411 19.487885 
L 191.263513 14.704189 
L 191.263513 15.330966 
L 191.899614 19.313539 
L 192.535715 33.315953 
L 194.444019 106.610693 
L 195.08012 124.339607 
L 195.716221 135.165489 
L 196.352322 137.208031 
L 196.988423 131.720808 
L 197.624524 122.464505 
L 198.260626 121.974682 
L 198.896727 128.997809 
L 199.532828 137.266146 
L 200.168929 131.1103 
L 200.80503 117.424841 
L 201.441131 107.491779 
L 202.077233 110.712796 
L 202.713334 115.805937 
L 203.349435 112.742805 
L 203.985536 113.432189 
L 205.257739 148.005818 
L 205.89384 144.283521 
L 206.529941 135.538994 
L 207.166042 149.977227 
L 207.802143 187.598254 
L 208.438244 198.886745 
L 209.710447 160.016016 
L 210.346548 163.759672 
L 210.982649 166.242012 
L 211.61875 158.6882 
L 212.254852 161.781909 
L 212.890953 173.642848 
L 213.527054 171.707095 
L 214.163155 171.017334 
L 214.799256 194.764347 
L 215.435357 222.89132 
L 216.071459 221.552351 
L 216.70756 200.149136 
L 217.343661 196.915103 
L 217.979762 210.596743 
L 218.615863 219.883692 
L 219.251965 219.761782 
L 219.888066 205.843623 
L 220.524167 181.263148 
L 221.160268 161.063047 
L 221.796369 157.778904 
L 222.43247 167.023332 
L 223.068572 180.021507 
L 223.704673 195.519925 
L 224.340774 187.820791 
L 224.976875 166.952586 
L 225.612976 178.670066 
L 226.249078 204.796759 
L 226.885179 191.429916 
L 227.52128 166.774546 
L 228.157381 180.972846 
L 228.793482 214.594793 
L 229.429583 214.364416 
L 230.065685 182.162103 
L 230.701786 172.51749 
L 231.337887 179.162869 
L 231.973988 172.639788 
L 233.246191 213.478227 
L 233.882292 195.655081 
L 234.518393 197.882886 
L 235.154494 215.147488 
L 235.790595 190.412262 
L 236.426696 180.087181 
L 237.062798 193.573959 
L 237.698899 185.117955 
L 238.971101 184.485616 
L 239.607202 177.266767 
L 240.243304 173.803244 
L 241.515506 146.803596 
L 242.151607 147.7119 
L 242.787708 141.720591 
L 243.423809 126.32263 
L 244.059911 129.096262 
L 244.696012 121.209826 
L 245.332113 110.811489 
L 245.968214 139.268588 
L 246.604315 149.544506 
L 247.240417 150.41419 
L 247.876518 155.040022 
L 248.512619 152.76687 
L 249.14872 171.799759 
L 249.784821 171.398274 
L 250.420922 165.351575 
L 251.057024 165.568494 
L 251.693125 151.365472 
L 252.329226 160.34919 
L 252.965327 151.779231 
L 253.601428 148.846412 
L 254.23753 158.445352 
L 254.873631 149.237289 
L 255.509732 146.920146 
L 256.145833 135.824581 
L 256.781934 134.753974 
L 257.418035 141.828071 
L 258.054137 131.975881 
L 258.690238 137.789872 
L 259.326339 136.079383 
L 259.96244 125.590939 
L 260.598541 135.783128 
L 261.234643 142.83851 
L 261.870744 154.278489 
L 262.506845 150.046286 
L 263.142946 138.290081 
L 264.415148 146.735564 
L 265.05125 166.310639 
L 265.687351 165.199723 
L 266.323452 169.100747 
L 266.959553 177.387016 
L 267.595654 188.178282 
L 268.231756 202.101404 
L 268.867857 200.97994 
L 269.503958 207.377936 
L 270.140059 193.090521 
L 270.77616 187.576287 
L 271.412261 178.299783 
L 272.048363 165.261094 
L 272.684464 166.636829 
L 273.320565 151.715012 
L 273.956666 154.96845 
L 274.592767 154.460042 
L 275.228869 174.634167 
L 275.86497 184.152071 
L 276.501071 169.851529 
L 277.137172 163.698242 
L 277.773273 156.290644 
L 278.409374 166.432125 
L 279.045476 167.17137 
L 279.681577 174.177885 
L 280.317678 177.423328 
L 280.953779 185.682661 
L 281.58988 168.870687 
L 282.225981 178.383187 
L 282.862083 182.254634 
L 283.498184 179.231562 
L 284.134285 189.997691 
L 284.770386 185.721379 
L 285.406487 179.565024 
L 286.042589 187.824911 
L 286.67869 185.430058 
L 287.314791 176.141212 
L 288.586993 162.579744 
L 289.223094 170.842835 
L 289.859196 172.212286 
L 290.495297 178.596945 
L 291.131398 181.848803 
L 291.767499 166.925305 
L 292.4036 165.165379 
L 293.039702 167.794238 
L 293.675803 150.367678 
L 294.311904 154.87983 
L 294.948005 153.752604 
L 295.584106 154.507412 
L 296.220207 138.341038 
L 296.856309 149.127945 
L 297.49241 156.782937 
L 298.128511 156.291888 
L 298.764612 172.09918 
L 299.400713 165.344743 
L 300.036815 159.846182 
L 300.672916 161.871353 
L 301.309017 160.76514 
L 301.945118 161.541845 
L 302.581219 159.814118 
L 303.21732 169.997915 
L 303.853422 164.515144 
L 304.489523 165.303082 
L 305.125624 172.988592 
L 305.761725 164.381022 
L 306.397826 152.015995 
L 307.033928 142.788144 
L 307.670029 152.99375 
L 308.30613 152.547618 
L 308.942231 147.090825 
L 309.578332 138.503788 
L 310.214433 141.202461 
L 311.486636 154.759433 
L 312.122737 153.709146 
L 313.394939 163.529638 
L 314.031041 170.639928 
L 314.667142 171.486781 
L 315.303243 169.204167 
L 315.939344 168.179608 
L 316.575445 162.772199 
L 317.211546 159.876568 
L 317.847648 174.535444 
L 318.483749 172.276189 
L 319.11985 185.691277 
L 319.755951 175.293858 
L 320.392052 183.078058 
L 321.028154 180.839005 
L 321.664255 174.217775 
L 322.300356 160.080567 
L 322.936457 172.273407 
L 323.572558 176.950435 
L 324.208659 175.99206 
L 324.844761 173.159027 
L 325.480862 168.451417 
L 326.116963 170.644185 
L 326.753064 163.441217 
L 327.389165 169.406557 
L 328.661368 176.968107 
L 329.297469 177.9377 
L 329.93357 179.540384 
L 330.569671 174.881694 
L 331.205772 179.631129 
L 331.841874 183.13356 
L 332.477975 182.255182 
L 333.750177 178.011513 
L 334.386278 174.646376 
L 335.02238 173.795283 
L 335.658481 170.444094 
L 336.294582 172.114207 
L 336.930683 183.81991 
L 337.566784 187.384753 
L 338.202885 185.315917 
L 338.838987 171.345708 
L 339.475088 173.679154 
L 340.111189 179.780792 
L 341.383391 167.562662 
L 342.019493 157.391134 
L 342.655594 157.882632 
L 343.291695 164.649788 
L 344.563897 137.467562 
L 345.199998 141.751703 
L 345.8361 150.431451 
L 346.472201 154.105222 
L 347.108302 159.040852 
L 347.744403 169.625846 
L 348.380504 172.071182 
L 349.016606 171.391141 
L 349.652707 162.571573 
L 350.288808 155.640974 
L 350.924909 154.986845 
L 352.197111 175.015362 
L 352.833213 171.880618 
L 354.105415 154.35608 
L 354.741516 155.009053 
L 355.377617 154.417614 
L 356.64982 147.621411 
L 357.285921 148.938089 
L 357.922022 149.010593 
L 358.558123 149.719313 
L 359.194224 152.31786 
L 359.830326 150.538522 
L 360.466427 151.275902 
L 361.102528 149.51584 
L 361.738629 149.64583 
L 362.37473 149.158819 
L 363.010831 149.935191 
L 363.646933 155.108884 
L 364.283034 151.517638 
L 364.919135 151.070264 
L 365.555236 155.647144 
L 366.191337 162.741222 
L 366.827439 152.295692 
L 367.46354 157.529772 
L 368.099641 155.879547 
L 368.735742 150.47895 
L 369.371843 155.117118 
L 370.007944 150.364016 
L 370.644046 150.008782 
L 371.280147 143.396255 
L 371.916248 151.210114 
L 372.552349 150.259663 
L 373.18845 146.812714 
L 373.824552 149.644183 
L 375.096754 152.83214 
L 375.732855 159.456476 
L 377.005057 155.187891 
L 377.641159 149.309261 
L 378.27726 144.695119 
L 378.913361 150.747153 
L 379.549462 151.795981 
L 380.185563 153.48263 
L 380.821665 151.419699 
L 382.093867 156.102087 
L 382.729968 156.579707 
L 383.366069 150.800772 
L 384.00217 152.554406 
L 384.638272 149.931878 
L 385.274373 142.933221 
L 385.910474 147.227882 
L 386.546575 150.280355 
L 387.818778 150.151743 
L 388.454879 153.865256 
L 389.09098 163.231234 
L 389.727081 168.221273 
L 390.363182 171.342505 
L 390.999283 169.461069 
L 391.635385 166.964427 
L 392.271486 166.986483 
L 392.907587 168.900483 
L 393.543688 167.692233 
L 394.179789 167.122412 
L 395.451992 177.926567 
L 396.088093 183.032809 
L 396.724194 186.897224 
L 397.360295 183.252058 
L 397.996396 188.393523 
L 398.632498 186.025437 
L 399.268599 180.535252 
L 399.9047 180.697854 
L 400.540801 185.259704 
L 401.176902 192.967257 
L 401.813004 192.538544 
L 402.449105 189.614564 
L 403.085206 187.955988 
L 403.721307 190.069929 
L 404.357408 190.315406 
L 404.993509 188.065647 
L 405.629611 188.334872 
L 406.265712 191.749864 
L 406.901813 193.296412 
L 408.174015 198.932288 
L 408.810117 189.859308 
L 410.082319 183.031015 
L 411.354521 183.771624 
L 411.990622 184.786543 
L 412.626724 178.918806 
L 413.262825 177.450391 
L 413.898926 166.592204 
L 414.535027 163.89399 
L 415.171128 168.728966 
L 415.80723 167.308036 
L 416.443331 172.793504 
L 417.079432 176.410487 
L 417.715533 175.025091 
L 418.351634 174.905075 
L 418.987735 166.648775 
L 419.623837 168.432707 
L 420.259938 166.467768 
L 420.896039 165.141383 
L 421.53214 164.453537 
L 422.168241 168.164877 
L 422.804343 163.73985 
L 423.440444 154.939102 
L 424.076545 159.312364 
L 424.712646 161.190199 
L 425.348747 164.333248 
L 425.984848 166.234386 
L 426.62095 164.386483 
L 427.257051 167.564394 
L 427.893152 163.232562 
L 428.529253 164.553275 
L 429.801456 163.468607 
L 429.801456 163.468607 
" style="fill:none;stroke:#000000;stroke-dasharray:1.85,0.8;stroke-dashoffset:0;stroke-width:0.5;"/>
   </g>
   <g id="patch_3">
    <path d="M 47.504646 256.065354 
L 47.504646 5.354646 
" style="fill:none;stroke:#000000;stroke-linecap:square;stroke-linejoin:miter;"/>
   </g>
   <g id="patch_4">
    <path d="M 47.504646 256.065354 
L 429.165354 256.065354 
" style="fill:none;stroke:#000000;stroke-linecap:square;stroke-linejoin:miter;"/>
   </g>
   <g id="legend_1">
    <g id="patch_5">
     <path d="M 296.673167 42.710896 
L 422.165354 42.710896 
Q 424.165354 42.710896 424.165354 40.710896 
L 424.165354 12.354646 
Q 424.165354 10.354646 422.165354 10.354646 
L 296.673167 10.354646 
Q 294.673167 10.354646 294.673167 12.354646 
L 294.673167 40.710896 
Q 294.673167 42.710896 296.673167 42.710896 
z
" style="fill:#ffffff;stroke:#000000;stroke-linejoin:miter;"/>
    </g>
    <g id="line2d_39">
     <path d="M 298.673167 18.453083 
L 318.673167 18.453083 
" style="fill:none;stroke:#009afa;stroke-linecap:square;"/>
    </g>
    <g id="line2d_40"/>
    <g id="text_21">
     <!-- Gauge 32412 -->
     <defs>
      <path d="M 59.515625 10.40625 
L 59.515625 29.984375 
L 43.40625 29.984375 
L 43.40625 38.09375 
L 69.28125 38.09375 
L 69.28125 6.78125 
Q 63.578125 2.734375 56.6875 0.65625 
Q 49.8125 -1.421875 42 -1.421875 
Q 24.90625 -1.421875 15.25 8.5625 
Q 5.609375 18.5625 5.609375 36.375 
Q 5.609375 54.25 15.25 64.234375 
Q 24.90625 74.21875 42 74.21875 
Q 49.125 74.21875 55.546875 72.453125 
Q 61.96875 70.703125 67.390625 67.28125 
L 67.390625 56.78125 
Q 61.921875 61.421875 55.765625 63.765625 
Q 49.609375 66.109375 42.828125 66.109375 
Q 29.4375 66.109375 22.71875 58.640625 
Q 16.015625 51.171875 16.015625 36.375 
Q 16.015625 21.625 22.71875 14.15625 
Q 29.4375 6.6875 42.828125 6.6875 
Q 48.046875 6.6875 52.140625 7.59375 
Q 56.25 8.5 59.515625 10.40625 
z
" id="DejaVuSans-47"/>
      <path d="M 45.40625 27.984375 
Q 45.40625 37.75 41.375 43.109375 
Q 37.359375 48.484375 30.078125 48.484375 
Q 22.859375 48.484375 18.828125 43.109375 
Q 14.796875 37.75 14.796875 27.984375 
Q 14.796875 18.265625 18.828125 12.890625 
Q 22.859375 7.515625 30.078125 7.515625 
Q 37.359375 7.515625 41.375 12.890625 
Q 45.40625 18.265625 45.40625 27.984375 
z
M 54.390625 6.78125 
Q 54.390625 -7.171875 48.1875 -13.984375 
Q 42 -20.796875 29.203125 -20.796875 
Q 24.46875 -20.796875 20.265625 -20.09375 
Q 16.0625 -19.390625 12.109375 -17.921875 
L 12.109375 -9.1875 
Q 16.0625 -11.328125 19.921875 -12.34375 
Q 23.78125 -13.375 27.78125 -13.375 
Q 36.625 -13.375 41.015625 -8.765625 
Q 45.40625 -4.15625 45.40625 5.171875 
L 45.40625 9.625 
Q 42.625 4.78125 38.28125 2.390625 
Q 33.9375 0 27.875 0 
Q 17.828125 0 11.671875 7.65625 
Q 5.515625 15.328125 5.515625 27.984375 
Q 5.515625 40.671875 11.671875 48.328125 
Q 17.828125 56 27.875 56 
Q 33.9375 56 38.28125 53.609375 
Q 42.625 51.21875 45.40625 46.390625 
L 45.40625 54.6875 
L 54.390625 54.6875 
z
" id="DejaVuSans-67"/>
     </defs>
     <g transform="translate(326.673167 21.953083)scale(0.1 -0.1)">
      <use xlink:href="#DejaVuSans-47"/>
      <use x="77.490234" xlink:href="#DejaVuSans-61"/>
      <use x="138.769531" xlink:href="#DejaVuSans-75"/>
      <use x="202.148438" xlink:href="#DejaVuSans-67"/>
      <use x="265.625" xlink:href="#DejaVuSans-65"/>
      <use x="327.148438" xlink:href="#DejaVuSans-20"/>
      <use x="358.935547" xlink:href="#DejaVuSans-33"/>
      <use x="422.558594" xlink:href="#DejaVuSans-32"/>
      <use x="486.181641" xlink:href="#DejaVuSans-34"/>
      <use x="549.804688" xlink:href="#DejaVuSans-31"/>
      <use x="613.427734" xlink:href="#DejaVuSans-32"/>
     </g>
    </g>
    <g id="line2d_41">
     <path d="M 298.673167 33.131208 
L 318.673167 33.131208 
" style="fill:none;stroke:#000000;stroke-dasharray:1.85,0.8;stroke-dashoffset:0;stroke-width:0.5;"/>
    </g>
    <g id="line2d_42"/>
    <g id="text_22">
     <!-- Gauge 32412 Obs. -->
     <defs>
      <path d="M 39.40625 66.21875 
Q 28.65625 66.21875 22.328125 58.203125 
Q 16.015625 50.203125 16.015625 36.375 
Q 16.015625 22.609375 22.328125 14.59375 
Q 28.65625 6.59375 39.40625 6.59375 
Q 50.140625 6.59375 56.421875 14.59375 
Q 62.703125 22.609375 62.703125 36.375 
Q 62.703125 50.203125 56.421875 58.203125 
Q 50.140625 66.21875 39.40625 66.21875 
z
M 39.40625 74.21875 
Q 54.734375 74.21875 63.90625 63.9375 
Q 73.09375 53.65625 73.09375 36.375 
Q 73.09375 19.140625 63.90625 8.859375 
Q 54.734375 -1.421875 39.40625 -1.421875 
Q 24.03125 -1.421875 14.8125 8.828125 
Q 5.609375 19.09375 5.609375 36.375 
Q 5.609375 53.65625 14.8125 63.9375 
Q 24.03125 74.21875 39.40625 74.21875 
z
" id="DejaVuSans-4f"/>
      <path d="M 48.6875 27.296875 
Q 48.6875 37.203125 44.609375 42.84375 
Q 40.53125 48.484375 33.40625 48.484375 
Q 26.265625 48.484375 22.1875 42.84375 
Q 18.109375 37.203125 18.109375 27.296875 
Q 18.109375 17.390625 22.1875 11.75 
Q 26.265625 6.109375 33.40625 6.109375 
Q 40.53125 6.109375 44.609375 11.75 
Q 48.6875 17.390625 48.6875 27.296875 
z
M 18.109375 46.390625 
Q 20.953125 51.265625 25.265625 53.625 
Q 29.59375 56 35.59375 56 
Q 45.5625 56 51.78125 48.09375 
Q 58.015625 40.1875 58.015625 27.296875 
Q 58.015625 14.40625 51.78125 6.484375 
Q 45.5625 -1.421875 35.59375 -1.421875 
Q 29.59375 -1.421875 25.265625 0.953125 
Q 20.953125 3.328125 18.109375 8.203125 
L 18.109375 0 
L 9.078125 0 
L 9.078125 75.984375 
L 18.109375 75.984375 
z
" id="DejaVuSans-62"/>
     </defs>
     <g transform="translate(326.673167 36.631208)scale(0.1 -0.1)">
      <use xlink:href="#DejaVuSans-47"/>
      <use x="77.490234" xlink:href="#DejaVuSans-61"/>
      <use x="138.769531" xlink:href="#DejaVuSans-75"/>
      <use x="202.148438" xlink:href="#DejaVuSans-67"/>
      <use x="265.625" xlink:href="#DejaVuSans-65"/>
      <use x="327.148438" xlink:href="#DejaVuSans-20"/>
      <use x="358.935547" xlink:href="#DejaVuSans-33"/>
      <use x="422.558594" xlink:href="#DejaVuSans-32"/>
      <use x="486.181641" xlink:href="#DejaVuSans-34"/>
      <use x="549.804688" xlink:href="#DejaVuSans-31"/>
      <use x="613.427734" xlink:href="#DejaVuSans-32"/>
      <use x="677.050781" xlink:href="#DejaVuSans-20"/>
      <use x="708.837891" xlink:href="#DejaVuSans-4f"/>
      <use x="787.548828" xlink:href="#DejaVuSans-62"/>
      <use x="851.025391" xlink:href="#DejaVuSans-73"/>
      <use x="903.125" xlink:href="#DejaVuSans-2e"/>
     </g>
    </g>
   </g>
  </g>
 </g>
 <defs>
  <clipPath id="p77d9d3fd75">
   <rect height="250.710709" width="381.660709" x="47.504646" y="5.354646"/>
  </clipPath>
 </defs>
</svg>
