<?xml version="1.0" encoding="utf-8" standalone="no"?>
<!DOCTYPE svg PUBLIC "-//W3C//DTD SVG 1.1//EN"
  "http://www.w3.org/Graphics/SVG/1.1/DTD/svg11.dtd">
<!-- Created with matplotlib (http://matplotlib.org/) -->
<svg height="288pt" version="1.1" viewBox="0 0 432 288" width="432pt" xmlns="http://www.w3.org/2000/svg" xmlns:xlink="http://www.w3.org/1999/xlink">
 <defs>
  <style type="text/css">
*{stroke-linecap:butt;stroke-linejoin:round;}
  </style>
 </defs>
 <g id="figure_1">
  <g id="patch_1">
   <path d="M 0 288 
L 432 288 
L 432 0 
L 0 0 
z
" style="fill:#ffffff;"/>
  </g>
  <g id="axes_1">
   <g id="patch_2">
    <path d="M 47.504646 256.065354 
L 429.165354 256.065354 
L 429.165354 5.354646 
L 47.504646 5.354646 
z
" style="fill:#ffffff;"/>
   </g>
   <g id="matplotlib.axis_1">
    <g id="xtick_1">
     <g id="line2d_1">
      <path clip-path="url(#pb431bd93ce)" d="M 58.729961 256.065354 
L 58.729961 5.354646 
" style="fill:none;stroke:#000000;stroke-linecap:square;stroke-opacity:0.1;stroke-width:0.5;"/>
     </g>
     <g id="line2d_2">
      <defs>
       <path d="M 0 0 
L 0 -3.5 
" id="m5220ea3ac2" style="stroke:#000000;stroke-width:0.8;"/>
      </defs>
      <g>
       <use style="stroke:#000000;stroke-width:0.8;" x="58.729961" xlink:href="#m5220ea3ac2" y="256.065354"/>
      </g>
     </g>
     <g id="text_1">
      <!-- 0 -->
      <defs>
       <path d="M 31.78125 66.40625 
Q 24.171875 66.40625 20.328125 58.90625 
Q 16.5 51.421875 16.5 36.375 
Q 16.5 21.390625 20.328125 13.890625 
Q 24.171875 6.390625 31.78125 6.390625 
Q 39.453125 6.390625 43.28125 13.890625 
Q 47.125 21.390625 47.125 36.375 
Q 47.125 51.421875 43.28125 58.90625 
Q 39.453125 66.40625 31.78125 66.40625 
z
M 31.78125 74.21875 
Q 44.046875 74.21875 50.515625 64.515625 
Q 56.984375 54.828125 56.984375 36.375 
Q 56.984375 17.96875 50.515625 8.265625 
Q 44.046875 -1.421875 31.78125 -1.421875 
Q 19.53125 -1.421875 13.0625 8.265625 
Q 6.59375 17.96875 6.59375 36.375 
Q 6.59375 54.828125 13.0625 64.515625 
Q 19.53125 74.21875 31.78125 74.21875 
z
" id="DejaVuSans-30"/>
      </defs>
      <g transform="translate(55.548711 267.163792)scale(0.1 -0.1)">
       <use xlink:href="#DejaVuSans-30"/>
      </g>
     </g>
    </g>
    <g id="xtick_2">
     <g id="line2d_3">
      <path clip-path="url(#pb431bd93ce)" d="M 99.141094 256.065354 
L 99.141094 5.354646 
" style="fill:none;stroke:#000000;stroke-linecap:square;stroke-opacity:0.1;stroke-width:0.5;"/>
     </g>
     <g id="line2d_4">
      <g>
       <use style="stroke:#000000;stroke-width:0.8;" x="99.141094" xlink:href="#m5220ea3ac2" y="256.065354"/>
      </g>
     </g>
     <g id="text_2">
      <!-- 1 -->
      <defs>
       <path d="M 12.40625 8.296875 
L 28.515625 8.296875 
L 28.515625 63.921875 
L 10.984375 60.40625 
L 10.984375 69.390625 
L 28.421875 72.90625 
L 38.28125 72.90625 
L 38.28125 8.296875 
L 54.390625 8.296875 
L 54.390625 0 
L 12.40625 0 
z
" id="DejaVuSans-31"/>
      </defs>
      <g transform="translate(95.959844 267.163792)scale(0.1 -0.1)">
       <use xlink:href="#DejaVuSans-31"/>
      </g>
     </g>
    </g>
    <g id="xtick_3">
     <g id="line2d_5">
      <path clip-path="url(#pb431bd93ce)" d="M 139.552228 256.065354 
L 139.552228 5.354646 
" style="fill:none;stroke:#000000;stroke-linecap:square;stroke-opacity:0.1;stroke-width:0.5;"/>
     </g>
     <g id="line2d_6">
      <g>
       <use style="stroke:#000000;stroke-width:0.8;" x="139.552228" xlink:href="#m5220ea3ac2" y="256.065354"/>
      </g>
     </g>
     <g id="text_3">
      <!-- 2 -->
      <defs>
       <path d="M 19.1875 8.296875 
L 53.609375 8.296875 
L 53.609375 0 
L 7.328125 0 
L 7.328125 8.296875 
Q 12.9375 14.109375 22.625 23.890625 
Q 32.328125 33.6875 34.8125 36.53125 
Q 39.546875 41.84375 41.421875 45.53125 
Q 43.3125 49.21875 43.3125 52.78125 
Q 43.3125 58.59375 39.234375 62.25 
Q 35.15625 65.921875 28.609375 65.921875 
Q 23.96875 65.921875 18.8125 64.3125 
Q 13.671875 62.703125 7.8125 59.421875 
L 7.8125 69.390625 
Q 13.765625 71.78125 18.9375 73 
Q 24.125 74.21875 28.421875 74.21875 
Q 39.75 74.21875 46.484375 68.546875 
Q 53.21875 62.890625 53.21875 53.421875 
Q 53.21875 48.921875 51.53125 44.890625 
Q 49.859375 40.875 45.40625 35.40625 
Q 44.1875 33.984375 37.640625 27.21875 
Q 31.109375 20.453125 19.1875 8.296875 
z
" id="DejaVuSans-32"/>
      </defs>
      <g transform="translate(136.370978 267.163792)scale(0.1 -0.1)">
       <use xlink:href="#DejaVuSans-32"/>
      </g>
     </g>
    </g>
    <g id="xtick_4">
     <g id="line2d_7">
      <path clip-path="url(#pb431bd93ce)" d="M 179.963362 256.065354 
L 179.963362 5.354646 
" style="fill:none;stroke:#000000;stroke-linecap:square;stroke-opacity:0.1;stroke-width:0.5;"/>
     </g>
     <g id="line2d_8">
      <g>
       <use style="stroke:#000000;stroke-width:0.8;" x="179.963362" xlink:href="#m5220ea3ac2" y="256.065354"/>
      </g>
     </g>
     <g id="text_4">
      <!-- 3 -->
      <defs>
       <path d="M 40.578125 39.3125 
Q 47.65625 37.796875 51.625 33 
Q 55.609375 28.21875 55.609375 21.1875 
Q 55.609375 10.40625 48.1875 4.484375 
Q 40.765625 -1.421875 27.09375 -1.421875 
Q 22.515625 -1.421875 17.65625 -0.515625 
Q 12.796875 0.390625 7.625 2.203125 
L 7.625 11.71875 
Q 11.71875 9.328125 16.59375 8.109375 
Q 21.484375 6.890625 26.8125 6.890625 
Q 36.078125 6.890625 40.9375 10.546875 
Q 45.796875 14.203125 45.796875 21.1875 
Q 45.796875 27.640625 41.28125 31.265625 
Q 36.765625 34.90625 28.71875 34.90625 
L 20.21875 34.90625 
L 20.21875 43.015625 
L 29.109375 43.015625 
Q 36.375 43.015625 40.234375 45.921875 
Q 44.09375 48.828125 44.09375 54.296875 
Q 44.09375 59.90625 40.109375 62.90625 
Q 36.140625 65.921875 28.71875 65.921875 
Q 24.65625 65.921875 20.015625 65.03125 
Q 15.375 64.15625 9.8125 62.3125 
L 9.8125 71.09375 
Q 15.4375 72.65625 20.34375 73.4375 
Q 25.25 74.21875 29.59375 74.21875 
Q 40.828125 74.21875 47.359375 69.109375 
Q 53.90625 64.015625 53.90625 55.328125 
Q 53.90625 49.265625 50.4375 45.09375 
Q 46.96875 40.921875 40.578125 39.3125 
z
" id="DejaVuSans-33"/>
      </defs>
      <g transform="translate(176.782112 267.163792)scale(0.1 -0.1)">
       <use xlink:href="#DejaVuSans-33"/>
      </g>
     </g>
    </g>
    <g id="xtick_5">
     <g id="line2d_9">
      <path clip-path="url(#pb431bd93ce)" d="M 220.374496 256.065354 
L 220.374496 5.354646 
" style="fill:none;stroke:#000000;stroke-linecap:square;stroke-opacity:0.1;stroke-width:0.5;"/>
     </g>
     <g id="line2d_10">
      <g>
       <use style="stroke:#000000;stroke-width:0.8;" x="220.374496" xlink:href="#m5220ea3ac2" y="256.065354"/>
      </g>
     </g>
     <g id="text_5">
      <!-- 4 -->
      <defs>
       <path d="M 37.796875 64.3125 
L 12.890625 25.390625 
L 37.796875 25.390625 
z
M 35.203125 72.90625 
L 47.609375 72.90625 
L 47.609375 25.390625 
L 58.015625 25.390625 
L 58.015625 17.1875 
L 47.609375 17.1875 
L 47.609375 0 
L 37.796875 0 
L 37.796875 17.1875 
L 4.890625 17.1875 
L 4.890625 26.703125 
z
" id="DejaVuSans-34"/>
      </defs>
      <g transform="translate(217.193246 267.163792)scale(0.1 -0.1)">
       <use xlink:href="#DejaVuSans-34"/>
      </g>
     </g>
    </g>
    <g id="xtick_6">
     <g id="line2d_11">
      <path clip-path="url(#pb431bd93ce)" d="M 260.78563 256.065354 
L 260.78563 5.354646 
" style="fill:none;stroke:#000000;stroke-linecap:square;stroke-opacity:0.1;stroke-width:0.5;"/>
     </g>
     <g id="line2d_12">
      <g>
       <use style="stroke:#000000;stroke-width:0.8;" x="260.78563" xlink:href="#m5220ea3ac2" y="256.065354"/>
      </g>
     </g>
     <g id="text_6">
      <!-- 5 -->
      <defs>
       <path d="M 10.796875 72.90625 
L 49.515625 72.90625 
L 49.515625 64.59375 
L 19.828125 64.59375 
L 19.828125 46.734375 
Q 21.96875 47.46875 24.109375 47.828125 
Q 26.265625 48.1875 28.421875 48.1875 
Q 40.625 48.1875 47.75 41.5 
Q 54.890625 34.8125 54.890625 23.390625 
Q 54.890625 11.625 47.5625 5.09375 
Q 40.234375 -1.421875 26.90625 -1.421875 
Q 22.3125 -1.421875 17.546875 -0.640625 
Q 12.796875 0.140625 7.71875 1.703125 
L 7.71875 11.625 
Q 12.109375 9.234375 16.796875 8.0625 
Q 21.484375 6.890625 26.703125 6.890625 
Q 35.15625 6.890625 40.078125 11.328125 
Q 45.015625 15.765625 45.015625 23.390625 
Q 45.015625 31 40.078125 35.4375 
Q 35.15625 39.890625 26.703125 39.890625 
Q 22.75 39.890625 18.8125 39.015625 
Q 14.890625 38.140625 10.796875 36.28125 
z
" id="DejaVuSans-35"/>
      </defs>
      <g transform="translate(257.60438 267.163792)scale(0.1 -0.1)">
       <use xlink:href="#DejaVuSans-35"/>
      </g>
     </g>
    </g>
    <g id="xtick_7">
     <g id="line2d_13">
      <path clip-path="url(#pb431bd93ce)" d="M 301.196764 256.065354 
L 301.196764 5.354646 
" style="fill:none;stroke:#000000;stroke-linecap:square;stroke-opacity:0.1;stroke-width:0.5;"/>
     </g>
     <g id="line2d_14">
      <g>
       <use style="stroke:#000000;stroke-width:0.8;" x="301.196764" xlink:href="#m5220ea3ac2" y="256.065354"/>
      </g>
     </g>
     <g id="text_7">
      <!-- 6 -->
      <defs>
       <path d="M 33.015625 40.375 
Q 26.375 40.375 22.484375 35.828125 
Q 18.609375 31.296875 18.609375 23.390625 
Q 18.609375 15.53125 22.484375 10.953125 
Q 26.375 6.390625 33.015625 6.390625 
Q 39.65625 6.390625 43.53125 10.953125 
Q 47.40625 15.53125 47.40625 23.390625 
Q 47.40625 31.296875 43.53125 35.828125 
Q 39.65625 40.375 33.015625 40.375 
z
M 52.59375 71.296875 
L 52.59375 62.3125 
Q 48.875 64.0625 45.09375 64.984375 
Q 41.3125 65.921875 37.59375 65.921875 
Q 27.828125 65.921875 22.671875 59.328125 
Q 17.53125 52.734375 16.796875 39.40625 
Q 19.671875 43.65625 24.015625 45.921875 
Q 28.375 48.1875 33.59375 48.1875 
Q 44.578125 48.1875 50.953125 41.515625 
Q 57.328125 34.859375 57.328125 23.390625 
Q 57.328125 12.15625 50.6875 5.359375 
Q 44.046875 -1.421875 33.015625 -1.421875 
Q 20.359375 -1.421875 13.671875 8.265625 
Q 6.984375 17.96875 6.984375 36.375 
Q 6.984375 53.65625 15.1875 63.9375 
Q 23.390625 74.21875 37.203125 74.21875 
Q 40.921875 74.21875 44.703125 73.484375 
Q 48.484375 72.75 52.59375 71.296875 
z
" id="DejaVuSans-36"/>
      </defs>
      <g transform="translate(298.015514 267.163792)scale(0.1 -0.1)">
       <use xlink:href="#DejaVuSans-36"/>
      </g>
     </g>
    </g>
    <g id="xtick_8">
     <g id="line2d_15">
      <path clip-path="url(#pb431bd93ce)" d="M 341.607898 256.065354 
L 341.607898 5.354646 
" style="fill:none;stroke:#000000;stroke-linecap:square;stroke-opacity:0.1;stroke-width:0.5;"/>
     </g>
     <g id="line2d_16">
      <g>
       <use style="stroke:#000000;stroke-width:0.8;" x="341.607898" xlink:href="#m5220ea3ac2" y="256.065354"/>
      </g>
     </g>
     <g id="text_8">
      <!-- 7 -->
      <defs>
       <path d="M 8.203125 72.90625 
L 55.078125 72.90625 
L 55.078125 68.703125 
L 28.609375 0 
L 18.3125 0 
L 43.21875 64.59375 
L 8.203125 64.59375 
z
" id="DejaVuSans-37"/>
      </defs>
      <g transform="translate(338.426648 267.163792)scale(0.1 -0.1)">
       <use xlink:href="#DejaVuSans-37"/>
      </g>
     </g>
    </g>
    <g id="xtick_9">
     <g id="line2d_17">
      <path clip-path="url(#pb431bd93ce)" d="M 382.019031 256.065354 
L 382.019031 5.354646 
" style="fill:none;stroke:#000000;stroke-linecap:square;stroke-opacity:0.1;stroke-width:0.5;"/>
     </g>
     <g id="line2d_18">
      <g>
       <use style="stroke:#000000;stroke-width:0.8;" x="382.019031" xlink:href="#m5220ea3ac2" y="256.065354"/>
      </g>
     </g>
     <g id="text_9">
      <!-- 8 -->
      <defs>
       <path d="M 31.78125 34.625 
Q 24.75 34.625 20.71875 30.859375 
Q 16.703125 27.09375 16.703125 20.515625 
Q 16.703125 13.921875 20.71875 10.15625 
Q 24.75 6.390625 31.78125 6.390625 
Q 38.8125 6.390625 42.859375 10.171875 
Q 46.921875 13.96875 46.921875 20.515625 
Q 46.921875 27.09375 42.890625 30.859375 
Q 38.875 34.625 31.78125 34.625 
z
M 21.921875 38.8125 
Q 15.578125 40.375 12.03125 44.71875 
Q 8.5 49.078125 8.5 55.328125 
Q 8.5 64.0625 14.71875 69.140625 
Q 20.953125 74.21875 31.78125 74.21875 
Q 42.671875 74.21875 48.875 69.140625 
Q 55.078125 64.0625 55.078125 55.328125 
Q 55.078125 49.078125 51.53125 44.71875 
Q 48 40.375 41.703125 38.8125 
Q 48.828125 37.15625 52.796875 32.3125 
Q 56.78125 27.484375 56.78125 20.515625 
Q 56.78125 9.90625 50.3125 4.234375 
Q 43.84375 -1.421875 31.78125 -1.421875 
Q 19.734375 -1.421875 13.25 4.234375 
Q 6.78125 9.90625 6.78125 20.515625 
Q 6.78125 27.484375 10.78125 32.3125 
Q 14.796875 37.15625 21.921875 38.8125 
z
M 18.3125 54.390625 
Q 18.3125 48.734375 21.84375 45.5625 
Q 25.390625 42.390625 31.78125 42.390625 
Q 38.140625 42.390625 41.71875 45.5625 
Q 45.3125 48.734375 45.3125 54.390625 
Q 45.3125 60.0625 41.71875 63.234375 
Q 38.140625 66.40625 31.78125 66.40625 
Q 25.390625 66.40625 21.84375 63.234375 
Q 18.3125 60.0625 18.3125 54.390625 
z
" id="DejaVuSans-38"/>
      </defs>
      <g transform="translate(378.837781 267.163792)scale(0.1 -0.1)">
       <use xlink:href="#DejaVuSans-38"/>
      </g>
     </g>
    </g>
    <g id="xtick_10">
     <g id="line2d_19">
      <path clip-path="url(#pb431bd93ce)" d="M 422.430165 256.065354 
L 422.430165 5.354646 
" style="fill:none;stroke:#000000;stroke-linecap:square;stroke-opacity:0.1;stroke-width:0.5;"/>
     </g>
     <g id="line2d_20">
      <g>
       <use style="stroke:#000000;stroke-width:0.8;" x="422.430165" xlink:href="#m5220ea3ac2" y="256.065354"/>
      </g>
     </g>
     <g id="text_10">
      <!-- 9 -->
      <defs>
       <path d="M 10.984375 1.515625 
L 10.984375 10.5 
Q 14.703125 8.734375 18.5 7.8125 
Q 22.3125 6.890625 25.984375 6.890625 
Q 35.75 6.890625 40.890625 13.453125 
Q 46.046875 20.015625 46.78125 33.40625 
Q 43.953125 29.203125 39.59375 26.953125 
Q 35.25 24.703125 29.984375 24.703125 
Q 19.046875 24.703125 12.671875 31.3125 
Q 6.296875 37.9375 6.296875 49.421875 
Q 6.296875 60.640625 12.9375 67.421875 
Q 19.578125 74.21875 30.609375 74.21875 
Q 43.265625 74.21875 49.921875 64.515625 
Q 56.59375 54.828125 56.59375 36.375 
Q 56.59375 19.140625 48.40625 8.859375 
Q 40.234375 -1.421875 26.421875 -1.421875 
Q 22.703125 -1.421875 18.890625 -0.6875 
Q 15.09375 0.046875 10.984375 1.515625 
z
M 30.609375 32.421875 
Q 37.25 32.421875 41.125 36.953125 
Q 45.015625 41.5 45.015625 49.421875 
Q 45.015625 57.28125 41.125 61.84375 
Q 37.25 66.40625 30.609375 66.40625 
Q 23.96875 66.40625 20.09375 61.84375 
Q 16.21875 57.28125 16.21875 49.421875 
Q 16.21875 41.5 20.09375 36.953125 
Q 23.96875 32.421875 30.609375 32.421875 
z
" id="DejaVuSans-39"/>
      </defs>
      <g transform="translate(419.248915 267.163792)scale(0.1 -0.1)">
       <use xlink:href="#DejaVuSans-39"/>
      </g>
     </g>
    </g>
    <g id="text_11">
     <!-- Time since earthquake (hour) -->
     <defs>
      <path d="M -0.296875 72.90625 
L 61.375 72.90625 
L 61.375 64.59375 
L 35.5 64.59375 
L 35.5 0 
L 25.59375 0 
L 25.59375 64.59375 
L -0.296875 64.59375 
z
" id="DejaVuSans-54"/>
      <path d="M 9.421875 54.6875 
L 18.40625 54.6875 
L 18.40625 0 
L 9.421875 0 
z
M 9.421875 75.984375 
L 18.40625 75.984375 
L 18.40625 64.59375 
L 9.421875 64.59375 
z
" id="DejaVuSans-69"/>
      <path d="M 52 44.1875 
Q 55.375 50.25 60.0625 53.125 
Q 64.75 56 71.09375 56 
Q 79.640625 56 84.28125 50.015625 
Q 88.921875 44.046875 88.921875 33.015625 
L 88.921875 0 
L 79.890625 0 
L 79.890625 32.71875 
Q 79.890625 40.578125 77.09375 44.375 
Q 74.3125 48.1875 68.609375 48.1875 
Q 61.625 48.1875 57.5625 43.546875 
Q 53.515625 38.921875 53.515625 30.90625 
L 53.515625 0 
L 44.484375 0 
L 44.484375 32.71875 
Q 44.484375 40.625 41.703125 44.40625 
Q 38.921875 48.1875 33.109375 48.1875 
Q 26.21875 48.1875 22.15625 43.53125 
Q 18.109375 38.875 18.109375 30.90625 
L 18.109375 0 
L 9.078125 0 
L 9.078125 54.6875 
L 18.109375 54.6875 
L 18.109375 46.1875 
Q 21.1875 51.21875 25.484375 53.609375 
Q 29.78125 56 35.6875 56 
Q 41.65625 56 45.828125 52.96875 
Q 50 49.953125 52 44.1875 
z
" id="DejaVuSans-6d"/>
      <path d="M 56.203125 29.59375 
L 56.203125 25.203125 
L 14.890625 25.203125 
Q 15.484375 15.921875 20.484375 11.0625 
Q 25.484375 6.203125 34.421875 6.203125 
Q 39.59375 6.203125 44.453125 7.46875 
Q 49.3125 8.734375 54.109375 11.28125 
L 54.109375 2.78125 
Q 49.265625 0.734375 44.1875 -0.34375 
Q 39.109375 -1.421875 33.890625 -1.421875 
Q 20.796875 -1.421875 13.15625 6.1875 
Q 5.515625 13.8125 5.515625 26.8125 
Q 5.515625 40.234375 12.765625 48.109375 
Q 20.015625 56 32.328125 56 
Q 43.359375 56 49.78125 48.890625 
Q 56.203125 41.796875 56.203125 29.59375 
z
M 47.21875 32.234375 
Q 47.125 39.59375 43.09375 43.984375 
Q 39.0625 48.390625 32.421875 48.390625 
Q 24.90625 48.390625 20.390625 44.140625 
Q 15.875 39.890625 15.1875 32.171875 
z
" id="DejaVuSans-65"/>
      <path id="DejaVuSans-20"/>
      <path d="M 44.28125 53.078125 
L 44.28125 44.578125 
Q 40.484375 46.53125 36.375 47.5 
Q 32.28125 48.484375 27.875 48.484375 
Q 21.1875 48.484375 17.84375 46.4375 
Q 14.5 44.390625 14.5 40.28125 
Q 14.5 37.15625 16.890625 35.375 
Q 19.28125 33.59375 26.515625 31.984375 
L 29.59375 31.296875 
Q 39.15625 29.25 43.1875 25.515625 
Q 47.21875 21.78125 47.21875 15.09375 
Q 47.21875 7.46875 41.1875 3.015625 
Q 35.15625 -1.421875 24.609375 -1.421875 
Q 20.21875 -1.421875 15.453125 -0.5625 
Q 10.6875 0.296875 5.421875 2 
L 5.421875 11.28125 
Q 10.40625 8.6875 15.234375 7.390625 
Q 20.0625 6.109375 24.8125 6.109375 
Q 31.15625 6.109375 34.5625 8.28125 
Q 37.984375 10.453125 37.984375 14.40625 
Q 37.984375 18.0625 35.515625 20.015625 
Q 33.0625 21.96875 24.703125 23.78125 
L 21.578125 24.515625 
Q 13.234375 26.265625 9.515625 29.90625 
Q 5.8125 33.546875 5.8125 39.890625 
Q 5.8125 47.609375 11.28125 51.796875 
Q 16.75 56 26.8125 56 
Q 31.78125 56 36.171875 55.265625 
Q 40.578125 54.546875 44.28125 53.078125 
z
" id="DejaVuSans-73"/>
      <path d="M 54.890625 33.015625 
L 54.890625 0 
L 45.90625 0 
L 45.90625 32.71875 
Q 45.90625 40.484375 42.875 44.328125 
Q 39.84375 48.1875 33.796875 48.1875 
Q 26.515625 48.1875 22.3125 43.546875 
Q 18.109375 38.921875 18.109375 30.90625 
L 18.109375 0 
L 9.078125 0 
L 9.078125 54.6875 
L 18.109375 54.6875 
L 18.109375 46.1875 
Q 21.34375 51.125 25.703125 53.5625 
Q 30.078125 56 35.796875 56 
Q 45.21875 56 50.046875 50.171875 
Q 54.890625 44.34375 54.890625 33.015625 
z
" id="DejaVuSans-6e"/>
      <path d="M 48.78125 52.59375 
L 48.78125 44.1875 
Q 44.96875 46.296875 41.140625 47.34375 
Q 37.3125 48.390625 33.40625 48.390625 
Q 24.65625 48.390625 19.8125 42.84375 
Q 14.984375 37.3125 14.984375 27.296875 
Q 14.984375 17.28125 19.8125 11.734375 
Q 24.65625 6.203125 33.40625 6.203125 
Q 37.3125 6.203125 41.140625 7.25 
Q 44.96875 8.296875 48.78125 10.40625 
L 48.78125 2.09375 
Q 45.015625 0.34375 40.984375 -0.53125 
Q 36.96875 -1.421875 32.421875 -1.421875 
Q 20.0625 -1.421875 12.78125 6.34375 
Q 5.515625 14.109375 5.515625 27.296875 
Q 5.515625 40.671875 12.859375 48.328125 
Q 20.21875 56 33.015625 56 
Q 37.15625 56 41.109375 55.140625 
Q 45.0625 54.296875 48.78125 52.59375 
z
" id="DejaVuSans-63"/>
      <path d="M 34.28125 27.484375 
Q 23.390625 27.484375 19.1875 25 
Q 14.984375 22.515625 14.984375 16.5 
Q 14.984375 11.71875 18.140625 8.90625 
Q 21.296875 6.109375 26.703125 6.109375 
Q 34.1875 6.109375 38.703125 11.40625 
Q 43.21875 16.703125 43.21875 25.484375 
L 43.21875 27.484375 
z
M 52.203125 31.203125 
L 52.203125 0 
L 43.21875 0 
L 43.21875 8.296875 
Q 40.140625 3.328125 35.546875 0.953125 
Q 30.953125 -1.421875 24.3125 -1.421875 
Q 15.921875 -1.421875 10.953125 3.296875 
Q 6 8.015625 6 15.921875 
Q 6 25.140625 12.171875 29.828125 
Q 18.359375 34.515625 30.609375 34.515625 
L 43.21875 34.515625 
L 43.21875 35.40625 
Q 43.21875 41.609375 39.140625 45 
Q 35.0625 48.390625 27.6875 48.390625 
Q 23 48.390625 18.546875 47.265625 
Q 14.109375 46.140625 10.015625 43.890625 
L 10.015625 52.203125 
Q 14.9375 54.109375 19.578125 55.046875 
Q 24.21875 56 28.609375 56 
Q 40.484375 56 46.34375 49.84375 
Q 52.203125 43.703125 52.203125 31.203125 
z
" id="DejaVuSans-61"/>
      <path d="M 41.109375 46.296875 
Q 39.59375 47.171875 37.8125 47.578125 
Q 36.03125 48 33.890625 48 
Q 26.265625 48 22.1875 43.046875 
Q 18.109375 38.09375 18.109375 28.8125 
L 18.109375 0 
L 9.078125 0 
L 9.078125 54.6875 
L 18.109375 54.6875 
L 18.109375 46.1875 
Q 20.953125 51.171875 25.484375 53.578125 
Q 30.03125 56 36.53125 56 
Q 37.453125 56 38.578125 55.875 
Q 39.703125 55.765625 41.0625 55.515625 
z
" id="DejaVuSans-72"/>
      <path d="M 18.3125 70.21875 
L 18.3125 54.6875 
L 36.8125 54.6875 
L 36.8125 47.703125 
L 18.3125 47.703125 
L 18.3125 18.015625 
Q 18.3125 11.328125 20.140625 9.421875 
Q 21.96875 7.515625 27.59375 7.515625 
L 36.8125 7.515625 
L 36.8125 0 
L 27.59375 0 
Q 17.1875 0 13.234375 3.875 
Q 9.28125 7.765625 9.28125 18.015625 
L 9.28125 47.703125 
L 2.6875 47.703125 
L 2.6875 54.6875 
L 9.28125 54.6875 
L 9.28125 70.21875 
z
" id="DejaVuSans-74"/>
      <path d="M 54.890625 33.015625 
L 54.890625 0 
L 45.90625 0 
L 45.90625 32.71875 
Q 45.90625 40.484375 42.875 44.328125 
Q 39.84375 48.1875 33.796875 48.1875 
Q 26.515625 48.1875 22.3125 43.546875 
Q 18.109375 38.921875 18.109375 30.90625 
L 18.109375 0 
L 9.078125 0 
L 9.078125 75.984375 
L 18.109375 75.984375 
L 18.109375 46.1875 
Q 21.34375 51.125 25.703125 53.5625 
Q 30.078125 56 35.796875 56 
Q 45.21875 56 50.046875 50.171875 
Q 54.890625 44.34375 54.890625 33.015625 
z
" id="DejaVuSans-68"/>
      <path d="M 14.796875 27.296875 
Q 14.796875 17.390625 18.875 11.75 
Q 22.953125 6.109375 30.078125 6.109375 
Q 37.203125 6.109375 41.296875 11.75 
Q 45.40625 17.390625 45.40625 27.296875 
Q 45.40625 37.203125 41.296875 42.84375 
Q 37.203125 48.484375 30.078125 48.484375 
Q 22.953125 48.484375 18.875 42.84375 
Q 14.796875 37.203125 14.796875 27.296875 
z
M 45.40625 8.203125 
Q 42.578125 3.328125 38.25 0.953125 
Q 33.9375 -1.421875 27.875 -1.421875 
Q 17.96875 -1.421875 11.734375 6.484375 
Q 5.515625 14.40625 5.515625 27.296875 
Q 5.515625 40.1875 11.734375 48.09375 
Q 17.96875 56 27.875 56 
Q 33.9375 56 38.25 53.625 
Q 42.578125 51.265625 45.40625 46.390625 
L 45.40625 54.6875 
L 54.390625 54.6875 
L 54.390625 -20.796875 
L 45.40625 -20.796875 
z
" id="DejaVuSans-71"/>
      <path d="M 8.5 21.578125 
L 8.5 54.6875 
L 17.484375 54.6875 
L 17.484375 21.921875 
Q 17.484375 14.15625 20.5 10.265625 
Q 23.53125 6.390625 29.59375 6.390625 
Q 36.859375 6.390625 41.078125 11.03125 
Q 45.3125 15.671875 45.3125 23.6875 
L 45.3125 54.6875 
L 54.296875 54.6875 
L 54.296875 0 
L 45.3125 0 
L 45.3125 8.40625 
Q 42.046875 3.421875 37.71875 1 
Q 33.40625 -1.421875 27.6875 -1.421875 
Q 18.265625 -1.421875 13.375 4.4375 
Q 8.5 10.296875 8.5 21.578125 
z
M 31.109375 56 
z
" id="DejaVuSans-75"/>
      <path d="M 9.078125 75.984375 
L 18.109375 75.984375 
L 18.109375 31.109375 
L 44.921875 54.6875 
L 56.390625 54.6875 
L 27.390625 29.109375 
L 57.625 0 
L 45.90625 0 
L 18.109375 26.703125 
L 18.109375 0 
L 9.078125 0 
z
" id="DejaVuSans-6b"/>
      <path d="M 31 75.875 
Q 24.46875 64.65625 21.28125 53.65625 
Q 18.109375 42.671875 18.109375 31.390625 
Q 18.109375 20.125 21.3125 9.0625 
Q 24.515625 -2 31 -13.1875 
L 23.1875 -13.1875 
Q 15.875 -1.703125 12.234375 9.375 
Q 8.59375 20.453125 8.59375 31.390625 
Q 8.59375 42.28125 12.203125 53.3125 
Q 15.828125 64.359375 23.1875 75.875 
z
" id="DejaVuSans-28"/>
      <path d="M 30.609375 48.390625 
Q 23.390625 48.390625 19.1875 42.75 
Q 14.984375 37.109375 14.984375 27.296875 
Q 14.984375 17.484375 19.15625 11.84375 
Q 23.34375 6.203125 30.609375 6.203125 
Q 37.796875 6.203125 41.984375 11.859375 
Q 46.1875 17.53125 46.1875 27.296875 
Q 46.1875 37.015625 41.984375 42.703125 
Q 37.796875 48.390625 30.609375 48.390625 
z
M 30.609375 56 
Q 42.328125 56 49.015625 48.375 
Q 55.71875 40.765625 55.71875 27.296875 
Q 55.71875 13.875 49.015625 6.21875 
Q 42.328125 -1.421875 30.609375 -1.421875 
Q 18.84375 -1.421875 12.171875 6.21875 
Q 5.515625 13.875 5.515625 27.296875 
Q 5.515625 40.765625 12.171875 48.375 
Q 18.84375 56 30.609375 56 
z
" id="DejaVuSans-6f"/>
      <path d="M 8.015625 75.875 
L 15.828125 75.875 
Q 23.140625 64.359375 26.78125 53.3125 
Q 30.421875 42.28125 30.421875 31.390625 
Q 30.421875 20.453125 26.78125 9.375 
Q 23.140625 -1.703125 15.828125 -13.1875 
L 8.015625 -13.1875 
Q 14.5 -2 17.703125 9.0625 
Q 20.90625 20.125 20.90625 31.390625 
Q 20.90625 42.671875 17.703125 53.65625 
Q 14.5 64.65625 8.015625 75.875 
z
" id="DejaVuSans-29"/>
     </defs>
     <g transform="translate(149.296875 282.361604)scale(0.12 -0.12)">
      <use xlink:href="#DejaVuSans-54"/>
      <use x="61.037109" xlink:href="#DejaVuSans-69"/>
      <use x="88.820312" xlink:href="#DejaVuSans-6d"/>
      <use x="186.232422" xlink:href="#DejaVuSans-65"/>
      <use x="247.755859" xlink:href="#DejaVuSans-20"/>
      <use x="279.542969" xlink:href="#DejaVuSans-73"/>
      <use x="331.642578" xlink:href="#DejaVuSans-69"/>
      <use x="359.425781" xlink:href="#DejaVuSans-6e"/>
      <use x="422.804688" xlink:href="#DejaVuSans-63"/>
      <use x="477.785156" xlink:href="#DejaVuSans-65"/>
      <use x="539.308594" xlink:href="#DejaVuSans-20"/>
      <use x="571.095703" xlink:href="#DejaVuSans-65"/>
      <use x="632.619141" xlink:href="#DejaVuSans-61"/>
      <use x="693.898438" xlink:href="#DejaVuSans-72"/>
      <use x="735.011719" xlink:href="#DejaVuSans-74"/>
      <use x="774.220703" xlink:href="#DejaVuSans-68"/>
      <use x="837.599609" xlink:href="#DejaVuSans-71"/>
      <use x="901.076172" xlink:href="#DejaVuSans-75"/>
      <use x="964.455078" xlink:href="#DejaVuSans-61"/>
      <use x="1025.734375" xlink:href="#DejaVuSans-6b"/>
      <use x="1083.597656" xlink:href="#DejaVuSans-65"/>
      <use x="1145.121094" xlink:href="#DejaVuSans-20"/>
      <use x="1176.908203" xlink:href="#DejaVuSans-28"/>
      <use x="1215.921875" xlink:href="#DejaVuSans-68"/>
      <use x="1279.300781" xlink:href="#DejaVuSans-6f"/>
      <use x="1340.482422" xlink:href="#DejaVuSans-75"/>
      <use x="1403.861328" xlink:href="#DejaVuSans-72"/>
      <use x="1444.974609" xlink:href="#DejaVuSans-29"/>
     </g>
    </g>
   </g>
   <g id="matplotlib.axis_2">
    <g id="ytick_1">
     <g id="line2d_21">
      <path clip-path="url(#pb431bd93ce)" d="M 47.504646 224.726516 
L 429.165354 224.726516 
" style="fill:none;stroke:#000000;stroke-linecap:square;stroke-opacity:0.1;stroke-width:0.5;"/>
     </g>
     <g id="line2d_22">
      <defs>
       <path d="M 0 0 
L 3.5 0 
" id="m03bb640864" style="stroke:#000000;stroke-width:0.8;"/>
      </defs>
      <g>
       <use style="stroke:#000000;stroke-width:0.8;" x="47.504646" xlink:href="#m03bb640864" y="224.726516"/>
      </g>
     </g>
     <g id="text_12">
      <!-- -0.10 -->
      <defs>
       <path d="M 4.890625 31.390625 
L 31.203125 31.390625 
L 31.203125 23.390625 
L 4.890625 23.390625 
z
" id="DejaVuSans-2d"/>
       <path d="M 10.6875 12.40625 
L 21 12.40625 
L 21 0 
L 10.6875 0 
z
" id="DejaVuSans-2e"/>
      </defs>
      <g transform="translate(18.131208 228.525734)scale(0.1 -0.1)">
       <use xlink:href="#DejaVuSans-2d"/>
       <use x="36.083984" xlink:href="#DejaVuSans-30"/>
       <use x="99.707031" xlink:href="#DejaVuSans-2e"/>
       <use x="131.494141" xlink:href="#DejaVuSans-31"/>
       <use x="195.117188" xlink:href="#DejaVuSans-30"/>
      </g>
     </g>
    </g>
    <g id="ytick_2">
     <g id="line2d_23">
      <path clip-path="url(#pb431bd93ce)" d="M 47.504646 193.387677 
L 429.165354 193.387677 
" style="fill:none;stroke:#000000;stroke-linecap:square;stroke-opacity:0.1;stroke-width:0.5;"/>
     </g>
     <g id="line2d_24">
      <g>
       <use style="stroke:#000000;stroke-width:0.8;" x="47.504646" xlink:href="#m03bb640864" y="193.387677"/>
      </g>
     </g>
     <g id="text_13">
      <!-- -0.05 -->
      <g transform="translate(18.131208 197.186896)scale(0.1 -0.1)">
       <use xlink:href="#DejaVuSans-2d"/>
       <use x="36.083984" xlink:href="#DejaVuSans-30"/>
       <use x="99.707031" xlink:href="#DejaVuSans-2e"/>
       <use x="131.494141" xlink:href="#DejaVuSans-30"/>
       <use x="195.117188" xlink:href="#DejaVuSans-35"/>
      </g>
     </g>
    </g>
    <g id="ytick_3">
     <g id="line2d_25">
      <path clip-path="url(#pb431bd93ce)" d="M 47.504646 162.048839 
L 429.165354 162.048839 
" style="fill:none;stroke:#000000;stroke-linecap:square;stroke-opacity:0.1;stroke-width:0.5;"/>
     </g>
     <g id="line2d_26">
      <g>
       <use style="stroke:#000000;stroke-width:0.8;" x="47.504646" xlink:href="#m03bb640864" y="162.048839"/>
      </g>
     </g>
     <g id="text_14">
      <!-- 0.00 -->
      <g transform="translate(21.739021 165.848057)scale(0.1 -0.1)">
       <use xlink:href="#DejaVuSans-30"/>
       <use x="63.623047" xlink:href="#DejaVuSans-2e"/>
       <use x="95.410156" xlink:href="#DejaVuSans-30"/>
       <use x="159.033203" xlink:href="#DejaVuSans-30"/>
      </g>
     </g>
    </g>
    <g id="ytick_4">
     <g id="line2d_27">
      <path clip-path="url(#pb431bd93ce)" d="M 47.504646 130.71 
L 429.165354 130.71 
" style="fill:none;stroke:#000000;stroke-linecap:square;stroke-opacity:0.1;stroke-width:0.5;"/>
     </g>
     <g id="line2d_28">
      <g>
       <use style="stroke:#000000;stroke-width:0.8;" x="47.504646" xlink:href="#m03bb640864" y="130.71"/>
      </g>
     </g>
     <g id="text_15">
      <!-- 0.05 -->
      <g transform="translate(21.739021 134.509219)scale(0.1 -0.1)">
       <use xlink:href="#DejaVuSans-30"/>
       <use x="63.623047" xlink:href="#DejaVuSans-2e"/>
       <use x="95.410156" xlink:href="#DejaVuSans-30"/>
       <use x="159.033203" xlink:href="#DejaVuSans-35"/>
      </g>
     </g>
    </g>
    <g id="ytick_5">
     <g id="line2d_29">
      <path clip-path="url(#pb431bd93ce)" d="M 47.504646 99.371161 
L 429.165354 99.371161 
" style="fill:none;stroke:#000000;stroke-linecap:square;stroke-opacity:0.1;stroke-width:0.5;"/>
     </g>
     <g id="line2d_30">
      <g>
       <use style="stroke:#000000;stroke-width:0.8;" x="47.504646" xlink:href="#m03bb640864" y="99.371161"/>
      </g>
     </g>
     <g id="text_16">
      <!-- 0.10 -->
      <g transform="translate(21.739021 103.17038)scale(0.1 -0.1)">
       <use xlink:href="#DejaVuSans-30"/>
       <use x="63.623047" xlink:href="#DejaVuSans-2e"/>
       <use x="95.410156" xlink:href="#DejaVuSans-31"/>
       <use x="159.033203" xlink:href="#DejaVuSans-30"/>
      </g>
     </g>
    </g>
    <g id="ytick_6">
     <g id="line2d_31">
      <path clip-path="url(#pb431bd93ce)" d="M 47.504646 68.032323 
L 429.165354 68.032323 
" style="fill:none;stroke:#000000;stroke-linecap:square;stroke-opacity:0.1;stroke-width:0.5;"/>
     </g>
     <g id="line2d_32">
      <g>
       <use style="stroke:#000000;stroke-width:0.8;" x="47.504646" xlink:href="#m03bb640864" y="68.032323"/>
      </g>
     </g>
     <g id="text_17">
      <!-- 0.15 -->
      <g transform="translate(21.739021 71.831542)scale(0.1 -0.1)">
       <use xlink:href="#DejaVuSans-30"/>
       <use x="63.623047" xlink:href="#DejaVuSans-2e"/>
       <use x="95.410156" xlink:href="#DejaVuSans-31"/>
       <use x="159.033203" xlink:href="#DejaVuSans-35"/>
      </g>
     </g>
    </g>
    <g id="ytick_7">
     <g id="line2d_33">
      <path clip-path="url(#pb431bd93ce)" d="M 47.504646 36.693484 
L 429.165354 36.693484 
" style="fill:none;stroke:#000000;stroke-linecap:square;stroke-opacity:0.1;stroke-width:0.5;"/>
     </g>
     <g id="line2d_34">
      <g>
       <use style="stroke:#000000;stroke-width:0.8;" x="47.504646" xlink:href="#m03bb640864" y="36.693484"/>
      </g>
     </g>
     <g id="text_18">
      <!-- 0.20 -->
      <g transform="translate(21.739021 40.492703)scale(0.1 -0.1)">
       <use xlink:href="#DejaVuSans-30"/>
       <use x="63.623047" xlink:href="#DejaVuSans-2e"/>
       <use x="95.410156" xlink:href="#DejaVuSans-32"/>
       <use x="159.033203" xlink:href="#DejaVuSans-30"/>
      </g>
     </g>
    </g>
    <g id="ytick_8">
     <g id="line2d_35">
      <path clip-path="url(#pb431bd93ce)" d="M 47.504646 5.354646 
L 429.165354 5.354646 
" style="fill:none;stroke:#000000;stroke-linecap:square;stroke-opacity:0.1;stroke-width:0.5;"/>
     </g>
     <g id="line2d_36">
      <g>
       <use style="stroke:#000000;stroke-width:0.8;" x="47.504646" xlink:href="#m03bb640864" y="5.354646"/>
      </g>
     </g>
     <g id="text_19">
      <!-- 0.25 -->
      <g transform="translate(21.739021 9.153864)scale(0.1 -0.1)">
       <use xlink:href="#DejaVuSans-30"/>
       <use x="63.623047" xlink:href="#DejaVuSans-2e"/>
       <use x="95.410156" xlink:href="#DejaVuSans-32"/>
       <use x="159.033203" xlink:href="#DejaVuSans-35"/>
      </g>
     </g>
    </g>
    <g id="text_20">
     <!-- Amplitude (m) -->
     <defs>
      <path d="M 34.1875 63.1875 
L 20.796875 26.90625 
L 47.609375 26.90625 
z
M 28.609375 72.90625 
L 39.796875 72.90625 
L 67.578125 0 
L 57.328125 0 
L 50.6875 18.703125 
L 17.828125 18.703125 
L 11.1875 0 
L 0.78125 0 
z
" id="DejaVuSans-41"/>
      <path d="M 18.109375 8.203125 
L 18.109375 -20.796875 
L 9.078125 -20.796875 
L 9.078125 54.6875 
L 18.109375 54.6875 
L 18.109375 46.390625 
Q 20.953125 51.265625 25.265625 53.625 
Q 29.59375 56 35.59375 56 
Q 45.5625 56 51.78125 48.09375 
Q 58.015625 40.1875 58.015625 27.296875 
Q 58.015625 14.40625 51.78125 6.484375 
Q 45.5625 -1.421875 35.59375 -1.421875 
Q 29.59375 -1.421875 25.265625 0.953125 
Q 20.953125 3.328125 18.109375 8.203125 
z
M 48.6875 27.296875 
Q 48.6875 37.203125 44.609375 42.84375 
Q 40.53125 48.484375 33.40625 48.484375 
Q 26.265625 48.484375 22.1875 42.84375 
Q 18.109375 37.203125 18.109375 27.296875 
Q 18.109375 17.390625 22.1875 11.75 
Q 26.265625 6.109375 33.40625 6.109375 
Q 40.53125 6.109375 44.609375 11.75 
Q 48.6875 17.390625 48.6875 27.296875 
z
" id="DejaVuSans-70"/>
      <path d="M 9.421875 75.984375 
L 18.40625 75.984375 
L 18.40625 0 
L 9.421875 0 
z
" id="DejaVuSans-6c"/>
      <path d="M 45.40625 46.390625 
L 45.40625 75.984375 
L 54.390625 75.984375 
L 54.390625 0 
L 45.40625 0 
L 45.40625 8.203125 
Q 42.578125 3.328125 38.25 0.953125 
Q 33.9375 -1.421875 27.875 -1.421875 
Q 17.96875 -1.421875 11.734375 6.484375 
Q 5.515625 14.40625 5.515625 27.296875 
Q 5.515625 40.1875 11.734375 48.09375 
Q 17.96875 56 27.875 56 
Q 33.9375 56 38.25 53.625 
Q 42.578125 51.265625 45.40625 46.390625 
z
M 14.796875 27.296875 
Q 14.796875 17.390625 18.875 11.75 
Q 22.953125 6.109375 30.078125 6.109375 
Q 37.203125 6.109375 41.296875 11.75 
Q 45.40625 17.390625 45.40625 27.296875 
Q 45.40625 37.203125 41.296875 42.84375 
Q 37.203125 48.484375 30.078125 48.484375 
Q 22.953125 48.484375 18.875 42.84375 
Q 14.796875 37.203125 14.796875 27.296875 
z
" id="DejaVuSans-64"/>
     </defs>
     <g transform="translate(11.635583 173.890312)rotate(-90)scale(0.12 -0.12)">
      <use xlink:href="#DejaVuSans-41"/>
      <use x="68.408203" xlink:href="#DejaVuSans-6d"/>
      <use x="165.820312" xlink:href="#DejaVuSans-70"/>
      <use x="229.296875" xlink:href="#DejaVuSans-6c"/>
      <use x="257.080078" xlink:href="#DejaVuSans-69"/>
      <use x="284.863281" xlink:href="#DejaVuSans-74"/>
      <use x="324.072266" xlink:href="#DejaVuSans-75"/>
      <use x="387.451172" xlink:href="#DejaVuSans-64"/>
      <use x="450.927734" xlink:href="#DejaVuSans-65"/>
      <use x="512.451172" xlink:href="#DejaVuSans-20"/>
      <use x="544.238281" xlink:href="#DejaVuSans-28"/>
      <use x="583.251953" xlink:href="#DejaVuSans-6d"/>
      <use x="680.664062" xlink:href="#DejaVuSans-29"/>
     </g>
    </g>
   </g>
   <g id="line2d_37">
    <path clip-path="url(#pb431bd93ce)" d="M 58.729961 162.048839 
L 154.202095 162.149711 
L 158.643885 162.398882 
L 170.170689 163.387505 
L 173.761376 163.354062 
L 176.992919 163.115622 
L 178.643153 162.838046 
L 179.633338 162.461094 
L 180.32246 161.975639 
L 181.040543 161.134104 
L 181.758739 159.778143 
L 182.476822 157.69588 
L 183.194906 154.650729 
L 183.913102 150.403245 
L 184.631185 144.742122 
L 185.349381 137.522976 
L 186.426562 123.736657 
L 187.862841 100.881593 
L 190.017203 65.130534 
L 190.735287 55.606348 
L 191.453482 48.478204 
L 192.171566 44.230976 
L 192.530664 43.165644 
L 192.889761 42.672621 
L 193.248747 42.617716 
L 193.607845 42.788199 
L 193.966943 43.202686 
L 194.325928 43.889634 
L 194.685026 44.937918 
L 195.403222 48.32339 
L 196.121305 53.284015 
L 197.198486 62.853016 
L 199.178744 83.483248 
L 201.964306 114.815336 
L 204.118668 141.691605 
L 208.427393 196.940185 
L 209.863672 211.718272 
L 210.940854 220.484378 
L 212.018035 227.054239 
L 212.73623 230.191257 
L 213.454314 232.308321 
L 213.813412 232.981166 
L 214.17251 233.404679 
L 214.531495 233.627999 
L 215.249691 233.663788 
L 215.967774 233.390012 
L 216.68597 232.790814 
L 217.404053 231.642872 
L 218.14672 229.78473 
L 218.889275 227.241395 
L 220.003163 222.26233 
L 221.451677 214.230368 
L 223.60604 200.526865 
L 226.1195 184.823399 
L 227.555779 177.332301 
L 228.704802 172.527493 
L 229.422998 170.142802 
L 230.284653 167.990267 
L 231.146421 166.654055 
L 232.008188 166.001643 
L 232.869955 165.72893 
L 233.731723 165.71816 
L 234.59349 166.090176 
L 235.455258 166.828459 
L 236.747853 168.387112 
L 238.79782 170.963836 
L 239.986019 171.895571 
L 240.580063 172.210137 
L 241.010891 172.302944 
L 241.44183 172.217226 
L 241.872658 171.942441 
L 242.734425 170.924405 
L 243.596193 169.322821 
L 244.45796 167.178341 
L 245.750555 163.14573 
L 246.612323 159.85045 
L 247.90503 153.870229 
L 250.49022 140.228658 
L 252.213755 131.61259 
L 253.506462 126.37105 
L 254.36823 123.619901 
L 255.229885 121.486115 
L 256.091652 120.036957 
L 256.95342 119.066029 
L 257.815187 118.375064 
L 258.409231 118.233582 
L 258.706365 118.358568 
L 259.300408 119.014878 
L 259.795445 119.877687 
L 260.78563 122.247555 
L 261.647397 124.849405 
L 262.939992 129.632627 
L 264.2327 135.476023 
L 265.956122 144.552171 
L 269.403192 164.522695 
L 271.557554 176.47415 
L 272.634736 181.624356 
L 273.711917 185.759434 
L 274.573684 188.174693 
L 275.435452 189.835056 
L 276.297219 190.864731 
L 277.158987 191.400369 
L 278.51579 191.878405 
L 279.010827 191.911442 
L 279.505975 191.745146 
L 280.001012 191.375423 
L 280.991197 190.262255 
L 283.576387 186.71095 
L 284.869094 185.070293 
L 286.161689 183.796864 
L 287.454284 182.934244 
L 288.746879 182.378694 
L 290.039586 182.092075 
L 291.763009 181.990882 
L 293.917372 182.09022 
L 295.210079 182.347362 
L 298.820252 183.215165 
L 300.008564 183.18874 
L 300.899742 182.987545 
L 301.735354 182.4975 
L 302.812536 181.504873 
L 303.889717 180.047761 
L 304.966898 177.977693 
L 306.044079 175.345394 
L 307.659963 170.664731 
L 309.814326 164.418356 
L 310.891507 161.923358 
L 311.968688 160.006564 
L 313.58446 157.81522 
L 314.661641 156.292089 
L 315.738823 154.271034 
L 316.816116 151.581917 
L 319.174442 145.02943 
L 319.917109 143.446198 
L 320.412146 142.701807 
L 320.907294 142.296345 
L 321.402331 142.259114 
L 322.479512 142.738818 
L 323.018103 143.115648 
L 324.095284 144.286223 
L 325.172465 145.833447 
L 326.788349 148.60647 
L 328.404121 152.03062 
L 332.174255 160.560468 
L 333.251436 162.542964 
L 334.328618 164.118665 
L 335.405911 165.207438 
L 336.483092 165.859357 
L 337.560274 166.066022 
L 338.637455 165.960064 
L 341.112861 165.560743 
L 342.146488 165.614136 
L 343.223669 165.889856 
L 344.839441 166.628992 
L 353.457003 171.365794 
L 354.534185 172.333995 
L 355.611478 173.636644 
L 356.150069 174.36242 
L 356.688659 174.353144 
L 358.843022 174.954003 
L 361.813465 174.63822 
L 363.967827 173.195418 
L 366.122302 171.392607 
L 368.276664 168.514705 
L 370.431027 165.128508 
L 374.739864 157.729385 
L 376.894226 154.946411 
L 379.048589 152.724769 
L 380.53381 151.95075 
L 382.019031 151.435327 
L 386.327869 151.531618 
L 388.482231 152.30162 
L 390.636594 153.280902 
L 394.945431 156.306581 
L 397.099793 158.523421 
L 399.254156 161.762157 
L 402.224598 164.606871 
L 406.533436 168.176869 
L 410.84216 170.567575 
L 415.150998 171.628238 
L 419.459723 171.521159 
L 419.459723 171.521159 
" style="fill:none;stroke:#009afa;stroke-linecap:round;"/>
   </g>
   <g id="line2d_38">
    <path clip-path="url(#pb431bd93ce)" d="M 47.280139 162.218066 
L 49.300696 162.657639 
L 49.974215 162.179586 
L 51.994772 162.631227 
L 52.668291 162.156551 
L 53.341809 162.309293 
L 54.015328 161.209044 
L 54.688847 161.989606 
L 55.362366 161.517013 
L 56.035885 161.671516 
L 56.709404 162.453033 
L 58.056442 161.509351 
L 58.729961 161.66432 
L 59.40348 161.192427 
L 60.076998 161.973921 
L 60.750517 160.874837 
L 61.424036 161.028979 
L 62.097555 161.809489 
L 62.771074 156.94852 
L 63.444593 167.7564 
L 64.118112 154.746113 
L 64.791631 163.045505 
L 65.46515 180.118962 
L 65.46515 145.64624 
L 65.46515 254.078621 
L 66.138669 133.887074 
L 66.138669 -1 
M 66.138669 -1 
L 66.138669 289 
M 66.138669 289 
L 66.138669 -1 
M 66.354001 -1 
L 66.812187 122.753714 
L 66.812187 1.159021 
L 66.812187 190.445606 
L 66.812187 130.901812 
L 67.485706 170.53632 
L 67.485706 143.584919 
L 67.485706 215.037471 
L 68.159225 218.317795 
L 68.159225 195.127055 
L 68.832744 135.728491 
L 69.506263 164.704162 
L 70.179782 147.296982 
L 70.853301 177.523387 
L 71.52682 146.950917 
L 72.200339 173.413526 
L 72.873857 152.86619 
L 73.547376 142.972295 
L 74.220895 164.415393 
L 74.894414 157.024838 
L 75.567933 176.583683 
L 76.241452 172.949709 
L 76.914971 161.792256 
L 77.58849 153.139676 
L 78.262009 165.795195 
L 78.935528 155.257583 
L 79.609046 150.985273 
L 80.282565 166.767276 
L 80.956084 165.623686 
L 81.629603 167.611283 
L 82.303122 152.673135 
L 82.976641 160.922878 
L 83.65016 162.275153 
L 84.323679 164.877981 
L 84.997198 144.913771 
L 85.670717 167.56723 
L 86.344235 165.146395 
L 87.017754 157.081269 
L 87.691273 157.787645 
L 88.364792 162.251234 
L 89.038311 155.429321 
L 89.71183 165.526787 
L 90.385349 158.070837 
L 91.058868 158.132468 
L 91.732387 162.577726 
L 92.405906 162.631662 
L 93.079424 157.667429 
L 93.752943 163.354374 
L 94.426462 159.63557 
L 95.099981 157.166152 
L 95.7735 163.46737 
L 96.447019 159.735851 
L 97.120538 158.507061 
L 97.794057 159.154155 
L 98.467576 165.437723 
L 99.141094 160.434725 
L 99.814613 159.814512 
L 100.488132 162.95024 
L 101.161651 158.559858 
L 101.83517 161.685944 
L 102.508689 156.659011 
L 103.182208 159.775189 
L 103.855727 160.379207 
L 104.529246 162.858438 
L 105.202765 157.811164 
L 105.876283 161.533519 
L 106.549802 159.609572 
L 107.223321 159.56058 
L 107.89684 158.879374 
L 108.570359 163.206882 
L 109.243878 157.5004 
L 109.917397 164.323828 
L 110.590916 157.97926 
L 112.611472 161.4748 
L 113.284991 159.494324 
L 113.95851 161.268525 
L 114.632029 160.529576 
L 115.305548 161.664856 
L 115.979067 160.286872 
L 116.652586 160.783003 
L 117.326105 161.899639 
L 118.673143 160.353215 
L 119.346661 160.823928 
L 120.02018 163.16848 
L 120.693699 159.865496 
L 122.040737 162.014556 
L 122.714256 159.945173 
L 123.387775 161.629697 
L 125.408331 161.001241 
L 126.08185 163.911795 
L 126.755369 158.04047 
L 127.428888 165.951182 
L 128.102407 161.319259 
L 128.775926 160.44085 
L 129.449445 158.928471 
L 130.122964 163.67662 
L 130.796483 162.776494 
L 131.470002 165.002924 
L 132.14352 163.461319 
L 132.817039 163.792628 
L 133.490558 163.489702 
L 134.164077 160.04539 
L 134.837596 162.234525 
L 135.511115 162.535747 
L 136.184634 167.216781 
L 136.858153 159.354615 
L 137.531672 163.393505 
L 138.205191 163.663992 
L 138.878709 162.046368 
L 139.552228 162.301259 
L 140.225747 161.921518 
L 140.899266 162.160665 
L 141.572785 163.018664 
L 142.246304 165.122257 
L 143.593342 161.784108 
L 144.266861 163.86362 
L 144.94038 163.427934 
L 145.613898 163.610902 
L 146.287417 161.905386 
L 146.960936 164.579123 
L 147.634455 162.85721 
L 148.307974 163.007386 
L 148.981493 161.268961 
L 149.655012 162.656123 
L 150.328531 163.408184 
L 151.675569 162.380124 
L 152.349087 162.480283 
L 153.022606 160.691689 
L 153.696125 163.908861 
L 154.369644 160.22302 
L 155.043163 160.916125 
L 155.716682 162.854271 
L 156.390201 161.649999 
L 157.06372 162.944283 
L 157.737239 161.09611 
L 158.410757 162.373231 
L 159.084276 162.388191 
L 159.757795 163.021303 
L 160.431314 161.765444 
L 161.104833 161.754482 
L 161.778352 162.988402 
L 162.451871 161.706529 
L 163.12539 161.042735 
L 163.798909 162.250559 
L 164.472428 162.822884 
L 165.145946 159.625812 
L 165.819465 161.43421 
L 166.492984 161.9803 
L 167.166503 161.264072 
L 167.840022 162.419402 
L 168.513541 162.939175 
L 169.18706 161.569831 
L 169.860579 163.325577 
L 170.534098 161.938642 
L 171.207617 163.05001 
L 171.881135 161.645464 
L 172.554654 162.112437 
L 173.228173 161.943821 
L 173.901692 161.139613 
L 175.24873 162.011856 
L 175.922249 161.1812 
L 176.595768 162.222059 
L 177.269287 161.373775 
L 177.942806 163.650564 
L 178.616324 162.157886 
L 179.289843 163.163511 
L 179.963362 162.906785 
L 180.636881 163.894819 
L 181.3104 163.620513 
L 181.983919 164.590981 
L 182.657438 164.299123 
L 183.330957 165.252055 
L 184.004476 164.315903 
L 184.677994 162.744229 
L 185.351513 158.656713 
L 186.025032 151.426592 
L 186.698551 139.173545 
L 187.37207 123.777916 
L 188.045589 100.852282 
L 188.045589 91.450631 
L 188.719108 73.530541 
L 188.719108 84.185746 
L 188.719108 62.875336 
L 189.392627 46.826921 
L 189.392627 56.855349 
L 189.392627 38.052046 
L 190.066146 25.128876 
L 190.066146 32.02342 
L 190.066146 19.487885 
L 190.739665 14.704189 
L 190.739665 15.330966 
L 191.413183 19.313539 
L 192.086702 33.315953 
L 194.107259 106.610693 
L 194.780778 124.339607 
L 195.454297 135.165489 
L 196.127816 137.208031 
L 196.801335 131.720808 
L 197.474854 122.464505 
L 198.148372 121.974682 
L 198.821891 128.997809 
L 199.49541 137.266146 
L 200.168929 131.1103 
L 200.842448 117.424841 
L 201.515967 107.491779 
L 202.189486 110.712796 
L 202.863005 115.805937 
L 203.536524 112.742805 
L 204.210043 113.432189 
L 205.55708 148.005818 
L 206.230599 144.283521 
L 206.904118 135.538994 
L 207.577637 149.977227 
L 208.251156 187.598254 
L 208.924675 198.886745 
L 210.271713 160.016016 
L 210.945231 163.759672 
L 211.61875 166.242012 
L 212.292269 158.6882 
L 212.965788 161.781909 
L 213.639307 173.642848 
L 214.312826 171.707095 
L 214.986345 171.017334 
L 215.659864 194.764347 
L 216.333383 222.89132 
L 217.006902 221.552351 
L 217.68042 200.149136 
L 218.353939 196.915103 
L 219.027458 210.596743 
L 219.700977 219.883692 
L 220.374496 219.761782 
L 221.048015 205.843623 
L 221.721534 181.263148 
L 222.395053 161.063047 
L 223.068572 157.778904 
L 223.742091 167.023332 
L 224.415609 180.021507 
L 225.089128 195.519925 
L 225.762647 187.820791 
L 226.436166 166.952586 
L 227.109685 178.670066 
L 227.783204 204.796759 
L 228.456723 191.429916 
L 229.130242 166.774546 
L 229.803761 180.972846 
L 230.47728 214.594793 
L 231.150798 214.364416 
L 231.824317 182.162103 
L 232.497836 172.51749 
L 233.171355 179.162869 
L 233.844874 172.639788 
L 235.191912 213.478227 
L 235.865431 195.655081 
L 236.53895 197.882886 
L 237.212469 215.147488 
L 237.885987 190.412262 
L 238.559506 180.087181 
L 239.233025 193.573959 
L 239.906544 185.117955 
L 241.253582 184.485616 
L 241.927101 177.266767 
L 242.60062 173.803244 
L 243.947657 146.803596 
L 244.621176 147.7119 
L 245.294695 141.720591 
L 245.968214 126.32263 
L 246.641733 129.096262 
L 247.315252 121.209826 
L 247.988771 110.811489 
L 248.66229 139.268588 
L 249.335809 149.544506 
L 250.009328 150.41419 
L 250.682846 155.040022 
L 251.356365 152.76687 
L 252.029884 171.799759 
L 252.703403 171.398274 
L 253.376922 165.351575 
L 254.050441 165.568494 
L 254.72396 151.365472 
L 255.397479 160.34919 
L 256.070998 151.779231 
L 256.744517 148.846412 
L 257.418035 158.445352 
L 258.091554 149.237289 
L 258.765073 146.920146 
L 259.438592 135.824581 
L 260.112111 134.753974 
L 260.78563 141.828071 
L 261.459149 131.975881 
L 262.132668 137.789872 
L 262.806187 136.079383 
L 263.479706 125.590939 
L 264.153224 135.783128 
L 264.826743 142.83851 
L 265.500262 154.278489 
L 266.173781 150.046286 
L 266.8473 138.290081 
L 268.194338 146.735564 
L 268.867857 166.310639 
L 269.541376 165.199723 
L 270.214894 169.100747 
L 270.888413 177.387016 
L 271.561932 188.178282 
L 272.235451 202.101404 
L 272.90897 200.97994 
L 273.582489 207.377936 
L 274.256008 193.090521 
L 274.929527 187.576287 
L 275.603046 178.299783 
L 276.276565 165.261094 
L 276.950083 166.636829 
L 277.623602 151.715012 
L 278.297121 154.96845 
L 278.97064 154.460042 
L 279.644159 174.634167 
L 280.317678 184.152071 
L 280.991197 169.851529 
L 281.664716 163.698242 
L 282.338235 156.290644 
L 283.011754 166.432125 
L 283.685272 167.17137 
L 284.358791 174.177885 
L 285.03231 177.423328 
L 285.705829 185.682661 
L 286.379348 168.870687 
L 287.052867 178.383187 
L 287.726386 182.254634 
L 288.399905 179.231562 
L 289.073424 189.997691 
L 289.746943 185.721379 
L 290.420461 179.565024 
L 291.09398 187.824911 
L 291.767499 185.430058 
L 292.441018 176.141212 
L 293.114537 168.733337 
L 293.788056 162.579744 
L 294.461575 170.842835 
L 295.135094 172.212286 
L 295.808613 178.596945 
L 296.482131 181.848803 
L 297.15565 166.925305 
L 297.829169 165.165379 
L 298.502688 167.794238 
L 299.176207 150.367678 
L 299.849726 154.87983 
L 300.523245 153.752604 
L 301.196764 154.507412 
L 301.870283 138.341038 
L 302.543802 149.127945 
L 303.21732 156.782937 
L 303.890839 156.291888 
L 304.564358 172.09918 
L 305.237877 165.344743 
L 305.911396 159.846182 
L 306.584915 161.871353 
L 307.258434 160.76514 
L 307.931953 161.541845 
L 308.605472 159.814118 
L 309.278991 169.997915 
L 309.952509 164.515144 
L 310.626028 165.303082 
L 311.299547 172.988592 
L 311.973066 164.381022 
L 312.646585 152.015995 
L 313.320104 142.788144 
L 313.993623 152.99375 
L 314.667142 152.547618 
L 315.340661 147.090825 
L 316.01418 138.503788 
L 316.687698 141.202461 
L 318.034736 154.759433 
L 318.708255 153.709146 
L 320.055293 163.529638 
L 320.728812 170.639928 
L 321.402331 171.486781 
L 322.07585 169.204167 
L 322.749369 168.179608 
L 323.422887 162.772199 
L 324.096406 159.876568 
L 324.769925 174.535444 
L 325.443444 172.276189 
L 326.116963 185.691277 
L 326.790482 175.293858 
L 327.464001 183.078058 
L 328.13752 180.839005 
L 328.811039 174.217775 
L 329.484557 160.080567 
L 330.158076 172.273407 
L 330.831595 176.950435 
L 331.505114 175.99206 
L 332.178633 173.159027 
L 332.852152 168.451417 
L 333.525671 170.644185 
L 334.19919 163.441217 
L 334.872709 169.406557 
L 336.219746 176.968107 
L 336.893265 177.9377 
L 337.566784 179.540384 
L 338.240303 174.881694 
L 338.913822 179.631129 
L 339.587341 183.13356 
L 340.26086 182.255182 
L 341.607898 178.011513 
L 342.281417 174.646376 
L 342.954935 173.795283 
L 343.628454 170.444094 
L 344.301973 172.114207 
L 344.975492 183.81991 
L 345.649011 187.384753 
L 346.32253 185.315917 
L 346.996049 171.345708 
L 347.669568 173.679154 
L 348.343087 179.780792 
L 349.690124 167.562662 
L 350.363643 157.391134 
L 351.037162 157.882632 
L 351.710681 164.649788 
L 353.057719 137.467562 
L 353.731238 141.751703 
L 354.404757 150.431451 
L 355.078276 154.105222 
L 355.751794 159.040852 
L 356.425313 169.625846 
L 357.098832 172.071182 
L 357.772351 171.391141 
L 358.44587 162.571573 
L 359.119389 155.640974 
L 359.792908 154.986845 
L 361.139946 175.015362 
L 361.813465 171.880618 
L 363.160502 154.35608 
L 363.834021 155.009053 
L 364.50754 154.417614 
L 365.181059 150.701493 
L 365.854578 147.621411 
L 366.528097 148.938089 
L 367.201616 149.010593 
L 367.875135 149.719313 
L 368.548654 152.31786 
L 369.222172 150.538522 
L 369.895691 151.275902 
L 370.56921 149.51584 
L 371.242729 149.64583 
L 371.916248 149.158819 
L 372.589767 149.935191 
L 373.263286 155.108884 
L 373.936805 151.517638 
L 374.610324 151.070264 
L 375.283843 155.647144 
L 375.957361 162.741222 
L 376.63088 152.295692 
L 377.304399 157.529772 
L 377.977918 155.879547 
L 378.651437 150.47895 
L 379.324956 155.117118 
L 379.998475 150.364016 
L 380.671994 150.008782 
L 381.345513 143.396255 
L 382.019031 151.210114 
L 382.69255 150.259663 
L 383.366069 146.812714 
L 384.039588 149.644183 
L 385.386626 152.83214 
L 386.060145 159.456476 
L 387.407183 155.187891 
L 388.080702 149.309261 
L 388.75422 144.695119 
L 389.427739 150.747153 
L 390.101258 151.795981 
L 390.774777 153.48263 
L 391.448296 151.419699 
L 392.795334 156.102087 
L 393.468853 156.579707 
L 394.142372 150.800772 
L 394.815891 152.554406 
L 395.489409 149.931878 
L 396.162928 142.933221 
L 396.836447 147.227882 
L 397.509966 150.280355 
L 398.857004 150.151743 
L 399.530523 153.865256 
L 400.204042 163.231234 
L 400.877561 168.221273 
L 401.55108 171.342505 
L 402.224598 169.461069 
L 402.898117 166.964427 
L 403.571636 166.986483 
L 404.245155 168.900483 
L 404.918674 167.692233 
L 405.592193 167.122412 
L 406.939231 177.926567 
L 407.61275 183.032809 
L 408.286269 186.897224 
L 408.959787 183.252058 
L 409.633306 188.393523 
L 410.306825 186.025437 
L 410.980344 180.535252 
L 411.653863 180.697854 
L 412.327382 185.259704 
L 413.000901 192.967257 
L 413.67442 192.538544 
L 414.347939 189.614564 
L 415.021457 187.955988 
L 415.694976 190.069929 
L 416.368495 190.315406 
L 417.042014 188.065647 
L 417.715533 188.334872 
L 418.389052 191.749864 
L 419.062571 193.296412 
L 420.409609 198.932288 
L 421.083128 189.859308 
L 422.430165 183.031015 
L 423.777203 183.771624 
L 424.450722 184.786543 
L 425.124241 178.918806 
L 425.79776 177.450391 
L 426.471279 166.592204 
L 427.144798 163.89399 
L 427.818317 168.728966 
L 428.491835 167.308036 
L 429.165354 172.793504 
L 429.838873 176.410487 
L 429.838873 176.410487 
" style="fill:none;stroke:#000000;stroke-dasharray:1.85,0.8;stroke-dashoffset:0;stroke-width:0.5;"/>
   </g>
   <g id="patch_3">
    <path d="M 47.504646 256.065354 
L 47.504646 5.354646 
" style="fill:none;stroke:#000000;stroke-linecap:square;stroke-linejoin:miter;"/>
   </g>
   <g id="patch_4">
    <path d="M 47.504646 256.065354 
L 429.165354 256.065354 
" style="fill:none;stroke:#000000;stroke-linecap:square;stroke-linejoin:miter;"/>
   </g>
   <g id="legend_1">
    <g id="patch_5">
     <path d="M 296.673167 42.710896 
L 422.165354 42.710896 
Q 424.165354 42.710896 424.165354 40.710896 
L 424.165354 12.354646 
Q 424.165354 10.354646 422.165354 10.354646 
L 296.673167 10.354646 
Q 294.673167 10.354646 294.673167 12.354646 
L 294.673167 40.710896 
Q 294.673167 42.710896 296.673167 42.710896 
z
" style="fill:#ffffff;stroke:#000000;stroke-linejoin:miter;"/>
    </g>
    <g id="line2d_39">
     <path d="M 298.673167 18.453083 
L 318.673167 18.453083 
" style="fill:none;stroke:#009afa;stroke-linecap:square;"/>
    </g>
    <g id="line2d_40"/>
    <g id="text_21">
     <!-- Gauge 32412 -->
     <defs>
      <path d="M 59.515625 10.40625 
L 59.515625 29.984375 
L 43.40625 29.984375 
L 43.40625 38.09375 
L 69.28125 38.09375 
L 69.28125 6.78125 
Q 63.578125 2.734375 56.6875 0.65625 
Q 49.8125 -1.421875 42 -1.421875 
Q 24.90625 -1.421875 15.25 8.5625 
Q 5.609375 18.5625 5.609375 36.375 
Q 5.609375 54.25 15.25 64.234375 
Q 24.90625 74.21875 42 74.21875 
Q 49.125 74.21875 55.546875 72.453125 
Q 61.96875 70.703125 67.390625 67.28125 
L 67.390625 56.78125 
Q 61.921875 61.421875 55.765625 63.765625 
Q 49.609375 66.109375 42.828125 66.109375 
Q 29.4375 66.109375 22.71875 58.640625 
Q 16.015625 51.171875 16.015625 36.375 
Q 16.015625 21.625 22.71875 14.15625 
Q 29.4375 6.6875 42.828125 6.6875 
Q 48.046875 6.6875 52.140625 7.59375 
Q 56.25 8.5 59.515625 10.40625 
z
" id="DejaVuSans-47"/>
      <path d="M 45.40625 27.984375 
Q 45.40625 37.75 41.375 43.109375 
Q 37.359375 48.484375 30.078125 48.484375 
Q 22.859375 48.484375 18.828125 43.109375 
Q 14.796875 37.75 14.796875 27.984375 
Q 14.796875 18.265625 18.828125 12.890625 
Q 22.859375 7.515625 30.078125 7.515625 
Q 37.359375 7.515625 41.375 12.890625 
Q 45.40625 18.265625 45.40625 27.984375 
z
M 54.390625 6.78125 
Q 54.390625 -7.171875 48.1875 -13.984375 
Q 42 -20.796875 29.203125 -20.796875 
Q 24.46875 -20.796875 20.265625 -20.09375 
Q 16.0625 -19.390625 12.109375 -17.921875 
L 12.109375 -9.1875 
Q 16.0625 -11.328125 19.921875 -12.34375 
Q 23.78125 -13.375 27.78125 -13.375 
Q 36.625 -13.375 41.015625 -8.765625 
Q 45.40625 -4.15625 45.40625 5.171875 
L 45.40625 9.625 
Q 42.625 4.78125 38.28125 2.390625 
Q 33.9375 0 27.875 0 
Q 17.828125 0 11.671875 7.65625 
Q 5.515625 15.328125 5.515625 27.984375 
Q 5.515625 40.671875 11.671875 48.328125 
Q 17.828125 56 27.875 56 
Q 33.9375 56 38.28125 53.609375 
Q 42.625 51.21875 45.40625 46.390625 
L 45.40625 54.6875 
L 54.390625 54.6875 
z
" id="DejaVuSans-67"/>
     </defs>
     <g transform="translate(326.673167 21.953083)scale(0.1 -0.1)">
      <use xlink:href="#DejaVuSans-47"/>
      <use x="77.490234" xlink:href="#DejaVuSans-61"/>
      <use x="138.769531" xlink:href="#DejaVuSans-75"/>
      <use x="202.148438" xlink:href="#DejaVuSans-67"/>
      <use x="265.625" xlink:href="#DejaVuSans-65"/>
      <use x="327.148438" xlink:href="#DejaVuSans-20"/>
      <use x="358.935547" xlink:href="#DejaVuSans-33"/>
      <use x="422.558594" xlink:href="#DejaVuSans-32"/>
      <use x="486.181641" xlink:href="#DejaVuSans-34"/>
      <use x="549.804688" xlink:href="#DejaVuSans-31"/>
      <use x="613.427734" xlink:href="#DejaVuSans-32"/>
     </g>
    </g>
    <g id="line2d_41">
     <path d="M 298.673167 33.131208 
L 318.673167 33.131208 
" style="fill:none;stroke:#000000;stroke-dasharray:1.85,0.8;stroke-dashoffset:0;stroke-width:0.5;"/>
    </g>
    <g id="line2d_42"/>
    <g id="text_22">
     <!-- Gauge 32412 Obs. -->
     <defs>
      <path d="M 39.40625 66.21875 
Q 28.65625 66.21875 22.328125 58.203125 
Q 16.015625 50.203125 16.015625 36.375 
Q 16.015625 22.609375 22.328125 14.59375 
Q 28.65625 6.59375 39.40625 6.59375 
Q 50.140625 6.59375 56.421875 14.59375 
Q 62.703125 22.609375 62.703125 36.375 
Q 62.703125 50.203125 56.421875 58.203125 
Q 50.140625 66.21875 39.40625 66.21875 
z
M 39.40625 74.21875 
Q 54.734375 74.21875 63.90625 63.9375 
Q 73.09375 53.65625 73.09375 36.375 
Q 73.09375 19.140625 63.90625 8.859375 
Q 54.734375 -1.421875 39.40625 -1.421875 
Q 24.03125 -1.421875 14.8125 8.828125 
Q 5.609375 19.09375 5.609375 36.375 
Q 5.609375 53.65625 14.8125 63.9375 
Q 24.03125 74.21875 39.40625 74.21875 
z
" id="DejaVuSans-4f"/>
      <path d="M 48.6875 27.296875 
Q 48.6875 37.203125 44.609375 42.84375 
Q 40.53125 48.484375 33.40625 48.484375 
Q 26.265625 48.484375 22.1875 42.84375 
Q 18.109375 37.203125 18.109375 27.296875 
Q 18.109375 17.390625 22.1875 11.75 
Q 26.265625 6.109375 33.40625 6.109375 
Q 40.53125 6.109375 44.609375 11.75 
Q 48.6875 17.390625 48.6875 27.296875 
z
M 18.109375 46.390625 
Q 20.953125 51.265625 25.265625 53.625 
Q 29.59375 56 35.59375 56 
Q 45.5625 56 51.78125 48.09375 
Q 58.015625 40.1875 58.015625 27.296875 
Q 58.015625 14.40625 51.78125 6.484375 
Q 45.5625 -1.421875 35.59375 -1.421875 
Q 29.59375 -1.421875 25.265625 0.953125 
Q 20.953125 3.328125 18.109375 8.203125 
L 18.109375 0 
L 9.078125 0 
L 9.078125 75.984375 
L 18.109375 75.984375 
z
" id="DejaVuSans-62"/>
     </defs>
     <g transform="translate(326.673167 36.631208)scale(0.1 -0.1)">
      <use xlink:href="#DejaVuSans-47"/>
      <use x="77.490234" xlink:href="#DejaVuSans-61"/>
      <use x="138.769531" xlink:href="#DejaVuSans-75"/>
      <use x="202.148438" xlink:href="#DejaVuSans-67"/>
      <use x="265.625" xlink:href="#DejaVuSans-65"/>
      <use x="327.148438" xlink:href="#DejaVuSans-20"/>
      <use x="358.935547" xlink:href="#DejaVuSans-33"/>
      <use x="422.558594" xlink:href="#DejaVuSans-32"/>
      <use x="486.181641" xlink:href="#DejaVuSans-34"/>
      <use x="549.804688" xlink:href="#DejaVuSans-31"/>
      <use x="613.427734" xlink:href="#DejaVuSans-32"/>
      <use x="677.050781" xlink:href="#DejaVuSans-20"/>
      <use x="708.837891" xlink:href="#DejaVuSans-4f"/>
      <use x="787.548828" xlink:href="#DejaVuSans-62"/>
      <use x="851.025391" xlink:href="#DejaVuSans-73"/>
      <use x="903.125" xlink:href="#DejaVuSans-2e"/>
     </g>
    </g>
   </g>
  </g>
 </g>
 <defs>
  <clipPath id="pb431bd93ce">
   <rect height="250.710709" width="381.660709" x="47.504646" y="5.354646"/>
  </clipPath>
 </defs>
</svg>
