<?xml version="1.0" encoding="utf-8" standalone="no"?>
<!DOCTYPE svg PUBLIC "-//W3C//DTD SVG 1.1//EN"
  "http://www.w3.org/Graphics/SVG/1.1/DTD/svg11.dtd">
<!-- Created with matplotlib (http://matplotlib.org/) -->
<svg height="288pt" version="1.1" viewBox="0 0 432 288" width="432pt" xmlns="http://www.w3.org/2000/svg" xmlns:xlink="http://www.w3.org/1999/xlink">
 <defs>
  <style type="text/css">
*{stroke-linecap:butt;stroke-linejoin:round;}
  </style>
 </defs>
 <g id="figure_1">
  <g id="patch_1">
   <path d="M 0 288 
L 432 288 
L 432 0 
L 0 0 
z
" style="fill:#ffffff;"/>
  </g>
  <g id="axes_1">
   <g id="patch_2">
    <path d="M 28.244646 256.065354 
L 429.165354 256.065354 
L 429.165354 2.834646 
L 28.244646 2.834646 
z
" style="fill:#ffffff;"/>
   </g>
   <g id="matplotlib.axis_1">
    <g id="xtick_1">
     <g id="line2d_1">
      <path clip-path="url(#p63816ae8d4)" d="M 39.591458 256.065354 
L 39.591458 2.834646 
" style="fill:none;stroke:#000000;stroke-linecap:square;stroke-opacity:0.1;stroke-width:0.5;"/>
     </g>
     <g id="line2d_2">
      <defs>
       <path d="M 0 0 
L 0 -3.5 
" id="ma7045627d1" style="stroke:#000000;stroke-width:0.8;"/>
      </defs>
      <g>
       <use style="stroke:#000000;stroke-width:0.8;" x="39.591458" xlink:href="#ma7045627d1" y="256.065354"/>
      </g>
     </g>
     <g id="text_1">
      <!-- -72 -->
      <defs>
       <path d="M 4.890625 31.390625 
L 31.203125 31.390625 
L 31.203125 23.390625 
L 4.890625 23.390625 
z
" id="DejaVuSans-2d"/>
       <path d="M 8.203125 72.90625 
L 55.078125 72.90625 
L 55.078125 68.703125 
L 28.609375 0 
L 18.3125 0 
L 43.21875 64.59375 
L 8.203125 64.59375 
z
" id="DejaVuSans-37"/>
       <path d="M 19.1875 8.296875 
L 53.609375 8.296875 
L 53.609375 0 
L 7.328125 0 
L 7.328125 8.296875 
Q 12.9375 14.109375 22.625 23.890625 
Q 32.328125 33.6875 34.8125 36.53125 
Q 39.546875 41.84375 41.421875 45.53125 
Q 43.3125 49.21875 43.3125 52.78125 
Q 43.3125 58.59375 39.234375 62.25 
Q 35.15625 65.921875 28.609375 65.921875 
Q 23.96875 65.921875 18.8125 64.3125 
Q 13.671875 62.703125 7.8125 59.421875 
L 7.8125 69.390625 
Q 13.765625 71.78125 18.9375 73 
Q 24.125 74.21875 28.421875 74.21875 
Q 39.75 74.21875 46.484375 68.546875 
Q 53.21875 62.890625 53.21875 53.421875 
Q 53.21875 48.921875 51.53125 44.890625 
Q 49.859375 40.875 45.40625 35.40625 
Q 44.1875 33.984375 37.640625 27.21875 
Q 31.109375 20.453125 19.1875 8.296875 
z
" id="DejaVuSans-32"/>
      </defs>
      <g transform="translate(31.425052 267.163792)scale(0.1 -0.1)">
       <use xlink:href="#DejaVuSans-2d"/>
       <use x="36.083984" xlink:href="#DejaVuSans-37"/>
       <use x="99.707031" xlink:href="#DejaVuSans-32"/>
      </g>
     </g>
    </g>
    <g id="xtick_2">
     <g id="line2d_3">
      <path clip-path="url(#p63816ae8d4)" d="M 86.873717 256.065354 
L 86.873717 2.834646 
" style="fill:none;stroke:#000000;stroke-linecap:square;stroke-opacity:0.1;stroke-width:0.5;"/>
     </g>
     <g id="line2d_4">
      <g>
       <use style="stroke:#000000;stroke-width:0.8;" x="86.873717" xlink:href="#ma7045627d1" y="256.065354"/>
      </g>
     </g>
     <g id="text_2">
      <!-- -60 -->
      <defs>
       <path d="M 33.015625 40.375 
Q 26.375 40.375 22.484375 35.828125 
Q 18.609375 31.296875 18.609375 23.390625 
Q 18.609375 15.53125 22.484375 10.953125 
Q 26.375 6.390625 33.015625 6.390625 
Q 39.65625 6.390625 43.53125 10.953125 
Q 47.40625 15.53125 47.40625 23.390625 
Q 47.40625 31.296875 43.53125 35.828125 
Q 39.65625 40.375 33.015625 40.375 
z
M 52.59375 71.296875 
L 52.59375 62.3125 
Q 48.875 64.0625 45.09375 64.984375 
Q 41.3125 65.921875 37.59375 65.921875 
Q 27.828125 65.921875 22.671875 59.328125 
Q 17.53125 52.734375 16.796875 39.40625 
Q 19.671875 43.65625 24.015625 45.921875 
Q 28.375 48.1875 33.59375 48.1875 
Q 44.578125 48.1875 50.953125 41.515625 
Q 57.328125 34.859375 57.328125 23.390625 
Q 57.328125 12.15625 50.6875 5.359375 
Q 44.046875 -1.421875 33.015625 -1.421875 
Q 20.359375 -1.421875 13.671875 8.265625 
Q 6.984375 17.96875 6.984375 36.375 
Q 6.984375 53.65625 15.1875 63.9375 
Q 23.390625 74.21875 37.203125 74.21875 
Q 40.921875 74.21875 44.703125 73.484375 
Q 48.484375 72.75 52.59375 71.296875 
z
" id="DejaVuSans-36"/>
       <path d="M 31.78125 66.40625 
Q 24.171875 66.40625 20.328125 58.90625 
Q 16.5 51.421875 16.5 36.375 
Q 16.5 21.390625 20.328125 13.890625 
Q 24.171875 6.390625 31.78125 6.390625 
Q 39.453125 6.390625 43.28125 13.890625 
Q 47.125 21.390625 47.125 36.375 
Q 47.125 51.421875 43.28125 58.90625 
Q 39.453125 66.40625 31.78125 66.40625 
z
M 31.78125 74.21875 
Q 44.046875 74.21875 50.515625 64.515625 
Q 56.984375 54.828125 56.984375 36.375 
Q 56.984375 17.96875 50.515625 8.265625 
Q 44.046875 -1.421875 31.78125 -1.421875 
Q 19.53125 -1.421875 13.0625 8.265625 
Q 6.59375 17.96875 6.59375 36.375 
Q 6.59375 54.828125 13.0625 64.515625 
Q 19.53125 74.21875 31.78125 74.21875 
z
" id="DejaVuSans-30"/>
      </defs>
      <g transform="translate(78.707311 267.163792)scale(0.1 -0.1)">
       <use xlink:href="#DejaVuSans-2d"/>
       <use x="36.083984" xlink:href="#DejaVuSans-36"/>
       <use x="99.707031" xlink:href="#DejaVuSans-30"/>
      </g>
     </g>
    </g>
    <g id="xtick_3">
     <g id="line2d_5">
      <path clip-path="url(#p63816ae8d4)" d="M 134.155975 256.065354 
L 134.155975 2.834646 
" style="fill:none;stroke:#000000;stroke-linecap:square;stroke-opacity:0.1;stroke-width:0.5;"/>
     </g>
     <g id="line2d_6">
      <g>
       <use style="stroke:#000000;stroke-width:0.8;" x="134.155975" xlink:href="#ma7045627d1" y="256.065354"/>
      </g>
     </g>
     <g id="text_3">
      <!-- -48 -->
      <defs>
       <path d="M 37.796875 64.3125 
L 12.890625 25.390625 
L 37.796875 25.390625 
z
M 35.203125 72.90625 
L 47.609375 72.90625 
L 47.609375 25.390625 
L 58.015625 25.390625 
L 58.015625 17.1875 
L 47.609375 17.1875 
L 47.609375 0 
L 37.796875 0 
L 37.796875 17.1875 
L 4.890625 17.1875 
L 4.890625 26.703125 
z
" id="DejaVuSans-34"/>
       <path d="M 31.78125 34.625 
Q 24.75 34.625 20.71875 30.859375 
Q 16.703125 27.09375 16.703125 20.515625 
Q 16.703125 13.921875 20.71875 10.15625 
Q 24.75 6.390625 31.78125 6.390625 
Q 38.8125 6.390625 42.859375 10.171875 
Q 46.921875 13.96875 46.921875 20.515625 
Q 46.921875 27.09375 42.890625 30.859375 
Q 38.875 34.625 31.78125 34.625 
z
M 21.921875 38.8125 
Q 15.578125 40.375 12.03125 44.71875 
Q 8.5 49.078125 8.5 55.328125 
Q 8.5 64.0625 14.71875 69.140625 
Q 20.953125 74.21875 31.78125 74.21875 
Q 42.671875 74.21875 48.875 69.140625 
Q 55.078125 64.0625 55.078125 55.328125 
Q 55.078125 49.078125 51.53125 44.71875 
Q 48 40.375 41.703125 38.8125 
Q 48.828125 37.15625 52.796875 32.3125 
Q 56.78125 27.484375 56.78125 20.515625 
Q 56.78125 9.90625 50.3125 4.234375 
Q 43.84375 -1.421875 31.78125 -1.421875 
Q 19.734375 -1.421875 13.25 4.234375 
Q 6.78125 9.90625 6.78125 20.515625 
Q 6.78125 27.484375 10.78125 32.3125 
Q 14.796875 37.15625 21.921875 38.8125 
z
M 18.3125 54.390625 
Q 18.3125 48.734375 21.84375 45.5625 
Q 25.390625 42.390625 31.78125 42.390625 
Q 38.140625 42.390625 41.71875 45.5625 
Q 45.3125 48.734375 45.3125 54.390625 
Q 45.3125 60.0625 41.71875 63.234375 
Q 38.140625 66.40625 31.78125 66.40625 
Q 25.390625 66.40625 21.84375 63.234375 
Q 18.3125 60.0625 18.3125 54.390625 
z
" id="DejaVuSans-38"/>
      </defs>
      <g transform="translate(125.989569 267.163792)scale(0.1 -0.1)">
       <use xlink:href="#DejaVuSans-2d"/>
       <use x="36.083984" xlink:href="#DejaVuSans-34"/>
       <use x="99.707031" xlink:href="#DejaVuSans-38"/>
      </g>
     </g>
    </g>
    <g id="xtick_4">
     <g id="line2d_7">
      <path clip-path="url(#p63816ae8d4)" d="M 181.438234 256.065354 
L 181.438234 2.834646 
" style="fill:none;stroke:#000000;stroke-linecap:square;stroke-opacity:0.1;stroke-width:0.5;"/>
     </g>
     <g id="line2d_8">
      <g>
       <use style="stroke:#000000;stroke-width:0.8;" x="181.438234" xlink:href="#ma7045627d1" y="256.065354"/>
      </g>
     </g>
     <g id="text_4">
      <!-- -36 -->
      <defs>
       <path d="M 40.578125 39.3125 
Q 47.65625 37.796875 51.625 33 
Q 55.609375 28.21875 55.609375 21.1875 
Q 55.609375 10.40625 48.1875 4.484375 
Q 40.765625 -1.421875 27.09375 -1.421875 
Q 22.515625 -1.421875 17.65625 -0.515625 
Q 12.796875 0.390625 7.625 2.203125 
L 7.625 11.71875 
Q 11.71875 9.328125 16.59375 8.109375 
Q 21.484375 6.890625 26.8125 6.890625 
Q 36.078125 6.890625 40.9375 10.546875 
Q 45.796875 14.203125 45.796875 21.1875 
Q 45.796875 27.640625 41.28125 31.265625 
Q 36.765625 34.90625 28.71875 34.90625 
L 20.21875 34.90625 
L 20.21875 43.015625 
L 29.109375 43.015625 
Q 36.375 43.015625 40.234375 45.921875 
Q 44.09375 48.828125 44.09375 54.296875 
Q 44.09375 59.90625 40.109375 62.90625 
Q 36.140625 65.921875 28.71875 65.921875 
Q 24.65625 65.921875 20.015625 65.03125 
Q 15.375 64.15625 9.8125 62.3125 
L 9.8125 71.09375 
Q 15.4375 72.65625 20.34375 73.4375 
Q 25.25 74.21875 29.59375 74.21875 
Q 40.828125 74.21875 47.359375 69.109375 
Q 53.90625 64.015625 53.90625 55.328125 
Q 53.90625 49.265625 50.4375 45.09375 
Q 46.96875 40.921875 40.578125 39.3125 
z
" id="DejaVuSans-33"/>
      </defs>
      <g transform="translate(173.271828 267.163792)scale(0.1 -0.1)">
       <use xlink:href="#DejaVuSans-2d"/>
       <use x="36.083984" xlink:href="#DejaVuSans-33"/>
       <use x="99.707031" xlink:href="#DejaVuSans-36"/>
      </g>
     </g>
    </g>
    <g id="xtick_5">
     <g id="line2d_9">
      <path clip-path="url(#p63816ae8d4)" d="M 228.720493 256.065354 
L 228.720493 2.834646 
" style="fill:none;stroke:#000000;stroke-linecap:square;stroke-opacity:0.1;stroke-width:0.5;"/>
     </g>
     <g id="line2d_10">
      <g>
       <use style="stroke:#000000;stroke-width:0.8;" x="228.720493" xlink:href="#ma7045627d1" y="256.065354"/>
      </g>
     </g>
     <g id="text_5">
      <!-- -24 -->
      <g transform="translate(220.554086 267.163792)scale(0.1 -0.1)">
       <use xlink:href="#DejaVuSans-2d"/>
       <use x="36.083984" xlink:href="#DejaVuSans-32"/>
       <use x="99.707031" xlink:href="#DejaVuSans-34"/>
      </g>
     </g>
    </g>
    <g id="xtick_6">
     <g id="line2d_11">
      <path clip-path="url(#p63816ae8d4)" d="M 276.002751 256.065354 
L 276.002751 2.834646 
" style="fill:none;stroke:#000000;stroke-linecap:square;stroke-opacity:0.1;stroke-width:0.5;"/>
     </g>
     <g id="line2d_12">
      <g>
       <use style="stroke:#000000;stroke-width:0.8;" x="276.002751" xlink:href="#ma7045627d1" y="256.065354"/>
      </g>
     </g>
     <g id="text_6">
      <!-- -12 -->
      <defs>
       <path d="M 12.40625 8.296875 
L 28.515625 8.296875 
L 28.515625 63.921875 
L 10.984375 60.40625 
L 10.984375 69.390625 
L 28.421875 72.90625 
L 38.28125 72.90625 
L 38.28125 8.296875 
L 54.390625 8.296875 
L 54.390625 0 
L 12.40625 0 
z
" id="DejaVuSans-31"/>
      </defs>
      <g transform="translate(267.836345 267.163792)scale(0.1 -0.1)">
       <use xlink:href="#DejaVuSans-2d"/>
       <use x="36.083984" xlink:href="#DejaVuSans-31"/>
       <use x="99.707031" xlink:href="#DejaVuSans-32"/>
      </g>
     </g>
    </g>
    <g id="xtick_7">
     <g id="line2d_13">
      <path clip-path="url(#p63816ae8d4)" d="M 323.28501 256.065354 
L 323.28501 2.834646 
" style="fill:none;stroke:#000000;stroke-linecap:square;stroke-opacity:0.1;stroke-width:0.5;"/>
     </g>
     <g id="line2d_14">
      <g>
       <use style="stroke:#000000;stroke-width:0.8;" x="323.28501" xlink:href="#ma7045627d1" y="256.065354"/>
      </g>
     </g>
     <g id="text_7">
      <!-- 0 -->
      <g transform="translate(320.10376 267.163792)scale(0.1 -0.1)">
       <use xlink:href="#DejaVuSans-30"/>
      </g>
     </g>
    </g>
    <g id="xtick_8">
     <g id="line2d_15">
      <path clip-path="url(#p63816ae8d4)" d="M 370.567268 256.065354 
L 370.567268 2.834646 
" style="fill:none;stroke:#000000;stroke-linecap:square;stroke-opacity:0.1;stroke-width:0.5;"/>
     </g>
     <g id="line2d_16">
      <g>
       <use style="stroke:#000000;stroke-width:0.8;" x="370.567268" xlink:href="#ma7045627d1" y="256.065354"/>
      </g>
     </g>
     <g id="text_8">
      <!-- 12 -->
      <g transform="translate(364.204768 267.163792)scale(0.1 -0.1)">
       <use xlink:href="#DejaVuSans-31"/>
       <use x="63.623047" xlink:href="#DejaVuSans-32"/>
      </g>
     </g>
    </g>
    <g id="xtick_9">
     <g id="line2d_17">
      <path clip-path="url(#p63816ae8d4)" d="M 417.849527 256.065354 
L 417.849527 2.834646 
" style="fill:none;stroke:#000000;stroke-linecap:square;stroke-opacity:0.1;stroke-width:0.5;"/>
     </g>
     <g id="line2d_18">
      <g>
       <use style="stroke:#000000;stroke-width:0.8;" x="417.849527" xlink:href="#ma7045627d1" y="256.065354"/>
      </g>
     </g>
     <g id="text_9">
      <!-- 24 -->
      <g transform="translate(411.487027 267.163792)scale(0.1 -0.1)">
       <use xlink:href="#DejaVuSans-32"/>
       <use x="63.623047" xlink:href="#DejaVuSans-34"/>
      </g>
     </g>
    </g>
    <g id="text_10">
     <!-- Hours relative to landfall -->
     <defs>
      <path d="M 9.8125 72.90625 
L 19.671875 72.90625 
L 19.671875 43.015625 
L 55.515625 43.015625 
L 55.515625 72.90625 
L 65.375 72.90625 
L 65.375 0 
L 55.515625 0 
L 55.515625 34.71875 
L 19.671875 34.71875 
L 19.671875 0 
L 9.8125 0 
z
" id="DejaVuSans-48"/>
      <path d="M 30.609375 48.390625 
Q 23.390625 48.390625 19.1875 42.75 
Q 14.984375 37.109375 14.984375 27.296875 
Q 14.984375 17.484375 19.15625 11.84375 
Q 23.34375 6.203125 30.609375 6.203125 
Q 37.796875 6.203125 41.984375 11.859375 
Q 46.1875 17.53125 46.1875 27.296875 
Q 46.1875 37.015625 41.984375 42.703125 
Q 37.796875 48.390625 30.609375 48.390625 
z
M 30.609375 56 
Q 42.328125 56 49.015625 48.375 
Q 55.71875 40.765625 55.71875 27.296875 
Q 55.71875 13.875 49.015625 6.21875 
Q 42.328125 -1.421875 30.609375 -1.421875 
Q 18.84375 -1.421875 12.171875 6.21875 
Q 5.515625 13.875 5.515625 27.296875 
Q 5.515625 40.765625 12.171875 48.375 
Q 18.84375 56 30.609375 56 
z
" id="DejaVuSans-6f"/>
      <path d="M 8.5 21.578125 
L 8.5 54.6875 
L 17.484375 54.6875 
L 17.484375 21.921875 
Q 17.484375 14.15625 20.5 10.265625 
Q 23.53125 6.390625 29.59375 6.390625 
Q 36.859375 6.390625 41.078125 11.03125 
Q 45.3125 15.671875 45.3125 23.6875 
L 45.3125 54.6875 
L 54.296875 54.6875 
L 54.296875 0 
L 45.3125 0 
L 45.3125 8.40625 
Q 42.046875 3.421875 37.71875 1 
Q 33.40625 -1.421875 27.6875 -1.421875 
Q 18.265625 -1.421875 13.375 4.4375 
Q 8.5 10.296875 8.5 21.578125 
z
M 31.109375 56 
z
" id="DejaVuSans-75"/>
      <path d="M 41.109375 46.296875 
Q 39.59375 47.171875 37.8125 47.578125 
Q 36.03125 48 33.890625 48 
Q 26.265625 48 22.1875 43.046875 
Q 18.109375 38.09375 18.109375 28.8125 
L 18.109375 0 
L 9.078125 0 
L 9.078125 54.6875 
L 18.109375 54.6875 
L 18.109375 46.1875 
Q 20.953125 51.171875 25.484375 53.578125 
Q 30.03125 56 36.53125 56 
Q 37.453125 56 38.578125 55.875 
Q 39.703125 55.765625 41.0625 55.515625 
z
" id="DejaVuSans-72"/>
      <path d="M 44.28125 53.078125 
L 44.28125 44.578125 
Q 40.484375 46.53125 36.375 47.5 
Q 32.28125 48.484375 27.875 48.484375 
Q 21.1875 48.484375 17.84375 46.4375 
Q 14.5 44.390625 14.5 40.28125 
Q 14.5 37.15625 16.890625 35.375 
Q 19.28125 33.59375 26.515625 31.984375 
L 29.59375 31.296875 
Q 39.15625 29.25 43.1875 25.515625 
Q 47.21875 21.78125 47.21875 15.09375 
Q 47.21875 7.46875 41.1875 3.015625 
Q 35.15625 -1.421875 24.609375 -1.421875 
Q 20.21875 -1.421875 15.453125 -0.5625 
Q 10.6875 0.296875 5.421875 2 
L 5.421875 11.28125 
Q 10.40625 8.6875 15.234375 7.390625 
Q 20.0625 6.109375 24.8125 6.109375 
Q 31.15625 6.109375 34.5625 8.28125 
Q 37.984375 10.453125 37.984375 14.40625 
Q 37.984375 18.0625 35.515625 20.015625 
Q 33.0625 21.96875 24.703125 23.78125 
L 21.578125 24.515625 
Q 13.234375 26.265625 9.515625 29.90625 
Q 5.8125 33.546875 5.8125 39.890625 
Q 5.8125 47.609375 11.28125 51.796875 
Q 16.75 56 26.8125 56 
Q 31.78125 56 36.171875 55.265625 
Q 40.578125 54.546875 44.28125 53.078125 
z
" id="DejaVuSans-73"/>
      <path id="DejaVuSans-20"/>
      <path d="M 56.203125 29.59375 
L 56.203125 25.203125 
L 14.890625 25.203125 
Q 15.484375 15.921875 20.484375 11.0625 
Q 25.484375 6.203125 34.421875 6.203125 
Q 39.59375 6.203125 44.453125 7.46875 
Q 49.3125 8.734375 54.109375 11.28125 
L 54.109375 2.78125 
Q 49.265625 0.734375 44.1875 -0.34375 
Q 39.109375 -1.421875 33.890625 -1.421875 
Q 20.796875 -1.421875 13.15625 6.1875 
Q 5.515625 13.8125 5.515625 26.8125 
Q 5.515625 40.234375 12.765625 48.109375 
Q 20.015625 56 32.328125 56 
Q 43.359375 56 49.78125 48.890625 
Q 56.203125 41.796875 56.203125 29.59375 
z
M 47.21875 32.234375 
Q 47.125 39.59375 43.09375 43.984375 
Q 39.0625 48.390625 32.421875 48.390625 
Q 24.90625 48.390625 20.390625 44.140625 
Q 15.875 39.890625 15.1875 32.171875 
z
" id="DejaVuSans-65"/>
      <path d="M 9.421875 75.984375 
L 18.40625 75.984375 
L 18.40625 0 
L 9.421875 0 
z
" id="DejaVuSans-6c"/>
      <path d="M 34.28125 27.484375 
Q 23.390625 27.484375 19.1875 25 
Q 14.984375 22.515625 14.984375 16.5 
Q 14.984375 11.71875 18.140625 8.90625 
Q 21.296875 6.109375 26.703125 6.109375 
Q 34.1875 6.109375 38.703125 11.40625 
Q 43.21875 16.703125 43.21875 25.484375 
L 43.21875 27.484375 
z
M 52.203125 31.203125 
L 52.203125 0 
L 43.21875 0 
L 43.21875 8.296875 
Q 40.140625 3.328125 35.546875 0.953125 
Q 30.953125 -1.421875 24.3125 -1.421875 
Q 15.921875 -1.421875 10.953125 3.296875 
Q 6 8.015625 6 15.921875 
Q 6 25.140625 12.171875 29.828125 
Q 18.359375 34.515625 30.609375 34.515625 
L 43.21875 34.515625 
L 43.21875 35.40625 
Q 43.21875 41.609375 39.140625 45 
Q 35.0625 48.390625 27.6875 48.390625 
Q 23 48.390625 18.546875 47.265625 
Q 14.109375 46.140625 10.015625 43.890625 
L 10.015625 52.203125 
Q 14.9375 54.109375 19.578125 55.046875 
Q 24.21875 56 28.609375 56 
Q 40.484375 56 46.34375 49.84375 
Q 52.203125 43.703125 52.203125 31.203125 
z
" id="DejaVuSans-61"/>
      <path d="M 18.3125 70.21875 
L 18.3125 54.6875 
L 36.8125 54.6875 
L 36.8125 47.703125 
L 18.3125 47.703125 
L 18.3125 18.015625 
Q 18.3125 11.328125 20.140625 9.421875 
Q 21.96875 7.515625 27.59375 7.515625 
L 36.8125 7.515625 
L 36.8125 0 
L 27.59375 0 
Q 17.1875 0 13.234375 3.875 
Q 9.28125 7.765625 9.28125 18.015625 
L 9.28125 47.703125 
L 2.6875 47.703125 
L 2.6875 54.6875 
L 9.28125 54.6875 
L 9.28125 70.21875 
z
" id="DejaVuSans-74"/>
      <path d="M 9.421875 54.6875 
L 18.40625 54.6875 
L 18.40625 0 
L 9.421875 0 
z
M 9.421875 75.984375 
L 18.40625 75.984375 
L 18.40625 64.59375 
L 9.421875 64.59375 
z
" id="DejaVuSans-69"/>
      <path d="M 2.984375 54.6875 
L 12.5 54.6875 
L 29.59375 8.796875 
L 46.6875 54.6875 
L 56.203125 54.6875 
L 35.6875 0 
L 23.484375 0 
z
" id="DejaVuSans-76"/>
      <path d="M 54.890625 33.015625 
L 54.890625 0 
L 45.90625 0 
L 45.90625 32.71875 
Q 45.90625 40.484375 42.875 44.328125 
Q 39.84375 48.1875 33.796875 48.1875 
Q 26.515625 48.1875 22.3125 43.546875 
Q 18.109375 38.921875 18.109375 30.90625 
L 18.109375 0 
L 9.078125 0 
L 9.078125 54.6875 
L 18.109375 54.6875 
L 18.109375 46.1875 
Q 21.34375 51.125 25.703125 53.5625 
Q 30.078125 56 35.796875 56 
Q 45.21875 56 50.046875 50.171875 
Q 54.890625 44.34375 54.890625 33.015625 
z
" id="DejaVuSans-6e"/>
      <path d="M 45.40625 46.390625 
L 45.40625 75.984375 
L 54.390625 75.984375 
L 54.390625 0 
L 45.40625 0 
L 45.40625 8.203125 
Q 42.578125 3.328125 38.25 0.953125 
Q 33.9375 -1.421875 27.875 -1.421875 
Q 17.96875 -1.421875 11.734375 6.484375 
Q 5.515625 14.40625 5.515625 27.296875 
Q 5.515625 40.1875 11.734375 48.09375 
Q 17.96875 56 27.875 56 
Q 33.9375 56 38.25 53.625 
Q 42.578125 51.265625 45.40625 46.390625 
z
M 14.796875 27.296875 
Q 14.796875 17.390625 18.875 11.75 
Q 22.953125 6.109375 30.078125 6.109375 
Q 37.203125 6.109375 41.296875 11.75 
Q 45.40625 17.390625 45.40625 27.296875 
Q 45.40625 37.203125 41.296875 42.84375 
Q 37.203125 48.484375 30.078125 48.484375 
Q 22.953125 48.484375 18.875 42.84375 
Q 14.796875 37.203125 14.796875 27.296875 
z
" id="DejaVuSans-64"/>
      <path d="M 37.109375 75.984375 
L 37.109375 68.5 
L 28.515625 68.5 
Q 23.6875 68.5 21.796875 66.546875 
Q 19.921875 64.59375 19.921875 59.515625 
L 19.921875 54.6875 
L 34.71875 54.6875 
L 34.71875 47.703125 
L 19.921875 47.703125 
L 19.921875 0 
L 10.890625 0 
L 10.890625 47.703125 
L 2.296875 47.703125 
L 2.296875 54.6875 
L 10.890625 54.6875 
L 10.890625 58.5 
Q 10.890625 67.625 15.140625 71.796875 
Q 19.390625 75.984375 28.609375 75.984375 
z
" id="DejaVuSans-66"/>
     </defs>
     <g transform="translate(154.542188 282.361604)scale(0.12 -0.12)">
      <use xlink:href="#DejaVuSans-48"/>
      <use x="75.195312" xlink:href="#DejaVuSans-6f"/>
      <use x="136.376953" xlink:href="#DejaVuSans-75"/>
      <use x="199.755859" xlink:href="#DejaVuSans-72"/>
      <use x="240.869141" xlink:href="#DejaVuSans-73"/>
      <use x="292.96875" xlink:href="#DejaVuSans-20"/>
      <use x="324.755859" xlink:href="#DejaVuSans-72"/>
      <use x="365.837891" xlink:href="#DejaVuSans-65"/>
      <use x="427.361328" xlink:href="#DejaVuSans-6c"/>
      <use x="455.144531" xlink:href="#DejaVuSans-61"/>
      <use x="516.423828" xlink:href="#DejaVuSans-74"/>
      <use x="555.632812" xlink:href="#DejaVuSans-69"/>
      <use x="583.416016" xlink:href="#DejaVuSans-76"/>
      <use x="642.595703" xlink:href="#DejaVuSans-65"/>
      <use x="704.119141" xlink:href="#DejaVuSans-20"/>
      <use x="735.90625" xlink:href="#DejaVuSans-74"/>
      <use x="775.115234" xlink:href="#DejaVuSans-6f"/>
      <use x="836.296875" xlink:href="#DejaVuSans-20"/>
      <use x="868.083984" xlink:href="#DejaVuSans-6c"/>
      <use x="895.867188" xlink:href="#DejaVuSans-61"/>
      <use x="957.146484" xlink:href="#DejaVuSans-6e"/>
      <use x="1020.525391" xlink:href="#DejaVuSans-64"/>
      <use x="1084.001953" xlink:href="#DejaVuSans-66"/>
      <use x="1119.207031" xlink:href="#DejaVuSans-61"/>
      <use x="1180.486328" xlink:href="#DejaVuSans-6c"/>
      <use x="1208.269531" xlink:href="#DejaVuSans-6c"/>
     </g>
    </g>
   </g>
   <g id="matplotlib.axis_2">
    <g id="ytick_1">
     <g id="line2d_19">
      <path clip-path="url(#p63816ae8d4)" d="M 28.244646 221.871053 
L 429.165354 221.871053 
" style="fill:none;stroke:#000000;stroke-linecap:square;stroke-opacity:0.1;stroke-width:0.5;"/>
     </g>
     <g id="line2d_20">
      <defs>
       <path d="M 0 0 
L 3.5 0 
" id="ma7b43088fb" style="stroke:#000000;stroke-width:0.8;"/>
      </defs>
      <g>
       <use style="stroke:#000000;stroke-width:0.8;" x="28.244646" xlink:href="#ma7b43088fb" y="221.871053"/>
      </g>
     </g>
     <g id="text_11">
      <!-- 0 -->
      <g transform="translate(18.382146 225.670272)scale(0.1 -0.1)">
       <use xlink:href="#DejaVuSans-30"/>
      </g>
     </g>
    </g>
    <g id="ytick_2">
     <g id="line2d_21">
      <path clip-path="url(#p63816ae8d4)" d="M 28.244646 160.238351 
L 429.165354 160.238351 
" style="fill:none;stroke:#000000;stroke-linecap:square;stroke-opacity:0.1;stroke-width:0.5;"/>
     </g>
     <g id="line2d_22">
      <g>
       <use style="stroke:#000000;stroke-width:0.8;" x="28.244646" xlink:href="#ma7b43088fb" y="160.238351"/>
      </g>
     </g>
     <g id="text_12">
      <!-- 1 -->
      <g transform="translate(18.382146 164.03757)scale(0.1 -0.1)">
       <use xlink:href="#DejaVuSans-31"/>
      </g>
     </g>
    </g>
    <g id="ytick_3">
     <g id="line2d_23">
      <path clip-path="url(#p63816ae8d4)" d="M 28.244646 98.605649 
L 429.165354 98.605649 
" style="fill:none;stroke:#000000;stroke-linecap:square;stroke-opacity:0.1;stroke-width:0.5;"/>
     </g>
     <g id="line2d_24">
      <g>
       <use style="stroke:#000000;stroke-width:0.8;" x="28.244646" xlink:href="#ma7b43088fb" y="98.605649"/>
      </g>
     </g>
     <g id="text_13">
      <!-- 2 -->
      <g transform="translate(18.382146 102.404868)scale(0.1 -0.1)">
       <use xlink:href="#DejaVuSans-32"/>
      </g>
     </g>
    </g>
    <g id="ytick_4">
     <g id="line2d_25">
      <path clip-path="url(#p63816ae8d4)" d="M 28.244646 36.972947 
L 429.165354 36.972947 
" style="fill:none;stroke:#000000;stroke-linecap:square;stroke-opacity:0.1;stroke-width:0.5;"/>
     </g>
     <g id="line2d_26">
      <g>
       <use style="stroke:#000000;stroke-width:0.8;" x="28.244646" xlink:href="#ma7b43088fb" y="36.972947"/>
      </g>
     </g>
     <g id="text_14">
      <!-- 3 -->
      <g transform="translate(18.382146 40.772166)scale(0.1 -0.1)">
       <use xlink:href="#DejaVuSans-33"/>
      </g>
     </g>
    </g>
    <g id="text_15">
     <!-- Surface (m) -->
     <defs>
      <path d="M 53.515625 70.515625 
L 53.515625 60.890625 
Q 47.90625 63.578125 42.921875 64.890625 
Q 37.9375 66.21875 33.296875 66.21875 
Q 25.25 66.21875 20.875 63.09375 
Q 16.5 59.96875 16.5 54.203125 
Q 16.5 49.359375 19.40625 46.890625 
Q 22.3125 44.4375 30.421875 42.921875 
L 36.375 41.703125 
Q 47.40625 39.59375 52.65625 34.296875 
Q 57.90625 29 57.90625 20.125 
Q 57.90625 9.515625 50.796875 4.046875 
Q 43.703125 -1.421875 29.984375 -1.421875 
Q 24.8125 -1.421875 18.96875 -0.25 
Q 13.140625 0.921875 6.890625 3.21875 
L 6.890625 13.375 
Q 12.890625 10.015625 18.65625 8.296875 
Q 24.421875 6.59375 29.984375 6.59375 
Q 38.421875 6.59375 43.015625 9.90625 
Q 47.609375 13.234375 47.609375 19.390625 
Q 47.609375 24.75 44.3125 27.78125 
Q 41.015625 30.8125 33.5 32.328125 
L 27.484375 33.5 
Q 16.453125 35.6875 11.515625 40.375 
Q 6.59375 45.0625 6.59375 53.421875 
Q 6.59375 63.09375 13.40625 68.65625 
Q 20.21875 74.21875 32.171875 74.21875 
Q 37.3125 74.21875 42.625 73.28125 
Q 47.953125 72.359375 53.515625 70.515625 
z
" id="DejaVuSans-53"/>
      <path d="M 48.78125 52.59375 
L 48.78125 44.1875 
Q 44.96875 46.296875 41.140625 47.34375 
Q 37.3125 48.390625 33.40625 48.390625 
Q 24.65625 48.390625 19.8125 42.84375 
Q 14.984375 37.3125 14.984375 27.296875 
Q 14.984375 17.28125 19.8125 11.734375 
Q 24.65625 6.203125 33.40625 6.203125 
Q 37.3125 6.203125 41.140625 7.25 
Q 44.96875 8.296875 48.78125 10.40625 
L 48.78125 2.09375 
Q 45.015625 0.34375 40.984375 -0.53125 
Q 36.96875 -1.421875 32.421875 -1.421875 
Q 20.0625 -1.421875 12.78125 6.34375 
Q 5.515625 14.109375 5.515625 27.296875 
Q 5.515625 40.671875 12.859375 48.328125 
Q 20.21875 56 33.015625 56 
Q 37.15625 56 41.109375 55.140625 
Q 45.0625 54.296875 48.78125 52.59375 
z
" id="DejaVuSans-63"/>
      <path d="M 31 75.875 
Q 24.46875 64.65625 21.28125 53.65625 
Q 18.109375 42.671875 18.109375 31.390625 
Q 18.109375 20.125 21.3125 9.0625 
Q 24.515625 -2 31 -13.1875 
L 23.1875 -13.1875 
Q 15.875 -1.703125 12.234375 9.375 
Q 8.59375 20.453125 8.59375 31.390625 
Q 8.59375 42.28125 12.203125 53.3125 
Q 15.828125 64.359375 23.1875 75.875 
z
" id="DejaVuSans-28"/>
      <path d="M 52 44.1875 
Q 55.375 50.25 60.0625 53.125 
Q 64.75 56 71.09375 56 
Q 79.640625 56 84.28125 50.015625 
Q 88.921875 44.046875 88.921875 33.015625 
L 88.921875 0 
L 79.890625 0 
L 79.890625 32.71875 
Q 79.890625 40.578125 77.09375 44.375 
Q 74.3125 48.1875 68.609375 48.1875 
Q 61.625 48.1875 57.5625 43.546875 
Q 53.515625 38.921875 53.515625 30.90625 
L 53.515625 0 
L 44.484375 0 
L 44.484375 32.71875 
Q 44.484375 40.625 41.703125 44.40625 
Q 38.921875 48.1875 33.109375 48.1875 
Q 26.21875 48.1875 22.15625 43.53125 
Q 18.109375 38.875 18.109375 30.90625 
L 18.109375 0 
L 9.078125 0 
L 9.078125 54.6875 
L 18.109375 54.6875 
L 18.109375 46.1875 
Q 21.1875 51.21875 25.484375 53.609375 
Q 29.78125 56 35.6875 56 
Q 41.65625 56 45.828125 52.96875 
Q 50 49.953125 52 44.1875 
z
" id="DejaVuSans-6d"/>
      <path d="M 8.015625 75.875 
L 15.828125 75.875 
Q 23.140625 64.359375 26.78125 53.3125 
Q 30.421875 42.28125 30.421875 31.390625 
Q 30.421875 20.453125 26.78125 9.375 
Q 23.140625 -1.703125 15.828125 -13.1875 
L 8.015625 -13.1875 
Q 14.5 -2 17.703125 9.0625 
Q 20.90625 20.125 20.90625 31.390625 
Q 20.90625 42.671875 17.703125 53.65625 
Q 14.5 64.65625 8.015625 75.875 
z
" id="DejaVuSans-29"/>
     </defs>
     <g transform="translate(11.886521 164.74125)rotate(-90)scale(0.12 -0.12)">
      <use xlink:href="#DejaVuSans-53"/>
      <use x="63.476562" xlink:href="#DejaVuSans-75"/>
      <use x="126.855469" xlink:href="#DejaVuSans-72"/>
      <use x="167.96875" xlink:href="#DejaVuSans-66"/>
      <use x="203.173828" xlink:href="#DejaVuSans-61"/>
      <use x="264.453125" xlink:href="#DejaVuSans-63"/>
      <use x="319.433594" xlink:href="#DejaVuSans-65"/>
      <use x="380.957031" xlink:href="#DejaVuSans-20"/>
      <use x="412.744141" xlink:href="#DejaVuSans-28"/>
      <use x="451.757812" xlink:href="#DejaVuSans-6d"/>
      <use x="549.169922" xlink:href="#DejaVuSans-29"/>
     </g>
    </g>
   </g>
   <g id="line2d_27">
    <path clip-path="url(#p63816ae8d4)" d="M 39.591458 221.871053 
L 48.298727 221.977413 
L 49.973307 222.262279 
L 51.982584 222.860708 
L 54.159429 223.458108 
L 55.582712 223.617816 
L 57.089834 223.562501 
L 59.434027 223.215694 
L 63.117884 222.703458 
L 73.865514 221.724873 
L 76.963377 221.826024 
L 82.237976 222.0223 
L 86.005562 221.880008 
L 93.069334 221.585983 
L 96.167088 221.720891 
L 100.102133 222.14392 
L 104.958086 222.628451 
L 108.307027 222.720888 
L 112.273046 222.591915 
L 129.771422 221.7158 
L 137.588645 221.397566 
L 141.942335 221.375397 
L 145.877379 221.582242 
L 155.589286 222.187722 
L 162.318252 222.39744 
L 163.992722 222.801596 
L 166.336915 223.630981 
L 169.937043 224.875882 
L 172.197617 225.425084 
L 174.207004 225.687677 
L 176.048932 225.70531 
L 177.890861 225.506612 
L 179.900247 225.064219 
L 182.69406 224.198698 
L 189.978045 221.853402 
L 193.159528 221.16791 
L 197.178301 220.299413 
L 199.355036 219.588258 
L 201.531881 218.640945 
L 203.959912 217.33231 
L 206.586376 215.65423 
L 209.851588 213.300964 
L 218.223952 207.068598 
L 223.163656 204.058037 
L 226.680055 201.748962 
L 229.641457 199.532114 
L 231.14848 198.472488 
L 232.488068 197.467166 
L 234.246267 195.854947 
L 236.171925 193.828562 
L 236.381236 192.839055 
L 242.869829 180.189023 
L 244.25127 178.073894 
L 245.172234 177.087746 
L 246.302499 176.22951 
L 248.353728 174.709032 
L 249.693315 173.375731 
L 251.409651 171.323979 
L 253.240722 168.779041 
L 255.501262 165.220307 
L 257.845532 161.637845 
L 259.39442 159.659928 
L 261.94799 156.841711 
L 264.124813 154.29209 
L 266.05046 151.673871 
L 268.143564 148.443455 
L 270.404105 144.507898 
L 272.580928 140.252962 
L 275.427538 134.14929 
L 278.388885 127.874033 
L 280.272678 124.434682 
L 282.072742 121.614739 
L 284.333294 118.522442 
L 289.900944 111.037951 
L 291.575426 108.945706 
L 293.96156 106.65827 
L 295.343012 105.627833 
L 296.8919 104.739952 
L 298.482652 104.078941 
L 299.895057 103.726279 
L 301.10905 103.652505 
L 302.197462 103.803135 
L 303.244009 104.16646 
L 304.33242 104.784204 
L 305.462696 105.686692 
L 306.67669 106.941164 
L 308.058142 108.702072 
L 309.523311 110.940387 
L 310.904752 113.452967 
L 312.202475 116.272848 
L 313.500196 119.678486 
L 315.007227 124.279121 
L 316.807293 130.530649 
L 322.123766 150.418598 
L 323.452458 156.191671 
L 324.95949 163.794743 
L 328.308451 181.102327 
L 329.396862 185.287983 
L 330.485274 188.592303 
L 331.782994 191.796458 
L 332.955129 194.150753 
L 333.959816 195.665703 
L 336.555257 199.30999 
L 338.187874 202.239263 
L 339.61118 205.178138 
L 341.620544 209.972946 
L 345.723014 220.190428 
L 348.265716 225.489454 
L 350.358809 229.456258 
L 351.44721 231.089882 
L 352.200727 231.837061 
L 352.786786 232.125786 
L 353.289127 232.146242 
L 353.791468 231.950897 
L 354.461257 231.440424 
L 354.628704 231.165191 
L 356.386903 227.235976 
L 356.972962 226.75457 
L 357.475304 226.613523 
L 358.061374 226.689264 
L 358.647433 226.955961 
L 359.484668 227.644959 
L 360.405622 228.725713 
L 362.080092 231.202626 
L 364.42434 234.583168 
L 366.517434 237.380386 
L 367.689552 238.742134 
L 368.610516 239.522361 
L 369.447751 239.953295 
L 369.950082 239.964123 
L 370.734715 239.765929 
L 370.818434 238.605393 
L 370.902163 238.629639 
L 371.739398 238.722643 
L 372.827798 238.61148 
L 376.67908 237.979804 
L 378.186104 238.061936 
L 380.111751 238.434421 
L 386.725915 239.902148 
L 388.819008 240.022088 
L 391.163278 239.929085 
L 394.093607 239.577101 
L 396.803833 239.037548 
L 399.399278 238.29823 
L 402.245889 237.246059 
L 405.846028 235.645259 
L 411.036909 233.078147 
L 416.227789 230.567206 
L 417.818542 229.851631 
L 417.818542 229.851631 
" style="fill:none;stroke:#009afa;stroke-linecap:round;"/>
   </g>
   <g id="line2d_28">
    <path clip-path="url(#p63816ae8d4)" d="M 39.591458 221.871053 
L 49.052288 221.976593 
L 50.894216 222.253108 
L 53.405977 222.895444 
L 55.666441 223.390675 
L 57.424641 223.538045 
L 59.434027 223.467118 
L 64.153606 222.978297 
L 69.428205 222.317366 
L 74.20043 221.705502 
L 77.047106 221.591857 
L 81.149499 221.695079 
L 86.005562 221.743455 
L 96.334546 221.691751 
L 99.850946 222.034324 
L 107.302389 222.836006 
L 110.514846 222.897817 
L 114.031245 222.740857 
L 119.222115 222.249201 
L 125.250274 221.755578 
L 130.692331 221.528998 
L 141.942335 221.355224 
L 146.128566 221.561768 
L 158.466937 222.36091 
L 162.653058 222.502881 
L 164.578716 222.831063 
L 166.839289 223.467137 
L 173.285985 225.421097 
L 175.3791 225.758209 
L 177.304758 225.839281 
L 179.146686 225.689569 
L 181.072344 225.299878 
L 183.280163 224.609185 
L 186.043001 223.493361 
L 192.154889 220.948997 
L 195.587559 219.853766 
L 199.773681 218.488244 
L 202.703977 217.249223 
L 206.167731 215.493215 
L 207.842201 214.375167 
L 209.935317 212.691343 
L 217.972786 205.656636 
L 219.982151 203.71695 
L 225.926538 197.906971 
L 230.478692 192.985476 
L 232.529932 188.832128 
L 233.869509 186.700044 
L 237.260336 181.927984 
L 241.279076 176.146183 
L 245.297817 170.10852 
L 247.767669 167.157115 
L 252.905828 161.132025 
L 254.957057 158.181298 
L 257.259462 154.475262 
L 261.571243 147.413695 
L 263.99923 143.557029 
L 266.720259 138.828198 
L 268.645905 135.080684 
L 272.078586 127.963647 
L 274.380992 122.509954 
L 283.161165 101.187382 
L 285.296123 96.786868 
L 289.440468 88.867004 
L 295.552312 77.618728 
L 297.729146 74.120764 
L 299.72761 71.318202 
L 301.569527 69.108361 
L 303.160291 67.529825 
L 304.62546 66.373349 
L 306.048766 65.527378 
L 307.5558 64.860389 
L 308.811659 64.53768 
L 310.067517 64.440917 
L 311.281511 64.567942 
L 312.453647 64.920419 
L 313.709506 65.572185 
L 314.923504 66.496737 
L 316.09564 67.686064 
L 317.518947 69.508049 
L 318.774807 71.468216 
L 319.90508 73.663696 
L 320.826045 75.901949 
L 321.747008 78.766699 
L 322.877282 83.137937 
L 324.457146 90.206714 
L 325.754869 96.975033 
L 326.927005 104.417983 
L 328.559623 116.466067 
L 330.820169 132.838301 
L 334.33657 156.87524 
L 338.020427 180.149128 
L 341.034485 197.05374 
L 342.541509 203.65295 
L 344.969496 213.279399 
L 347.261033 221.42604 
L 349.228544 227.733969 
L 350.777421 232.074439 
L 352.03328 234.993357 
L 353.037962 236.771592 
L 353.791468 237.692692 
L 354.503121 238.208162 
L 355.047327 238.361183 
L 355.549668 238.251846 
L 356.219456 237.835117 
L 357.72648 236.787783 
L 358.396268 236.674672 
L 359.066045 236.793288 
L 359.90328 237.189976 
L 360.991692 237.978829 
L 362.582433 239.438864 
L 367.187211 244.129314 
L 368.861681 245.787062 
L 369.950082 246.594525 
L 370.818434 246.959064 
L 372.241739 247.443022 
L 373.832481 247.90671 
L 374.837163 247.968028 
L 376.009292 247.795586 
L 380.69781 246.772113 
L 384.883997 246.040243 
L 390.828384 245.043548 
L 393.005196 244.453899 
L 394.878186 243.715929 
L 396.803833 242.715497 
L 399.148102 241.227429 
L 402.245889 238.973109 
L 407.52051 234.925378 
L 411.53925 232.105262 
L 414.888213 230.031328 
L 417.818542 228.422868 
L 417.818542 228.422868 
" style="fill:none;stroke:#e36f47;stroke-linecap:round;"/>
   </g>
   <g id="patch_3">
    <path d="M 28.244646 256.065354 
L 28.244646 2.834646 
" style="fill:none;stroke:#000000;stroke-linecap:square;stroke-linejoin:miter;"/>
   </g>
   <g id="patch_4">
    <path d="M 28.244646 256.065354 
L 429.165354 256.065354 
" style="fill:none;stroke:#000000;stroke-linecap:square;stroke-linejoin:miter;"/>
   </g>
   <g id="line2d_29">
    <path clip-path="url(#p63816ae8d4)" d="M 39.591458 221.871053 
L 49.303475 221.977733 
L 51.061674 222.256609 
L 53.071061 222.820178 
L 55.666441 223.522896 
L 57.257292 223.703461 
L 59.015492 223.663246 
L 63.232587 223.230319 
L 68.088541 222.665191 
L 72.023585 221.87509 
L 74.786533 221.438589 
L 77.130726 221.292895 
L 80.061131 221.353677 
L 87.794626 221.606125 
L 95.832172 221.77318 
L 99.432301 222.134595 
L 107.134931 223.00311 
L 110.232685 223.055054 
L 113.528871 222.878526 
L 117.463915 222.429649 
L 124.245636 221.634377 
L 128.599216 221.375613 
L 133.873814 221.320667 
L 142.026064 221.400962 
L 146.547101 221.690679 
L 156.92895 222.470203 
L 163.908993 222.731828 
L 165.750922 223.16664 
L 168.597489 224.112228 
L 172.281346 225.272063 
L 174.625649 225.782727 
L 176.551306 225.98254 
L 178.309506 225.944402 
L 179.983976 225.687603 
L 181.689421 225.204489 
L 183.615079 224.425864 
L 186.043001 223.187164 
L 192.657154 219.65879 
L 195.168914 218.666806 
L 198.769042 217.494312 
L 202.620248 216.333034 
L 202.871435 216.232043 
L 202.955164 218.769455 
L 203.038893 218.740488 
L 203.541267 218.430081 
L 204.252909 217.705391 
L 209.391133 211.824954 
L 218.935604 202.771085 
L 221.070562 200.728614 
L 223.163656 198.3863 
L 225.759091 195.114867 
L 237.720813 179.280452 
L 249.693315 162.877464 
L 256.087333 155.131589 
L 257.845532 152.388132 
L 259.771179 148.961601 
L 262.199166 144.154188 
L 268.68777 130.533053 
L 271.534381 123.833147 
L 275.846162 113.259995 
L 279.142403 104.535023 
L 283.035571 94.300975 
L 286.342681 86.147277 
L 289.649779 78.628518 
L 294.505766 68.077431 
L 301.40208 53.513809 
L 303.788214 49.097024 
L 305.881319 45.682881 
L 307.84883 42.891351 
L 309.90007 40.36515 
L 311.783852 38.388589 
L 313.37461 37.019418 
L 314.756055 36.109781 
L 316.011915 35.533577 
L 317.184051 35.226708 
L 318.272462 35.163411 
L 319.360875 35.30794 
L 320.616734 35.730432 
L 321.705146 36.322969 
L 322.542386 37.046475 
L 323.28501 37.983292 
L 323.996664 39.228643 
L 324.75018 41.009828 
L 325.545558 43.498433 
L 326.424661 47.041944 
L 327.429349 52.07789 
L 328.601485 59.161768 
L 330.066654 69.510576 
L 331.90858 84.129545 
L 333.666783 99.842125 
L 336.011052 122.921969 
L 339.904209 162.153896 
L 341.787991 178.343309 
L 343.295026 189.465676 
L 344.969496 200.070944 
L 346.518384 208.842911 
L 347.930821 215.520592 
L 349.605292 222.3403 
L 351.614657 229.554112 
L 353.289127 234.753794 
L 354.461257 237.71009 
L 355.382221 239.489539 
L 356.135727 240.483225 
L 356.805515 241.030385 
L 357.391585 241.256481 
L 357.977645 241.232684 
L 358.982327 240.871018 
L 360.740516 240.162537 
L 361.577751 240.083681 
L 362.414986 240.236699 
L 363.335939 240.656756 
L 364.42434 241.422417 
L 365.763916 242.653187 
L 369.615199 246.44933 
L 371.571951 247.980145 
L 372.660351 248.53511 
L 373.748762 248.819638 
L 375.00461 248.897215 
L 376.427915 248.768674 
L 377.85121 248.403081 
L 383.125797 246.812692 
L 385.637503 246.29147 
L 391.833066 245.252557 
L 393.507548 244.580958 
L 395.129362 243.70089 
L 396.887562 242.480562 
L 399.148102 240.621754 
L 403.920371 236.301781 
L 407.269334 233.434853 
L 409.78105 231.578444 
L 412.460214 229.888408 
L 415.474272 228.256922 
L 417.818542 227.17011 
L 417.818542 227.17011 
" style="fill:none;stroke:#3ea44e;stroke-linecap:round;"/>
   </g>
   <g id="line2d_30">
    <path clip-path="url(#p63816ae8d4)" d="M 39.591458 221.871053 
L 50.5593 221.97793 
L 52.568687 222.265823 
L 54.745532 222.823506 
L 58.010744 223.658204 
L 59.768943 223.857568 
L 61.694601 223.848304 
L 64.572142 223.582205 
L 68.758373 222.975283 
L 71.939856 222.280504 
L 77.130726 221.105815 
L 79.391299 220.856037 
L 81.819331 220.821103 
L 85.000814 221.019745 
L 101.106771 222.524181 
L 107.553576 223.22047 
L 110.514846 223.293074 
L 113.445142 223.14293 
L 116.710464 222.745973 
L 128.2643 221.103023 
L 131.61335 221.007795 
L 135.997904 221.136157 
L 144.370257 221.6257 
L 152.742719 222.365008 
L 157.347485 222.643009 
L 161.815878 222.666244 
L 164.578716 222.769183 
L 166.504373 223.064429 
L 168.597489 223.622482 
L 172.699991 225.028903 
L 175.3791 225.808612 
L 177.388487 226.169527 
L 179.146686 226.262907 
L 180.737428 226.132221 
L 182.275524 225.792502 
L 183.949995 225.183497 
L 185.791814 224.257305 
L 188.136116 222.805614 
L 193.661902 219.274942 
L 196.089824 218.098774 
L 198.224859 217.361123 
L 198.810852 217.789994 
L 199.480684 217.992785 
L 200.234136 217.983262 
L 201.238884 217.732516 
L 202.703977 217.111714 
L 203.750535 216.477988 
L 205.163092 215.283984 
L 218.014651 203.305046 
L 221.991516 199.145726 
L 223.875309 196.836466 
L 226.010256 193.83647 
L 234.120685 182.138503 
L 239.855771 173.785835 
L 245.465264 165.585173 
L 249.693315 159.890681 
L 255.961739 151.582223 
L 257.719939 148.653807 
L 259.603732 145.066229 
L 261.73869 140.498506 
L 266.385354 129.829084 
L 266.510947 128.527956 
L 267.390047 126.232508 
L 269.734317 119.885819 
L 275.092644 106.657099 
L 277.509786 99.83479 
L 281.193643 88.733693 
L 285.128676 76.913219 
L 288.728815 66.909122 
L 294.170872 52.4822 
L 302.490491 30.978982 
L 304.62546 26.198195 
L 306.634836 22.234226 
L 308.72793 18.582057 
L 310.611723 15.723779 
L 312.411785 13.383031 
L 313.835092 11.883815 
L 315.049089 10.914333 
L 316.137501 10.318714 
L 317.058465 10.048948 
L 317.937567 10.020042 
L 318.732944 10.220657 
L 319.570184 10.658989 
L 320.449286 11.38003 
L 321.328388 12.386122 
L 322.291214 13.851069 
L 323.212178 15.671638 
L 324.164112 18.079258 
L 325.126938 21.168905 
L 326.131627 25.206587 
L 327.178177 30.386569 
L 328.392175 37.595684 
L 329.899206 48.024246 
L 331.741132 62.41733 
L 333.83423 80.502769 
L 336.136634 102.538802 
L 338.187874 124.394313 
L 342.876403 174.877535 
L 344.215979 185.870985 
L 344.802049 189.379384 
L 345.806732 193.818929 
L 350.484392 212.958521 
L 352.535621 220.941515 
L 354.042644 226.017781 
L 355.256638 229.340524 
L 356.303174 231.565125 
L 357.224138 233.016149 
L 358.061374 233.949667 
L 358.982327 234.636648 
L 359.819562 234.99843 
L 360.907963 235.206748 
L 363.335939 235.591768 
L 364.591787 236.0686 
L 366.09881 236.889454 
L 372.74408 240.857567 
L 373.91621 241.176422 
L 375.00461 241.239438 
L 376.344186 241.07286 
L 378.018657 240.624623 
L 380.279198 239.760664 
L 383.042068 238.745808 
L 384.967715 238.323568 
L 387.981773 237.663335 
L 389.90742 237.027113 
L 391.665619 236.242407 
L 393.507548 235.165221 
L 395.631703 233.652476 
L 398.227149 231.534377 
L 401.910995 228.191271 
L 405.511134 225.03556 
L 407.939122 223.190739 
L 410.115944 221.825611 
L 412.878837 220.382691 
L 416.311518 218.838009 
L 417.818542 218.248505 
L 417.818542 218.248505 
" style="fill:none;stroke:#c371d2;stroke-linecap:round;"/>
   </g>
   <g id="legend_1">
    <g id="patch_5">
     <path d="M 35.244646 69.547146 
L 109.500896 69.547146 
Q 111.500896 69.547146 111.500896 67.547146 
L 111.500896 9.834646 
Q 111.500896 7.834646 109.500896 7.834646 
L 35.244646 7.834646 
Q 33.244646 7.834646 33.244646 9.834646 
L 33.244646 67.547146 
Q 33.244646 69.547146 35.244646 69.547146 
z
" style="fill:#ffffff;stroke:#000000;stroke-linejoin:miter;"/>
    </g>
    <g id="line2d_31">
     <path d="M 37.244646 15.933083 
L 57.244646 15.933083 
" style="fill:none;stroke:#009afa;stroke-linecap:square;"/>
    </g>
    <g id="line2d_32"/>
    <g id="text_16">
     <!-- Gauge 1 -->
     <defs>
      <path d="M 59.515625 10.40625 
L 59.515625 29.984375 
L 43.40625 29.984375 
L 43.40625 38.09375 
L 69.28125 38.09375 
L 69.28125 6.78125 
Q 63.578125 2.734375 56.6875 0.65625 
Q 49.8125 -1.421875 42 -1.421875 
Q 24.90625 -1.421875 15.25 8.5625 
Q 5.609375 18.5625 5.609375 36.375 
Q 5.609375 54.25 15.25 64.234375 
Q 24.90625 74.21875 42 74.21875 
Q 49.125 74.21875 55.546875 72.453125 
Q 61.96875 70.703125 67.390625 67.28125 
L 67.390625 56.78125 
Q 61.921875 61.421875 55.765625 63.765625 
Q 49.609375 66.109375 42.828125 66.109375 
Q 29.4375 66.109375 22.71875 58.640625 
Q 16.015625 51.171875 16.015625 36.375 
Q 16.015625 21.625 22.71875 14.15625 
Q 29.4375 6.6875 42.828125 6.6875 
Q 48.046875 6.6875 52.140625 7.59375 
Q 56.25 8.5 59.515625 10.40625 
z
" id="DejaVuSans-47"/>
      <path d="M 45.40625 27.984375 
Q 45.40625 37.75 41.375 43.109375 
Q 37.359375 48.484375 30.078125 48.484375 
Q 22.859375 48.484375 18.828125 43.109375 
Q 14.796875 37.75 14.796875 27.984375 
Q 14.796875 18.265625 18.828125 12.890625 
Q 22.859375 7.515625 30.078125 7.515625 
Q 37.359375 7.515625 41.375 12.890625 
Q 45.40625 18.265625 45.40625 27.984375 
z
M 54.390625 6.78125 
Q 54.390625 -7.171875 48.1875 -13.984375 
Q 42 -20.796875 29.203125 -20.796875 
Q 24.46875 -20.796875 20.265625 -20.09375 
Q 16.0625 -19.390625 12.109375 -17.921875 
L 12.109375 -9.1875 
Q 16.0625 -11.328125 19.921875 -12.34375 
Q 23.78125 -13.375 27.78125 -13.375 
Q 36.625 -13.375 41.015625 -8.765625 
Q 45.40625 -4.15625 45.40625 5.171875 
L 45.40625 9.625 
Q 42.625 4.78125 38.28125 2.390625 
Q 33.9375 0 27.875 0 
Q 17.828125 0 11.671875 7.65625 
Q 5.515625 15.328125 5.515625 27.984375 
Q 5.515625 40.671875 11.671875 48.328125 
Q 17.828125 56 27.875 56 
Q 33.9375 56 38.28125 53.609375 
Q 42.625 51.21875 45.40625 46.390625 
L 45.40625 54.6875 
L 54.390625 54.6875 
z
" id="DejaVuSans-67"/>
     </defs>
     <g transform="translate(65.244646 19.433083)scale(0.1 -0.1)">
      <use xlink:href="#DejaVuSans-47"/>
      <use x="77.490234" xlink:href="#DejaVuSans-61"/>
      <use x="138.769531" xlink:href="#DejaVuSans-75"/>
      <use x="202.148438" xlink:href="#DejaVuSans-67"/>
      <use x="265.625" xlink:href="#DejaVuSans-65"/>
      <use x="327.148438" xlink:href="#DejaVuSans-20"/>
      <use x="358.935547" xlink:href="#DejaVuSans-31"/>
     </g>
    </g>
    <g id="line2d_33">
     <path d="M 37.244646 30.611208 
L 57.244646 30.611208 
" style="fill:none;stroke:#e36f47;stroke-linecap:square;"/>
    </g>
    <g id="line2d_34"/>
    <g id="text_17">
     <!-- Gauge 2 -->
     <g transform="translate(65.244646 34.111208)scale(0.1 -0.1)">
      <use xlink:href="#DejaVuSans-47"/>
      <use x="77.490234" xlink:href="#DejaVuSans-61"/>
      <use x="138.769531" xlink:href="#DejaVuSans-75"/>
      <use x="202.148438" xlink:href="#DejaVuSans-67"/>
      <use x="265.625" xlink:href="#DejaVuSans-65"/>
      <use x="327.148438" xlink:href="#DejaVuSans-20"/>
      <use x="358.935547" xlink:href="#DejaVuSans-32"/>
     </g>
    </g>
    <g id="line2d_35">
     <path d="M 37.244646 45.289333 
L 57.244646 45.289333 
" style="fill:none;stroke:#3ea44e;stroke-linecap:square;"/>
    </g>
    <g id="line2d_36"/>
    <g id="text_18">
     <!-- Gauge 3 -->
     <g transform="translate(65.244646 48.789333)scale(0.1 -0.1)">
      <use xlink:href="#DejaVuSans-47"/>
      <use x="77.490234" xlink:href="#DejaVuSans-61"/>
      <use x="138.769531" xlink:href="#DejaVuSans-75"/>
      <use x="202.148438" xlink:href="#DejaVuSans-67"/>
      <use x="265.625" xlink:href="#DejaVuSans-65"/>
      <use x="327.148438" xlink:href="#DejaVuSans-20"/>
      <use x="358.935547" xlink:href="#DejaVuSans-33"/>
     </g>
    </g>
    <g id="line2d_37">
     <path d="M 37.244646 59.967458 
L 57.244646 59.967458 
" style="fill:none;stroke:#c371d2;stroke-linecap:square;"/>
    </g>
    <g id="line2d_38"/>
    <g id="text_19">
     <!-- Gauge 4 -->
     <g transform="translate(65.244646 63.467458)scale(0.1 -0.1)">
      <use xlink:href="#DejaVuSans-47"/>
      <use x="77.490234" xlink:href="#DejaVuSans-61"/>
      <use x="138.769531" xlink:href="#DejaVuSans-75"/>
      <use x="202.148438" xlink:href="#DejaVuSans-67"/>
      <use x="265.625" xlink:href="#DejaVuSans-65"/>
      <use x="327.148438" xlink:href="#DejaVuSans-20"/>
      <use x="358.935547" xlink:href="#DejaVuSans-34"/>
     </g>
    </g>
   </g>
  </g>
 </g>
 <defs>
  <clipPath id="p63816ae8d4">
   <rect height="253.230709" width="400.920709" x="28.244646" y="2.834646"/>
  </clipPath>
 </defs>
</svg>
