<?xml version="1.0" encoding="utf-8" standalone="no"?>
<!DOCTYPE svg PUBLIC "-//W3C//DTD SVG 1.1//EN"
  "http://www.w3.org/Graphics/SVG/1.1/DTD/svg11.dtd">
<!-- Created with matplotlib (http://matplotlib.org/) -->
<svg height="288pt" version="1.1" viewBox="0 0 432 288" width="432pt" xmlns="http://www.w3.org/2000/svg" xmlns:xlink="http://www.w3.org/1999/xlink">
 <defs>
  <style type="text/css">
*{stroke-linecap:butt;stroke-linejoin:round;}
  </style>
 </defs>
 <g id="figure_1">
  <g id="patch_1">
   <path d="M 0 288 
L 432 288 
L 432 0 
L 0 0 
z
" style="fill:#ffffff;"/>
  </g>
  <g id="axes_1">
   <g id="patch_2">
    <path d="M 28.244646 256.065354 
L 424.305354 256.065354 
L 424.305354 2.834646 
L 28.244646 2.834646 
z
" style="fill:#ffffff;"/>
   </g>
   <g id="matplotlib.axis_1">
    <g id="xtick_1">
     <g id="line2d_1">
      <path clip-path="url(#pb647e46729)" d="M 28.244646 256.065354 
L 28.244646 2.834646 
" style="fill:none;stroke:#000000;stroke-linecap:square;stroke-opacity:0.1;stroke-width:0.5;"/>
     </g>
     <g id="line2d_2">
      <defs>
       <path d="M 0 0 
L 0 -3.5 
" id="m4fd7826582" style="stroke:#000000;stroke-width:0.8;"/>
      </defs>
      <g>
       <use style="stroke:#000000;stroke-width:0.8;" x="28.244646" xlink:href="#m4fd7826582" y="256.065354"/>
      </g>
     </g>
     <g id="text_1">
      <!-- -72 -->
      <defs>
       <path d="M 4.890625 31.390625 
L 31.203125 31.390625 
L 31.203125 23.390625 
L 4.890625 23.390625 
z
" id="DejaVuSans-2d"/>
       <path d="M 8.203125 72.90625 
L 55.078125 72.90625 
L 55.078125 68.703125 
L 28.609375 0 
L 18.3125 0 
L 43.21875 64.59375 
L 8.203125 64.59375 
z
" id="DejaVuSans-37"/>
       <path d="M 19.1875 8.296875 
L 53.609375 8.296875 
L 53.609375 0 
L 7.328125 0 
L 7.328125 8.296875 
Q 12.9375 14.109375 22.625 23.890625 
Q 32.328125 33.6875 34.8125 36.53125 
Q 39.546875 41.84375 41.421875 45.53125 
Q 43.3125 49.21875 43.3125 52.78125 
Q 43.3125 58.59375 39.234375 62.25 
Q 35.15625 65.921875 28.609375 65.921875 
Q 23.96875 65.921875 18.8125 64.3125 
Q 13.671875 62.703125 7.8125 59.421875 
L 7.8125 69.390625 
Q 13.765625 71.78125 18.9375 73 
Q 24.125 74.21875 28.421875 74.21875 
Q 39.75 74.21875 46.484375 68.546875 
Q 53.21875 62.890625 53.21875 53.421875 
Q 53.21875 48.921875 51.53125 44.890625 
Q 49.859375 40.875 45.40625 35.40625 
Q 44.1875 33.984375 37.640625 27.21875 
Q 31.109375 20.453125 19.1875 8.296875 
z
" id="DejaVuSans-32"/>
      </defs>
      <g transform="translate(20.078239 267.163792)scale(0.1 -0.1)">
       <use xlink:href="#DejaVuSans-2d"/>
       <use x="36.083984" xlink:href="#DejaVuSans-37"/>
       <use x="99.707031" xlink:href="#DejaVuSans-32"/>
      </g>
     </g>
    </g>
    <g id="xtick_2">
     <g id="line2d_3">
      <path clip-path="url(#pb647e46729)" d="M 77.752234 256.065354 
L 77.752234 2.834646 
" style="fill:none;stroke:#000000;stroke-linecap:square;stroke-opacity:0.1;stroke-width:0.5;"/>
     </g>
     <g id="line2d_4">
      <g>
       <use style="stroke:#000000;stroke-width:0.8;" x="77.752234" xlink:href="#m4fd7826582" y="256.065354"/>
      </g>
     </g>
     <g id="text_2">
      <!-- -60 -->
      <defs>
       <path d="M 33.015625 40.375 
Q 26.375 40.375 22.484375 35.828125 
Q 18.609375 31.296875 18.609375 23.390625 
Q 18.609375 15.53125 22.484375 10.953125 
Q 26.375 6.390625 33.015625 6.390625 
Q 39.65625 6.390625 43.53125 10.953125 
Q 47.40625 15.53125 47.40625 23.390625 
Q 47.40625 31.296875 43.53125 35.828125 
Q 39.65625 40.375 33.015625 40.375 
z
M 52.59375 71.296875 
L 52.59375 62.3125 
Q 48.875 64.0625 45.09375 64.984375 
Q 41.3125 65.921875 37.59375 65.921875 
Q 27.828125 65.921875 22.671875 59.328125 
Q 17.53125 52.734375 16.796875 39.40625 
Q 19.671875 43.65625 24.015625 45.921875 
Q 28.375 48.1875 33.59375 48.1875 
Q 44.578125 48.1875 50.953125 41.515625 
Q 57.328125 34.859375 57.328125 23.390625 
Q 57.328125 12.15625 50.6875 5.359375 
Q 44.046875 -1.421875 33.015625 -1.421875 
Q 20.359375 -1.421875 13.671875 8.265625 
Q 6.984375 17.96875 6.984375 36.375 
Q 6.984375 53.65625 15.1875 63.9375 
Q 23.390625 74.21875 37.203125 74.21875 
Q 40.921875 74.21875 44.703125 73.484375 
Q 48.484375 72.75 52.59375 71.296875 
z
" id="DejaVuSans-36"/>
       <path d="M 31.78125 66.40625 
Q 24.171875 66.40625 20.328125 58.90625 
Q 16.5 51.421875 16.5 36.375 
Q 16.5 21.390625 20.328125 13.890625 
Q 24.171875 6.390625 31.78125 6.390625 
Q 39.453125 6.390625 43.28125 13.890625 
Q 47.125 21.390625 47.125 36.375 
Q 47.125 51.421875 43.28125 58.90625 
Q 39.453125 66.40625 31.78125 66.40625 
z
M 31.78125 74.21875 
Q 44.046875 74.21875 50.515625 64.515625 
Q 56.984375 54.828125 56.984375 36.375 
Q 56.984375 17.96875 50.515625 8.265625 
Q 44.046875 -1.421875 31.78125 -1.421875 
Q 19.53125 -1.421875 13.0625 8.265625 
Q 6.59375 17.96875 6.59375 36.375 
Q 6.59375 54.828125 13.0625 64.515625 
Q 19.53125 74.21875 31.78125 74.21875 
z
" id="DejaVuSans-30"/>
      </defs>
      <g transform="translate(69.585828 267.163792)scale(0.1 -0.1)">
       <use xlink:href="#DejaVuSans-2d"/>
       <use x="36.083984" xlink:href="#DejaVuSans-36"/>
       <use x="99.707031" xlink:href="#DejaVuSans-30"/>
      </g>
     </g>
    </g>
    <g id="xtick_3">
     <g id="line2d_5">
      <path clip-path="url(#pb647e46729)" d="M 127.259823 256.065354 
L 127.259823 2.834646 
" style="fill:none;stroke:#000000;stroke-linecap:square;stroke-opacity:0.1;stroke-width:0.5;"/>
     </g>
     <g id="line2d_6">
      <g>
       <use style="stroke:#000000;stroke-width:0.8;" x="127.259823" xlink:href="#m4fd7826582" y="256.065354"/>
      </g>
     </g>
     <g id="text_3">
      <!-- -48 -->
      <defs>
       <path d="M 37.796875 64.3125 
L 12.890625 25.390625 
L 37.796875 25.390625 
z
M 35.203125 72.90625 
L 47.609375 72.90625 
L 47.609375 25.390625 
L 58.015625 25.390625 
L 58.015625 17.1875 
L 47.609375 17.1875 
L 47.609375 0 
L 37.796875 0 
L 37.796875 17.1875 
L 4.890625 17.1875 
L 4.890625 26.703125 
z
" id="DejaVuSans-34"/>
       <path d="M 31.78125 34.625 
Q 24.75 34.625 20.71875 30.859375 
Q 16.703125 27.09375 16.703125 20.515625 
Q 16.703125 13.921875 20.71875 10.15625 
Q 24.75 6.390625 31.78125 6.390625 
Q 38.8125 6.390625 42.859375 10.171875 
Q 46.921875 13.96875 46.921875 20.515625 
Q 46.921875 27.09375 42.890625 30.859375 
Q 38.875 34.625 31.78125 34.625 
z
M 21.921875 38.8125 
Q 15.578125 40.375 12.03125 44.71875 
Q 8.5 49.078125 8.5 55.328125 
Q 8.5 64.0625 14.71875 69.140625 
Q 20.953125 74.21875 31.78125 74.21875 
Q 42.671875 74.21875 48.875 69.140625 
Q 55.078125 64.0625 55.078125 55.328125 
Q 55.078125 49.078125 51.53125 44.71875 
Q 48 40.375 41.703125 38.8125 
Q 48.828125 37.15625 52.796875 32.3125 
Q 56.78125 27.484375 56.78125 20.515625 
Q 56.78125 9.90625 50.3125 4.234375 
Q 43.84375 -1.421875 31.78125 -1.421875 
Q 19.734375 -1.421875 13.25 4.234375 
Q 6.78125 9.90625 6.78125 20.515625 
Q 6.78125 27.484375 10.78125 32.3125 
Q 14.796875 37.15625 21.921875 38.8125 
z
M 18.3125 54.390625 
Q 18.3125 48.734375 21.84375 45.5625 
Q 25.390625 42.390625 31.78125 42.390625 
Q 38.140625 42.390625 41.71875 45.5625 
Q 45.3125 48.734375 45.3125 54.390625 
Q 45.3125 60.0625 41.71875 63.234375 
Q 38.140625 66.40625 31.78125 66.40625 
Q 25.390625 66.40625 21.84375 63.234375 
Q 18.3125 60.0625 18.3125 54.390625 
z
" id="DejaVuSans-38"/>
      </defs>
      <g transform="translate(119.093417 267.163792)scale(0.1 -0.1)">
       <use xlink:href="#DejaVuSans-2d"/>
       <use x="36.083984" xlink:href="#DejaVuSans-34"/>
       <use x="99.707031" xlink:href="#DejaVuSans-38"/>
      </g>
     </g>
    </g>
    <g id="xtick_4">
     <g id="line2d_7">
      <path clip-path="url(#pb647e46729)" d="M 176.767411 256.065354 
L 176.767411 2.834646 
" style="fill:none;stroke:#000000;stroke-linecap:square;stroke-opacity:0.1;stroke-width:0.5;"/>
     </g>
     <g id="line2d_8">
      <g>
       <use style="stroke:#000000;stroke-width:0.8;" x="176.767411" xlink:href="#m4fd7826582" y="256.065354"/>
      </g>
     </g>
     <g id="text_4">
      <!-- -36 -->
      <defs>
       <path d="M 40.578125 39.3125 
Q 47.65625 37.796875 51.625 33 
Q 55.609375 28.21875 55.609375 21.1875 
Q 55.609375 10.40625 48.1875 4.484375 
Q 40.765625 -1.421875 27.09375 -1.421875 
Q 22.515625 -1.421875 17.65625 -0.515625 
Q 12.796875 0.390625 7.625 2.203125 
L 7.625 11.71875 
Q 11.71875 9.328125 16.59375 8.109375 
Q 21.484375 6.890625 26.8125 6.890625 
Q 36.078125 6.890625 40.9375 10.546875 
Q 45.796875 14.203125 45.796875 21.1875 
Q 45.796875 27.640625 41.28125 31.265625 
Q 36.765625 34.90625 28.71875 34.90625 
L 20.21875 34.90625 
L 20.21875 43.015625 
L 29.109375 43.015625 
Q 36.375 43.015625 40.234375 45.921875 
Q 44.09375 48.828125 44.09375 54.296875 
Q 44.09375 59.90625 40.109375 62.90625 
Q 36.140625 65.921875 28.71875 65.921875 
Q 24.65625 65.921875 20.015625 65.03125 
Q 15.375 64.15625 9.8125 62.3125 
L 9.8125 71.09375 
Q 15.4375 72.65625 20.34375 73.4375 
Q 25.25 74.21875 29.59375 74.21875 
Q 40.828125 74.21875 47.359375 69.109375 
Q 53.90625 64.015625 53.90625 55.328125 
Q 53.90625 49.265625 50.4375 45.09375 
Q 46.96875 40.921875 40.578125 39.3125 
z
" id="DejaVuSans-33"/>
      </defs>
      <g transform="translate(168.601005 267.163792)scale(0.1 -0.1)">
       <use xlink:href="#DejaVuSans-2d"/>
       <use x="36.083984" xlink:href="#DejaVuSans-33"/>
       <use x="99.707031" xlink:href="#DejaVuSans-36"/>
      </g>
     </g>
    </g>
    <g id="xtick_5">
     <g id="line2d_9">
      <path clip-path="url(#pb647e46729)" d="M 226.275 256.065354 
L 226.275 2.834646 
" style="fill:none;stroke:#000000;stroke-linecap:square;stroke-opacity:0.1;stroke-width:0.5;"/>
     </g>
     <g id="line2d_10">
      <g>
       <use style="stroke:#000000;stroke-width:0.8;" x="226.275" xlink:href="#m4fd7826582" y="256.065354"/>
      </g>
     </g>
     <g id="text_5">
      <!-- -24 -->
      <g transform="translate(218.108594 267.163792)scale(0.1 -0.1)">
       <use xlink:href="#DejaVuSans-2d"/>
       <use x="36.083984" xlink:href="#DejaVuSans-32"/>
       <use x="99.707031" xlink:href="#DejaVuSans-34"/>
      </g>
     </g>
    </g>
    <g id="xtick_6">
     <g id="line2d_11">
      <path clip-path="url(#pb647e46729)" d="M 275.782589 256.065354 
L 275.782589 2.834646 
" style="fill:none;stroke:#000000;stroke-linecap:square;stroke-opacity:0.1;stroke-width:0.5;"/>
     </g>
     <g id="line2d_12">
      <g>
       <use style="stroke:#000000;stroke-width:0.8;" x="275.782589" xlink:href="#m4fd7826582" y="256.065354"/>
      </g>
     </g>
     <g id="text_6">
      <!-- -12 -->
      <defs>
       <path d="M 12.40625 8.296875 
L 28.515625 8.296875 
L 28.515625 63.921875 
L 10.984375 60.40625 
L 10.984375 69.390625 
L 28.421875 72.90625 
L 38.28125 72.90625 
L 38.28125 8.296875 
L 54.390625 8.296875 
L 54.390625 0 
L 12.40625 0 
z
" id="DejaVuSans-31"/>
      </defs>
      <g transform="translate(267.616182 267.163792)scale(0.1 -0.1)">
       <use xlink:href="#DejaVuSans-2d"/>
       <use x="36.083984" xlink:href="#DejaVuSans-31"/>
       <use x="99.707031" xlink:href="#DejaVuSans-32"/>
      </g>
     </g>
    </g>
    <g id="xtick_7">
     <g id="line2d_13">
      <path clip-path="url(#pb647e46729)" d="M 325.290177 256.065354 
L 325.290177 2.834646 
" style="fill:none;stroke:#000000;stroke-linecap:square;stroke-opacity:0.1;stroke-width:0.5;"/>
     </g>
     <g id="line2d_14">
      <g>
       <use style="stroke:#000000;stroke-width:0.8;" x="325.290177" xlink:href="#m4fd7826582" y="256.065354"/>
      </g>
     </g>
     <g id="text_7">
      <!-- 0 -->
      <g transform="translate(322.108927 267.163792)scale(0.1 -0.1)">
       <use xlink:href="#DejaVuSans-30"/>
      </g>
     </g>
    </g>
    <g id="xtick_8">
     <g id="line2d_15">
      <path clip-path="url(#pb647e46729)" d="M 374.797766 256.065354 
L 374.797766 2.834646 
" style="fill:none;stroke:#000000;stroke-linecap:square;stroke-opacity:0.1;stroke-width:0.5;"/>
     </g>
     <g id="line2d_16">
      <g>
       <use style="stroke:#000000;stroke-width:0.8;" x="374.797766" xlink:href="#m4fd7826582" y="256.065354"/>
      </g>
     </g>
     <g id="text_8">
      <!-- 12 -->
      <g transform="translate(368.435266 267.163792)scale(0.1 -0.1)">
       <use xlink:href="#DejaVuSans-31"/>
       <use x="63.623047" xlink:href="#DejaVuSans-32"/>
      </g>
     </g>
    </g>
    <g id="xtick_9">
     <g id="line2d_17">
      <path clip-path="url(#pb647e46729)" d="M 424.305354 256.065354 
L 424.305354 2.834646 
" style="fill:none;stroke:#000000;stroke-linecap:square;stroke-opacity:0.1;stroke-width:0.5;"/>
     </g>
     <g id="line2d_18">
      <g>
       <use style="stroke:#000000;stroke-width:0.8;" x="424.305354" xlink:href="#m4fd7826582" y="256.065354"/>
      </g>
     </g>
     <g id="text_9">
      <!-- 24 -->
      <g transform="translate(417.942854 267.163792)scale(0.1 -0.1)">
       <use xlink:href="#DejaVuSans-32"/>
       <use x="63.623047" xlink:href="#DejaVuSans-34"/>
      </g>
     </g>
    </g>
    <g id="text_10">
     <!-- Hours relative to landfall -->
     <defs>
      <path d="M 9.8125 72.90625 
L 19.671875 72.90625 
L 19.671875 43.015625 
L 55.515625 43.015625 
L 55.515625 72.90625 
L 65.375 72.90625 
L 65.375 0 
L 55.515625 0 
L 55.515625 34.71875 
L 19.671875 34.71875 
L 19.671875 0 
L 9.8125 0 
z
" id="DejaVuSans-48"/>
      <path d="M 30.609375 48.390625 
Q 23.390625 48.390625 19.1875 42.75 
Q 14.984375 37.109375 14.984375 27.296875 
Q 14.984375 17.484375 19.15625 11.84375 
Q 23.34375 6.203125 30.609375 6.203125 
Q 37.796875 6.203125 41.984375 11.859375 
Q 46.1875 17.53125 46.1875 27.296875 
Q 46.1875 37.015625 41.984375 42.703125 
Q 37.796875 48.390625 30.609375 48.390625 
z
M 30.609375 56 
Q 42.328125 56 49.015625 48.375 
Q 55.71875 40.765625 55.71875 27.296875 
Q 55.71875 13.875 49.015625 6.21875 
Q 42.328125 -1.421875 30.609375 -1.421875 
Q 18.84375 -1.421875 12.171875 6.21875 
Q 5.515625 13.875 5.515625 27.296875 
Q 5.515625 40.765625 12.171875 48.375 
Q 18.84375 56 30.609375 56 
z
" id="DejaVuSans-6f"/>
      <path d="M 8.5 21.578125 
L 8.5 54.6875 
L 17.484375 54.6875 
L 17.484375 21.921875 
Q 17.484375 14.15625 20.5 10.265625 
Q 23.53125 6.390625 29.59375 6.390625 
Q 36.859375 6.390625 41.078125 11.03125 
Q 45.3125 15.671875 45.3125 23.6875 
L 45.3125 54.6875 
L 54.296875 54.6875 
L 54.296875 0 
L 45.3125 0 
L 45.3125 8.40625 
Q 42.046875 3.421875 37.71875 1 
Q 33.40625 -1.421875 27.6875 -1.421875 
Q 18.265625 -1.421875 13.375 4.4375 
Q 8.5 10.296875 8.5 21.578125 
z
M 31.109375 56 
z
" id="DejaVuSans-75"/>
      <path d="M 41.109375 46.296875 
Q 39.59375 47.171875 37.8125 47.578125 
Q 36.03125 48 33.890625 48 
Q 26.265625 48 22.1875 43.046875 
Q 18.109375 38.09375 18.109375 28.8125 
L 18.109375 0 
L 9.078125 0 
L 9.078125 54.6875 
L 18.109375 54.6875 
L 18.109375 46.1875 
Q 20.953125 51.171875 25.484375 53.578125 
Q 30.03125 56 36.53125 56 
Q 37.453125 56 38.578125 55.875 
Q 39.703125 55.765625 41.0625 55.515625 
z
" id="DejaVuSans-72"/>
      <path d="M 44.28125 53.078125 
L 44.28125 44.578125 
Q 40.484375 46.53125 36.375 47.5 
Q 32.28125 48.484375 27.875 48.484375 
Q 21.1875 48.484375 17.84375 46.4375 
Q 14.5 44.390625 14.5 40.28125 
Q 14.5 37.15625 16.890625 35.375 
Q 19.28125 33.59375 26.515625 31.984375 
L 29.59375 31.296875 
Q 39.15625 29.25 43.1875 25.515625 
Q 47.21875 21.78125 47.21875 15.09375 
Q 47.21875 7.46875 41.1875 3.015625 
Q 35.15625 -1.421875 24.609375 -1.421875 
Q 20.21875 -1.421875 15.453125 -0.5625 
Q 10.6875 0.296875 5.421875 2 
L 5.421875 11.28125 
Q 10.40625 8.6875 15.234375 7.390625 
Q 20.0625 6.109375 24.8125 6.109375 
Q 31.15625 6.109375 34.5625 8.28125 
Q 37.984375 10.453125 37.984375 14.40625 
Q 37.984375 18.0625 35.515625 20.015625 
Q 33.0625 21.96875 24.703125 23.78125 
L 21.578125 24.515625 
Q 13.234375 26.265625 9.515625 29.90625 
Q 5.8125 33.546875 5.8125 39.890625 
Q 5.8125 47.609375 11.28125 51.796875 
Q 16.75 56 26.8125 56 
Q 31.78125 56 36.171875 55.265625 
Q 40.578125 54.546875 44.28125 53.078125 
z
" id="DejaVuSans-73"/>
      <path id="DejaVuSans-20"/>
      <path d="M 56.203125 29.59375 
L 56.203125 25.203125 
L 14.890625 25.203125 
Q 15.484375 15.921875 20.484375 11.0625 
Q 25.484375 6.203125 34.421875 6.203125 
Q 39.59375 6.203125 44.453125 7.46875 
Q 49.3125 8.734375 54.109375 11.28125 
L 54.109375 2.78125 
Q 49.265625 0.734375 44.1875 -0.34375 
Q 39.109375 -1.421875 33.890625 -1.421875 
Q 20.796875 -1.421875 13.15625 6.1875 
Q 5.515625 13.8125 5.515625 26.8125 
Q 5.515625 40.234375 12.765625 48.109375 
Q 20.015625 56 32.328125 56 
Q 43.359375 56 49.78125 48.890625 
Q 56.203125 41.796875 56.203125 29.59375 
z
M 47.21875 32.234375 
Q 47.125 39.59375 43.09375 43.984375 
Q 39.0625 48.390625 32.421875 48.390625 
Q 24.90625 48.390625 20.390625 44.140625 
Q 15.875 39.890625 15.1875 32.171875 
z
" id="DejaVuSans-65"/>
      <path d="M 9.421875 75.984375 
L 18.40625 75.984375 
L 18.40625 0 
L 9.421875 0 
z
" id="DejaVuSans-6c"/>
      <path d="M 34.28125 27.484375 
Q 23.390625 27.484375 19.1875 25 
Q 14.984375 22.515625 14.984375 16.5 
Q 14.984375 11.71875 18.140625 8.90625 
Q 21.296875 6.109375 26.703125 6.109375 
Q 34.1875 6.109375 38.703125 11.40625 
Q 43.21875 16.703125 43.21875 25.484375 
L 43.21875 27.484375 
z
M 52.203125 31.203125 
L 52.203125 0 
L 43.21875 0 
L 43.21875 8.296875 
Q 40.140625 3.328125 35.546875 0.953125 
Q 30.953125 -1.421875 24.3125 -1.421875 
Q 15.921875 -1.421875 10.953125 3.296875 
Q 6 8.015625 6 15.921875 
Q 6 25.140625 12.171875 29.828125 
Q 18.359375 34.515625 30.609375 34.515625 
L 43.21875 34.515625 
L 43.21875 35.40625 
Q 43.21875 41.609375 39.140625 45 
Q 35.0625 48.390625 27.6875 48.390625 
Q 23 48.390625 18.546875 47.265625 
Q 14.109375 46.140625 10.015625 43.890625 
L 10.015625 52.203125 
Q 14.9375 54.109375 19.578125 55.046875 
Q 24.21875 56 28.609375 56 
Q 40.484375 56 46.34375 49.84375 
Q 52.203125 43.703125 52.203125 31.203125 
z
" id="DejaVuSans-61"/>
      <path d="M 18.3125 70.21875 
L 18.3125 54.6875 
L 36.8125 54.6875 
L 36.8125 47.703125 
L 18.3125 47.703125 
L 18.3125 18.015625 
Q 18.3125 11.328125 20.140625 9.421875 
Q 21.96875 7.515625 27.59375 7.515625 
L 36.8125 7.515625 
L 36.8125 0 
L 27.59375 0 
Q 17.1875 0 13.234375 3.875 
Q 9.28125 7.765625 9.28125 18.015625 
L 9.28125 47.703125 
L 2.6875 47.703125 
L 2.6875 54.6875 
L 9.28125 54.6875 
L 9.28125 70.21875 
z
" id="DejaVuSans-74"/>
      <path d="M 9.421875 54.6875 
L 18.40625 54.6875 
L 18.40625 0 
L 9.421875 0 
z
M 9.421875 75.984375 
L 18.40625 75.984375 
L 18.40625 64.59375 
L 9.421875 64.59375 
z
" id="DejaVuSans-69"/>
      <path d="M 2.984375 54.6875 
L 12.5 54.6875 
L 29.59375 8.796875 
L 46.6875 54.6875 
L 56.203125 54.6875 
L 35.6875 0 
L 23.484375 0 
z
" id="DejaVuSans-76"/>
      <path d="M 54.890625 33.015625 
L 54.890625 0 
L 45.90625 0 
L 45.90625 32.71875 
Q 45.90625 40.484375 42.875 44.328125 
Q 39.84375 48.1875 33.796875 48.1875 
Q 26.515625 48.1875 22.3125 43.546875 
Q 18.109375 38.921875 18.109375 30.90625 
L 18.109375 0 
L 9.078125 0 
L 9.078125 54.6875 
L 18.109375 54.6875 
L 18.109375 46.1875 
Q 21.34375 51.125 25.703125 53.5625 
Q 30.078125 56 35.796875 56 
Q 45.21875 56 50.046875 50.171875 
Q 54.890625 44.34375 54.890625 33.015625 
z
" id="DejaVuSans-6e"/>
      <path d="M 45.40625 46.390625 
L 45.40625 75.984375 
L 54.390625 75.984375 
L 54.390625 0 
L 45.40625 0 
L 45.40625 8.203125 
Q 42.578125 3.328125 38.25 0.953125 
Q 33.9375 -1.421875 27.875 -1.421875 
Q 17.96875 -1.421875 11.734375 6.484375 
Q 5.515625 14.40625 5.515625 27.296875 
Q 5.515625 40.1875 11.734375 48.09375 
Q 17.96875 56 27.875 56 
Q 33.9375 56 38.25 53.625 
Q 42.578125 51.265625 45.40625 46.390625 
z
M 14.796875 27.296875 
Q 14.796875 17.390625 18.875 11.75 
Q 22.953125 6.109375 30.078125 6.109375 
Q 37.203125 6.109375 41.296875 11.75 
Q 45.40625 17.390625 45.40625 27.296875 
Q 45.40625 37.203125 41.296875 42.84375 
Q 37.203125 48.484375 30.078125 48.484375 
Q 22.953125 48.484375 18.875 42.84375 
Q 14.796875 37.203125 14.796875 27.296875 
z
" id="DejaVuSans-64"/>
      <path d="M 37.109375 75.984375 
L 37.109375 68.5 
L 28.515625 68.5 
Q 23.6875 68.5 21.796875 66.546875 
Q 19.921875 64.59375 19.921875 59.515625 
L 19.921875 54.6875 
L 34.71875 54.6875 
L 34.71875 47.703125 
L 19.921875 47.703125 
L 19.921875 0 
L 10.890625 0 
L 10.890625 47.703125 
L 2.296875 47.703125 
L 2.296875 54.6875 
L 10.890625 54.6875 
L 10.890625 58.5 
Q 10.890625 67.625 15.140625 71.796875 
Q 19.390625 75.984375 28.609375 75.984375 
z
" id="DejaVuSans-66"/>
     </defs>
     <g transform="translate(152.112187 282.361604)scale(0.12 -0.12)">
      <use xlink:href="#DejaVuSans-48"/>
      <use x="75.195312" xlink:href="#DejaVuSans-6f"/>
      <use x="136.376953" xlink:href="#DejaVuSans-75"/>
      <use x="199.755859" xlink:href="#DejaVuSans-72"/>
      <use x="240.869141" xlink:href="#DejaVuSans-73"/>
      <use x="292.96875" xlink:href="#DejaVuSans-20"/>
      <use x="324.755859" xlink:href="#DejaVuSans-72"/>
      <use x="365.837891" xlink:href="#DejaVuSans-65"/>
      <use x="427.361328" xlink:href="#DejaVuSans-6c"/>
      <use x="455.144531" xlink:href="#DejaVuSans-61"/>
      <use x="516.423828" xlink:href="#DejaVuSans-74"/>
      <use x="555.632812" xlink:href="#DejaVuSans-69"/>
      <use x="583.416016" xlink:href="#DejaVuSans-76"/>
      <use x="642.595703" xlink:href="#DejaVuSans-65"/>
      <use x="704.119141" xlink:href="#DejaVuSans-20"/>
      <use x="735.90625" xlink:href="#DejaVuSans-74"/>
      <use x="775.115234" xlink:href="#DejaVuSans-6f"/>
      <use x="836.296875" xlink:href="#DejaVuSans-20"/>
      <use x="868.083984" xlink:href="#DejaVuSans-6c"/>
      <use x="895.867188" xlink:href="#DejaVuSans-61"/>
      <use x="957.146484" xlink:href="#DejaVuSans-6e"/>
      <use x="1020.525391" xlink:href="#DejaVuSans-64"/>
      <use x="1084.001953" xlink:href="#DejaVuSans-66"/>
      <use x="1119.207031" xlink:href="#DejaVuSans-61"/>
      <use x="1180.486328" xlink:href="#DejaVuSans-6c"/>
      <use x="1208.269531" xlink:href="#DejaVuSans-6c"/>
     </g>
    </g>
   </g>
   <g id="matplotlib.axis_2">
    <g id="ytick_1">
     <g id="line2d_19">
      <path clip-path="url(#pb647e46729)" d="M 28.244646 224.803821 
L 424.305354 224.803821 
" style="fill:none;stroke:#000000;stroke-linecap:square;stroke-opacity:0.1;stroke-width:0.5;"/>
     </g>
     <g id="line2d_20">
      <defs>
       <path d="M 0 0 
L 3.5 0 
" id="m6518f4127a" style="stroke:#000000;stroke-width:0.8;"/>
      </defs>
      <g>
       <use style="stroke:#000000;stroke-width:0.8;" x="28.244646" xlink:href="#m6518f4127a" y="224.803821"/>
      </g>
     </g>
     <g id="text_11">
      <!-- 0 -->
      <g transform="translate(18.382146 228.603039)scale(0.1 -0.1)">
       <use xlink:href="#DejaVuSans-30"/>
      </g>
     </g>
    </g>
    <g id="ytick_2">
     <g id="line2d_21">
      <path clip-path="url(#pb647e46729)" d="M 28.244646 163.889783 
L 424.305354 163.889783 
" style="fill:none;stroke:#000000;stroke-linecap:square;stroke-opacity:0.1;stroke-width:0.5;"/>
     </g>
     <g id="line2d_22">
      <g>
       <use style="stroke:#000000;stroke-width:0.8;" x="28.244646" xlink:href="#m6518f4127a" y="163.889783"/>
      </g>
     </g>
     <g id="text_12">
      <!-- 1 -->
      <g transform="translate(18.382146 167.689002)scale(0.1 -0.1)">
       <use xlink:href="#DejaVuSans-31"/>
      </g>
     </g>
    </g>
    <g id="ytick_3">
     <g id="line2d_23">
      <path clip-path="url(#pb647e46729)" d="M 28.244646 102.975745 
L 424.305354 102.975745 
" style="fill:none;stroke:#000000;stroke-linecap:square;stroke-opacity:0.1;stroke-width:0.5;"/>
     </g>
     <g id="line2d_24">
      <g>
       <use style="stroke:#000000;stroke-width:0.8;" x="28.244646" xlink:href="#m6518f4127a" y="102.975745"/>
      </g>
     </g>
     <g id="text_13">
      <!-- 2 -->
      <g transform="translate(18.382146 106.774964)scale(0.1 -0.1)">
       <use xlink:href="#DejaVuSans-32"/>
      </g>
     </g>
    </g>
    <g id="ytick_4">
     <g id="line2d_25">
      <path clip-path="url(#pb647e46729)" d="M 28.244646 42.061707 
L 424.305354 42.061707 
" style="fill:none;stroke:#000000;stroke-linecap:square;stroke-opacity:0.1;stroke-width:0.5;"/>
     </g>
     <g id="line2d_26">
      <g>
       <use style="stroke:#000000;stroke-width:0.8;" x="28.244646" xlink:href="#m6518f4127a" y="42.061707"/>
      </g>
     </g>
     <g id="text_14">
      <!-- 3 -->
      <g transform="translate(18.382146 45.860926)scale(0.1 -0.1)">
       <use xlink:href="#DejaVuSans-33"/>
      </g>
     </g>
    </g>
    <g id="text_15">
     <!-- Surface (m) -->
     <defs>
      <path d="M 53.515625 70.515625 
L 53.515625 60.890625 
Q 47.90625 63.578125 42.921875 64.890625 
Q 37.9375 66.21875 33.296875 66.21875 
Q 25.25 66.21875 20.875 63.09375 
Q 16.5 59.96875 16.5 54.203125 
Q 16.5 49.359375 19.40625 46.890625 
Q 22.3125 44.4375 30.421875 42.921875 
L 36.375 41.703125 
Q 47.40625 39.59375 52.65625 34.296875 
Q 57.90625 29 57.90625 20.125 
Q 57.90625 9.515625 50.796875 4.046875 
Q 43.703125 -1.421875 29.984375 -1.421875 
Q 24.8125 -1.421875 18.96875 -0.25 
Q 13.140625 0.921875 6.890625 3.21875 
L 6.890625 13.375 
Q 12.890625 10.015625 18.65625 8.296875 
Q 24.421875 6.59375 29.984375 6.59375 
Q 38.421875 6.59375 43.015625 9.90625 
Q 47.609375 13.234375 47.609375 19.390625 
Q 47.609375 24.75 44.3125 27.78125 
Q 41.015625 30.8125 33.5 32.328125 
L 27.484375 33.5 
Q 16.453125 35.6875 11.515625 40.375 
Q 6.59375 45.0625 6.59375 53.421875 
Q 6.59375 63.09375 13.40625 68.65625 
Q 20.21875 74.21875 32.171875 74.21875 
Q 37.3125 74.21875 42.625 73.28125 
Q 47.953125 72.359375 53.515625 70.515625 
z
" id="DejaVuSans-53"/>
      <path d="M 48.78125 52.59375 
L 48.78125 44.1875 
Q 44.96875 46.296875 41.140625 47.34375 
Q 37.3125 48.390625 33.40625 48.390625 
Q 24.65625 48.390625 19.8125 42.84375 
Q 14.984375 37.3125 14.984375 27.296875 
Q 14.984375 17.28125 19.8125 11.734375 
Q 24.65625 6.203125 33.40625 6.203125 
Q 37.3125 6.203125 41.140625 7.25 
Q 44.96875 8.296875 48.78125 10.40625 
L 48.78125 2.09375 
Q 45.015625 0.34375 40.984375 -0.53125 
Q 36.96875 -1.421875 32.421875 -1.421875 
Q 20.0625 -1.421875 12.78125 6.34375 
Q 5.515625 14.109375 5.515625 27.296875 
Q 5.515625 40.671875 12.859375 48.328125 
Q 20.21875 56 33.015625 56 
Q 37.15625 56 41.109375 55.140625 
Q 45.0625 54.296875 48.78125 52.59375 
z
" id="DejaVuSans-63"/>
      <path d="M 31 75.875 
Q 24.46875 64.65625 21.28125 53.65625 
Q 18.109375 42.671875 18.109375 31.390625 
Q 18.109375 20.125 21.3125 9.0625 
Q 24.515625 -2 31 -13.1875 
L 23.1875 -13.1875 
Q 15.875 -1.703125 12.234375 9.375 
Q 8.59375 20.453125 8.59375 31.390625 
Q 8.59375 42.28125 12.203125 53.3125 
Q 15.828125 64.359375 23.1875 75.875 
z
" id="DejaVuSans-28"/>
      <path d="M 52 44.1875 
Q 55.375 50.25 60.0625 53.125 
Q 64.75 56 71.09375 56 
Q 79.640625 56 84.28125 50.015625 
Q 88.921875 44.046875 88.921875 33.015625 
L 88.921875 0 
L 79.890625 0 
L 79.890625 32.71875 
Q 79.890625 40.578125 77.09375 44.375 
Q 74.3125 48.1875 68.609375 48.1875 
Q 61.625 48.1875 57.5625 43.546875 
Q 53.515625 38.921875 53.515625 30.90625 
L 53.515625 0 
L 44.484375 0 
L 44.484375 32.71875 
Q 44.484375 40.625 41.703125 44.40625 
Q 38.921875 48.1875 33.109375 48.1875 
Q 26.21875 48.1875 22.15625 43.53125 
Q 18.109375 38.875 18.109375 30.90625 
L 18.109375 0 
L 9.078125 0 
L 9.078125 54.6875 
L 18.109375 54.6875 
L 18.109375 46.1875 
Q 21.1875 51.21875 25.484375 53.609375 
Q 29.78125 56 35.6875 56 
Q 41.65625 56 45.828125 52.96875 
Q 50 49.953125 52 44.1875 
z
" id="DejaVuSans-6d"/>
      <path d="M 8.015625 75.875 
L 15.828125 75.875 
Q 23.140625 64.359375 26.78125 53.3125 
Q 30.421875 42.28125 30.421875 31.390625 
Q 30.421875 20.453125 26.78125 9.375 
Q 23.140625 -1.703125 15.828125 -13.1875 
L 8.015625 -13.1875 
Q 14.5 -2 17.703125 9.0625 
Q 20.90625 20.125 20.90625 31.390625 
Q 20.90625 42.671875 17.703125 53.65625 
Q 14.5 64.65625 8.015625 75.875 
z
" id="DejaVuSans-29"/>
     </defs>
     <g transform="translate(11.886521 164.74125)rotate(-90)scale(0.12 -0.12)">
      <use xlink:href="#DejaVuSans-53"/>
      <use x="63.476562" xlink:href="#DejaVuSans-75"/>
      <use x="126.855469" xlink:href="#DejaVuSans-72"/>
      <use x="167.96875" xlink:href="#DejaVuSans-66"/>
      <use x="203.173828" xlink:href="#DejaVuSans-61"/>
      <use x="264.453125" xlink:href="#DejaVuSans-63"/>
      <use x="319.433594" xlink:href="#DejaVuSans-65"/>
      <use x="380.957031" xlink:href="#DejaVuSans-20"/>
      <use x="412.744141" xlink:href="#DejaVuSans-28"/>
      <use x="451.757812" xlink:href="#DejaVuSans-6d"/>
      <use x="549.169922" xlink:href="#DejaVuSans-29"/>
     </g>
    </g>
   </g>
   <g id="line2d_27">
    <path clip-path="url(#pb647e46729)" d="M 28.244646 224.803821 
L 37.538779 224.914191 
L 39.200492 225.176414 
L 41.045566 225.675568 
L 43.234443 226.290342 
L 44.987837 226.549629 
L 46.64955 226.548009 
L 49.021789 226.295289 
L 53.961088 225.789812 
L 58.350302 225.354161 
L 62.200892 224.943369 
L 65.100295 224.862688 
L 69.042566 225.026169 
L 73.775583 225.156549 
L 78.4513 225.016953 
L 85.556556 224.818251 
L 89.235244 225.014961 
L 95.114271 225.589971 
L 98.792959 225.86063 
L 102.391428 225.906426 
L 107.067144 225.693598 
L 116.533179 225.169652 
L 133.482652 224.71661 
L 137.608284 224.816631 
L 144.70208 225.299496 
L 149.526778 225.513451 
L 154.122274 225.462709 
L 156.391371 225.531768 
L 158.064545 225.791432 
L 160.780586 226.551103 
L 166.212669 228.090876 
L 168.665128 228.467934 
L 170.773784 228.545624 
L 172.699079 228.396098 
L 174.635835 228.041128 
L 177.730059 227.139435 
L 186.233446 224.532168 
L 191.757209 223.461507 
L 194.908734 222.764754 
L 197.01739 222.124645 
L 198.862465 221.39236 
L 203.011017 219.263884 
L 205.291575 217.875172 
L 216.339102 211.126767 
L 219.92611 208.670567 
L 225.896817 204.594979 
L 231.008017 200.959617 
L 231.970665 200.329492 
L 233.116674 199.383552 
L 235.660814 196.693405 
L 236.4401 195.744078 
L 236.657841 194.683821 
L 242.754609 182.501963 
L 243.980839 180.778139 
L 245.035167 179.783961 
L 246.261397 179.041053 
L 248.415894 177.882529 
L 251.384057 175.208525 
L 252.083123 174.406409 
L 253.401033 172.740349 
L 254.054258 171.828831 
L 255.498229 169.675276 
L 259.4405 164.083307 
L 265.147625 157.335981 
L 265.80085 156.433905 
L 267.382343 154.137506 
L 267.989727 153.203329 
L 269.479539 150.811112 
L 271.152712 147.963138 
L 271.760097 146.867842 
L 273.651012 143.38362 
L 274.212556 142.314091 
L 279.81654 132.472454 
L 282.36068 128.989024 
L 286.738435 123.85196 
L 290.382743 119.836385 
L 291.035968 119.097071 
L 295.379342 114.56592 
L 296.422211 113.882891 
L 301.670932 110.805818 
L 303.160743 110.246505 
L 304.352593 110.07156 
L 305.487142 110.14283 
L 306.759212 110.443928 
L 308.684507 111.11715 
L 310.884844 112.017886 
L 313.463364 113.712088 
L 314.471852 114.714367 
L 315.4345 115.890069 
L 316.442988 117.363153 
L 317.417095 119.028665 
L 318.116161 120.410683 
L 319.170489 122.731325 
L 319.777874 124.197404 
L 321.141625 127.657869 
L 321.703169 129.162202 
L 323.548243 134.136016 
L 324.820313 137.92091 
L 325.771501 141.132176 
L 326.653928 144.637536 
L 327.307153 147.669227 
L 328.17812 152.252339 
L 329.186608 158.222219 
L 330.905621 169.117426 
L 331.386945 172.079432 
L 331.822428 174.630511 
L 333.220559 181.575863 
L 334.492629 186.243078 
L 335.81054 189.910042 
L 337.300351 193.099093 
L 341.425984 200.513849 
L 343.259598 205.139045 
L 345.895419 212.876785 
L 347.201869 216.670298 
L 351.006619 226.691413 
L 352.851693 231.322591 
L 353.814341 233.665053 
L 355.040571 236.092099 
L 355.831317 237.091685 
L 356.438702 237.512318 
L 356.965866 237.586174 
L 357.49303 237.410823 
L 358.111875 236.967663 
L 358.982842 235.969282 
L 360.300752 233.380931 
L 361.526982 231.752736 
L 362.145826 231.523163 
L 362.753211 231.556775 
L 363.372056 231.765229 
L 364.506605 232.519784 
L 365.560933 233.492313 
L 367.050745 235.093609 
L 369.331303 237.409822 
L 370.729434 238.651819 
L 372.929771 240.746646 
L 373.800738 241.330073 
L 375.153029 241.895368 
L 376.115676 242.116645 
L 377.605488 242.24324 
L 377.685708 240.968848 
L 377.777389 241.001936 
L 378.659816 241.170455 
L 379.702684 241.133688 
L 381.71966 240.789152 
L 383.656415 240.578684 
L 385.226448 240.651638 
L 387.163203 240.965413 
L 392.595285 242.066019 
L 395.219646 242.308194 
L 397.591885 242.282884 
L 399.723461 242.050576 
L 401.832118 241.620283 
L 403.929314 240.99755 
L 406.129652 240.169715 
L 411.206472 237.751645 
L 414.105874 236.18254 
L 417.085498 234.482202 
L 424.270974 230.589826 
L 424.270974 230.589826 
" style="fill:none;stroke:#009afa;stroke-linecap:round;"/>
   </g>
   <g id="line2d_28">
    <path clip-path="url(#pb647e46729)" d="M 28.244646 224.803821 
L 38.329525 224.912205 
L 40.518402 225.238771 
L 43.062542 225.863189 
L 44.987837 226.28112 
L 47.004813 226.496061 
L 49.19369 226.481491 
L 53.617285 226.165201 
L 59.129588 225.587468 
L 65.70768 224.809674 
L 68.950885 224.750959 
L 82.576932 224.81646 
L 86.954686 224.84325 
L 90.633375 225.086486 
L 96.420721 225.707383 
L 100.981837 226.052016 
L 104.431324 226.06214 
L 108.385055 225.839847 
L 120.395229 224.926374 
L 126.262795 224.768527 
L 135.76321 224.714569 
L 140.496227 224.943746 
L 152.712683 225.626769 
L 157.800963 225.700524 
L 159.817938 226.005417 
L 163.496627 226.928581 
L 168.665128 228.178056 
L 171.037366 228.45647 
L 173.054342 228.466088 
L 174.979637 228.256903 
L 176.859092 227.85364 
L 179.918936 226.852244 
L 183.081921 225.598438 
L 185.4427 224.673806 
L 189.648553 223.294444 
L 199.126047 220.64631 
L 202.575534 219.060717 
L 204.67273 217.931298 
L 206.517805 216.862604 
L 208.362879 215.614043 
L 210.551757 214.01522 
L 216.07552 210.285149 
L 222.126447 205.723729 
L 224.487226 203.577624 
L 224.750808 203.219017 
L 225.931197 201.272819 
L 228.601398 197.80597 
L 229.873468 196.162003 
L 230.354792 195.51958 
L 230.744435 194.894224 
L 233.151054 189.563679 
L 234.950288 186.634098 
L 241.700281 177.218444 
L 246.215557 171.714008 
L 249.458762 168.380427 
L 251.510118 166.360334 
L 252.99993 164.715168 
L 254.409521 162.959077 
L 255.062746 162.070829 
L 256.460877 160.039346 
L 258.08821 157.495514 
L 260.151026 154.119415 
L 260.66673 153.272527 
L 263.875555 148.436744 
L 264.48294 147.439642 
L 266.282174 144.411605 
L 268.035568 141.295487 
L 269.399318 138.701158 
L 269.960863 137.595081 
L 272.378942 132.92133 
L 272.940486 131.763476 
L 274.73972 127.982541 
L 277.891245 121.301307 
L 278.45279 120.121828 
L 285.122562 107.242347 
L 289.855579 99.191278 
L 291.918395 95.687685 
L 292.47994 94.693385 
L 294.279174 91.455682 
L 295.906507 88.355949 
L 296.468051 87.228492 
L 298.622548 82.881727 
L 303.871269 72.920515 
L 307.286376 67.576892 
L 309.956577 64.303493 
L 312.672618 61.512473 
L 314.254111 60.32934 
L 315.572021 59.689011 
L 316.75241 59.391873 
L 317.715058 59.388583 
L 318.551644 59.598859 
L 319.388231 60.025074 
L 321.004104 61.50827 
L 321.88653 62.645596 
L 322.849178 64.16729 
L 323.422183 65.312656 
L 324.293149 67.46012 
L 325.175576 69.98854 
L 325.863182 72.285608 
L 326.734148 75.652875 
L 327.696796 79.894929 
L 328.670904 84.682467 
L 329.278288 88.085978 
L 330.240936 94.033625 
L 331.203584 100.745134 
L 332.956977 113.808637 
L 334.675991 127.076567 
L 335.982441 137.407039 
L 341.678106 178.998231 
L 344.921311 198.672971 
L 346.858066 207.990139 
L 347.820714 212.056925 
L 352.324529 229.268192 
L 354.513407 236.101097 
L 355.922998 239.560944 
L 356.622063 240.849631 
L 357.229448 241.690468 
L 357.928513 242.311926 
L 358.639039 242.594078 
L 359.166203 242.602739 
L 359.681907 242.377643 
L 360.392433 241.81428 
L 361.962465 240.326952 
L 362.925113 239.752327 
L 363.543957 239.647415 
L 364.243023 239.759918 
L 365.12545 240.128848 
L 367.66959 241.720757 
L 369.594885 242.993946 
L 375.496831 246.947265 
L 377.078324 247.552436 
L 381.192496 248.609672 
L 382.338505 248.517735 
L 388.389432 247.613271 
L 390.486629 247.469444 
L 394.256998 247.479473 
L 396.365655 247.357071 
L 398.29095 246.985099 
L 399.815142 246.480767 
L 401.304954 245.805635 
L 402.886446 244.918286 
L 406.393234 242.454931 
L 417.520981 232.877788 
L 421.726834 229.828589 
L 424.270974 228.360134 
L 424.270974 228.360134 
" style="fill:none;stroke:#e36f47;stroke-linecap:round;"/>
   </g>
   <g id="patch_3">
    <path d="M 28.244646 256.065354 
L 28.244646 2.834646 
" style="fill:none;stroke:#000000;stroke-linecap:square;stroke-linejoin:miter;"/>
   </g>
   <g id="patch_4">
    <path d="M 28.244646 256.065354 
L 424.305354 256.065354 
" style="fill:none;stroke:#000000;stroke-linecap:square;stroke-linejoin:miter;"/>
   </g>
   <g id="line2d_29">
    <path clip-path="url(#pb647e46729)" d="M 28.244646 224.803821 
L 38.593107 224.913673 
L 40.610083 225.227703 
L 46.832912 226.651611 
L 48.666526 226.668485 
L 52.436896 226.414924 
L 57.639776 225.972 
L 60.367278 225.498186 
L 64.045967 224.805417 
L 66.234844 224.551368 
L 68.950885 224.457689 
L 72.984837 224.582812 
L 81.08712 224.800148 
L 87.745433 224.990754 
L 91.779384 225.354977 
L 100.981837 226.213061 
L 104.167742 226.197095 
L 107.674529 225.952787 
L 112.762809 225.383412 
L 118.893957 224.800483 
L 123.546754 224.628516 
L 130.938512 224.645164 
L 137.08112 224.813171 
L 144.358277 225.34969 
L 148.999613 225.666589 
L 152.976265 225.715698 
L 158.236446 225.731974 
L 160.08152 226.016235 
L 163.588308 226.919054 
L 166.476251 227.689617 
L 169.639235 228.316831 
L 171.564531 228.502149 
L 173.398145 228.486099 
L 175.151539 228.267375 
L 176.859092 227.858976 
L 179.391772 226.923915 
L 181.592109 225.901163 
L 184.743634 224.319542 
L 188.777586 222.540706 
L 192.020791 221.492747 
L 195.435898 220.617979 
L 198.335301 220.173324 
L 200.432497 219.559213 
L 202.220271 218.81471 
L 203.102698 218.387976 
L 203.182919 221.302019 
L 203.274599 221.258934 
L 203.710083 220.907332 
L 204.328928 220.133791 
L 205.337416 218.557707 
L 207.652354 215.169797 
L 209.451588 213.191656 
L 211.777986 211.180634 
L 216.511003 207.475909 
L 218.138336 206.025887 
L 218.917622 205.24972 
L 220.373054 203.685935 
L 221.072119 202.855335 
L 222.653612 200.844606 
L 223.260996 200.019421 
L 229.208783 192.112633 
L 241.963863 174.421333 
L 245.34459 170.528926 
L 254.753324 160.734984 
L 256.117074 159.035848 
L 256.770299 158.140777 
L 258.13405 156.130614 
L 258.741435 155.153126 
L 260.151026 152.769986 
L 260.758411 151.669209 
L 262.339903 148.694106 
L 264.139137 145.124604 
L 264.700682 143.979299 
L 267.382343 138.579208 
L 267.943887 137.418552 
L 269.880642 133.397312 
L 270.442187 132.147112 
L 278.372569 115.181578 
L 278.934113 113.959825 
L 281.398033 108.659634 
L 281.959577 107.421678 
L 288.411608 93.766883 
L 288.973152 92.549394 
L 291.654813 86.848693 
L 292.216358 85.593741 
L 293.84369 81.870432 
L 295.723145 77.317229 
L 297.212957 73.514 
L 298.748609 69.33481 
L 300.536383 64.227351 
L 307.114475 46.326725 
L 310.265999 39.45818 
L 313.073721 34.317218 
L 315.216758 31.145363 
L 316.844091 29.358572 
L 318.379743 28.100514 
L 319.732034 27.364551 
L 320.923883 27.0146 
L 321.749009 26.981889 
L 322.849178 27.136489 
L 323.765985 27.459942 
L 324.602572 27.956331 
L 325.336018 28.61341 
L 325.989243 29.43179 
L 326.653928 30.539573 
L 328.407322 35.186157 
L 330.596199 45.179105 
L 331.386945 50.178624 
L 332.04017 54.943503 
L 333.140339 63.744851 
L 333.701883 68.649771 
L 335.157315 81.775589 
L 335.673019 86.694824 
L 337.12845 100.631468 
L 338.698482 116.467169 
L 340.108073 131.03537 
L 341.334303 143.988314 
L 344.74941 177.033266 
L 346.938287 194.356426 
L 349.046944 208.009936 
L 350.914938 217.627861 
L 353.023595 226.379015 
L 355.476054 234.808842 
L 357.321129 240.011644 
L 358.547358 242.662144 
L 359.510006 244.091836 
L 360.300752 244.802433 
L 360.999817 245.087576 
L 361.618662 245.094812 
L 362.317728 244.864396 
L 363.188695 244.392997 
L 366.523581 242.332197 
L 367.486228 242.182078 
L 368.448876 242.279743 
L 369.503204 242.616173 
L 370.821115 243.256742 
L 372.402607 244.211503 
L 377.250225 247.597068 
L 378.923398 248.425261 
L 379.966266 248.738975 
L 381.284177 248.896315 
L 382.773988 248.813594 
L 388.297752 248.317888 
L 391.105474 248.41482 
L 394.176778 248.512575 
L 396.010392 248.345415 
L 397.591885 247.987088 
L 399.081696 247.446383 
L 400.514208 246.74065 
L 401.832118 245.912669 
L 403.150028 244.907205 
L 406.393234 241.830956 
L 410.770988 236.97012 
L 415.504005 232.061448 
L 418.575309 229.504277 
L 421.027769 227.905527 
L 423.136425 226.913999 
L 424.270974 226.52781 
L 424.270974 226.52781 
" style="fill:none;stroke:#3ea44e;stroke-linecap:round;"/>
   </g>
   <g id="line2d_30">
    <path clip-path="url(#pb647e46729)" d="M 28.244646 224.803821 
L 39.899557 224.912832 
L 41.916533 225.181408 
L 44.02519 225.677468 
L 48.402944 226.711874 
L 50.5116 226.87929 
L 52.99844 226.824272 
L 56.76881 226.506983 
L 59.748433 226.079671 
L 62.556155 225.483225 
L 66.590107 224.547945 
L 68.687303 224.198932 
L 71.323124 223.989686 
L 73.947484 224.009416 
L 77.637633 224.266376 
L 100.282771 226.368453 
L 103.640577 226.43212 
L 106.711882 226.264028 
L 110.138448 225.862531 
L 119.077319 224.593107 
L 122.137163 224.362882 
L 125.907532 224.305489 
L 130.594709 224.478192 
L 142.15794 225.254633 
L 150.844688 225.815633 
L 154.466076 225.796634 
L 160.08152 225.728368 
L 162.362078 226.029125 
L 165.685504 226.826678 
L 171.209268 228.153672 
L 173.489826 228.391737 
L 175.3349 228.357722 
L 177.202895 228.076488 
L 178.784387 227.633594 
L 180.36588 227.008988 
L 183.609085 225.290116 
L 186.405347 223.61367 
L 189.912135 221.775942 
L 192.456275 220.811911 
L 195.092095 220.124617 
L 195.74532 220.72004 
L 196.444386 221.008913 
L 197.235132 221.071051 
L 198.28946 220.909263 
L 199.653211 220.483298 
L 203.801764 218.381648 
L 204.856092 217.51908 
L 206.128162 216.268667 
L 206.781387 215.584597 
L 210.150653 212.379684 
L 216.648524 207.071848 
L 217.427811 206.307377 
L 218.883242 204.76267 
L 219.582307 203.937607 
L 220.900218 202.249314 
L 221.553443 201.338241 
L 223.043255 199.129924 
L 225.151911 195.842357 
L 225.713456 194.948724 
L 231.31744 186.792974 
L 234.870067 181.703941 
L 235.477452 180.834302 
L 238.640437 176.376795 
L 239.201981 175.584243 
L 244.11836 169.247477 
L 248.805537 164.265379 
L 250.684992 162.206606 
L 252.656127 159.924766 
L 253.309352 159.126244 
L 254.890845 157.108893 
L 255.54407 156.210898 
L 256.90782 154.216146 
L 257.515205 153.247126 
L 258.878956 150.946037 
L 259.486341 149.838559 
L 260.895932 147.158646 
L 261.503317 145.925076 
L 263.21087 142.348447 
L 264.884043 138.820123 
L 265.445587 137.553538 
L 266.98124 134.059996 
L 267.118761 132.797796 
L 267.817826 131.09799 
L 271.015191 123.243246 
L 272.860266 119.315448 
L 276.962978 110.387521 
L 278.636151 106.505165 
L 279.197695 105.146234 
L 281.398033 99.86054 
L 281.959577 98.461223 
L 283.495229 94.553831 
L 286.13105 87.713428 
L 286.692594 86.223593 
L 290.382743 76.712658 
L 290.944288 75.221116 
L 292.697681 70.507284 
L 294.416695 65.676557 
L 294.978239 64.013969 
L 296.651412 58.997515 
L 297.212957 57.216815 
L 298.88613 51.846207 
L 299.447674 49.974623 
L 302.163716 41.030128 
L 302.67942 39.340982 
L 306.060146 29.379404 
L 308.822028 22.703652 
L 311.492229 17.313795 
L 313.681106 13.789918 
L 315.216758 11.902253 
L 316.488828 10.788196 
L 317.497316 10.228396 
L 318.459964 10.018669 
L 319.422611 10.046142 
L 320.259198 10.282366 
L 321.049944 10.722531 
L 321.84069 11.390393 
L 322.677277 12.334682 
L 325.336018 16.87558 
L 326.161144 18.853032 
L 327.043571 21.323523 
L 327.880157 24.108208 
L 328.579223 26.869624 
L 329.45019 30.845362 
L 330.378457 35.627175 
L 330.940002 38.865974 
L 331.99433 45.345035 
L 333.094498 52.910497 
L 334.183207 61.257243 
L 335.455277 71.770032 
L 336.773187 83.461628 
L 338.091098 95.896376 
L 339.580909 110.529268 
L 340.89882 124.147515 
L 342.824115 145.44556 
L 346.06732 180.486543 
L 347.201869 189.781106 
L 348.256197 195.581943 
L 350.914938 207.511172 
L 354.421726 221.170402 
L 356.885645 229.183047 
L 357.756612 231.584156 
L 359.246424 234.965184 
L 360.472653 236.991043 
L 361.435301 238.038042 
L 362.226047 238.541212 
L 363.016793 238.76471 
L 363.89922 238.762438 
L 364.942088 238.506469 
L 366.878844 237.758195 
L 368.105073 237.387483 
L 369.239622 237.222203 
L 370.649213 237.250523 
L 372.219246 237.529422 
L 373.800738 238.020757 
L 375.32493 238.667491 
L 380.149628 240.782044 
L 381.284177 240.99405 
L 382.682308 241.03488 
L 384.790964 240.812579 
L 386.716259 240.724291 
L 388.916597 240.906152 
L 391.369056 241.067512 
L 393.12245 240.953521 
L 394.956064 240.578236 
L 396.365655 240.09389 
L 398.646213 238.972336 
L 401.133052 237.238019 
L 404.456479 234.170243 
L 406.129652 232.371208 
L 408.49043 229.645817 
L 414.186095 223.419896 
L 416.730235 221.300143 
L 419.102473 219.765389 
L 420.328703 219.142561 
L 422.345679 218.37262 
L 424.270974 217.912183 
L 424.270974 217.912183 
" style="fill:none;stroke:#c371d2;stroke-linecap:round;"/>
   </g>
   <g id="legend_1">
    <g id="patch_5">
     <path d="M 343.049104 69.547146 
L 417.305354 69.547146 
Q 419.305354 69.547146 419.305354 67.547146 
L 419.305354 9.834646 
Q 419.305354 7.834646 417.305354 7.834646 
L 343.049104 7.834646 
Q 341.049104 7.834646 341.049104 9.834646 
L 341.049104 67.547146 
Q 341.049104 69.547146 343.049104 69.547146 
z
" style="fill:#ffffff;stroke:#000000;stroke-linejoin:miter;"/>
    </g>
    <g id="line2d_31">
     <path d="M 345.049104 15.933083 
L 365.049104 15.933083 
" style="fill:none;stroke:#009afa;stroke-linecap:square;"/>
    </g>
    <g id="line2d_32"/>
    <g id="text_16">
     <!-- Gauge 1 -->
     <defs>
      <path d="M 59.515625 10.40625 
L 59.515625 29.984375 
L 43.40625 29.984375 
L 43.40625 38.09375 
L 69.28125 38.09375 
L 69.28125 6.78125 
Q 63.578125 2.734375 56.6875 0.65625 
Q 49.8125 -1.421875 42 -1.421875 
Q 24.90625 -1.421875 15.25 8.5625 
Q 5.609375 18.5625 5.609375 36.375 
Q 5.609375 54.25 15.25 64.234375 
Q 24.90625 74.21875 42 74.21875 
Q 49.125 74.21875 55.546875 72.453125 
Q 61.96875 70.703125 67.390625 67.28125 
L 67.390625 56.78125 
Q 61.921875 61.421875 55.765625 63.765625 
Q 49.609375 66.109375 42.828125 66.109375 
Q 29.4375 66.109375 22.71875 58.640625 
Q 16.015625 51.171875 16.015625 36.375 
Q 16.015625 21.625 22.71875 14.15625 
Q 29.4375 6.6875 42.828125 6.6875 
Q 48.046875 6.6875 52.140625 7.59375 
Q 56.25 8.5 59.515625 10.40625 
z
" id="DejaVuSans-47"/>
      <path d="M 45.40625 27.984375 
Q 45.40625 37.75 41.375 43.109375 
Q 37.359375 48.484375 30.078125 48.484375 
Q 22.859375 48.484375 18.828125 43.109375 
Q 14.796875 37.75 14.796875 27.984375 
Q 14.796875 18.265625 18.828125 12.890625 
Q 22.859375 7.515625 30.078125 7.515625 
Q 37.359375 7.515625 41.375 12.890625 
Q 45.40625 18.265625 45.40625 27.984375 
z
M 54.390625 6.78125 
Q 54.390625 -7.171875 48.1875 -13.984375 
Q 42 -20.796875 29.203125 -20.796875 
Q 24.46875 -20.796875 20.265625 -20.09375 
Q 16.0625 -19.390625 12.109375 -17.921875 
L 12.109375 -9.1875 
Q 16.0625 -11.328125 19.921875 -12.34375 
Q 23.78125 -13.375 27.78125 -13.375 
Q 36.625 -13.375 41.015625 -8.765625 
Q 45.40625 -4.15625 45.40625 5.171875 
L 45.40625 9.625 
Q 42.625 4.78125 38.28125 2.390625 
Q 33.9375 0 27.875 0 
Q 17.828125 0 11.671875 7.65625 
Q 5.515625 15.328125 5.515625 27.984375 
Q 5.515625 40.671875 11.671875 48.328125 
Q 17.828125 56 27.875 56 
Q 33.9375 56 38.28125 53.609375 
Q 42.625 51.21875 45.40625 46.390625 
L 45.40625 54.6875 
L 54.390625 54.6875 
z
" id="DejaVuSans-67"/>
     </defs>
     <g transform="translate(373.049104 19.433083)scale(0.1 -0.1)">
      <use xlink:href="#DejaVuSans-47"/>
      <use x="77.490234" xlink:href="#DejaVuSans-61"/>
      <use x="138.769531" xlink:href="#DejaVuSans-75"/>
      <use x="202.148438" xlink:href="#DejaVuSans-67"/>
      <use x="265.625" xlink:href="#DejaVuSans-65"/>
      <use x="327.148438" xlink:href="#DejaVuSans-20"/>
      <use x="358.935547" xlink:href="#DejaVuSans-31"/>
     </g>
    </g>
    <g id="line2d_33">
     <path d="M 345.049104 30.611208 
L 365.049104 30.611208 
" style="fill:none;stroke:#e36f47;stroke-linecap:square;"/>
    </g>
    <g id="line2d_34"/>
    <g id="text_17">
     <!-- Gauge 2 -->
     <g transform="translate(373.049104 34.111208)scale(0.1 -0.1)">
      <use xlink:href="#DejaVuSans-47"/>
      <use x="77.490234" xlink:href="#DejaVuSans-61"/>
      <use x="138.769531" xlink:href="#DejaVuSans-75"/>
      <use x="202.148438" xlink:href="#DejaVuSans-67"/>
      <use x="265.625" xlink:href="#DejaVuSans-65"/>
      <use x="327.148438" xlink:href="#DejaVuSans-20"/>
      <use x="358.935547" xlink:href="#DejaVuSans-32"/>
     </g>
    </g>
    <g id="line2d_35">
     <path d="M 345.049104 45.289333 
L 365.049104 45.289333 
" style="fill:none;stroke:#3ea44e;stroke-linecap:square;"/>
    </g>
    <g id="line2d_36"/>
    <g id="text_18">
     <!-- Gauge 3 -->
     <g transform="translate(373.049104 48.789333)scale(0.1 -0.1)">
      <use xlink:href="#DejaVuSans-47"/>
      <use x="77.490234" xlink:href="#DejaVuSans-61"/>
      <use x="138.769531" xlink:href="#DejaVuSans-75"/>
      <use x="202.148438" xlink:href="#DejaVuSans-67"/>
      <use x="265.625" xlink:href="#DejaVuSans-65"/>
      <use x="327.148438" xlink:href="#DejaVuSans-20"/>
      <use x="358.935547" xlink:href="#DejaVuSans-33"/>
     </g>
    </g>
    <g id="line2d_37">
     <path d="M 345.049104 59.967458 
L 365.049104 59.967458 
" style="fill:none;stroke:#c371d2;stroke-linecap:square;"/>
    </g>
    <g id="line2d_38"/>
    <g id="text_19">
     <!-- Gauge 4 -->
     <g transform="translate(373.049104 63.467458)scale(0.1 -0.1)">
      <use xlink:href="#DejaVuSans-47"/>
      <use x="77.490234" xlink:href="#DejaVuSans-61"/>
      <use x="138.769531" xlink:href="#DejaVuSans-75"/>
      <use x="202.148438" xlink:href="#DejaVuSans-67"/>
      <use x="265.625" xlink:href="#DejaVuSans-65"/>
      <use x="327.148438" xlink:href="#DejaVuSans-20"/>
      <use x="358.935547" xlink:href="#DejaVuSans-34"/>
     </g>
    </g>
   </g>
  </g>
 </g>
 <defs>
  <clipPath id="pb647e46729">
   <rect height="253.230709" width="396.060709" x="28.244646" y="2.834646"/>
  </clipPath>
 </defs>
</svg>
