<?xml version="1.0" encoding="utf-8" standalone="no"?>
<!DOCTYPE svg PUBLIC "-//W3C//DTD SVG 1.1//EN"
  "http://www.w3.org/Graphics/SVG/1.1/DTD/svg11.dtd">
<!-- Created with matplotlib (https://matplotlib.org/) -->
<svg height="288pt" version="1.1" viewBox="0 0 432 288" width="432pt" xmlns="http://www.w3.org/2000/svg" xmlns:xlink="http://www.w3.org/1999/xlink">
 <defs>
  <style type="text/css">
*{stroke-linecap:butt;stroke-linejoin:round;}
  </style>
 </defs>
 <g id="figure_1">
  <g id="patch_1">
   <path d="M 0 288 
L 432 288 
L 432 0 
L 0 0 
z
" style="fill:#ffffff;"/>
  </g>
  <g id="axes_1">
   <g id="patch_2">
    <path d="M 39.764646 257.505354 
L 429.165354 257.505354 
L 429.165354 2.834646 
L 39.764646 2.834646 
z
" style="fill:#ffffff;"/>
   </g>
   <g id="matplotlib.axis_1">
    <g id="xtick_1">
     <g id="line2d_1">
      <path clip-path="url(#p47f3863b40)" d="M 59.234681 257.505354 
L 59.234681 2.834646 
" style="fill:none;stroke:#000000;stroke-linecap:square;stroke-opacity:0.1;stroke-width:0.5;"/>
     </g>
     <g id="line2d_2">
      <defs>
       <path d="M 0 0 
L 0 -3.5 
" id="m4a73b61e87" style="stroke:#000000;stroke-width:0.8;"/>
      </defs>
      <g>
       <use style="stroke:#000000;stroke-width:0.8;" x="59.234681" xlink:href="#m4a73b61e87" y="257.505354"/>
      </g>
     </g>
     <g id="text_1">
      <!-- 0 -->
      <defs>
       <path d="M 31.78125 66.40625 
Q 24.171875 66.40625 20.328125 58.90625 
Q 16.5 51.421875 16.5 36.375 
Q 16.5 21.390625 20.328125 13.890625 
Q 24.171875 6.390625 31.78125 6.390625 
Q 39.453125 6.390625 43.28125 13.890625 
Q 47.125 21.390625 47.125 36.375 
Q 47.125 51.421875 43.28125 58.90625 
Q 39.453125 66.40625 31.78125 66.40625 
z
M 31.78125 74.21875 
Q 44.046875 74.21875 50.515625 64.515625 
Q 56.984375 54.828125 56.984375 36.375 
Q 56.984375 17.96875 50.515625 8.265625 
Q 44.046875 -1.421875 31.78125 -1.421875 
Q 19.53125 -1.421875 13.0625 8.265625 
Q 6.59375 17.96875 6.59375 36.375 
Q 6.59375 54.828125 13.0625 64.515625 
Q 19.53125 74.21875 31.78125 74.21875 
z
" id="DejaVuSans-48"/>
      </defs>
      <g transform="translate(56.053431 268.603792)scale(0.1 -0.1)">
       <use xlink:href="#DejaVuSans-48"/>
      </g>
     </g>
    </g>
    <g id="xtick_2">
     <g id="line2d_3">
      <path clip-path="url(#p47f3863b40)" d="M 98.174752 257.505354 
L 98.174752 2.834646 
" style="fill:none;stroke:#000000;stroke-linecap:square;stroke-opacity:0.1;stroke-width:0.5;"/>
     </g>
     <g id="line2d_4">
      <g>
       <use style="stroke:#000000;stroke-width:0.8;" x="98.174752" xlink:href="#m4a73b61e87" y="257.505354"/>
      </g>
     </g>
     <g id="text_2">
      <!-- 1 -->
      <defs>
       <path d="M 12.40625 8.296875 
L 28.515625 8.296875 
L 28.515625 63.921875 
L 10.984375 60.40625 
L 10.984375 69.390625 
L 28.421875 72.90625 
L 38.28125 72.90625 
L 38.28125 8.296875 
L 54.390625 8.296875 
L 54.390625 0 
L 12.40625 0 
z
" id="DejaVuSans-49"/>
      </defs>
      <g transform="translate(94.993502 268.603792)scale(0.1 -0.1)">
       <use xlink:href="#DejaVuSans-49"/>
      </g>
     </g>
    </g>
    <g id="xtick_3">
     <g id="line2d_5">
      <path clip-path="url(#p47f3863b40)" d="M 137.114823 257.505354 
L 137.114823 2.834646 
" style="fill:none;stroke:#000000;stroke-linecap:square;stroke-opacity:0.1;stroke-width:0.5;"/>
     </g>
     <g id="line2d_6">
      <g>
       <use style="stroke:#000000;stroke-width:0.8;" x="137.114823" xlink:href="#m4a73b61e87" y="257.505354"/>
      </g>
     </g>
     <g id="text_3">
      <!-- 2 -->
      <defs>
       <path d="M 19.1875 8.296875 
L 53.609375 8.296875 
L 53.609375 0 
L 7.328125 0 
L 7.328125 8.296875 
Q 12.9375 14.109375 22.625 23.890625 
Q 32.328125 33.6875 34.8125 36.53125 
Q 39.546875 41.84375 41.421875 45.53125 
Q 43.3125 49.21875 43.3125 52.78125 
Q 43.3125 58.59375 39.234375 62.25 
Q 35.15625 65.921875 28.609375 65.921875 
Q 23.96875 65.921875 18.8125 64.3125 
Q 13.671875 62.703125 7.8125 59.421875 
L 7.8125 69.390625 
Q 13.765625 71.78125 18.9375 73 
Q 24.125 74.21875 28.421875 74.21875 
Q 39.75 74.21875 46.484375 68.546875 
Q 53.21875 62.890625 53.21875 53.421875 
Q 53.21875 48.921875 51.53125 44.890625 
Q 49.859375 40.875 45.40625 35.40625 
Q 44.1875 33.984375 37.640625 27.21875 
Q 31.109375 20.453125 19.1875 8.296875 
z
" id="DejaVuSans-50"/>
      </defs>
      <g transform="translate(133.933573 268.603792)scale(0.1 -0.1)">
       <use xlink:href="#DejaVuSans-50"/>
      </g>
     </g>
    </g>
    <g id="xtick_4">
     <g id="line2d_7">
      <path clip-path="url(#p47f3863b40)" d="M 176.054894 257.505354 
L 176.054894 2.834646 
" style="fill:none;stroke:#000000;stroke-linecap:square;stroke-opacity:0.1;stroke-width:0.5;"/>
     </g>
     <g id="line2d_8">
      <g>
       <use style="stroke:#000000;stroke-width:0.8;" x="176.054894" xlink:href="#m4a73b61e87" y="257.505354"/>
      </g>
     </g>
     <g id="text_4">
      <!-- 3 -->
      <defs>
       <path d="M 40.578125 39.3125 
Q 47.65625 37.796875 51.625 33 
Q 55.609375 28.21875 55.609375 21.1875 
Q 55.609375 10.40625 48.1875 4.484375 
Q 40.765625 -1.421875 27.09375 -1.421875 
Q 22.515625 -1.421875 17.65625 -0.515625 
Q 12.796875 0.390625 7.625 2.203125 
L 7.625 11.71875 
Q 11.71875 9.328125 16.59375 8.109375 
Q 21.484375 6.890625 26.8125 6.890625 
Q 36.078125 6.890625 40.9375 10.546875 
Q 45.796875 14.203125 45.796875 21.1875 
Q 45.796875 27.640625 41.28125 31.265625 
Q 36.765625 34.90625 28.71875 34.90625 
L 20.21875 34.90625 
L 20.21875 43.015625 
L 29.109375 43.015625 
Q 36.375 43.015625 40.234375 45.921875 
Q 44.09375 48.828125 44.09375 54.296875 
Q 44.09375 59.90625 40.109375 62.90625 
Q 36.140625 65.921875 28.71875 65.921875 
Q 24.65625 65.921875 20.015625 65.03125 
Q 15.375 64.15625 9.8125 62.3125 
L 9.8125 71.09375 
Q 15.4375 72.65625 20.34375 73.4375 
Q 25.25 74.21875 29.59375 74.21875 
Q 40.828125 74.21875 47.359375 69.109375 
Q 53.90625 64.015625 53.90625 55.328125 
Q 53.90625 49.265625 50.4375 45.09375 
Q 46.96875 40.921875 40.578125 39.3125 
z
" id="DejaVuSans-51"/>
      </defs>
      <g transform="translate(172.873644 268.603792)scale(0.1 -0.1)">
       <use xlink:href="#DejaVuSans-51"/>
      </g>
     </g>
    </g>
    <g id="xtick_5">
     <g id="line2d_9">
      <path clip-path="url(#p47f3863b40)" d="M 214.994965 257.505354 
L 214.994965 2.834646 
" style="fill:none;stroke:#000000;stroke-linecap:square;stroke-opacity:0.1;stroke-width:0.5;"/>
     </g>
     <g id="line2d_10">
      <g>
       <use style="stroke:#000000;stroke-width:0.8;" x="214.994965" xlink:href="#m4a73b61e87" y="257.505354"/>
      </g>
     </g>
     <g id="text_5">
      <!-- 4 -->
      <defs>
       <path d="M 37.796875 64.3125 
L 12.890625 25.390625 
L 37.796875 25.390625 
z
M 35.203125 72.90625 
L 47.609375 72.90625 
L 47.609375 25.390625 
L 58.015625 25.390625 
L 58.015625 17.1875 
L 47.609375 17.1875 
L 47.609375 0 
L 37.796875 0 
L 37.796875 17.1875 
L 4.890625 17.1875 
L 4.890625 26.703125 
z
" id="DejaVuSans-52"/>
      </defs>
      <g transform="translate(211.813715 268.603792)scale(0.1 -0.1)">
       <use xlink:href="#DejaVuSans-52"/>
      </g>
     </g>
    </g>
    <g id="xtick_6">
     <g id="line2d_11">
      <path clip-path="url(#p47f3863b40)" d="M 253.935035 257.505354 
L 253.935035 2.834646 
" style="fill:none;stroke:#000000;stroke-linecap:square;stroke-opacity:0.1;stroke-width:0.5;"/>
     </g>
     <g id="line2d_12">
      <g>
       <use style="stroke:#000000;stroke-width:0.8;" x="253.935035" xlink:href="#m4a73b61e87" y="257.505354"/>
      </g>
     </g>
     <g id="text_6">
      <!-- 5 -->
      <defs>
       <path d="M 10.796875 72.90625 
L 49.515625 72.90625 
L 49.515625 64.59375 
L 19.828125 64.59375 
L 19.828125 46.734375 
Q 21.96875 47.46875 24.109375 47.828125 
Q 26.265625 48.1875 28.421875 48.1875 
Q 40.625 48.1875 47.75 41.5 
Q 54.890625 34.8125 54.890625 23.390625 
Q 54.890625 11.625 47.5625 5.09375 
Q 40.234375 -1.421875 26.90625 -1.421875 
Q 22.3125 -1.421875 17.546875 -0.640625 
Q 12.796875 0.140625 7.71875 1.703125 
L 7.71875 11.625 
Q 12.109375 9.234375 16.796875 8.0625 
Q 21.484375 6.890625 26.703125 6.890625 
Q 35.15625 6.890625 40.078125 11.328125 
Q 45.015625 15.765625 45.015625 23.390625 
Q 45.015625 31 40.078125 35.4375 
Q 35.15625 39.890625 26.703125 39.890625 
Q 22.75 39.890625 18.8125 39.015625 
Q 14.890625 38.140625 10.796875 36.28125 
z
" id="DejaVuSans-53"/>
      </defs>
      <g transform="translate(250.753785 268.603792)scale(0.1 -0.1)">
       <use xlink:href="#DejaVuSans-53"/>
      </g>
     </g>
    </g>
    <g id="xtick_7">
     <g id="line2d_13">
      <path clip-path="url(#p47f3863b40)" d="M 292.875106 257.505354 
L 292.875106 2.834646 
" style="fill:none;stroke:#000000;stroke-linecap:square;stroke-opacity:0.1;stroke-width:0.5;"/>
     </g>
     <g id="line2d_14">
      <g>
       <use style="stroke:#000000;stroke-width:0.8;" x="292.875106" xlink:href="#m4a73b61e87" y="257.505354"/>
      </g>
     </g>
     <g id="text_7">
      <!-- 6 -->
      <defs>
       <path d="M 33.015625 40.375 
Q 26.375 40.375 22.484375 35.828125 
Q 18.609375 31.296875 18.609375 23.390625 
Q 18.609375 15.53125 22.484375 10.953125 
Q 26.375 6.390625 33.015625 6.390625 
Q 39.65625 6.390625 43.53125 10.953125 
Q 47.40625 15.53125 47.40625 23.390625 
Q 47.40625 31.296875 43.53125 35.828125 
Q 39.65625 40.375 33.015625 40.375 
z
M 52.59375 71.296875 
L 52.59375 62.3125 
Q 48.875 64.0625 45.09375 64.984375 
Q 41.3125 65.921875 37.59375 65.921875 
Q 27.828125 65.921875 22.671875 59.328125 
Q 17.53125 52.734375 16.796875 39.40625 
Q 19.671875 43.65625 24.015625 45.921875 
Q 28.375 48.1875 33.59375 48.1875 
Q 44.578125 48.1875 50.953125 41.515625 
Q 57.328125 34.859375 57.328125 23.390625 
Q 57.328125 12.15625 50.6875 5.359375 
Q 44.046875 -1.421875 33.015625 -1.421875 
Q 20.359375 -1.421875 13.671875 8.265625 
Q 6.984375 17.96875 6.984375 36.375 
Q 6.984375 53.65625 15.1875 63.9375 
Q 23.390625 74.21875 37.203125 74.21875 
Q 40.921875 74.21875 44.703125 73.484375 
Q 48.484375 72.75 52.59375 71.296875 
z
" id="DejaVuSans-54"/>
      </defs>
      <g transform="translate(289.693856 268.603792)scale(0.1 -0.1)">
       <use xlink:href="#DejaVuSans-54"/>
      </g>
     </g>
    </g>
    <g id="xtick_8">
     <g id="line2d_15">
      <path clip-path="url(#p47f3863b40)" d="M 331.815177 257.505354 
L 331.815177 2.834646 
" style="fill:none;stroke:#000000;stroke-linecap:square;stroke-opacity:0.1;stroke-width:0.5;"/>
     </g>
     <g id="line2d_16">
      <g>
       <use style="stroke:#000000;stroke-width:0.8;" x="331.815177" xlink:href="#m4a73b61e87" y="257.505354"/>
      </g>
     </g>
     <g id="text_8">
      <!-- 7 -->
      <defs>
       <path d="M 8.203125 72.90625 
L 55.078125 72.90625 
L 55.078125 68.703125 
L 28.609375 0 
L 18.3125 0 
L 43.21875 64.59375 
L 8.203125 64.59375 
z
" id="DejaVuSans-55"/>
      </defs>
      <g transform="translate(328.633927 268.603792)scale(0.1 -0.1)">
       <use xlink:href="#DejaVuSans-55"/>
      </g>
     </g>
    </g>
    <g id="xtick_9">
     <g id="line2d_17">
      <path clip-path="url(#p47f3863b40)" d="M 370.755248 257.505354 
L 370.755248 2.834646 
" style="fill:none;stroke:#000000;stroke-linecap:square;stroke-opacity:0.1;stroke-width:0.5;"/>
     </g>
     <g id="line2d_18">
      <g>
       <use style="stroke:#000000;stroke-width:0.8;" x="370.755248" xlink:href="#m4a73b61e87" y="257.505354"/>
      </g>
     </g>
     <g id="text_9">
      <!-- 8 -->
      <defs>
       <path d="M 31.78125 34.625 
Q 24.75 34.625 20.71875 30.859375 
Q 16.703125 27.09375 16.703125 20.515625 
Q 16.703125 13.921875 20.71875 10.15625 
Q 24.75 6.390625 31.78125 6.390625 
Q 38.8125 6.390625 42.859375 10.171875 
Q 46.921875 13.96875 46.921875 20.515625 
Q 46.921875 27.09375 42.890625 30.859375 
Q 38.875 34.625 31.78125 34.625 
z
M 21.921875 38.8125 
Q 15.578125 40.375 12.03125 44.71875 
Q 8.5 49.078125 8.5 55.328125 
Q 8.5 64.0625 14.71875 69.140625 
Q 20.953125 74.21875 31.78125 74.21875 
Q 42.671875 74.21875 48.875 69.140625 
Q 55.078125 64.0625 55.078125 55.328125 
Q 55.078125 49.078125 51.53125 44.71875 
Q 48 40.375 41.703125 38.8125 
Q 48.828125 37.15625 52.796875 32.3125 
Q 56.78125 27.484375 56.78125 20.515625 
Q 56.78125 9.90625 50.3125 4.234375 
Q 43.84375 -1.421875 31.78125 -1.421875 
Q 19.734375 -1.421875 13.25 4.234375 
Q 6.78125 9.90625 6.78125 20.515625 
Q 6.78125 27.484375 10.78125 32.3125 
Q 14.796875 37.15625 21.921875 38.8125 
z
M 18.3125 54.390625 
Q 18.3125 48.734375 21.84375 45.5625 
Q 25.390625 42.390625 31.78125 42.390625 
Q 38.140625 42.390625 41.71875 45.5625 
Q 45.3125 48.734375 45.3125 54.390625 
Q 45.3125 60.0625 41.71875 63.234375 
Q 38.140625 66.40625 31.78125 66.40625 
Q 25.390625 66.40625 21.84375 63.234375 
Q 18.3125 60.0625 18.3125 54.390625 
z
" id="DejaVuSans-56"/>
      </defs>
      <g transform="translate(367.573998 268.603792)scale(0.1 -0.1)">
       <use xlink:href="#DejaVuSans-56"/>
      </g>
     </g>
    </g>
    <g id="xtick_10">
     <g id="line2d_19">
      <path clip-path="url(#p47f3863b40)" d="M 409.695319 257.505354 
L 409.695319 2.834646 
" style="fill:none;stroke:#000000;stroke-linecap:square;stroke-opacity:0.1;stroke-width:0.5;"/>
     </g>
     <g id="line2d_20">
      <g>
       <use style="stroke:#000000;stroke-width:0.8;" x="409.695319" xlink:href="#m4a73b61e87" y="257.505354"/>
      </g>
     </g>
     <g id="text_10">
      <!-- 9 -->
      <defs>
       <path d="M 10.984375 1.515625 
L 10.984375 10.5 
Q 14.703125 8.734375 18.5 7.8125 
Q 22.3125 6.890625 25.984375 6.890625 
Q 35.75 6.890625 40.890625 13.453125 
Q 46.046875 20.015625 46.78125 33.40625 
Q 43.953125 29.203125 39.59375 26.953125 
Q 35.25 24.703125 29.984375 24.703125 
Q 19.046875 24.703125 12.671875 31.3125 
Q 6.296875 37.9375 6.296875 49.421875 
Q 6.296875 60.640625 12.9375 67.421875 
Q 19.578125 74.21875 30.609375 74.21875 
Q 43.265625 74.21875 49.921875 64.515625 
Q 56.59375 54.828125 56.59375 36.375 
Q 56.59375 19.140625 48.40625 8.859375 
Q 40.234375 -1.421875 26.421875 -1.421875 
Q 22.703125 -1.421875 18.890625 -0.6875 
Q 15.09375 0.046875 10.984375 1.515625 
z
M 30.609375 32.421875 
Q 37.25 32.421875 41.125 36.953125 
Q 45.015625 41.5 45.015625 49.421875 
Q 45.015625 57.28125 41.125 61.84375 
Q 37.25 66.40625 30.609375 66.40625 
Q 23.96875 66.40625 20.09375 61.84375 
Q 16.21875 57.28125 16.21875 49.421875 
Q 16.21875 41.5 20.09375 36.953125 
Q 23.96875 32.421875 30.609375 32.421875 
z
" id="DejaVuSans-57"/>
      </defs>
      <g transform="translate(406.514069 268.603792)scale(0.1 -0.1)">
       <use xlink:href="#DejaVuSans-57"/>
      </g>
     </g>
    </g>
    <g id="text_11">
     <!-- Time since earthquake (hour) -->
     <defs>
      <path d="M -0.296875 72.90625 
L 61.375 72.90625 
L 61.375 64.59375 
L 35.5 64.59375 
L 35.5 0 
L 25.59375 0 
L 25.59375 64.59375 
L -0.296875 64.59375 
z
" id="DejaVuSans-84"/>
      <path d="M 9.421875 54.6875 
L 18.40625 54.6875 
L 18.40625 0 
L 9.421875 0 
z
M 9.421875 75.984375 
L 18.40625 75.984375 
L 18.40625 64.59375 
L 9.421875 64.59375 
z
" id="DejaVuSans-105"/>
      <path d="M 52 44.1875 
Q 55.375 50.25 60.0625 53.125 
Q 64.75 56 71.09375 56 
Q 79.640625 56 84.28125 50.015625 
Q 88.921875 44.046875 88.921875 33.015625 
L 88.921875 0 
L 79.890625 0 
L 79.890625 32.71875 
Q 79.890625 40.578125 77.09375 44.375 
Q 74.3125 48.1875 68.609375 48.1875 
Q 61.625 48.1875 57.5625 43.546875 
Q 53.515625 38.921875 53.515625 30.90625 
L 53.515625 0 
L 44.484375 0 
L 44.484375 32.71875 
Q 44.484375 40.625 41.703125 44.40625 
Q 38.921875 48.1875 33.109375 48.1875 
Q 26.21875 48.1875 22.15625 43.53125 
Q 18.109375 38.875 18.109375 30.90625 
L 18.109375 0 
L 9.078125 0 
L 9.078125 54.6875 
L 18.109375 54.6875 
L 18.109375 46.1875 
Q 21.1875 51.21875 25.484375 53.609375 
Q 29.78125 56 35.6875 56 
Q 41.65625 56 45.828125 52.96875 
Q 50 49.953125 52 44.1875 
z
" id="DejaVuSans-109"/>
      <path d="M 56.203125 29.59375 
L 56.203125 25.203125 
L 14.890625 25.203125 
Q 15.484375 15.921875 20.484375 11.0625 
Q 25.484375 6.203125 34.421875 6.203125 
Q 39.59375 6.203125 44.453125 7.46875 
Q 49.3125 8.734375 54.109375 11.28125 
L 54.109375 2.78125 
Q 49.265625 0.734375 44.1875 -0.34375 
Q 39.109375 -1.421875 33.890625 -1.421875 
Q 20.796875 -1.421875 13.15625 6.1875 
Q 5.515625 13.8125 5.515625 26.8125 
Q 5.515625 40.234375 12.765625 48.109375 
Q 20.015625 56 32.328125 56 
Q 43.359375 56 49.78125 48.890625 
Q 56.203125 41.796875 56.203125 29.59375 
z
M 47.21875 32.234375 
Q 47.125 39.59375 43.09375 43.984375 
Q 39.0625 48.390625 32.421875 48.390625 
Q 24.90625 48.390625 20.390625 44.140625 
Q 15.875 39.890625 15.1875 32.171875 
z
" id="DejaVuSans-101"/>
      <path id="DejaVuSans-32"/>
      <path d="M 44.28125 53.078125 
L 44.28125 44.578125 
Q 40.484375 46.53125 36.375 47.5 
Q 32.28125 48.484375 27.875 48.484375 
Q 21.1875 48.484375 17.84375 46.4375 
Q 14.5 44.390625 14.5 40.28125 
Q 14.5 37.15625 16.890625 35.375 
Q 19.28125 33.59375 26.515625 31.984375 
L 29.59375 31.296875 
Q 39.15625 29.25 43.1875 25.515625 
Q 47.21875 21.78125 47.21875 15.09375 
Q 47.21875 7.46875 41.1875 3.015625 
Q 35.15625 -1.421875 24.609375 -1.421875 
Q 20.21875 -1.421875 15.453125 -0.5625 
Q 10.6875 0.296875 5.421875 2 
L 5.421875 11.28125 
Q 10.40625 8.6875 15.234375 7.390625 
Q 20.0625 6.109375 24.8125 6.109375 
Q 31.15625 6.109375 34.5625 8.28125 
Q 37.984375 10.453125 37.984375 14.40625 
Q 37.984375 18.0625 35.515625 20.015625 
Q 33.0625 21.96875 24.703125 23.78125 
L 21.578125 24.515625 
Q 13.234375 26.265625 9.515625 29.90625 
Q 5.8125 33.546875 5.8125 39.890625 
Q 5.8125 47.609375 11.28125 51.796875 
Q 16.75 56 26.8125 56 
Q 31.78125 56 36.171875 55.265625 
Q 40.578125 54.546875 44.28125 53.078125 
z
" id="DejaVuSans-115"/>
      <path d="M 54.890625 33.015625 
L 54.890625 0 
L 45.90625 0 
L 45.90625 32.71875 
Q 45.90625 40.484375 42.875 44.328125 
Q 39.84375 48.1875 33.796875 48.1875 
Q 26.515625 48.1875 22.3125 43.546875 
Q 18.109375 38.921875 18.109375 30.90625 
L 18.109375 0 
L 9.078125 0 
L 9.078125 54.6875 
L 18.109375 54.6875 
L 18.109375 46.1875 
Q 21.34375 51.125 25.703125 53.5625 
Q 30.078125 56 35.796875 56 
Q 45.21875 56 50.046875 50.171875 
Q 54.890625 44.34375 54.890625 33.015625 
z
" id="DejaVuSans-110"/>
      <path d="M 48.78125 52.59375 
L 48.78125 44.1875 
Q 44.96875 46.296875 41.140625 47.34375 
Q 37.3125 48.390625 33.40625 48.390625 
Q 24.65625 48.390625 19.8125 42.84375 
Q 14.984375 37.3125 14.984375 27.296875 
Q 14.984375 17.28125 19.8125 11.734375 
Q 24.65625 6.203125 33.40625 6.203125 
Q 37.3125 6.203125 41.140625 7.25 
Q 44.96875 8.296875 48.78125 10.40625 
L 48.78125 2.09375 
Q 45.015625 0.34375 40.984375 -0.53125 
Q 36.96875 -1.421875 32.421875 -1.421875 
Q 20.0625 -1.421875 12.78125 6.34375 
Q 5.515625 14.109375 5.515625 27.296875 
Q 5.515625 40.671875 12.859375 48.328125 
Q 20.21875 56 33.015625 56 
Q 37.15625 56 41.109375 55.140625 
Q 45.0625 54.296875 48.78125 52.59375 
z
" id="DejaVuSans-99"/>
      <path d="M 34.28125 27.484375 
Q 23.390625 27.484375 19.1875 25 
Q 14.984375 22.515625 14.984375 16.5 
Q 14.984375 11.71875 18.140625 8.90625 
Q 21.296875 6.109375 26.703125 6.109375 
Q 34.1875 6.109375 38.703125 11.40625 
Q 43.21875 16.703125 43.21875 25.484375 
L 43.21875 27.484375 
z
M 52.203125 31.203125 
L 52.203125 0 
L 43.21875 0 
L 43.21875 8.296875 
Q 40.140625 3.328125 35.546875 0.953125 
Q 30.953125 -1.421875 24.3125 -1.421875 
Q 15.921875 -1.421875 10.953125 3.296875 
Q 6 8.015625 6 15.921875 
Q 6 25.140625 12.171875 29.828125 
Q 18.359375 34.515625 30.609375 34.515625 
L 43.21875 34.515625 
L 43.21875 35.40625 
Q 43.21875 41.609375 39.140625 45 
Q 35.0625 48.390625 27.6875 48.390625 
Q 23 48.390625 18.546875 47.265625 
Q 14.109375 46.140625 10.015625 43.890625 
L 10.015625 52.203125 
Q 14.9375 54.109375 19.578125 55.046875 
Q 24.21875 56 28.609375 56 
Q 40.484375 56 46.34375 49.84375 
Q 52.203125 43.703125 52.203125 31.203125 
z
" id="DejaVuSans-97"/>
      <path d="M 41.109375 46.296875 
Q 39.59375 47.171875 37.8125 47.578125 
Q 36.03125 48 33.890625 48 
Q 26.265625 48 22.1875 43.046875 
Q 18.109375 38.09375 18.109375 28.8125 
L 18.109375 0 
L 9.078125 0 
L 9.078125 54.6875 
L 18.109375 54.6875 
L 18.109375 46.1875 
Q 20.953125 51.171875 25.484375 53.578125 
Q 30.03125 56 36.53125 56 
Q 37.453125 56 38.578125 55.875 
Q 39.703125 55.765625 41.0625 55.515625 
z
" id="DejaVuSans-114"/>
      <path d="M 18.3125 70.21875 
L 18.3125 54.6875 
L 36.8125 54.6875 
L 36.8125 47.703125 
L 18.3125 47.703125 
L 18.3125 18.015625 
Q 18.3125 11.328125 20.140625 9.421875 
Q 21.96875 7.515625 27.59375 7.515625 
L 36.8125 7.515625 
L 36.8125 0 
L 27.59375 0 
Q 17.1875 0 13.234375 3.875 
Q 9.28125 7.765625 9.28125 18.015625 
L 9.28125 47.703125 
L 2.6875 47.703125 
L 2.6875 54.6875 
L 9.28125 54.6875 
L 9.28125 70.21875 
z
" id="DejaVuSans-116"/>
      <path d="M 54.890625 33.015625 
L 54.890625 0 
L 45.90625 0 
L 45.90625 32.71875 
Q 45.90625 40.484375 42.875 44.328125 
Q 39.84375 48.1875 33.796875 48.1875 
Q 26.515625 48.1875 22.3125 43.546875 
Q 18.109375 38.921875 18.109375 30.90625 
L 18.109375 0 
L 9.078125 0 
L 9.078125 75.984375 
L 18.109375 75.984375 
L 18.109375 46.1875 
Q 21.34375 51.125 25.703125 53.5625 
Q 30.078125 56 35.796875 56 
Q 45.21875 56 50.046875 50.171875 
Q 54.890625 44.34375 54.890625 33.015625 
z
" id="DejaVuSans-104"/>
      <path d="M 14.796875 27.296875 
Q 14.796875 17.390625 18.875 11.75 
Q 22.953125 6.109375 30.078125 6.109375 
Q 37.203125 6.109375 41.296875 11.75 
Q 45.40625 17.390625 45.40625 27.296875 
Q 45.40625 37.203125 41.296875 42.84375 
Q 37.203125 48.484375 30.078125 48.484375 
Q 22.953125 48.484375 18.875 42.84375 
Q 14.796875 37.203125 14.796875 27.296875 
z
M 45.40625 8.203125 
Q 42.578125 3.328125 38.25 0.953125 
Q 33.9375 -1.421875 27.875 -1.421875 
Q 17.96875 -1.421875 11.734375 6.484375 
Q 5.515625 14.40625 5.515625 27.296875 
Q 5.515625 40.1875 11.734375 48.09375 
Q 17.96875 56 27.875 56 
Q 33.9375 56 38.25 53.625 
Q 42.578125 51.265625 45.40625 46.390625 
L 45.40625 54.6875 
L 54.390625 54.6875 
L 54.390625 -20.796875 
L 45.40625 -20.796875 
z
" id="DejaVuSans-113"/>
      <path d="M 8.5 21.578125 
L 8.5 54.6875 
L 17.484375 54.6875 
L 17.484375 21.921875 
Q 17.484375 14.15625 20.5 10.265625 
Q 23.53125 6.390625 29.59375 6.390625 
Q 36.859375 6.390625 41.078125 11.03125 
Q 45.3125 15.671875 45.3125 23.6875 
L 45.3125 54.6875 
L 54.296875 54.6875 
L 54.296875 0 
L 45.3125 0 
L 45.3125 8.40625 
Q 42.046875 3.421875 37.71875 1 
Q 33.40625 -1.421875 27.6875 -1.421875 
Q 18.265625 -1.421875 13.375 4.4375 
Q 8.5 10.296875 8.5 21.578125 
z
M 31.109375 56 
z
" id="DejaVuSans-117"/>
      <path d="M 9.078125 75.984375 
L 18.109375 75.984375 
L 18.109375 31.109375 
L 44.921875 54.6875 
L 56.390625 54.6875 
L 27.390625 29.109375 
L 57.625 0 
L 45.90625 0 
L 18.109375 26.703125 
L 18.109375 0 
L 9.078125 0 
z
" id="DejaVuSans-107"/>
      <path d="M 31 75.875 
Q 24.46875 64.65625 21.28125 53.65625 
Q 18.109375 42.671875 18.109375 31.390625 
Q 18.109375 20.125 21.3125 9.0625 
Q 24.515625 -2 31 -13.1875 
L 23.1875 -13.1875 
Q 15.875 -1.703125 12.234375 9.375 
Q 8.59375 20.453125 8.59375 31.390625 
Q 8.59375 42.28125 12.203125 53.3125 
Q 15.828125 64.359375 23.1875 75.875 
z
" id="DejaVuSans-40"/>
      <path d="M 30.609375 48.390625 
Q 23.390625 48.390625 19.1875 42.75 
Q 14.984375 37.109375 14.984375 27.296875 
Q 14.984375 17.484375 19.15625 11.84375 
Q 23.34375 6.203125 30.609375 6.203125 
Q 37.796875 6.203125 41.984375 11.859375 
Q 46.1875 17.53125 46.1875 27.296875 
Q 46.1875 37.015625 41.984375 42.703125 
Q 37.796875 48.390625 30.609375 48.390625 
z
M 30.609375 56 
Q 42.328125 56 49.015625 48.375 
Q 55.71875 40.765625 55.71875 27.296875 
Q 55.71875 13.875 49.015625 6.21875 
Q 42.328125 -1.421875 30.609375 -1.421875 
Q 18.84375 -1.421875 12.171875 6.21875 
Q 5.515625 13.875 5.515625 27.296875 
Q 5.515625 40.765625 12.171875 48.375 
Q 18.84375 56 30.609375 56 
z
" id="DejaVuSans-111"/>
      <path d="M 8.015625 75.875 
L 15.828125 75.875 
Q 23.140625 64.359375 26.78125 53.3125 
Q 30.421875 42.28125 30.421875 31.390625 
Q 30.421875 20.453125 26.78125 9.375 
Q 23.140625 -1.703125 15.828125 -13.1875 
L 8.015625 -13.1875 
Q 14.5 -2 17.703125 9.0625 
Q 20.90625 20.125 20.90625 31.390625 
Q 20.90625 42.671875 17.703125 53.65625 
Q 14.5 64.65625 8.015625 75.875 
z
" id="DejaVuSans-41"/>
     </defs>
     <g transform="translate(160.266562 282.281917)scale(0.1 -0.1)">
      <use xlink:href="#DejaVuSans-84"/>
      <use x="61.037109" xlink:href="#DejaVuSans-105"/>
      <use x="88.820312" xlink:href="#DejaVuSans-109"/>
      <use x="186.232422" xlink:href="#DejaVuSans-101"/>
      <use x="247.755859" xlink:href="#DejaVuSans-32"/>
      <use x="279.542969" xlink:href="#DejaVuSans-115"/>
      <use x="331.642578" xlink:href="#DejaVuSans-105"/>
      <use x="359.425781" xlink:href="#DejaVuSans-110"/>
      <use x="422.804688" xlink:href="#DejaVuSans-99"/>
      <use x="477.785156" xlink:href="#DejaVuSans-101"/>
      <use x="539.308594" xlink:href="#DejaVuSans-32"/>
      <use x="571.095703" xlink:href="#DejaVuSans-101"/>
      <use x="632.619141" xlink:href="#DejaVuSans-97"/>
      <use x="693.898438" xlink:href="#DejaVuSans-114"/>
      <use x="735.011719" xlink:href="#DejaVuSans-116"/>
      <use x="774.220703" xlink:href="#DejaVuSans-104"/>
      <use x="837.599609" xlink:href="#DejaVuSans-113"/>
      <use x="901.076172" xlink:href="#DejaVuSans-117"/>
      <use x="964.455078" xlink:href="#DejaVuSans-97"/>
      <use x="1025.734375" xlink:href="#DejaVuSans-107"/>
      <use x="1083.597656" xlink:href="#DejaVuSans-101"/>
      <use x="1145.121094" xlink:href="#DejaVuSans-32"/>
      <use x="1176.908203" xlink:href="#DejaVuSans-40"/>
      <use x="1215.921875" xlink:href="#DejaVuSans-104"/>
      <use x="1279.300781" xlink:href="#DejaVuSans-111"/>
      <use x="1340.482422" xlink:href="#DejaVuSans-117"/>
      <use x="1403.861328" xlink:href="#DejaVuSans-114"/>
      <use x="1444.974609" xlink:href="#DejaVuSans-41"/>
     </g>
    </g>
   </g>
   <g id="matplotlib.axis_2">
    <g id="ytick_1">
     <g id="line2d_21">
      <path clip-path="url(#p47f3863b40)" d="M 39.764646 225.671516 
L 429.165354 225.671516 
" style="fill:none;stroke:#000000;stroke-linecap:square;stroke-opacity:0.1;stroke-width:0.5;"/>
     </g>
     <g id="line2d_22">
      <defs>
       <path d="M 0 0 
L 3.5 0 
" id="m2ed725cdc3" style="stroke:#000000;stroke-width:0.8;"/>
      </defs>
      <g>
       <use style="stroke:#000000;stroke-width:0.8;" x="39.764646" xlink:href="#m2ed725cdc3" y="225.671516"/>
      </g>
     </g>
     <g id="text_12">
      <!-- -0.1 -->
      <defs>
       <path d="M 4.890625 31.390625 
L 31.203125 31.390625 
L 31.203125 23.390625 
L 4.890625 23.390625 
z
" id="DejaVuSans-45"/>
       <path d="M 10.6875 12.40625 
L 21 12.40625 
L 21 0 
L 10.6875 0 
z
" id="DejaVuSans-46"/>
      </defs>
      <g transform="translate(16.753708 229.470734)scale(0.1 -0.1)">
       <use xlink:href="#DejaVuSans-45"/>
       <use x="36.083984" xlink:href="#DejaVuSans-48"/>
       <use x="99.707031" xlink:href="#DejaVuSans-46"/>
       <use x="131.494141" xlink:href="#DejaVuSans-49"/>
      </g>
     </g>
    </g>
    <g id="ytick_2">
     <g id="line2d_23">
      <path clip-path="url(#p47f3863b40)" d="M 39.764646 162.003839 
L 429.165354 162.003839 
" style="fill:none;stroke:#000000;stroke-linecap:square;stroke-opacity:0.1;stroke-width:0.5;"/>
     </g>
     <g id="line2d_24">
      <g>
       <use style="stroke:#000000;stroke-width:0.8;" x="39.764646" xlink:href="#m2ed725cdc3" y="162.003839"/>
      </g>
     </g>
     <g id="text_13">
      <!-- 0.0 -->
      <g transform="translate(20.361521 165.803057)scale(0.1 -0.1)">
       <use xlink:href="#DejaVuSans-48"/>
       <use x="63.623047" xlink:href="#DejaVuSans-46"/>
       <use x="95.410156" xlink:href="#DejaVuSans-48"/>
      </g>
     </g>
    </g>
    <g id="ytick_3">
     <g id="line2d_25">
      <path clip-path="url(#p47f3863b40)" d="M 39.764646 98.336161 
L 429.165354 98.336161 
" style="fill:none;stroke:#000000;stroke-linecap:square;stroke-opacity:0.1;stroke-width:0.5;"/>
     </g>
     <g id="line2d_26">
      <g>
       <use style="stroke:#000000;stroke-width:0.8;" x="39.764646" xlink:href="#m2ed725cdc3" y="98.336161"/>
      </g>
     </g>
     <g id="text_14">
      <!-- 0.1 -->
      <g transform="translate(20.361521 102.13538)scale(0.1 -0.1)">
       <use xlink:href="#DejaVuSans-48"/>
       <use x="63.623047" xlink:href="#DejaVuSans-46"/>
       <use x="95.410156" xlink:href="#DejaVuSans-49"/>
      </g>
     </g>
    </g>
    <g id="ytick_4">
     <g id="line2d_27">
      <path clip-path="url(#p47f3863b40)" d="M 39.764646 34.668484 
L 429.165354 34.668484 
" style="fill:none;stroke:#000000;stroke-linecap:square;stroke-opacity:0.1;stroke-width:0.5;"/>
     </g>
     <g id="line2d_28">
      <g>
       <use style="stroke:#000000;stroke-width:0.8;" x="39.764646" xlink:href="#m2ed725cdc3" y="34.668484"/>
      </g>
     </g>
     <g id="text_15">
      <!-- 0.2 -->
      <g transform="translate(20.361521 38.467703)scale(0.1 -0.1)">
       <use xlink:href="#DejaVuSans-48"/>
       <use x="63.623047" xlink:href="#DejaVuSans-46"/>
       <use x="95.410156" xlink:href="#DejaVuSans-50"/>
      </g>
     </g>
    </g>
    <g id="text_16">
     <!-- Amplitude (m) -->
     <defs>
      <path d="M 34.1875 63.1875 
L 20.796875 26.90625 
L 47.609375 26.90625 
z
M 28.609375 72.90625 
L 39.796875 72.90625 
L 67.578125 0 
L 57.328125 0 
L 50.6875 18.703125 
L 17.828125 18.703125 
L 11.1875 0 
L 0.78125 0 
z
" id="DejaVuSans-65"/>
      <path d="M 18.109375 8.203125 
L 18.109375 -20.796875 
L 9.078125 -20.796875 
L 9.078125 54.6875 
L 18.109375 54.6875 
L 18.109375 46.390625 
Q 20.953125 51.265625 25.265625 53.625 
Q 29.59375 56 35.59375 56 
Q 45.5625 56 51.78125 48.09375 
Q 58.015625 40.1875 58.015625 27.296875 
Q 58.015625 14.40625 51.78125 6.484375 
Q 45.5625 -1.421875 35.59375 -1.421875 
Q 29.59375 -1.421875 25.265625 0.953125 
Q 20.953125 3.328125 18.109375 8.203125 
z
M 48.6875 27.296875 
Q 48.6875 37.203125 44.609375 42.84375 
Q 40.53125 48.484375 33.40625 48.484375 
Q 26.265625 48.484375 22.1875 42.84375 
Q 18.109375 37.203125 18.109375 27.296875 
Q 18.109375 17.390625 22.1875 11.75 
Q 26.265625 6.109375 33.40625 6.109375 
Q 40.53125 6.109375 44.609375 11.75 
Q 48.6875 17.390625 48.6875 27.296875 
z
" id="DejaVuSans-112"/>
      <path d="M 9.421875 75.984375 
L 18.40625 75.984375 
L 18.40625 0 
L 9.421875 0 
z
" id="DejaVuSans-108"/>
      <path d="M 45.40625 46.390625 
L 45.40625 75.984375 
L 54.390625 75.984375 
L 54.390625 0 
L 45.40625 0 
L 45.40625 8.203125 
Q 42.578125 3.328125 38.25 0.953125 
Q 33.9375 -1.421875 27.875 -1.421875 
Q 17.96875 -1.421875 11.734375 6.484375 
Q 5.515625 14.40625 5.515625 27.296875 
Q 5.515625 40.1875 11.734375 48.09375 
Q 17.96875 56 27.875 56 
Q 33.9375 56 38.25 53.625 
Q 42.578125 51.265625 45.40625 46.390625 
z
M 14.796875 27.296875 
Q 14.796875 17.390625 18.875 11.75 
Q 22.953125 6.109375 30.078125 6.109375 
Q 37.203125 6.109375 41.296875 11.75 
Q 45.40625 17.390625 45.40625 27.296875 
Q 45.40625 37.203125 41.296875 42.84375 
Q 37.203125 48.484375 30.078125 48.484375 
Q 22.953125 48.484375 18.875 42.84375 
Q 14.796875 37.203125 14.796875 27.296875 
z
" id="DejaVuSans-100"/>
     </defs>
     <g transform="translate(10.674021 166.153594)rotate(-90)scale(0.1 -0.1)">
      <use xlink:href="#DejaVuSans-65"/>
      <use x="68.408203" xlink:href="#DejaVuSans-109"/>
      <use x="165.820312" xlink:href="#DejaVuSans-112"/>
      <use x="229.296875" xlink:href="#DejaVuSans-108"/>
      <use x="257.080078" xlink:href="#DejaVuSans-105"/>
      <use x="284.863281" xlink:href="#DejaVuSans-116"/>
      <use x="324.072266" xlink:href="#DejaVuSans-117"/>
      <use x="387.451172" xlink:href="#DejaVuSans-100"/>
      <use x="450.927734" xlink:href="#DejaVuSans-101"/>
      <use x="512.451172" xlink:href="#DejaVuSans-32"/>
      <use x="544.238281" xlink:href="#DejaVuSans-40"/>
      <use x="583.251953" xlink:href="#DejaVuSans-109"/>
      <use x="680.664062" xlink:href="#DejaVuSans-41"/>
     </g>
    </g>
   </g>
   <g id="line2d_29">
    <path clip-path="url(#p47f3863b40)" d="M 59.234681 162.003839 
L 151.231399 162.10628 
L 155.153713 162.324353 
L 166.964691 163.371141 
L 170.424592 163.31531 
L 173.510593 163.052934 
L 175.100754 162.714678 
L 176.054894 162.226561 
L 176.885291 161.382865 
L 177.300435 160.729363 
L 177.715688 159.866425 
L 178.546085 157.31991 
L 179.376482 153.332511 
L 180.206879 147.495134 
L 181.037168 139.48185 
L 181.867565 129.149967 
L 183.113214 109.707648 
L 186.01955 59.424897 
L 186.849947 48.972383 
L 187.265091 45.15436 
L 187.680344 42.400414 
L 188.095488 40.746774 
L 188.510741 39.998042 
L 188.856658 39.948317 
L 189.202684 40.130089 
L 189.54871 40.552969 
L 189.894628 41.245674 
L 190.240653 42.292307 
L 190.932705 45.665102 
L 191.624648 50.67543 
L 192.662618 60.631972 
L 194.252779 79.181932 
L 196.562898 109.108369 
L 202.790822 192.341283 
L 204.174817 205.915143 
L 205.212786 214.014231 
L 206.250755 220.387984 
L 207.288725 225.200744 
L 207.980776 227.608223 
L 208.67272 229.366087 
L 209.364663 230.414567 
L 210.056715 230.794408 
L 210.748658 230.749904 
L 211.44071 230.433731 
L 211.786627 230.136403 
L 212.132653 229.688564 
L 212.848285 228.175311 
L 213.563809 225.82903 
L 214.279441 222.673577 
L 215.34099 216.713639 
L 217.070903 205.048759 
L 219.14695 190.975891 
L 220.530836 182.963232 
L 221.914831 176.433201 
L 223.022028 172.344946 
L 223.714079 170.375826 
L 224.544368 168.700061 
L 225.374765 167.762357 
L 226.205162 167.364798 
L 227.035559 167.299749 
L 227.865956 167.584684 
L 228.696353 168.278906 
L 229.52675 169.290693 
L 232.461425 173.34211 
L 233.320054 173.964289 
L 234.17879 174.313456 
L 234.465 174.311246 
L 234.880144 174.139153 
L 235.295397 173.762475 
L 236.125794 172.465431 
L 236.956191 170.563531 
L 237.786588 168.162358 
L 238.616985 165.098867 
L 239.447274 161.204599 
L 240.692924 154.107245 
L 244.8448 128.397135 
L 245.675197 124.494504 
L 246.505594 121.400605 
L 247.335991 119.227888 
L 248.166388 117.982727 
L 248.996785 117.194355 
L 249.827182 116.613662 
L 250.242327 116.451596 
L 250.657579 116.449826 
L 251.072724 116.695144 
L 251.645143 117.448924 
L 252.21767 118.592007 
L 252.980896 120.620307 
L 253.935035 123.870618 
L 255.180577 129.243744 
L 256.426226 135.804386 
L 258.086912 146.007239 
L 262.238897 172.875298 
L 263.795851 181.026283 
L 264.83382 185.392217 
L 265.87179 188.64505 
L 266.390774 189.730915 
L 266.909759 190.373423 
L 267.428743 190.628661 
L 268.466713 190.741964 
L 269.504682 190.676373 
L 270.023667 190.51963 
L 271.019775 189.900544 
L 272.928055 188.504159 
L 274.962025 187.480135 
L 276.518979 186.554171 
L 278.075932 185.28658 
L 281.18984 182.552556 
L 282.227809 181.962993 
L 283.265778 181.731109 
L 284.303748 181.976529 
L 285.860702 182.636101 
L 287.936748 183.916318 
L 288.455733 184.051847 
L 289.493702 183.987103 
L 290.370503 183.511875 
L 291.086135 182.801089 
L 291.801658 181.83555 
L 292.875106 179.912786 
L 293.913076 177.533677 
L 295.470029 173.164744 
L 302.735922 150.808521 
L 303.773891 148.432621 
L 304.811861 146.671923 
L 305.84983 145.443908 
L 306.368814 145.033213 
L 306.887799 144.813967 
L 307.925876 144.868282 
L 308.444861 144.985074 
L 308.963846 145.217232 
L 309.840646 145.92493 
L 310.55617 146.802474 
L 311.391002 148.152929 
L 312.345142 150.099154 
L 313.902096 154.030366 
L 316.497019 160.724496 
L 318.054081 164.101037 
L 320.130019 167.956852 
L 321.686973 170.48834 
L 322.724942 171.919347 
L 323.762911 172.983075 
L 324.281896 173.247117 
L 325.319973 173.208917 
L 326.357943 172.783986 
L 327.395912 171.999778 
L 330.097812 169.478131 
L 331.242758 168.865476 
L 332.334162 168.577705 
L 333.372131 168.515851 
L 334.929085 168.638889 
L 335.967054 168.518042 
L 339.08107 167.912992 
L 340.638024 167.99292 
L 341.675993 168.073276 
L 342.194978 168.018493 
L 342.713962 167.840116 
L 343.232947 167.496057 
L 344.271024 166.31202 
L 345.827978 163.869253 
L 346.346963 164.934653 
L 351.285213 164.40687 
L 355.437198 162.765545 
L 359.589075 160.955486 
L 363.74106 159.497515 
L 367.892936 158.619083 
L 370.755248 158.508831 
L 374.907233 158.916816 
L 379.05911 159.778251 
L 383.211095 161.025578 
L 390.225283 163.604421 
L 394.377269 164.935687 
L 398.529145 165.918433 
L 402.68113 166.543611 
L 406.833007 166.854695 
L 406.833007 166.854695 
" style="fill:none;stroke:#009afa;stroke-linecap:round;"/>
   </g>
   <g id="line2d_30">
    <path clip-path="url(#p47f3863b40)" d="M 39.115644 164.739913 
L 40.413647 164.98613 
L 42.36065 163.462337 
L 43.009652 164.231948 
L 44.307654 163.230257 
L 44.956655 163.368825 
L 45.605656 162.872431 
L 46.254657 163.014349 
L 47.55266 162.029407 
L 50.148665 162.622255 
L 50.797666 162.136651 
L 52.744669 162.595426 
L 53.39367 162.113252 
L 54.042672 162.268407 
L 54.691673 161.15078 
L 55.340674 161.94367 
L 55.989675 161.463613 
L 56.638676 161.620556 
L 57.287678 162.414418 
L 58.58568 161.45583 
L 59.234681 161.613247 
L 59.883682 161.1339 
L 60.532683 161.927737 
L 61.181685 160.811293 
L 61.830686 160.96787 
L 62.479687 161.760709 
L 63.128688 156.82296 
L 63.777689 167.801551 
L 64.426691 154.585765 
L 65.075692 163.016248 
L 65.724693 180.359381 
L 65.724693 145.342159 
L 65.724693 255.487241 
L 66.373694 133.397256 
L 66.373694 -1 
M 66.373694 -1 
L 66.373694 289 
M 66.373694 289 
L 66.373694 -1 
M 66.590391 -1 
L 67.022695 122.088044 
L 67.022695 -1 
M 67.022695 -1 
L 67.022695 190.849135 
L 67.022695 130.364842 
L 67.671696 170.625381 
L 67.671696 143.24828 
L 67.671696 215.829432 
L 68.320698 219.161569 
L 68.320698 195.604528 
L 68.969699 135.267759 
L 69.6187 164.701103 
L 70.267701 147.018975 
L 70.916702 177.722809 
L 71.565704 146.667444 
L 72.214705 173.548033 
L 72.863706 152.67615 
L 73.512707 142.625979 
L 74.161708 164.407773 
L 74.810709 156.900483 
L 75.459711 176.768262 
L 76.108712 173.076889 
L 76.757713 161.743204 
L 77.406714 152.953955 
L 78.055715 165.809369 
L 78.704717 155.105315 
L 79.353718 150.765523 
L 80.002719 166.796804 
L 80.65172 165.635151 
L 81.300721 167.654142 
L 81.949722 152.480044 
L 82.598724 160.860094 
L 83.247725 162.233727 
L 83.896726 164.877668 
L 84.545727 144.59812 
L 85.194728 167.609394 
L 85.84373 165.150321 
L 86.492731 156.957806 
L 87.141732 157.675339 
L 87.790733 162.209431 
L 88.439734 155.279765 
L 89.088735 165.536722 
L 89.737737 157.963004 
L 90.386738 158.025609 
L 91.035739 162.541079 
L 91.68474 162.595868 
L 92.333741 157.553224 
L 92.982743 163.329995 
L 93.631744 159.552452 
L 94.280745 157.044029 
L 94.929746 163.444776 
L 95.578747 159.654317 
L 96.227748 158.406119 
L 96.87675 159.063433 
L 97.525751 165.446251 
L 98.174752 160.36423 
L 98.823753 159.734221 
L 99.472754 162.919477 
L 100.121756 158.45975 
L 100.770757 161.635212 
L 101.419758 156.528878 
L 102.068759 159.694276 
L 102.71776 160.307835 
L 103.366761 162.826225 
L 104.015763 157.69923 
L 104.664764 161.480379 
L 105.313765 159.526043 
L 105.962766 159.476278 
L 106.611767 158.784312 
L 107.260769 163.180174 
L 107.90977 157.383557 
L 108.558771 164.314762 
L 109.207772 157.86998 
L 111.154776 161.420733 
L 111.803777 159.408976 
L 112.452778 161.2112 
L 113.101779 160.460579 
L 113.75078 161.613791 
L 114.399781 160.214041 
L 115.048783 160.718009 
L 115.697784 161.852283 
L 116.995786 160.281432 
L 117.644787 160.759581 
L 118.293789 163.141165 
L 118.94279 159.78601 
L 120.240792 161.969014 
L 120.889793 159.866946 
L 121.538794 161.578076 
L 123.485798 160.939694 
L 124.134799 163.896221 
L 124.7838 157.932158 
L 125.432802 165.96782 
L 126.081803 161.262735 
L 126.730804 160.370452 
L 127.379805 158.834184 
L 128.028806 163.657331 
L 128.677807 162.742988 
L 129.326809 165.004584 
L 129.97581 163.438629 
L 130.624811 163.775172 
L 131.273812 163.46746 
L 131.922813 159.968745 
L 132.571815 162.192458 
L 133.220816 162.498437 
L 133.869817 167.253409 
L 134.518818 159.267059 
L 135.167819 163.369744 
L 135.81682 163.644503 
L 136.465822 162.001329 
L 137.114823 162.260246 
L 137.763824 161.874507 
L 138.412825 162.117432 
L 139.061826 162.988983 
L 139.710828 165.125802 
L 141.00883 161.734926 
L 141.657831 163.847285 
L 142.306832 163.404717 
L 142.955833 163.590575 
L 143.604835 161.85812 
L 144.253836 164.57409 
L 144.902837 162.824979 
L 145.551838 162.977526 
L 146.200839 161.211643 
L 146.849841 162.620715 
L 147.498842 163.384655 
L 148.796844 162.340357 
L 149.445845 162.442098 
L 150.094846 160.625253 
L 150.743848 163.893241 
L 151.392849 160.149181 
L 152.04185 160.853234 
L 152.690851 162.821992 
L 153.339852 161.5987 
L 153.988854 162.913426 
L 154.637855 161.036062 
L 155.286856 162.333355 
L 155.935857 162.348552 
L 156.584858 162.991664 
L 157.233859 161.715968 
L 157.882861 161.704832 
L 158.531862 162.958242 
L 159.180863 161.656123 
L 159.829864 160.981843 
L 160.478865 162.208745 
L 161.127867 162.79011 
L 161.776868 159.542541 
L 162.425869 161.379502 
L 163.07487 161.934217 
L 163.723871 161.206676 
L 164.372872 162.380255 
L 165.021874 162.908238 
L 165.670875 161.517265 
L 166.319876 163.300744 
L 166.968877 161.891901 
L 167.617878 163.020824 
L 168.26688 161.594092 
L 168.915881 162.068442 
L 169.564882 161.897162 
L 170.213883 161.080252 
L 171.511885 161.966272 
L 172.160887 161.122495 
L 172.809888 162.179795 
L 173.458889 161.318112 
L 174.10789 163.630864 
L 174.756891 162.114608 
L 175.405893 163.136118 
L 176.054894 162.875336 
L 176.703895 163.878977 
L 177.352896 163.600338 
L 178.001897 164.586134 
L 178.650898 164.289667 
L 179.2999 165.257651 
L 179.948901 164.306711 
L 180.597902 162.710212 
L 181.246903 158.558134 
L 181.895904 151.213812 
L 182.544906 138.767227 
L 183.193907 123.128424 
L 183.842908 99.840677 
L 183.842908 90.290525 
L 184.491909 72.087386 
L 184.491909 82.910891 
L 184.491909 61.263881 
L 185.14091 44.96198 
L 185.14091 55.148808 
L 185.14091 36.048505 
L 185.789911 22.921211 
L 185.789911 29.924656 
L 185.789911 17.191121 
L 186.438913 12.331866 
L 186.438913 12.968543 
L 187.087914 17.014021 
L 187.736915 31.237604 
L 189.683919 105.690042 
L 190.33292 123.698986 
L 190.981921 134.695864 
L 191.630922 136.770668 
L 192.279923 131.196774 
L 192.928924 121.794266 
L 193.577926 121.296706 
L 194.226927 128.430765 
L 194.875928 136.829701 
L 195.524929 130.576622 
L 196.17393 116.675 
L 196.822931 106.585045 
L 197.471933 109.856938 
L 198.120934 115.030526 
L 198.769935 111.919012 
L 199.418936 112.619284 
L 200.716939 147.739007 
L 201.36594 143.957916 
L 202.014941 135.075268 
L 202.663942 149.741554 
L 203.312943 187.956809 
L 203.961944 199.423603 
L 205.259947 159.938907 
L 205.908948 163.741695 
L 206.557949 166.263244 
L 207.20695 158.590118 
L 207.855952 161.732693 
L 208.504953 173.780977 
L 209.153954 171.814648 
L 209.802955 171.113992 
L 210.451956 195.236091 
L 211.100957 223.807333 
L 211.749959 222.447215 
L 212.39896 200.705934 
L 213.047961 197.420819 
L 213.696962 211.318562 
L 214.345963 220.752199 
L 214.994965 220.628363 
L 215.643966 206.490366 
L 216.292967 181.52164 
L 216.941968 161.002476 
L 217.590969 157.66646 
L 218.23997 167.056905 
L 218.888972 180.260387 
L 219.537973 196.003604 
L 220.186974 188.182862 
L 220.835975 166.985041 
L 221.484976 178.8876 
L 222.133978 205.426967 
L 222.782979 191.848993 
L 223.43198 166.804189 
L 224.080981 181.226753 
L 224.729982 215.379761 
L 225.378983 215.145745 
L 226.027985 182.434794 
L 226.676986 172.637844 
L 227.325987 179.388186 
L 227.974988 172.762073 
L 229.272991 214.245559 
L 229.921992 196.140895 
L 230.570993 198.403888 
L 231.219994 215.941186 
L 231.868995 190.815265 
L 232.517996 180.327099 
L 233.166998 194.026902 
L 233.815999 185.437334 
L 235.114001 184.795007 
L 235.763002 177.462136 
L 236.412004 173.943906 
L 237.710006 146.517796 
L 238.359007 147.440447 
L 239.008008 141.354505 
L 239.657009 125.713331 
L 240.306011 128.530773 
L 240.955012 120.51977 
L 241.604013 109.95719 
L 242.253014 138.863772 
L 242.902015 149.301999 
L 243.551017 150.185419 
L 244.200018 154.884317 
L 244.849019 152.57526 
L 245.49802 171.908776 
L 246.147021 171.500949 
L 246.796022 165.358742 
L 247.445024 165.579087 
L 248.094025 151.151727 
L 248.743026 160.277343 
L 249.392027 151.572022 
L 250.041028 148.592878 
L 250.69003 158.343435 
L 251.339031 148.989929 
L 251.988032 146.636187 
L 252.637033 135.365366 
L 253.286034 134.277849 
L 253.935035 141.463682 
L 254.584037 131.455876 
L 255.233038 137.361699 
L 255.882039 135.624193 
L 256.53104 124.970083 
L 257.180041 135.323258 
L 257.829043 142.490081 
L 258.478044 154.110755 
L 259.127045 149.811705 
L 259.776046 137.869809 
L 261.074048 146.448689 
L 261.72305 166.332954 
L 262.372051 165.204492 
L 263.021052 169.167133 
L 263.670053 177.584284 
L 264.319054 188.545999 
L 264.968056 202.689038 
L 265.617057 201.54986 
L 266.266058 208.048913 
L 266.915059 193.535827 
L 267.56406 187.934496 
L 268.213061 178.511469 
L 268.862063 165.266832 
L 269.511064 166.664297 
L 270.160065 151.506788 
L 270.809066 154.811615 
L 271.458067 154.295176 
L 272.107069 174.787953 
L 272.75607 184.456194 
L 273.405071 169.929774 
L 274.054072 163.679295 
L 274.703073 156.154693 
L 275.352074 166.456359 
L 276.001076 167.207281 
L 276.650077 174.324464 
L 277.299078 177.621169 
L 277.948079 186.01096 
L 278.59708 168.933439 
L 279.246081 178.59619 
L 279.895083 182.528787 
L 280.544084 179.457965 
L 281.193085 190.394146 
L 281.842086 186.050289 
L 282.491087 179.796694 
L 283.140089 188.187047 
L 283.78909 185.754366 
L 284.438091 176.318802 
L 285.736093 162.54313 
L 286.385094 170.936737 
L 287.034096 172.327818 
L 287.683097 178.813324 
L 288.332098 182.116545 
L 288.981099 166.957329 
L 289.6301 165.169605 
L 290.279102 167.839988 
L 290.928103 150.138173 
L 291.577104 154.721594 
L 292.226105 153.576565 
L 292.875106 154.343294 
L 293.524107 137.921571 
L 294.173109 148.878858 
L 294.82211 156.654761 
L 295.471111 156.155956 
L 296.120112 172.212926 
L 296.769113 165.351802 
L 297.418115 159.76639 
L 298.067116 161.823549 
L 298.716117 160.699864 
L 299.365118 161.488837 
L 300.014119 159.733821 
L 300.66312 170.078471 
L 301.312122 164.5091 
L 301.961123 165.309483 
L 302.610124 173.116387 
L 303.259125 164.372859 
L 303.908126 151.812526 
L 304.557128 142.438919 
L 305.206129 152.805724 
L 305.85513 152.352546 
L 306.504131 146.809562 
L 307.153132 138.086892 
L 307.802133 140.82819 
L 309.100136 154.599296 
L 309.749137 153.53242 
L 311.047139 163.508027 
L 311.696141 170.730625 
L 312.345142 171.590854 
L 312.994143 169.272186 
L 313.643144 168.231444 
L 314.292145 162.738624 
L 314.941146 159.797257 
L 315.590148 174.687672 
L 316.239149 172.392731 
L 316.88815 186.019712 
L 317.537151 175.458064 
L 318.186152 183.365216 
L 318.835154 181.090798 
L 319.484155 174.364985 
L 320.133156 160.004478 
L 320.782157 172.389906 
L 321.431158 177.140807 
L 322.080159 176.167295 
L 322.729161 173.289514 
L 323.378162 168.507546 
L 324.027163 170.73495 
L 324.676164 163.41821 
L 325.325165 169.477773 
L 326.623168 177.158758 
L 327.272169 178.143666 
L 327.92117 179.771665 
L 328.570171 175.039391 
L 329.219172 179.863843 
L 329.868174 183.421595 
L 330.517175 182.529343 
L 331.815177 178.218645 
L 332.464178 174.800356 
L 333.11318 173.935819 
L 333.762181 170.531698 
L 334.411182 172.22819 
L 335.060183 184.118787 
L 335.709184 187.739937 
L 336.358185 185.638423 
L 337.007187 171.447553 
L 337.656188 173.817856 
L 338.305189 180.01587 
L 339.603191 167.604753 
L 340.252193 157.272565 
L 340.901194 157.771826 
L 341.550195 164.64587 
L 342.848197 137.034299 
L 343.497198 141.386108 
L 344.1462 150.202953 
L 344.795201 153.934752 
L 345.444202 158.948341 
L 346.093203 169.700526 
L 346.742204 172.184486 
L 347.391206 171.493703 
L 348.040207 162.53483 
L 348.689208 155.494761 
L 349.338209 154.8303 
L 350.636211 175.17517 
L 351.285213 171.990912 
L 352.583215 154.189572 
L 353.232216 154.852858 
L 353.881217 154.252078 
L 355.17922 147.348529 
L 355.828221 148.686003 
L 356.477222 148.759653 
L 357.126223 149.479567 
L 357.775224 152.119158 
L 358.424226 150.311716 
L 359.073227 151.060742 
L 359.722228 149.27288 
L 360.371229 149.404923 
L 361.02023 148.91022 
L 361.669231 149.698854 
L 362.318233 154.954266 
L 362.967234 151.306296 
L 363.616235 150.851856 
L 364.265236 155.501029 
L 364.914237 162.707159 
L 365.563239 152.09664 
L 366.21224 157.413393 
L 366.861241 155.737103 
L 367.510242 150.251203 
L 368.159243 154.96263 
L 368.808244 150.134453 
L 369.457246 149.773608 
L 370.106247 143.056636 
L 370.755248 150.993915 
L 371.404249 150.028452 
L 372.05325 146.527058 
L 372.702252 149.403251 
L 374.000254 152.641561 
L 374.649255 159.37053 
L 375.947257 155.034521 
L 376.596259 149.063038 
L 377.24526 144.376015 
L 377.894261 150.523642 
L 378.543262 151.589036 
L 379.192263 153.302326 
L 379.841265 151.20681 
L 381.139267 155.963157 
L 381.788268 156.448321 
L 382.437269 150.578108 
L 383.08627 152.35944 
L 383.735272 149.69549 
L 384.384273 142.586288 
L 385.033274 146.948783 
L 385.682275 150.049471 
L 386.980278 149.918827 
L 387.629279 153.690996 
L 388.27828 163.20491 
L 388.927281 168.273767 
L 389.576282 171.444299 
L 390.225283 169.533146 
L 390.874285 166.997069 
L 391.523286 167.019474 
L 392.172287 168.963705 
L 392.821288 167.73637 
L 393.470289 167.15755 
L 394.768292 178.132357 
L 395.417293 183.319253 
L 396.066294 187.244706 
L 396.715295 183.541964 
L 397.364296 188.764639 
L 398.013298 186.35915 
L 398.662299 180.782246 
L 399.3113 180.947417 
L 399.960301 185.581322 
L 400.609302 193.410617 
L 401.258304 192.975132 
L 401.907305 190.004968 
L 402.556306 188.320194 
L 403.205307 190.467525 
L 403.854308 190.716879 
L 404.503309 188.431585 
L 405.152311 188.705063 
L 405.801312 192.173995 
L 406.450313 193.744971 
L 407.748315 199.469866 
L 408.397317 190.253577 
L 409.695319 183.317431 
L 410.993321 184.069737 
L 411.642322 185.100687 
L 412.291324 179.140268 
L 412.940325 177.64866 
L 413.589326 166.618967 
L 414.238327 163.878135 
L 414.887328 168.78948 
L 415.53633 167.346106 
L 416.185331 172.918217 
L 416.834332 176.592331 
L 417.483333 175.185053 
L 418.132334 175.063141 
L 418.781335 166.676432 
L 419.430337 168.488541 
L 420.079338 166.492565 
L 420.728339 165.14523 
L 421.37734 164.44652 
L 422.026341 168.21648 
L 422.675343 163.72156 
L 423.324344 154.781803 
L 423.973345 159.224141 
L 424.622346 161.131637 
L 425.271347 164.324331 
L 425.920348 166.255497 
L 426.56935 164.378407 
L 427.218351 167.606513 
L 427.867352 163.206259 
L 428.516353 164.547832 
L 429.814356 163.446033 
L 429.814356 163.446033 
" style="fill:none;stroke:#000000;stroke-dasharray:1.85,0.8;stroke-dashoffset:0;stroke-width:0.5;"/>
   </g>
   <g id="patch_3">
    <path d="M 39.764646 257.505354 
L 39.764646 2.834646 
" style="fill:none;stroke:#000000;stroke-linecap:square;stroke-linejoin:miter;"/>
   </g>
   <g id="patch_4">
    <path d="M 39.764646 257.505354 
L 429.165354 257.505354 
" style="fill:none;stroke:#000000;stroke-linecap:square;stroke-linejoin:miter;"/>
   </g>
   <g id="legend_1">
    <g id="patch_5">
     <path d="M 270.174729 47.662146 
L 420.765354 47.662146 
Q 423.165354 47.662146 423.165354 45.262146 
L 423.165354 11.234646 
Q 423.165354 8.834646 420.765354 8.834646 
L 270.174729 8.834646 
Q 267.774729 8.834646 267.774729 11.234646 
L 267.774729 45.262146 
Q 267.774729 47.662146 270.174729 47.662146 
z
" style="fill:#ffffff;stroke:#000000;stroke-linejoin:miter;"/>
    </g>
    <g id="line2d_31">
     <path d="M 272.574729 18.552771 
L 296.574729 18.552771 
" style="fill:none;stroke:#009afa;stroke-linecap:square;"/>
    </g>
    <g id="line2d_32"/>
    <g id="text_17">
     <!-- Gauge 32412 -->
     <defs>
      <path d="M 59.515625 10.40625 
L 59.515625 29.984375 
L 43.40625 29.984375 
L 43.40625 38.09375 
L 69.28125 38.09375 
L 69.28125 6.78125 
Q 63.578125 2.734375 56.6875 0.65625 
Q 49.8125 -1.421875 42 -1.421875 
Q 24.90625 -1.421875 15.25 8.5625 
Q 5.609375 18.5625 5.609375 36.375 
Q 5.609375 54.25 15.25 64.234375 
Q 24.90625 74.21875 42 74.21875 
Q 49.125 74.21875 55.546875 72.453125 
Q 61.96875 70.703125 67.390625 67.28125 
L 67.390625 56.78125 
Q 61.921875 61.421875 55.765625 63.765625 
Q 49.609375 66.109375 42.828125 66.109375 
Q 29.4375 66.109375 22.71875 58.640625 
Q 16.015625 51.171875 16.015625 36.375 
Q 16.015625 21.625 22.71875 14.15625 
Q 29.4375 6.6875 42.828125 6.6875 
Q 48.046875 6.6875 52.140625 7.59375 
Q 56.25 8.5 59.515625 10.40625 
z
" id="DejaVuSans-71"/>
      <path d="M 45.40625 27.984375 
Q 45.40625 37.75 41.375 43.109375 
Q 37.359375 48.484375 30.078125 48.484375 
Q 22.859375 48.484375 18.828125 43.109375 
Q 14.796875 37.75 14.796875 27.984375 
Q 14.796875 18.265625 18.828125 12.890625 
Q 22.859375 7.515625 30.078125 7.515625 
Q 37.359375 7.515625 41.375 12.890625 
Q 45.40625 18.265625 45.40625 27.984375 
z
M 54.390625 6.78125 
Q 54.390625 -7.171875 48.1875 -13.984375 
Q 42 -20.796875 29.203125 -20.796875 
Q 24.46875 -20.796875 20.265625 -20.09375 
Q 16.0625 -19.390625 12.109375 -17.921875 
L 12.109375 -9.1875 
Q 16.0625 -11.328125 19.921875 -12.34375 
Q 23.78125 -13.375 27.78125 -13.375 
Q 36.625 -13.375 41.015625 -8.765625 
Q 45.40625 -4.15625 45.40625 5.171875 
L 45.40625 9.625 
Q 42.625 4.78125 38.28125 2.390625 
Q 33.9375 0 27.875 0 
Q 17.828125 0 11.671875 7.65625 
Q 5.515625 15.328125 5.515625 27.984375 
Q 5.515625 40.671875 11.671875 48.328125 
Q 17.828125 56 27.875 56 
Q 33.9375 56 38.28125 53.609375 
Q 42.625 51.21875 45.40625 46.390625 
L 45.40625 54.6875 
L 54.390625 54.6875 
z
" id="DejaVuSans-103"/>
     </defs>
     <g transform="translate(306.174729 22.752771)scale(0.12 -0.12)">
      <use xlink:href="#DejaVuSans-71"/>
      <use x="77.490234" xlink:href="#DejaVuSans-97"/>
      <use x="138.769531" xlink:href="#DejaVuSans-117"/>
      <use x="202.148438" xlink:href="#DejaVuSans-103"/>
      <use x="265.625" xlink:href="#DejaVuSans-101"/>
      <use x="327.148438" xlink:href="#DejaVuSans-32"/>
      <use x="358.935547" xlink:href="#DejaVuSans-51"/>
      <use x="422.558594" xlink:href="#DejaVuSans-50"/>
      <use x="486.181641" xlink:href="#DejaVuSans-52"/>
      <use x="549.804688" xlink:href="#DejaVuSans-49"/>
      <use x="613.427734" xlink:href="#DejaVuSans-50"/>
     </g>
    </g>
    <g id="line2d_33">
     <path d="M 272.574729 36.166521 
L 296.574729 36.166521 
" style="fill:none;stroke:#000000;stroke-dasharray:1.85,0.8;stroke-dashoffset:0;stroke-width:0.5;"/>
    </g>
    <g id="line2d_34"/>
    <g id="text_18">
     <!-- Gauge 32412 Obs. -->
     <defs>
      <path d="M 39.40625 66.21875 
Q 28.65625 66.21875 22.328125 58.203125 
Q 16.015625 50.203125 16.015625 36.375 
Q 16.015625 22.609375 22.328125 14.59375 
Q 28.65625 6.59375 39.40625 6.59375 
Q 50.140625 6.59375 56.421875 14.59375 
Q 62.703125 22.609375 62.703125 36.375 
Q 62.703125 50.203125 56.421875 58.203125 
Q 50.140625 66.21875 39.40625 66.21875 
z
M 39.40625 74.21875 
Q 54.734375 74.21875 63.90625 63.9375 
Q 73.09375 53.65625 73.09375 36.375 
Q 73.09375 19.140625 63.90625 8.859375 
Q 54.734375 -1.421875 39.40625 -1.421875 
Q 24.03125 -1.421875 14.8125 8.828125 
Q 5.609375 19.09375 5.609375 36.375 
Q 5.609375 53.65625 14.8125 63.9375 
Q 24.03125 74.21875 39.40625 74.21875 
z
" id="DejaVuSans-79"/>
      <path d="M 48.6875 27.296875 
Q 48.6875 37.203125 44.609375 42.84375 
Q 40.53125 48.484375 33.40625 48.484375 
Q 26.265625 48.484375 22.1875 42.84375 
Q 18.109375 37.203125 18.109375 27.296875 
Q 18.109375 17.390625 22.1875 11.75 
Q 26.265625 6.109375 33.40625 6.109375 
Q 40.53125 6.109375 44.609375 11.75 
Q 48.6875 17.390625 48.6875 27.296875 
z
M 18.109375 46.390625 
Q 20.953125 51.265625 25.265625 53.625 
Q 29.59375 56 35.59375 56 
Q 45.5625 56 51.78125 48.09375 
Q 58.015625 40.1875 58.015625 27.296875 
Q 58.015625 14.40625 51.78125 6.484375 
Q 45.5625 -1.421875 35.59375 -1.421875 
Q 29.59375 -1.421875 25.265625 0.953125 
Q 20.953125 3.328125 18.109375 8.203125 
L 18.109375 0 
L 9.078125 0 
L 9.078125 75.984375 
L 18.109375 75.984375 
z
" id="DejaVuSans-98"/>
     </defs>
     <g transform="translate(306.174729 40.366521)scale(0.12 -0.12)">
      <use xlink:href="#DejaVuSans-71"/>
      <use x="77.490234" xlink:href="#DejaVuSans-97"/>
      <use x="138.769531" xlink:href="#DejaVuSans-117"/>
      <use x="202.148438" xlink:href="#DejaVuSans-103"/>
      <use x="265.625" xlink:href="#DejaVuSans-101"/>
      <use x="327.148438" xlink:href="#DejaVuSans-32"/>
      <use x="358.935547" xlink:href="#DejaVuSans-51"/>
      <use x="422.558594" xlink:href="#DejaVuSans-50"/>
      <use x="486.181641" xlink:href="#DejaVuSans-52"/>
      <use x="549.804688" xlink:href="#DejaVuSans-49"/>
      <use x="613.427734" xlink:href="#DejaVuSans-50"/>
      <use x="677.050781" xlink:href="#DejaVuSans-32"/>
      <use x="708.837891" xlink:href="#DejaVuSans-79"/>
      <use x="787.548828" xlink:href="#DejaVuSans-98"/>
      <use x="851.025391" xlink:href="#DejaVuSans-115"/>
      <use x="903.125" xlink:href="#DejaVuSans-46"/>
     </g>
    </g>
   </g>
  </g>
 </g>
 <defs>
  <clipPath id="p47f3863b40">
   <rect height="254.670709" width="389.400709" x="39.764646" y="2.834646"/>
  </clipPath>
 </defs>
</svg>
