<?xml version="1.0" encoding="utf-8"?>
<svg xmlns="http://www.w3.org/2000/svg" xmlns:xlink="http://www.w3.org/1999/xlink" width="600" height="400" viewBox="0 0 2400 1600">
<defs>
  <clipPath id="clip1300">
    <rect x="0" y="0" width="2400" height="1600"/>
  </clipPath>
</defs>
<path clip-path="url(#clip1300)" d="
M0 1600 L2400 1600 L2400 0 L0 0  Z
  " fill="#ffffff" fill-rule="evenodd" fill-opacity="1"/>
<defs>
  <clipPath id="clip1301">
    <rect x="480" y="0" width="1681" height="1600"/>
  </clipPath>
</defs>
<path clip-path="url(#clip1300)" d="
M263.427 1421.43 L2352.76 1421.43 L2352.76 47.2441 L263.427 47.2441  Z
  " fill="#ffffff" fill-rule="evenodd" fill-opacity="1"/>
<defs>
  <clipPath id="clip1302">
    <rect x="263" y="47" width="2090" height="1375"/>
  </clipPath>
</defs>
<polyline clip-path="url(#clip1302)" style="stroke:#000000; stroke-width:2; stroke-opacity:0.1; fill:none" points="
  367.893,1421.43 367.893,47.2441 
  "/>
<polyline clip-path="url(#clip1302)" style="stroke:#000000; stroke-width:2; stroke-opacity:0.1; fill:none" points="
  576.826,1421.43 576.826,47.2441 
  "/>
<polyline clip-path="url(#clip1302)" style="stroke:#000000; stroke-width:2; stroke-opacity:0.1; fill:none" points="
  785.759,1421.43 785.759,47.2441 
  "/>
<polyline clip-path="url(#clip1302)" style="stroke:#000000; stroke-width:2; stroke-opacity:0.1; fill:none" points="
  994.692,1421.43 994.692,47.2441 
  "/>
<polyline clip-path="url(#clip1302)" style="stroke:#000000; stroke-width:2; stroke-opacity:0.1; fill:none" points="
  1203.62,1421.43 1203.62,47.2441 
  "/>
<polyline clip-path="url(#clip1302)" style="stroke:#000000; stroke-width:2; stroke-opacity:0.1; fill:none" points="
  1412.56,1421.43 1412.56,47.2441 
  "/>
<polyline clip-path="url(#clip1302)" style="stroke:#000000; stroke-width:2; stroke-opacity:0.1; fill:none" points="
  1621.49,1421.43 1621.49,47.2441 
  "/>
<polyline clip-path="url(#clip1302)" style="stroke:#000000; stroke-width:2; stroke-opacity:0.1; fill:none" points="
  1830.42,1421.43 1830.42,47.2441 
  "/>
<polyline clip-path="url(#clip1302)" style="stroke:#000000; stroke-width:2; stroke-opacity:0.1; fill:none" points="
  2039.36,1421.43 2039.36,47.2441 
  "/>
<polyline clip-path="url(#clip1302)" style="stroke:#000000; stroke-width:2; stroke-opacity:0.1; fill:none" points="
  2248.29,1421.43 2248.29,47.2441 
  "/>
<polyline clip-path="url(#clip1302)" style="stroke:#000000; stroke-width:2; stroke-opacity:0.1; fill:none" points="
  263.427,1249.65 2352.76,1249.65 
  "/>
<polyline clip-path="url(#clip1302)" style="stroke:#000000; stroke-width:2; stroke-opacity:0.1; fill:none" points="
  263.427,906.108 2352.76,906.108 
  "/>
<polyline clip-path="url(#clip1302)" style="stroke:#000000; stroke-width:2; stroke-opacity:0.1; fill:none" points="
  263.427,562.563 2352.76,562.563 
  "/>
<polyline clip-path="url(#clip1302)" style="stroke:#000000; stroke-width:2; stroke-opacity:0.1; fill:none" points="
  263.427,219.017 2352.76,219.017 
  "/>
<polyline clip-path="url(#clip1300)" style="stroke:#000000; stroke-width:4; stroke-opacity:1; fill:none" points="
  263.427,1421.43 2352.76,1421.43 
  "/>
<polyline clip-path="url(#clip1300)" style="stroke:#000000; stroke-width:4; stroke-opacity:1; fill:none" points="
  263.427,1421.43 263.427,47.2441 
  "/>
<polyline clip-path="url(#clip1300)" style="stroke:#000000; stroke-width:4; stroke-opacity:1; fill:none" points="
  367.893,1421.43 367.893,1400.81 
  "/>
<polyline clip-path="url(#clip1300)" style="stroke:#000000; stroke-width:4; stroke-opacity:1; fill:none" points="
  576.826,1421.43 576.826,1400.81 
  "/>
<polyline clip-path="url(#clip1300)" style="stroke:#000000; stroke-width:4; stroke-opacity:1; fill:none" points="
  785.759,1421.43 785.759,1400.81 
  "/>
<polyline clip-path="url(#clip1300)" style="stroke:#000000; stroke-width:4; stroke-opacity:1; fill:none" points="
  994.692,1421.43 994.692,1400.81 
  "/>
<polyline clip-path="url(#clip1300)" style="stroke:#000000; stroke-width:4; stroke-opacity:1; fill:none" points="
  1203.62,1421.43 1203.62,1400.81 
  "/>
<polyline clip-path="url(#clip1300)" style="stroke:#000000; stroke-width:4; stroke-opacity:1; fill:none" points="
  1412.56,1421.43 1412.56,1400.81 
  "/>
<polyline clip-path="url(#clip1300)" style="stroke:#000000; stroke-width:4; stroke-opacity:1; fill:none" points="
  1621.49,1421.43 1621.49,1400.81 
  "/>
<polyline clip-path="url(#clip1300)" style="stroke:#000000; stroke-width:4; stroke-opacity:1; fill:none" points="
  1830.42,1421.43 1830.42,1400.81 
  "/>
<polyline clip-path="url(#clip1300)" style="stroke:#000000; stroke-width:4; stroke-opacity:1; fill:none" points="
  2039.36,1421.43 2039.36,1400.81 
  "/>
<polyline clip-path="url(#clip1300)" style="stroke:#000000; stroke-width:4; stroke-opacity:1; fill:none" points="
  2248.29,1421.43 2248.29,1400.81 
  "/>
<polyline clip-path="url(#clip1300)" style="stroke:#000000; stroke-width:4; stroke-opacity:1; fill:none" points="
  263.427,1249.65 294.766,1249.65 
  "/>
<polyline clip-path="url(#clip1300)" style="stroke:#000000; stroke-width:4; stroke-opacity:1; fill:none" points="
  263.427,906.108 294.766,906.108 
  "/>
<polyline clip-path="url(#clip1300)" style="stroke:#000000; stroke-width:4; stroke-opacity:1; fill:none" points="
  263.427,562.563 294.766,562.563 
  "/>
<polyline clip-path="url(#clip1300)" style="stroke:#000000; stroke-width:4; stroke-opacity:1; fill:none" points="
  263.427,219.017 294.766,219.017 
  "/>
<g clip-path="url(#clip1300)">
<text style="fill:#000000; fill-opacity:1; font-family:Arial,Helvetica Neue,Helvetica,sans-serif; font-size:59px; text-anchor:middle;" transform="rotate(0, 367.893, 1485.03)" x="367.893" y="1485.03">0</text>
</g>
<g clip-path="url(#clip1300)">
<text style="fill:#000000; fill-opacity:1; font-family:Arial,Helvetica Neue,Helvetica,sans-serif; font-size:59px; text-anchor:middle;" transform="rotate(0, 576.826, 1485.03)" x="576.826" y="1485.03">1</text>
</g>
<g clip-path="url(#clip1300)">
<text style="fill:#000000; fill-opacity:1; font-family:Arial,Helvetica Neue,Helvetica,sans-serif; font-size:59px; text-anchor:middle;" transform="rotate(0, 785.759, 1485.03)" x="785.759" y="1485.03">2</text>
</g>
<g clip-path="url(#clip1300)">
<text style="fill:#000000; fill-opacity:1; font-family:Arial,Helvetica Neue,Helvetica,sans-serif; font-size:59px; text-anchor:middle;" transform="rotate(0, 994.692, 1485.03)" x="994.692" y="1485.03">3</text>
</g>
<g clip-path="url(#clip1300)">
<text style="fill:#000000; fill-opacity:1; font-family:Arial,Helvetica Neue,Helvetica,sans-serif; font-size:59px; text-anchor:middle;" transform="rotate(0, 1203.62, 1485.03)" x="1203.62" y="1485.03">4</text>
</g>
<g clip-path="url(#clip1300)">
<text style="fill:#000000; fill-opacity:1; font-family:Arial,Helvetica Neue,Helvetica,sans-serif; font-size:59px; text-anchor:middle;" transform="rotate(0, 1412.56, 1485.03)" x="1412.56" y="1485.03">5</text>
</g>
<g clip-path="url(#clip1300)">
<text style="fill:#000000; fill-opacity:1; font-family:Arial,Helvetica Neue,Helvetica,sans-serif; font-size:59px; text-anchor:middle;" transform="rotate(0, 1621.49, 1485.03)" x="1621.49" y="1485.03">6</text>
</g>
<g clip-path="url(#clip1300)">
<text style="fill:#000000; fill-opacity:1; font-family:Arial,Helvetica Neue,Helvetica,sans-serif; font-size:59px; text-anchor:middle;" transform="rotate(0, 1830.42, 1485.03)" x="1830.42" y="1485.03">7</text>
</g>
<g clip-path="url(#clip1300)">
<text style="fill:#000000; fill-opacity:1; font-family:Arial,Helvetica Neue,Helvetica,sans-serif; font-size:59px; text-anchor:middle;" transform="rotate(0, 2039.36, 1485.03)" x="2039.36" y="1485.03">8</text>
</g>
<g clip-path="url(#clip1300)">
<text style="fill:#000000; fill-opacity:1; font-family:Arial,Helvetica Neue,Helvetica,sans-serif; font-size:59px; text-anchor:middle;" transform="rotate(0, 2248.29, 1485.03)" x="2248.29" y="1485.03">9</text>
</g>
<g clip-path="url(#clip1300)">
<text style="fill:#000000; fill-opacity:1; font-family:Arial,Helvetica Neue,Helvetica,sans-serif; font-size:59px; text-anchor:end;" transform="rotate(0, 239.427, 1271.15)" x="239.427" y="1271.15">-0.1</text>
</g>
<g clip-path="url(#clip1300)">
<text style="fill:#000000; fill-opacity:1; font-family:Arial,Helvetica Neue,Helvetica,sans-serif; font-size:59px; text-anchor:end;" transform="rotate(0, 239.427, 927.608)" x="239.427" y="927.608">0.0</text>
</g>
<g clip-path="url(#clip1300)">
<text style="fill:#000000; fill-opacity:1; font-family:Arial,Helvetica Neue,Helvetica,sans-serif; font-size:59px; text-anchor:end;" transform="rotate(0, 239.427, 584.063)" x="239.427" y="584.063">0.1</text>
</g>
<g clip-path="url(#clip1300)">
<text style="fill:#000000; fill-opacity:1; font-family:Arial,Helvetica Neue,Helvetica,sans-serif; font-size:59px; text-anchor:end;" transform="rotate(0, 239.427, 240.517)" x="239.427" y="240.517">0.2</text>
</g>
<g clip-path="url(#clip1300)">
<text style="fill:#000000; fill-opacity:1; font-family:Arial,Helvetica Neue,Helvetica,sans-serif; font-size:59px; text-anchor:middle;" transform="rotate(0, 1308.09, 1562.58)" x="1308.09" y="1562.58">Time since earthquake (hour)</text>
</g>
<g clip-path="url(#clip1300)">
<text style="fill:#000000; fill-opacity:1; font-family:Arial,Helvetica Neue,Helvetica,sans-serif; font-size:59px; text-anchor:middle;" transform="rotate(-90, 85.3819, 734.336)" x="85.3819" y="734.336">Amplitude (m)</text>
</g>
<polyline clip-path="url(#clip1302)" style="stroke:#009af9; stroke-width:4; stroke-opacity:1; fill:none" points="
  367.893,906.108 367.905,906.108 367.916,906.108 367.928,906.108 367.939,906.108 367.951,906.108 367.963,906.108 378.447,906.108 388.932,906.108 399.417,906.108 
  409.902,906.108 421.041,906.108 432.179,906.108 443.318,906.108 454.456,906.108 463.408,906.108 472.359,906.108 483.498,906.108 494.637,906.108 505.775,906.108 
  516.914,906.108 528.052,906.108 539.191,906.108 550.33,906.108 561.468,906.108 569.147,906.108 576.826,906.108 587.965,906.108 599.103,906.108 610.242,906.108 
  621.38,906.108 632.519,906.108 643.658,906.108 654.796,906.108 665.935,906.108 673.614,906.108 681.292,906.108 692.431,906.108 703.57,906.108 714.708,906.108 
  725.847,906.108 736.985,906.108 748.124,906.108 759.263,906.108 770.401,906.107 778.08,906.107 785.759,906.106 796.897,906.104 808.036,906.107 819.175,906.128 
  830.313,906.183 841.452,906.188 843.68,906.223 845.907,906.258 848.135,906.294 850.363,906.338 852.59,906.392 854.818,906.453 857.046,906.519 859.274,906.589 
  861.501,906.661 863.729,906.735 865.957,906.812 868.185,906.894 870.412,906.985 872.64,907.091 874.868,907.217 876.787,907.346 878.707,907.494 880.627,907.659 
  882.547,907.838 884.466,908.026 886.386,908.217 888.306,908.407 890.225,908.59 892.453,908.792 894.681,908.983 896.909,909.168 899.136,909.351 901.364,909.541 
  903.592,909.742 905.819,909.959 908.047,910.191 910.275,910.436 912.503,910.688 914.73,910.942 916.958,911.193 919.186,911.437 921.413,911.673 923.641,911.901 
  925.869,912.122 928.097,912.336 930.324,912.543 932.552,912.741 934.78,912.927 936.636,913.069 938.493,913.194 940.349,913.3 942.205,913.383 944.062,913.445 
  945.918,913.486 947.775,913.511 949.631,913.524 951.487,913.526 953.344,913.517 955.201,913.495 957.057,913.46 958.913,913.412 960.77,913.349 962.626,913.274 
  964.482,913.185 966.339,913.084 968.196,912.971 970.052,912.844 971.908,912.704 973.765,912.55 975.621,912.379 977.477,912.192 979.334,911.984 981.04,911.769 
  982.747,911.524 984.454,911.238 986.16,910.895 987.866,910.473 989.572,909.944 991.279,909.272 992.986,908.412 994.692,907.31 996.919,905.384 999.147,902.758 
  1001.37,899.231 1003.6,894.575 1005.83,888.534 1008.06,880.834 1010.29,871.191 1012.51,859.319 1014.74,844.944 1016.97,827.821 1019.2,807.747 1021.42,784.582 
  1023.65,758.264 1025.88,728.832 1028.11,696.43 1030.34,661.329 1032.56,623.922 1034.79,584.727 1037.02,544.372 1039.25,503.584 1041.47,463.163 1043.7,423.954 
  1045.93,386.817 1048.16,352.601 1050.38,322.134 1052.61,296.2 1054.84,275.598 1057.07,260.738 1059.3,251.815 1061.52,247.775 1063.38,247.507 1065.24,248.487 
  1067.09,250.769 1068.95,254.507 1070.81,260.154 1072.66,268.078 1074.52,278.354 1076.37,290.821 1078.23,305.389 1080.09,321.816 1081.94,339.782 1083.8,359.114 
  1085.51,377.861 1087.21,397.363 1088.92,417.496 1090.63,438.143 1092.33,459.208 1094.04,480.617 1095.75,502.321 1097.45,524.286 1099.16,546.499 1101.01,570.939 
  1102.87,595.668 1104.73,620.689 1106.58,645.998 1108.44,671.587 1110.3,697.433 1112.15,723.503 1114.01,749.748 1115.87,776.109 1117.72,802.514 1119.58,828.883 
  1121.44,855.126 1123.29,881.149 1125.15,906.853 1127,932.138 1128.86,956.905 1130.72,981.057 1132.57,1004.5 1134.43,1027.16 1136.29,1048.95 1138.14,1069.81 
  1140,1089.68 1141.86,1108.53 1143.71,1126.33 1145.57,1143.05 1147.43,1158.69 1149.28,1173.25 1151.14,1186.75 1153,1199.21 1154.85,1210.66 1156.71,1221.14 
  1158.56,1230.69 1160.42,1239.34 1162.28,1247.11 1164.13,1254.04 1165.99,1260.1 1167.85,1265.3 1169.7,1269.59 1171.56,1272.91 1173.42,1275.25 1175.27,1276.65 
  1177.13,1277.3 1178.99,1277.39 1180.84,1277.06 1182.7,1276.39 1184.55,1275.35 1186.41,1273.75 1188.27,1271.33 1190.19,1267.8 1192.11,1263.16 1194.03,1257.4 
  1195.95,1250.5 1197.87,1242.54 1199.79,1233.48 1201.7,1223.45 1203.62,1212.56 1205.48,1201.32 1207.34,1189.47 1209.19,1177.14 1211.05,1164.43 1212.91,1151.47 
  1214.76,1138.38 1216.62,1125.25 1218.48,1112.21 1220.33,1099.32 1222.19,1086.69 1224.05,1074.38 1225.9,1062.44 1227.76,1050.92 1229.61,1039.86 1231.47,1029.29 
  1233.33,1019.2 1235.8,1006.55 1237.45,998.615 1239.1,991.086 1240.75,983.968 1242.24,977.919 1243.72,972.217 1245.21,966.875 1246.69,961.908 1248.18,957.339 
  1250.41,951.283 1252.63,946.237 1254.86,942.241 1257.09,939.255 1259.32,937.181 1261.55,935.831 1263.77,935.036 1266,934.657 1268.23,934.685 1270.46,935.171 
  1272.68,936.222 1274.91,937.839 1277.14,939.968 1279.37,942.525 1281.6,945.428 1283.82,948.593 1286.05,951.927 1288.28,955.34 1290.51,958.735 1292.73,961.969 
  1294.27,964.013 1295.81,965.79 1297.34,967.289 1298.88,968.558 1300.41,969.668 1301.95,970.646 1303.48,971.492 1305.02,972.149 1306.56,972.53 1308.09,972.518 
  1310.32,971.59 1312.55,969.557 1314.77,966.519 1317,962.558 1319.23,957.78 1321.46,952.296 1323.69,946.174 1325.91,939.339 1328.14,931.608 1330.37,922.809 
  1332.6,912.852 1334.82,901.796 1337.05,889.775 1339.28,876.962 1341.51,863.499 1343.73,849.537 1345.96,835.227 1348.19,820.697 1350.42,806.075 1352.65,791.5 
  1354.87,777.118 1357.1,763.089 1359.33,749.581 1361.56,736.759 1363.78,724.769 1366.01,713.725 1368.24,703.711 1370.47,694.785 1372.7,687.017 1374.92,680.495 
  1377.15,675.293 1379.38,671.418 1381.61,668.574 1383.83,666.279 1386.06,664.32 1388.29,662.603 1390.52,661.187 1392.74,660.312 1394.97,660.303 1397.2,661.626 
  1398.74,663.375 1400.27,665.694 1401.81,668.538 1403.34,671.862 1404.88,675.625 1407.44,682.806 1410,691.06 1412.56,700.345 1414.79,709.252 1417.01,718.921 
  1419.24,729.338 1421.47,740.474 1423.7,752.288 1425.92,764.738 1428.15,777.78 1430.38,791.374 1432.61,805.419 1434.83,819.792 1437.62,838.097 1440.4,856.644 
  1443.19,875.353 1445.97,894.087 1448.76,912.636 1451.54,930.73 1454.33,948.164 1457.11,964.77 1459.9,980.451 1462.68,995.137 1465.47,1008.75 1468.25,1021.18 
  1471.04,1032.31 1473.82,1041.95 1476.6,1049.86 1479.39,1055.72 1482.17,1059.19 1484.96,1060.57 1487.74,1061.03 1490.53,1061.18 1493.31,1061.14 1496.1,1060.82 
  1498.88,1059.98 1501.67,1058.47 1504.23,1056.64 1506.79,1054.62 1509.35,1052.61 1511.9,1050.76 1514.46,1049.1 1517.02,1047.65 1519.81,1046.25 1522.59,1044.93 
  1525.38,1043.58 1528.16,1042.11 1530.95,1040.45 1533.73,1038.58 1536.52,1036.49 1539.3,1034.2 1542.09,1031.74 1544.87,1029.16 1547.65,1026.53 1550.44,1023.92 
  1553.22,1021.41 1556.01,1019.08 1558.79,1016.99 1561.58,1015.2 1564.36,1013.81 1567.15,1012.89 1569.93,1012.56 1572.72,1012.95 1575.5,1013.88 1578.29,1014.91 
  1581.07,1016.01 1583.85,1017.44 1586.64,1019.24 1589.42,1021.18 1592.21,1022.96 1594.99,1024.35 1597.78,1025.08 1600.56,1025.18 1603.35,1024.73 1606.13,1023.51 
  1608.05,1022.16 1609.97,1020.43 1611.89,1018.33 1613.81,1015.89 1615.73,1013.12 1617.65,1010 1619.57,1006.54 1621.49,1002.74 1624.28,996.66 1627.06,989.906 
  1629.84,982.549 1632.63,974.658 1635.41,966.332 1638.2,957.673 1640.98,948.795 1643.77,939.811 1646.55,930.819 1649.34,921.884 1652.12,913.03 1654.91,904.248 
  1657.69,895.512 1660.48,886.805 1663.26,878.14 1666.04,869.571 1668.83,861.205 1671.61,853.192 1674.4,845.699 1677.18,838.889 1679.97,832.879 1682.75,827.72 
  1685.54,823.379 1688.32,819.753 1691.11,816.752 1693.89,814.536 1696.68,813.353 1699.46,813.324 1702.25,813.646 1705.03,814.276 1707.81,815.529 1710.6,817.53 
  1712.52,819.348 1714.44,821.537 1716.36,824.083 1718.28,826.982 1720.84,831.37 1723.4,836.335 1725.96,841.872 1728.74,848.501 1731.53,855.639 1734.31,863.084 
  1737.1,870.639 1739.88,878.11 1742.66,885.391 1745.45,892.45 1748.23,899.205 1751.02,905.634 1753.8,911.696 1756.59,917.425 1759.37,922.902 1762.16,928.185 
  1764.94,933.294 1767.73,938.23 1770.51,942.99 1773.3,947.556 1776.08,951.89 1778.87,955.932 1781.65,959.612 1784.43,962.828 1787.22,965.351 1790,966.776 
  1792.79,966.951 1795.57,966.57 1798.36,965.677 1801.14,964.277 1803.93,962.384 1806.71,960.046 1809.5,957.363 1812.28,954.543 1815.07,951.757 1818.14,948.905 
  1821.21,946.439 1824.28,944.46 1827.35,943.133 1830.42,942.218 1833.21,941.58 1835.99,941.224 1838.78,941.247 1841.56,941.538 1844.35,941.822 1847.13,941.911 
  1849.92,941.701 1852.7,941.259 1855.49,940.647 1858.27,939.991 1861.05,939.321 1863.84,938.703 1866.62,938.249 1869.41,937.994 1872.19,937.957 1874.98,938.122 
  1877.76,938.425 1880.55,938.735 1883.33,938.859 1886.12,938.563 1888.9,937.6 1891.69,935.744 1894.47,932.956 1897.26,929.355 1900.04,925.133 1902.82,920.607 
  1905.61,916.174 1908.39,921.923 1919.53,920.846 1927.21,920.502 1934.89,919.075 1957.17,910.218 1979.44,900.452 2001.72,892.584 2024,887.845 2039.36,887.25 
  2061.63,889.451 2083.91,894.099 2106.19,900.83 2128.47,908.992 2143.82,914.745 2166.1,921.928 2188.38,927.231 2210.65,930.605 2232.93,932.283 
  "/>
<polyline clip-path="url(#clip1302)" style="stroke:#000000; stroke-width:2; stroke-opacity:1; fill:none" stroke-dasharray="8, 5" points="
  -7533.25,881.487 -7481.02,888.27 -7428.79,895.631 -7376.55,895.226 -7324.32,892.439 -7272.09,899.532 -7219.85,904.749 -7167.62,910.133 -7115.39,917.801 -7063.16,926.534 
  -7010.92,924.922 -6958.69,929.175 -6906.46,924.731 -6854.22,924.677 -6801.99,921.66 -6749.76,922.25 -6697.52,919.461 -6645.29,913.367 -6593.06,914.533 -6540.82,913.098 
  -6488.59,913.116 -6436.36,915.372 -6384.12,927.678 -6331.89,916.757 -6279.66,914.73 -6227.42,912.595 -6175.19,908.304 -6122.96,896.435 -6070.72,899.087 -6018.49,890.278 
  -5966.26,888.678 -5914.02,888.877 -5861.79,892.282 -5809.56,886.481 -5757.32,886.449 -5705.09,882.995 -5652.86,880.541 -5600.62,886.793 -5548.39,881.814 -5496.16,883.29 
  -5443.92,881.243 -5391.69,882.695 -5339.46,887.614 -5287.23,892.352 -5234.99,896.525 -5182.76,899.579 -5130.53,900.807 -5078.29,913.098 -5026.06,914.862 -4973.83,911.882 
  -4921.59,902.978 -4869.36,907.515 -4817.13,910.457 -4764.89,903.615 -4712.66,913.151 -4660.43,903.413 -4608.19,907.505 -4555.96,910.499 -4503.73,911.3 -4451.49,919.227 
  -4399.26,923.113 -4347.03,918.803 -4294.79,929.783 -4242.56,935.042 -4190.33,934.357 -4138.09,927.686 -4085.86,922.038 -4033.63,914.297 -3981.39,918.701 -3929.16,918.738 
  -3876.93,911.799 -3824.69,909.164 -3772.46,905.067 -3720.23,911.035 -3667.99,907.771 -3615.76,906.971 -3563.53,906.641 -3511.3,911.687 -3459.06,909.839 -3406.83,902.551 
  -3354.6,891.231 -3302.36,894.394 -3250.13,885.804 -3197.9,890.646 -3145.66,903.049 -3093.43,910.124 -3041.2,912.555 -2988.96,917.72 -2936.73,919.066 -2884.5,920.147 
  -2832.26,931.191 -2780.03,931.304 -2727.8,930.311 -2675.56,927.537 -2623.33,928.993 -2571.1,919.903 -2518.86,909.381 -2466.63,902.96 -2414.4,899.18 -2362.16,899.916 
  -2309.93,903.524 -2257.7,894.567 -2205.46,888.495 -2153.23,893.884 -2101,891.847 -2048.76,897.902 -1996.53,893.281 -1944.3,893.672 -1892.06,901.136 -1839.83,897.263 
  -1787.6,901.594 -1735.37,892.615 -1683.13,893.664 -1630.9,876.745 -1578.67,875.907 -1526.43,877.313 -1474.2,877.643 -1421.97,880.659 -1369.73,880.02 -1317.5,886.756 
  -1265.27,884.598 -1213.03,881.493 -1160.8,875.235 -1108.57,880.925 -1056.33,886.291 -1004.1,886.02 -951.867,898.909 -899.634,899.132 -847.4,902.096 -795.167,902.583 
  -742.934,909.076 -690.701,909.376 -638.467,908.373 -586.234,910.843 -534.001,900.818 -481.768,903.401 -429.534,912.611 -377.301,908.541 -325.068,919.194 -272.835,920.838 
  -220.601,927.334 -168.368,914.548 -116.135,923.422 -63.9018,929.429 -11.6685,925.038 40.5647,926.593 44.0469,922.197 47.5291,924.709 51.0114,927.258 
  54.4936,922.972 57.9758,922.158 61.458,924.815 64.9402,920.636 68.4224,923.364 71.9046,922.69 75.3869,922.052 78.8691,921.447 82.3513,920.876 85.8335,927.209 
  89.3157,923.269 92.7979,926.232 96.2802,925.793 99.7624,928.82 103.245,928.444 106.727,931.535 110.209,927.785 113.691,927.502 117.173,927.249 
  120.656,927.025 124.138,930.267 127.62,933.537 131.102,929.965 134.585,929.857 138.067,929.777 141.549,929.725 145.031,933.135 145.031,929.699 148.513,933.136 
  151.996,929.728 155.478,933.217 158.96,936.732 162.442,933.401 165.924,933.531 169.407,933.684 172.889,930.427 176.371,927.193 179.853,927.417 183.336,924.229 
  186.818,924.499 190.3,924.791 193.782,925.105 197.264,925.439 200.747,922.359 204.229,922.735 207.711,919.696 211.193,920.111 214.675,923.981 
  218.158,917.563 221.64,921.47 225.122,921.96 228.604,922.466 232.087,922.99 235.569,920.095 239.051,920.652 242.533,921.224 246.015,918.376 249.498,918.979 
  252.98,919.596 256.462,920.227 259.944,920.872 263.427,921.53 266.909,922.201 270.391,919.448 273.873,916.708 277.355,913.978 280.838,918.131 
  284.32,915.424 287.802,912.726 291.284,913.474 294.766,910.795 298.249,911.561 301.731,908.9 305.213,906.246 308.695,907.036 312.178,907.833 315.66,908.636 
  319.142,909.445 322.624,906.825 326.106,907.646 329.589,908.471 333.071,909.301 336.553,906.699 340.035,907.536 343.517,901.505 347,905.784 350.482,903.193 
  353.964,904.04 357.446,908.324 360.929,905.737 364.411,903.151 367.893,904.001 371.375,901.414 374.857,905.698 378.34,899.674 381.822,900.518 385.304,904.796 
  388.786,878.153 392.268,937.392 395.751,866.081 399.233,911.571 402.715,1005.15 402.715,871.171 402.715,816.203 402.715,1410.54 406.197,751.75 406.197,-86.502 
  406.197,1706.81 406.197,1689.63 406.197,-306.371 409.68,690.726 409.68,24.2472 409.68,1061.76 409.68,938.079 409.68,735.387 413.162,952.63 413.162,904.533 
  413.162,804.905 413.162,901.098 413.162,1196.55 416.644,1214.53 416.644,1087.42 420.126,761.843 423.608,920.663 427.091,825.251 430.573,990.927 434.055,823.354 
  437.537,968.4 441.02,855.777 444.502,801.547 447.984,919.08 451.466,878.571 454.948,985.776 458.431,965.858 461.913,904.702 465.395,857.276 468.877,926.643 
  472.359,868.885 475.842,845.467 479.324,931.971 482.806,925.703 486.288,936.597 489.771,854.719 493.253,899.937 496.735,907.349 500.217,921.615 503.699,812.189 
  507.182,936.356 510.664,923.087 514.146,878.88 517.628,882.752 521.11,907.218 524.593,869.826 528.075,925.172 531.557,884.304 535.039,884.642 538.522,909.007 
  542.004,909.303 545.486,882.093 548.968,913.264 552.45,892.881 555.933,879.346 559.415,913.884 562.897,893.431 566.379,886.695 569.861,890.242 573.344,924.683 
  576.826,897.261 580.308,893.862 583.79,911.049 587.273,886.985 590.755,904.119 594.237,876.566 597.719,893.646 601.201,896.957 604.684,910.546 608.166,882.881 
  611.648,903.284 615.13,892.738 618.613,892.47 622.095,888.736 625.577,912.456 629.059,881.178 632.541,918.578 636.024,883.802 639.506,890.221 642.988,896.608 
  646.47,902.962 649.952,892.107 653.435,901.831 656.917,897.781 660.399,904.004 663.881,896.451 667.364,899.17 670.846,905.291 674.328,901.07 677.81,896.814 
  681.292,899.394 684.775,912.245 688.257,894.141 691.739,900.049 695.221,905.92 698.703,894.578 702.186,903.811 705.668,902.7 709.15,901.552 712.632,900.366 
  716.115,916.32 719.597,884.138 723.079,927.498 726.561,902.109 730.043,897.295 733.526,889.005 737.008,915.031 740.49,910.097 743.972,922.3 747.454,913.85 
  750.937,915.666 754.419,914.006 757.901,895.127 761.383,907.126 764.866,908.777 768.348,934.435 771.83,891.341 775.312,913.479 778.794,914.961 782.277,906.095 
  785.759,907.492 789.241,905.411 792.723,906.721 796.206,911.424 799.688,922.954 803.17,913.828 806.652,904.657 810.134,916.055 813.617,913.667 817.099,914.67 
  820.581,905.322 824.063,919.977 827.545,910.539 831.028,911.362 834.51,901.834 837.992,909.437 841.474,913.559 844.957,910.765 848.439,907.924 851.921,908.473 
  855.403,898.67 858.885,916.303 862.368,896.101 865.85,899.9 869.332,910.523 872.814,903.922 876.296,911.016 879.779,900.886 883.261,907.886 886.743,907.968 
  890.225,911.439 893.708,904.555 897.19,904.495 900.672,911.258 904.154,904.232 907.636,900.594 911.119,907.214 914.601,910.351 918.083,892.827 921.565,902.74 
  925.047,905.733 928.53,901.807 932.012,908.14 935.494,910.988 938.976,903.483 942.459,913.106 945.941,905.504 949.423,911.596 952.905,903.897 956.387,906.457 
  959.87,905.533 963.352,901.125 966.834,903.539 970.316,905.906 973.799,901.353 977.281,907.058 980.763,902.408 984.245,914.888 987.727,906.706 991.21,912.218 
  994.692,910.811 998.174,916.226 1001.66,914.723 1005.14,920.042 1008.62,918.443 1012.1,923.666 1015.59,918.535 1019.07,909.92 1022.55,887.516 1026.03,847.886 
  1029.51,780.725 1033,696.34 1036.48,570.681 1036.48,519.149 1039.96,420.926 1039.96,479.329 1039.96,441.539 1039.96,403.749 1039.96,362.524 1043.44,274.56 
  1043.44,329.527 1043.44,291.737 1043.44,253.947 1043.44,226.463 1046.93,155.63 1046.93,193.42 1046.93,162.501 1046.93,141.888 1046.93,124.71 1050.41,101.926 
  1050.41,98.4903 1050.41,101.926 1053.89,123.755 1057.37,200.504 1060.85,332.174 1064.34,477.538 1067.82,602.244 1071.3,699.418 1074.78,758.757 
  1078.26,769.952 1081.75,739.876 1085.23,689.141 1088.71,686.456 1092.19,724.951 1095.68,770.271 1099.16,736.53 1102.64,661.518 1106.12,607.073 1109.6,624.728 
  1113.09,652.644 1116.57,635.855 1120.05,639.633 1123.53,732.689 1127.02,829.136 1130.5,808.734 1133.98,760.804 1137.46,839.942 1140.94,1046.15 1144.43,1108.02 
  1147.91,998.08 1151.39,894.966 1154.87,915.486 1158.36,929.092 1161.84,887.688 1165.32,904.645 1168.8,969.657 1172.28,959.047 1175.77,955.266 1179.25,1085.43 
  1182.73,1239.6 1186.21,1232.26 1189.7,1114.94 1193.18,1097.22 1196.66,1172.21 1200.14,1223.11 1203.62,1222.44 1207.11,1146.15 1210.59,1011.42 1214.07,900.705 
  1217.55,882.704 1221.04,933.374 1224.52,1004.62 1228,1089.57 1231.48,1047.37 1234.96,932.987 1238.45,997.212 1241.93,1140.42 1245.41,1067.15 1248.89,932.011 
  1252.38,1009.83 1255.86,1194.12 1259.34,1192.86 1262.82,1016.35 1266.3,963.489 1269.79,999.913 1273.27,964.159 1276.75,1069.23 1280.23,1188 1283.72,1090.31 
  1287.2,1102.52 1290.68,1197.15 1294.16,1061.57 1297.64,1004.98 1301.13,1078.9 1304.61,1032.55 1308.09,1030.84 1311.57,1029.09 1315.06,989.52 1318.54,970.536 
  1322.02,893.12 1325.5,822.547 1328.98,827.525 1332.47,794.686 1335.95,710.288 1339.43,725.49 1342.91,682.264 1346.4,625.269 1349.88,781.246 1353.36,837.57 
  1356.84,842.337 1360.32,867.692 1363.81,855.233 1367.29,959.555 1370.77,957.354 1374.25,924.211 1377.74,925.4 1381.22,847.551 1384.7,896.792 1388.18,849.819 
  1391.66,833.744 1395.15,886.357 1398.63,835.886 1402.11,823.186 1405.59,762.369 1409.08,756.501 1412.56,795.275 1416.04,741.274 1419.52,773.141 1423,763.766 
  1426.49,706.277 1429.97,762.142 1433.45,800.814 1436.93,863.518 1440.42,840.321 1443.9,775.883 1447.38,797.318 1450.86,822.174 1454.34,929.468 1457.83,923.379 
  1461.31,944.761 1464.79,990.179 1468.27,1049.33 1471.76,1125.64 1475.24,1119.5 1478.72,1154.56 1482.2,1076.25 1485.68,1046.03 1489.17,995.182 1492.65,923.715 
  1496.13,931.256 1499.61,849.467 1503.1,867.3 1506.58,864.513 1510.06,975.09 1513.54,1027.26 1517.02,948.876 1520.51,915.149 1523.99,874.547 1527.47,930.134 
  1530.95,934.186 1534.44,972.59 1537.92,990.378 1541.4,1035.65 1544.88,943.5 1548.36,995.639 1551.85,1016.86 1555.33,1000.29 1558.81,1059.3 1562.29,1035.86 
  1565.78,1002.12 1569.26,1047.39 1572.74,1034.26 1576.22,983.351 1579.7,942.747 1583.19,909.018 1586.67,954.31 1590.15,961.816 1593.63,996.811 1597.12,1014.63 
  1600.6,932.837 1604.08,923.191 1607.56,937.6 1611.04,842.082 1614.53,866.814 1618.01,860.635 1621.49,864.773 1624.97,776.162 1628.46,835.287 1631.94,877.245 
  1635.42,874.554 1638.9,961.196 1642.38,924.174 1645.87,894.035 1649.35,905.136 1652.83,899.072 1656.31,903.329 1659.79,893.86 1663.28,949.678 1666.76,919.627 
  1670.24,923.945 1673.72,966.071 1677.21,918.891 1680.69,851.117 1684.17,800.538 1687.65,856.476 1691.13,854.031 1694.62,824.121 1698.1,777.054 1701.58,791.846 
  1705.06,830.707 1708.55,866.154 1712.03,860.397 1715.51,885.582 1718.99,914.225 1722.47,953.197 1725.96,957.839 1729.44,945.328 1732.92,939.712 1736.4,910.073 
  1739.89,894.202 1743.37,974.549 1746.85,962.166 1750.33,1035.7 1753.81,978.706 1757.3,1021.37 1760.78,1009.1 1764.26,972.808 1767.74,895.32 1771.23,962.151 
  1774.71,987.786 1778.19,982.533 1781.67,967.005 1785.15,941.202 1788.64,953.221 1792.12,913.74 1795.6,946.437 1799.08,968.861 1802.57,987.883 1806.05,993.198 
  1809.53,1001.98 1813.01,976.447 1816.49,1002.48 1819.98,1021.68 1823.46,1016.86 1826.94,1005.21 1830.42,993.602 1833.91,975.157 1837.39,970.492 1840.87,952.124 
  1844.35,961.278 1847.83,1025.44 1851.32,1044.98 1854.8,1033.64 1858.28,957.066 1861.76,969.856 1865.25,1003.3 1868.73,971.512 1872.21,936.33 1875.69,880.579 
  1879.17,883.273 1882.66,920.365 1886.14,840.694 1889.62,771.375 1893.1,794.857 1896.59,842.432 1900.07,862.568 1903.55,889.621 1907.03,947.639 1910.51,961.042 
  1914,957.315 1917.48,908.974 1920.96,870.986 1924.44,867.401 1927.93,925.701 1931.41,977.18 1934.89,959.998 1938.37,911.946 1941.85,863.943 1945.34,867.522 
  1948.82,864.281 1952.3,843.912 1955.78,827.03 1959.27,834.246 1962.75,834.644 1966.23,838.528 1969.71,852.771 1973.19,843.019 1976.68,847.06 1980.16,837.413 
  1983.64,838.126 1987.12,835.456 1990.61,839.712 1994.09,868.069 1997.57,848.385 2001.05,845.933 2004.53,871.02 2008.02,909.903 2011.5,852.65 2014.98,881.339 
  2018.46,872.294 2021.95,842.692 2025.43,868.115 2028.91,842.062 2032.39,840.115 2035.87,803.871 2039.36,846.7 2042.84,841.49 2046.32,822.597 2049.8,838.117 
  2053.29,846.824 2056.77,855.59 2060.25,891.899 2063.73,880.171 2067.21,868.503 2070.7,836.281 2074.18,810.99 2077.66,844.162 2081.14,849.911 2084.63,859.156 
  2088.11,847.848 2091.59,860.65 2095.07,873.513 2098.55,876.131 2102.04,844.456 2105.52,854.068 2109,839.694 2112.48,801.333 2115.97,824.873 2119.45,841.604 
  2122.93,841.22 2126.41,840.899 2129.89,861.253 2133.38,912.589 2136.86,939.94 2140.34,957.048 2143.82,946.736 2147.31,933.051 2150.79,933.172 2154.27,943.663 
  2157.75,937.041 2161.23,933.917 2164.72,965.213 2168.2,993.137 2171.68,1021.12 2175.16,1042.31 2178.65,1022.33 2182.13,1050.51 2185.61,1037.53 2189.09,1007.44 
  2192.57,1008.33 2196.06,1033.33 2199.54,1075.58 2203.02,1073.23 2206.5,1057.2 2209.99,1048.11 2213.47,1059.7 2216.95,1061.04 2220.43,1048.71 2223.91,1050.19 
  2227.4,1068.9 2230.88,1077.38 2234.36,1092.79 2237.84,1108.27 2241.33,1058.54 2244.81,1039.8 2248.29,1021.11 2251.77,1023.11 2255.25,1025.17 2258.74,1030.74 
  2262.22,998.575 2265.7,990.527 2269.18,931.011 2272.66,916.222 2276.15,942.723 2279.63,934.935 2283.11,965.002 2286.59,984.827 2290.08,977.233 2293.56,976.575 
  2297.04,931.321 2300.52,941.099 2304,930.329 2307.49,923.059 2310.97,919.289 2314.45,939.631 2317.93,915.377 2321.42,867.139 2324.9,891.109 2328.38,901.402 
  2331.86,918.63 2335.34,929.05 2338.83,918.921 2342.31,936.34 2345.79,912.597 2349.27,919.836 2352.76,916.831 2356.24,913.89 2359.72,911.012 2363.2,897.89 
  2366.68,877.96 2370.17,889.012 2373.65,889.82 2377.13,883.818 2380.61,901.927 2384.1,913.227 2387.58,890.234 2391.06,870.738 2394.54,902.836 2398.02,931.558 
  2401.51,912.246 2404.99,889.558 2408.47,880.673 2411.95,913.074 2415.44,887.133 2418.92,888.734 2422.4,917.88 2425.88,933.342 2429.36,897.333 2432.85,892.301 
  2436.33,901.07 2439.81,892.72 2443.29,894.735 2446.78,859.019 2450.26,861.15 2453.74,866.774 2457.22,858.713 2460.7,857.581 2464.19,842.763 2467.67,869.228 
  2471.15,851.088 2474.63,846.745 2478.12,856.201 2481.6,858.841 2485.08,899.326 2488.56,926.124 2492.04,928.928 2495.53,921.48 2499.01,934.7 2502.49,947.972 
  2505.97,937.25 2509.46,940.323 2512.94,933.142 2516.42,970.674 2519.9,963.598 2523.38,932.525 2526.87,928.988 2530.35,970.162 2533.83,1001.08 2537.31,990.824 
  2540.8,987.489 2544.28,963.59 2547.76,998.144 2551.24,1022.44 2554.72,1026.17 2558.21,988.727 2561.69,954.766 2565.17,955.206 2568.65,938.517 2572.14,966.535 
  2575.62,987.728 2579.1,1026.15 2582.58,995.899 2586.06,969.133 2589.55,966.46 2593.03,1005.06 2596.51,1036.83 2599.99,1023.98 2603.48,997.435 2606.96,964.061 
  2610.44,941.036 2613.92,973.021 2617.4,953.515 2620.89,930.615 2624.37,928.369 2627.85,967.388 2631.33,978.963 2634.82,963.095 2638.3,991.926 2641.78,1010.49 
  2645.26,1049.7 2648.74,1020.25 2652.23,939.295 2655.71,896.171 2659.19,884.001 2662.67,878.739 2666.16,873.512 2669.64,899.239 2673.12,935.307 2676.6,940.489 
  2680.08,925.093 2683.57,899.424 2687.05,863.48 2690.53,868.795 2694.01,856.963 2697.5,862.341 2700.98,850.571 2704.46,849.139 2707.94,840.865 2711.42,846.362 
  2714.91,831.275 2718.39,843.701 2721.87,821.799 2725.35,817.102 2728.84,808.996 2732.32,835.271 2735.8,871.879 2739.28,901.641 2742.76,886.766 2746.25,885.658 
  2749.73,870.831 2753.21,856.028 2756.69,858.425 2760.18,895.198 2763.66,894.204 2767.14,896.665 2770.62,926.632 2774.1,922.263 2777.59,935.092 2781.07,982.294 
  2784.55,998.596 2788.03,970.254 2791.52,945.366 2795,951.414 2798.48,943.736 2801.96,939.509 2805.44,952.476 2808.93,975.763 2812.41,975.017 2815.89,970.848 
  2819.37,932.339 2822.86,935.067 2826.34,951.549 2829.82,985.221 2833.3,994.855 2836.78,956.403 2840.27,917.961 2843.75,917.318 2847.23,937.297 2850.71,898.881 
  2854.19,874.215 2857.68,901.088 2861.16,890.178 2864.64,893.015 2868.12,864.939 2871.61,843.738 2875.09,825.978 2878.57,846.011 2882.05,848.87 2885.53,848.297 
  2889.02,840.855 2892.5,826.543 2895.98,815.668 2899.46,846.019 2902.95,879.806 2906.43,879.237 2909.91,888.973 2913.39,888.401 2916.87,915.311 2920.36,890.685 
  2923.84,890.105 2927.32,899.827 2930.8,906.109 2934.29,905.515 2937.77,918.657 2941.25,918.051 2944.73,941.486 2948.21,940.866 2951.7,916.19 2955.18,894.941 
  2958.66,883.989 2962.14,886.769 2965.63,875.798 2969.11,861.38 2972.59,843.516 2976.07,853.123 2979.55,859.283 2983.04,858.558 2986.52,881.869 2990,891.423 
  2993.48,904.399 2996.97,927.666 3000.45,964.658 3003.93,943.232 3007.41,897.741 3010.89,896.894 3014.38,899.464 3017.86,867.661 3021.34,856.452 3024.82,865.836 
  3028.31,847.716 3031.79,853.624 3035.27,856.075 3038.75,885.989 3042.23,912.444 3045.72,887.345 3049.2,886.271 3052.68,902.35 3056.16,911.535 3059.65,893.21 
  3063.13,916.086 3066.61,935.5 3070.09,910.226 3073.57,867.749 3077.06,907.694 3080.54,961.354 3084.02,922.228 3087.5,920.862 3090.99,950.386 3094.47,942.09 
  3097.95,923.457 3101.43,915.099 3104.91,941.063 3108.4,953.254 3111.88,931.058 3115.36,888.215 3118.84,893.436 3122.33,915.799 3125.81,920.95 3129.29,908.889 
  3132.77,900.227 3136.25,891.53 3139.74,879.36 3143.22,887.766 3146.7,899.569 3150.18,914.77 3153.67,926.497 3157.15,945.055 3160.63,932.655 3164.11,906.473 
  3167.59,911.169 3171.08,919.26 3174.56,920.439 3178.04,942.188 3181.52,953.588 3185.01,934.027 3188.49,941.905 3191.97,935.999 3195.45,950.66 3198.93,975.584 
  3202.42,935.188 3205.9,929.102 3209.38,916.098 3212.86,916.79 3216.35,927.742 3219.83,948.952 3223.31,932.325 3226.79,901.908 3230.27,895.49 3233.76,906.201 
  3237.24,899.684 3240.72,899.989 3244.2,869.325 3247.69,866.093 3251.17,862.811 3254.65,852.606 3258.13,852.655 3261.61,862.959 3265.1,900.693 3268.58,879.972 
  3272.06,883.245 3275.54,879.594 3279.03,893.066 3282.51,923.661 3285.99,906.104 3289.47,874.75 3292.95,867.388 3296.44,853.1 3299.92,862.803 3303.4,875.885 
  3306.88,885.475 3310.37,905.313 3313.85,901.046 3317.33,907.027 3320.81,916.384 3324.29,908.506 3327.78,890.262 3331.26,868.523 3334.74,891.385 3338.22,907.317 
  3341.71,923.187 3345.19,904.643 3348.67,879.167 3352.15,867.371 3355.63,882.997 3359.12,895.126 3362.6,914.063 3366.08,946.68 3369.56,972.363 3373.05,977.37 
  3376.53,937.653 3380.01,921.921 3383.49,933.608 3386.97,965.844 3390.46,963.661 3393.94,957.978 3397.42,983.149 3400.9,994.513 3404.39,988.635 3407.87,968.949 
  3411.35,952.633 3414.83,953.427 3418.31,947.285 3421.8,944.511 3425.28,924.494 3428.76,935.329 3432.24,949.531 3435.72,939.619 3439.21,915.897 3442.69,902.413 
  3446.17,909.474 3449.65,933.645 3453.14,902.78 3456.62,885.588 3460.1,878.633 3463.58,912.836 3467.06,940.098 3470.55,943.243 3474.03,949.755 3477.51,949.325 
  3480.99,952.262 3484.48,941.387 3487.96,930.442 3491.44,929.734 3494.92,922.084 3498.4,924.67 3501.89,916.88 3505.37,881.535 3508.85,890.781 3512.33,893.085 
  3515.82,888.447 3519.3,897.48 3522.78,861.782 3526.26,863.802 3529.74,900.105 3533.23,915.724 3536.71,920.966 3540.19,898.652 3543.67,879.702 3547.16,874.423 
  3550.64,879.378 3554.12,884.262 3557.6,875.332 3561.08,866.33 3564.57,870.999 3568.05,885.901 3571.53,876.684 3575.01,853.653 3578.5,868.34 3581.98,889.826 
  3585.46,914.676 3588.94,925.711 3644.66,934.477 3696.89,950.592 3749.12,930.414 3801.36,891.703 3853.59,855.871 3905.82,896.061 3958.06,903.522 4010.29,869.3 
  4062.52,949.485 4114.76,925.827 4166.99,937.458 4219.22,903.711 4271.46,871.072 4323.69,913.525 4375.92,898.91 4428.16,908.022 4480.39,952.876 4532.62,866.743 
  4584.86,943.126 4637.09,884.482 4689.32,898.115 4741.56,871.651 4793.79,853.98 4846.02,849.124 4898.26,908.986 4950.49,848.197 5002.72,855.632 5054.96,903.511 
  5107.19,1025.68 5159.42,908.795 5211.65,871.45 5263.89,885.081 5316.12,914.093 5368.35,909.02 5420.59,909.601 5472.82,845.557 5525.05,876.724 5577.29,846.846 
  5629.52,898.547 5681.75,920.25 5733.99,893.192 5786.22,912.055 5838.45,934.212 5890.69,913.726 5942.92,955.972 5995.15,926.014 6047.39,881.488 6099.62,918.018 
  6151.85,887.522 6204.09,896.36 6256.32,937.739 6308.55,871.105 6360.79,903.101 6413.02,927.947 6465.25,884.726 6517.49,905.085 6569.72,900.967 6621.95,884.089 
  6674.19,917.82 6726.42,893.855 6778.65,985.664 6830.89,906.411 6883.12,963.608 6935.35,904.773 6987.58,879.327 7039.82,926.686 7092.05,938.444 7144.28,922.873 
  7196.52,833.13 7248.75,842.073 7300.98,947.16 7353.22,857.067 7405.45,963.907 7457.68,951.864 7509.92,903.4 7562.15,917.92 7614.38,905.646 7666.62,900.247 
  7718.85,900.821 7771.08,858.163 7823.32,932.438 7875.55,871.39 7927.78,924.185 7980.02,920.741 8032.25,914.183 8084.48,933.514 8136.72,901.2 8188.95,877.111 
  8241.18,893.655 8293.42,887.094 8345.65,917.446 8397.88,876.501 8450.12,931.018 8502.35,952.464 8554.58,929.297 8606.82,874.221 8659.05,954.755 8711.28,871.429 
  8763.51,939.958 8815.75,871.665 8867.98,907.186 8920.21,936.984 8972.45,910.173 9024.68,903.21 9076.91,906.887 9129.15,901.898 9181.38,879.429 9233.61,854.877 
  9285.85,885.008 9338.08,947.685 9390.31,869.696 9442.55,921.06 9494.78,932.085 9547.01,880.796 9599.25,896.348 9651.48,863.91 9703.71,874.688 9755.95,954.494 
  9808.18,933.175 9860.41,928.989 
  "/>
<path clip-path="url(#clip1300)" d="
M1430.66 372.684 L2280.76 372.684 L2280.76 100.524 L1430.66 100.524  Z
  " fill="#ffffff" fill-rule="evenodd" fill-opacity="1"/>
<polyline clip-path="url(#clip1300)" style="stroke:#000000; stroke-width:4; stroke-opacity:1; fill:none" points="
  1430.66,372.684 2280.76,372.684 2280.76,100.524 1430.66,100.524 1430.66,372.684 
  "/>
<polyline clip-path="url(#clip1300)" style="stroke:#009af9; stroke-width:4; stroke-opacity:1; fill:none" points="
  1454.66,191.244 1598.66,191.244 
  "/>
<g clip-path="url(#clip1300)">
<text style="fill:#000000; fill-opacity:1; font-family:Arial,Helvetica Neue,Helvetica,sans-serif; font-size:71px; text-anchor:start;" transform="rotate(0, 1622.66, 217.244)" x="1622.66" y="217.244">Gauge 32412</text>
</g>
<polyline clip-path="url(#clip1300)" style="stroke:#000000; stroke-width:2; stroke-opacity:1; fill:none" stroke-dasharray="8, 5" points="
  1454.66,281.964 1598.66,281.964 
  "/>
<g clip-path="url(#clip1300)">
<text style="fill:#000000; fill-opacity:1; font-family:Arial,Helvetica Neue,Helvetica,sans-serif; font-size:71px; text-anchor:start;" transform="rotate(0, 1622.66, 307.964)" x="1622.66" y="307.964">Gauge 32412 Obs.</text>
</g>
</svg>
