<?xml version="1.0" encoding="utf-8" standalone="no"?>
<!DOCTYPE svg PUBLIC "-//W3C//DTD SVG 1.1//EN"
  "http://www.w3.org/Graphics/SVG/1.1/DTD/svg11.dtd">
<!-- Created with matplotlib (https://matplotlib.org/) -->
<svg height="288pt" version="1.1" viewBox="0 0 432 288" width="432pt" xmlns="http://www.w3.org/2000/svg" xmlns:xlink="http://www.w3.org/1999/xlink">
 <defs>
  <style type="text/css">
*{stroke-linecap:butt;stroke-linejoin:round;}
  </style>
 </defs>
 <g id="figure_1">
  <g id="patch_1">
   <path d="M 0 288 
L 432 288 
L 432 0 
L 0 0 
z
" style="fill:#ffffff;"/>
  </g>
  <g id="axes_1">
   <g id="patch_2">
    <path d="M 26.804646 257.505354 
L 422.865354 257.505354 
L 422.865354 6.794646 
L 26.804646 6.794646 
z
" style="fill:#ffffff;"/>
   </g>
   <g id="matplotlib.axis_1">
    <g id="xtick_1">
     <g id="line2d_1">
      <path clip-path="url(#p739dc770a3)" d="M 26.804646 257.505354 
L 26.804646 6.794646 
" style="fill:none;stroke:#000000;stroke-linecap:square;stroke-opacity:0.1;stroke-width:0.5;"/>
     </g>
     <g id="line2d_2">
      <defs>
       <path d="M 0 0 
L 0 -3.5 
" id="m827e263108" style="stroke:#000000;stroke-width:0.8;"/>
      </defs>
      <g>
       <use style="stroke:#000000;stroke-width:0.8;" x="26.804646" xlink:href="#m827e263108" y="257.505354"/>
      </g>
     </g>
     <g id="text_1">
      <!-- -72 -->
      <defs>
       <path d="M 4.890625 31.390625 
L 31.203125 31.390625 
L 31.203125 23.390625 
L 4.890625 23.390625 
z
" id="DejaVuSans-45"/>
       <path d="M 8.203125 72.90625 
L 55.078125 72.90625 
L 55.078125 68.703125 
L 28.609375 0 
L 18.3125 0 
L 43.21875 64.59375 
L 8.203125 64.59375 
z
" id="DejaVuSans-55"/>
       <path d="M 19.1875 8.296875 
L 53.609375 8.296875 
L 53.609375 0 
L 7.328125 0 
L 7.328125 8.296875 
Q 12.9375 14.109375 22.625 23.890625 
Q 32.328125 33.6875 34.8125 36.53125 
Q 39.546875 41.84375 41.421875 45.53125 
Q 43.3125 49.21875 43.3125 52.78125 
Q 43.3125 58.59375 39.234375 62.25 
Q 35.15625 65.921875 28.609375 65.921875 
Q 23.96875 65.921875 18.8125 64.3125 
Q 13.671875 62.703125 7.8125 59.421875 
L 7.8125 69.390625 
Q 13.765625 71.78125 18.9375 73 
Q 24.125 74.21875 28.421875 74.21875 
Q 39.75 74.21875 46.484375 68.546875 
Q 53.21875 62.890625 53.21875 53.421875 
Q 53.21875 48.921875 51.53125 44.890625 
Q 49.859375 40.875 45.40625 35.40625 
Q 44.1875 33.984375 37.640625 27.21875 
Q 31.109375 20.453125 19.1875 8.296875 
z
" id="DejaVuSans-50"/>
      </defs>
      <g transform="translate(18.638239 268.603792)scale(0.1 -0.1)">
       <use xlink:href="#DejaVuSans-45"/>
       <use x="36.083984" xlink:href="#DejaVuSans-55"/>
       <use x="99.707031" xlink:href="#DejaVuSans-50"/>
      </g>
     </g>
    </g>
    <g id="xtick_2">
     <g id="line2d_3">
      <path clip-path="url(#p739dc770a3)" d="M 76.312234 257.505354 
L 76.312234 6.794646 
" style="fill:none;stroke:#000000;stroke-linecap:square;stroke-opacity:0.1;stroke-width:0.5;"/>
     </g>
     <g id="line2d_4">
      <g>
       <use style="stroke:#000000;stroke-width:0.8;" x="76.312234" xlink:href="#m827e263108" y="257.505354"/>
      </g>
     </g>
     <g id="text_2">
      <!-- -60 -->
      <defs>
       <path d="M 33.015625 40.375 
Q 26.375 40.375 22.484375 35.828125 
Q 18.609375 31.296875 18.609375 23.390625 
Q 18.609375 15.53125 22.484375 10.953125 
Q 26.375 6.390625 33.015625 6.390625 
Q 39.65625 6.390625 43.53125 10.953125 
Q 47.40625 15.53125 47.40625 23.390625 
Q 47.40625 31.296875 43.53125 35.828125 
Q 39.65625 40.375 33.015625 40.375 
z
M 52.59375 71.296875 
L 52.59375 62.3125 
Q 48.875 64.0625 45.09375 64.984375 
Q 41.3125 65.921875 37.59375 65.921875 
Q 27.828125 65.921875 22.671875 59.328125 
Q 17.53125 52.734375 16.796875 39.40625 
Q 19.671875 43.65625 24.015625 45.921875 
Q 28.375 48.1875 33.59375 48.1875 
Q 44.578125 48.1875 50.953125 41.515625 
Q 57.328125 34.859375 57.328125 23.390625 
Q 57.328125 12.15625 50.6875 5.359375 
Q 44.046875 -1.421875 33.015625 -1.421875 
Q 20.359375 -1.421875 13.671875 8.265625 
Q 6.984375 17.96875 6.984375 36.375 
Q 6.984375 53.65625 15.1875 63.9375 
Q 23.390625 74.21875 37.203125 74.21875 
Q 40.921875 74.21875 44.703125 73.484375 
Q 48.484375 72.75 52.59375 71.296875 
z
" id="DejaVuSans-54"/>
       <path d="M 31.78125 66.40625 
Q 24.171875 66.40625 20.328125 58.90625 
Q 16.5 51.421875 16.5 36.375 
Q 16.5 21.390625 20.328125 13.890625 
Q 24.171875 6.390625 31.78125 6.390625 
Q 39.453125 6.390625 43.28125 13.890625 
Q 47.125 21.390625 47.125 36.375 
Q 47.125 51.421875 43.28125 58.90625 
Q 39.453125 66.40625 31.78125 66.40625 
z
M 31.78125 74.21875 
Q 44.046875 74.21875 50.515625 64.515625 
Q 56.984375 54.828125 56.984375 36.375 
Q 56.984375 17.96875 50.515625 8.265625 
Q 44.046875 -1.421875 31.78125 -1.421875 
Q 19.53125 -1.421875 13.0625 8.265625 
Q 6.59375 17.96875 6.59375 36.375 
Q 6.59375 54.828125 13.0625 64.515625 
Q 19.53125 74.21875 31.78125 74.21875 
z
" id="DejaVuSans-48"/>
      </defs>
      <g transform="translate(68.145828 268.603792)scale(0.1 -0.1)">
       <use xlink:href="#DejaVuSans-45"/>
       <use x="36.083984" xlink:href="#DejaVuSans-54"/>
       <use x="99.707031" xlink:href="#DejaVuSans-48"/>
      </g>
     </g>
    </g>
    <g id="xtick_3">
     <g id="line2d_5">
      <path clip-path="url(#p739dc770a3)" d="M 125.819823 257.505354 
L 125.819823 6.794646 
" style="fill:none;stroke:#000000;stroke-linecap:square;stroke-opacity:0.1;stroke-width:0.5;"/>
     </g>
     <g id="line2d_6">
      <g>
       <use style="stroke:#000000;stroke-width:0.8;" x="125.819823" xlink:href="#m827e263108" y="257.505354"/>
      </g>
     </g>
     <g id="text_3">
      <!-- -48 -->
      <defs>
       <path d="M 37.796875 64.3125 
L 12.890625 25.390625 
L 37.796875 25.390625 
z
M 35.203125 72.90625 
L 47.609375 72.90625 
L 47.609375 25.390625 
L 58.015625 25.390625 
L 58.015625 17.1875 
L 47.609375 17.1875 
L 47.609375 0 
L 37.796875 0 
L 37.796875 17.1875 
L 4.890625 17.1875 
L 4.890625 26.703125 
z
" id="DejaVuSans-52"/>
       <path d="M 31.78125 34.625 
Q 24.75 34.625 20.71875 30.859375 
Q 16.703125 27.09375 16.703125 20.515625 
Q 16.703125 13.921875 20.71875 10.15625 
Q 24.75 6.390625 31.78125 6.390625 
Q 38.8125 6.390625 42.859375 10.171875 
Q 46.921875 13.96875 46.921875 20.515625 
Q 46.921875 27.09375 42.890625 30.859375 
Q 38.875 34.625 31.78125 34.625 
z
M 21.921875 38.8125 
Q 15.578125 40.375 12.03125 44.71875 
Q 8.5 49.078125 8.5 55.328125 
Q 8.5 64.0625 14.71875 69.140625 
Q 20.953125 74.21875 31.78125 74.21875 
Q 42.671875 74.21875 48.875 69.140625 
Q 55.078125 64.0625 55.078125 55.328125 
Q 55.078125 49.078125 51.53125 44.71875 
Q 48 40.375 41.703125 38.8125 
Q 48.828125 37.15625 52.796875 32.3125 
Q 56.78125 27.484375 56.78125 20.515625 
Q 56.78125 9.90625 50.3125 4.234375 
Q 43.84375 -1.421875 31.78125 -1.421875 
Q 19.734375 -1.421875 13.25 4.234375 
Q 6.78125 9.90625 6.78125 20.515625 
Q 6.78125 27.484375 10.78125 32.3125 
Q 14.796875 37.15625 21.921875 38.8125 
z
M 18.3125 54.390625 
Q 18.3125 48.734375 21.84375 45.5625 
Q 25.390625 42.390625 31.78125 42.390625 
Q 38.140625 42.390625 41.71875 45.5625 
Q 45.3125 48.734375 45.3125 54.390625 
Q 45.3125 60.0625 41.71875 63.234375 
Q 38.140625 66.40625 31.78125 66.40625 
Q 25.390625 66.40625 21.84375 63.234375 
Q 18.3125 60.0625 18.3125 54.390625 
z
" id="DejaVuSans-56"/>
      </defs>
      <g transform="translate(117.653417 268.603792)scale(0.1 -0.1)">
       <use xlink:href="#DejaVuSans-45"/>
       <use x="36.083984" xlink:href="#DejaVuSans-52"/>
       <use x="99.707031" xlink:href="#DejaVuSans-56"/>
      </g>
     </g>
    </g>
    <g id="xtick_4">
     <g id="line2d_7">
      <path clip-path="url(#p739dc770a3)" d="M 175.327411 257.505354 
L 175.327411 6.794646 
" style="fill:none;stroke:#000000;stroke-linecap:square;stroke-opacity:0.1;stroke-width:0.5;"/>
     </g>
     <g id="line2d_8">
      <g>
       <use style="stroke:#000000;stroke-width:0.8;" x="175.327411" xlink:href="#m827e263108" y="257.505354"/>
      </g>
     </g>
     <g id="text_4">
      <!-- -36 -->
      <defs>
       <path d="M 40.578125 39.3125 
Q 47.65625 37.796875 51.625 33 
Q 55.609375 28.21875 55.609375 21.1875 
Q 55.609375 10.40625 48.1875 4.484375 
Q 40.765625 -1.421875 27.09375 -1.421875 
Q 22.515625 -1.421875 17.65625 -0.515625 
Q 12.796875 0.390625 7.625 2.203125 
L 7.625 11.71875 
Q 11.71875 9.328125 16.59375 8.109375 
Q 21.484375 6.890625 26.8125 6.890625 
Q 36.078125 6.890625 40.9375 10.546875 
Q 45.796875 14.203125 45.796875 21.1875 
Q 45.796875 27.640625 41.28125 31.265625 
Q 36.765625 34.90625 28.71875 34.90625 
L 20.21875 34.90625 
L 20.21875 43.015625 
L 29.109375 43.015625 
Q 36.375 43.015625 40.234375 45.921875 
Q 44.09375 48.828125 44.09375 54.296875 
Q 44.09375 59.90625 40.109375 62.90625 
Q 36.140625 65.921875 28.71875 65.921875 
Q 24.65625 65.921875 20.015625 65.03125 
Q 15.375 64.15625 9.8125 62.3125 
L 9.8125 71.09375 
Q 15.4375 72.65625 20.34375 73.4375 
Q 25.25 74.21875 29.59375 74.21875 
Q 40.828125 74.21875 47.359375 69.109375 
Q 53.90625 64.015625 53.90625 55.328125 
Q 53.90625 49.265625 50.4375 45.09375 
Q 46.96875 40.921875 40.578125 39.3125 
z
" id="DejaVuSans-51"/>
      </defs>
      <g transform="translate(167.161005 268.603792)scale(0.1 -0.1)">
       <use xlink:href="#DejaVuSans-45"/>
       <use x="36.083984" xlink:href="#DejaVuSans-51"/>
       <use x="99.707031" xlink:href="#DejaVuSans-54"/>
      </g>
     </g>
    </g>
    <g id="xtick_5">
     <g id="line2d_9">
      <path clip-path="url(#p739dc770a3)" d="M 224.835 257.505354 
L 224.835 6.794646 
" style="fill:none;stroke:#000000;stroke-linecap:square;stroke-opacity:0.1;stroke-width:0.5;"/>
     </g>
     <g id="line2d_10">
      <g>
       <use style="stroke:#000000;stroke-width:0.8;" x="224.835" xlink:href="#m827e263108" y="257.505354"/>
      </g>
     </g>
     <g id="text_5">
      <!-- -24 -->
      <g transform="translate(216.668594 268.603792)scale(0.1 -0.1)">
       <use xlink:href="#DejaVuSans-45"/>
       <use x="36.083984" xlink:href="#DejaVuSans-50"/>
       <use x="99.707031" xlink:href="#DejaVuSans-52"/>
      </g>
     </g>
    </g>
    <g id="xtick_6">
     <g id="line2d_11">
      <path clip-path="url(#p739dc770a3)" d="M 274.342589 257.505354 
L 274.342589 6.794646 
" style="fill:none;stroke:#000000;stroke-linecap:square;stroke-opacity:0.1;stroke-width:0.5;"/>
     </g>
     <g id="line2d_12">
      <g>
       <use style="stroke:#000000;stroke-width:0.8;" x="274.342589" xlink:href="#m827e263108" y="257.505354"/>
      </g>
     </g>
     <g id="text_6">
      <!-- -12 -->
      <defs>
       <path d="M 12.40625 8.296875 
L 28.515625 8.296875 
L 28.515625 63.921875 
L 10.984375 60.40625 
L 10.984375 69.390625 
L 28.421875 72.90625 
L 38.28125 72.90625 
L 38.28125 8.296875 
L 54.390625 8.296875 
L 54.390625 0 
L 12.40625 0 
z
" id="DejaVuSans-49"/>
      </defs>
      <g transform="translate(266.176182 268.603792)scale(0.1 -0.1)">
       <use xlink:href="#DejaVuSans-45"/>
       <use x="36.083984" xlink:href="#DejaVuSans-49"/>
       <use x="99.707031" xlink:href="#DejaVuSans-50"/>
      </g>
     </g>
    </g>
    <g id="xtick_7">
     <g id="line2d_13">
      <path clip-path="url(#p739dc770a3)" d="M 323.850177 257.505354 
L 323.850177 6.794646 
" style="fill:none;stroke:#000000;stroke-linecap:square;stroke-opacity:0.1;stroke-width:0.5;"/>
     </g>
     <g id="line2d_14">
      <g>
       <use style="stroke:#000000;stroke-width:0.8;" x="323.850177" xlink:href="#m827e263108" y="257.505354"/>
      </g>
     </g>
     <g id="text_7">
      <!-- 0 -->
      <g transform="translate(320.668927 268.603792)scale(0.1 -0.1)">
       <use xlink:href="#DejaVuSans-48"/>
      </g>
     </g>
    </g>
    <g id="xtick_8">
     <g id="line2d_15">
      <path clip-path="url(#p739dc770a3)" d="M 373.357766 257.505354 
L 373.357766 6.794646 
" style="fill:none;stroke:#000000;stroke-linecap:square;stroke-opacity:0.1;stroke-width:0.5;"/>
     </g>
     <g id="line2d_16">
      <g>
       <use style="stroke:#000000;stroke-width:0.8;" x="373.357766" xlink:href="#m827e263108" y="257.505354"/>
      </g>
     </g>
     <g id="text_8">
      <!-- 12 -->
      <g transform="translate(366.995266 268.603792)scale(0.1 -0.1)">
       <use xlink:href="#DejaVuSans-49"/>
       <use x="63.623047" xlink:href="#DejaVuSans-50"/>
      </g>
     </g>
    </g>
    <g id="xtick_9">
     <g id="line2d_17">
      <path clip-path="url(#p739dc770a3)" d="M 422.865354 257.505354 
L 422.865354 6.794646 
" style="fill:none;stroke:#000000;stroke-linecap:square;stroke-opacity:0.1;stroke-width:0.5;"/>
     </g>
     <g id="line2d_18">
      <g>
       <use style="stroke:#000000;stroke-width:0.8;" x="422.865354" xlink:href="#m827e263108" y="257.505354"/>
      </g>
     </g>
     <g id="text_9">
      <!-- 24 -->
      <g transform="translate(416.502854 268.603792)scale(0.1 -0.1)">
       <use xlink:href="#DejaVuSans-50"/>
       <use x="63.623047" xlink:href="#DejaVuSans-52"/>
      </g>
     </g>
    </g>
    <g id="text_10">
     <!-- Hours relative to landfall -->
     <defs>
      <path d="M 9.8125 72.90625 
L 19.671875 72.90625 
L 19.671875 43.015625 
L 55.515625 43.015625 
L 55.515625 72.90625 
L 65.375 72.90625 
L 65.375 0 
L 55.515625 0 
L 55.515625 34.71875 
L 19.671875 34.71875 
L 19.671875 0 
L 9.8125 0 
z
" id="DejaVuSans-72"/>
      <path d="M 30.609375 48.390625 
Q 23.390625 48.390625 19.1875 42.75 
Q 14.984375 37.109375 14.984375 27.296875 
Q 14.984375 17.484375 19.15625 11.84375 
Q 23.34375 6.203125 30.609375 6.203125 
Q 37.796875 6.203125 41.984375 11.859375 
Q 46.1875 17.53125 46.1875 27.296875 
Q 46.1875 37.015625 41.984375 42.703125 
Q 37.796875 48.390625 30.609375 48.390625 
z
M 30.609375 56 
Q 42.328125 56 49.015625 48.375 
Q 55.71875 40.765625 55.71875 27.296875 
Q 55.71875 13.875 49.015625 6.21875 
Q 42.328125 -1.421875 30.609375 -1.421875 
Q 18.84375 -1.421875 12.171875 6.21875 
Q 5.515625 13.875 5.515625 27.296875 
Q 5.515625 40.765625 12.171875 48.375 
Q 18.84375 56 30.609375 56 
z
" id="DejaVuSans-111"/>
      <path d="M 8.5 21.578125 
L 8.5 54.6875 
L 17.484375 54.6875 
L 17.484375 21.921875 
Q 17.484375 14.15625 20.5 10.265625 
Q 23.53125 6.390625 29.59375 6.390625 
Q 36.859375 6.390625 41.078125 11.03125 
Q 45.3125 15.671875 45.3125 23.6875 
L 45.3125 54.6875 
L 54.296875 54.6875 
L 54.296875 0 
L 45.3125 0 
L 45.3125 8.40625 
Q 42.046875 3.421875 37.71875 1 
Q 33.40625 -1.421875 27.6875 -1.421875 
Q 18.265625 -1.421875 13.375 4.4375 
Q 8.5 10.296875 8.5 21.578125 
z
M 31.109375 56 
z
" id="DejaVuSans-117"/>
      <path d="M 41.109375 46.296875 
Q 39.59375 47.171875 37.8125 47.578125 
Q 36.03125 48 33.890625 48 
Q 26.265625 48 22.1875 43.046875 
Q 18.109375 38.09375 18.109375 28.8125 
L 18.109375 0 
L 9.078125 0 
L 9.078125 54.6875 
L 18.109375 54.6875 
L 18.109375 46.1875 
Q 20.953125 51.171875 25.484375 53.578125 
Q 30.03125 56 36.53125 56 
Q 37.453125 56 38.578125 55.875 
Q 39.703125 55.765625 41.0625 55.515625 
z
" id="DejaVuSans-114"/>
      <path d="M 44.28125 53.078125 
L 44.28125 44.578125 
Q 40.484375 46.53125 36.375 47.5 
Q 32.28125 48.484375 27.875 48.484375 
Q 21.1875 48.484375 17.84375 46.4375 
Q 14.5 44.390625 14.5 40.28125 
Q 14.5 37.15625 16.890625 35.375 
Q 19.28125 33.59375 26.515625 31.984375 
L 29.59375 31.296875 
Q 39.15625 29.25 43.1875 25.515625 
Q 47.21875 21.78125 47.21875 15.09375 
Q 47.21875 7.46875 41.1875 3.015625 
Q 35.15625 -1.421875 24.609375 -1.421875 
Q 20.21875 -1.421875 15.453125 -0.5625 
Q 10.6875 0.296875 5.421875 2 
L 5.421875 11.28125 
Q 10.40625 8.6875 15.234375 7.390625 
Q 20.0625 6.109375 24.8125 6.109375 
Q 31.15625 6.109375 34.5625 8.28125 
Q 37.984375 10.453125 37.984375 14.40625 
Q 37.984375 18.0625 35.515625 20.015625 
Q 33.0625 21.96875 24.703125 23.78125 
L 21.578125 24.515625 
Q 13.234375 26.265625 9.515625 29.90625 
Q 5.8125 33.546875 5.8125 39.890625 
Q 5.8125 47.609375 11.28125 51.796875 
Q 16.75 56 26.8125 56 
Q 31.78125 56 36.171875 55.265625 
Q 40.578125 54.546875 44.28125 53.078125 
z
" id="DejaVuSans-115"/>
      <path id="DejaVuSans-32"/>
      <path d="M 56.203125 29.59375 
L 56.203125 25.203125 
L 14.890625 25.203125 
Q 15.484375 15.921875 20.484375 11.0625 
Q 25.484375 6.203125 34.421875 6.203125 
Q 39.59375 6.203125 44.453125 7.46875 
Q 49.3125 8.734375 54.109375 11.28125 
L 54.109375 2.78125 
Q 49.265625 0.734375 44.1875 -0.34375 
Q 39.109375 -1.421875 33.890625 -1.421875 
Q 20.796875 -1.421875 13.15625 6.1875 
Q 5.515625 13.8125 5.515625 26.8125 
Q 5.515625 40.234375 12.765625 48.109375 
Q 20.015625 56 32.328125 56 
Q 43.359375 56 49.78125 48.890625 
Q 56.203125 41.796875 56.203125 29.59375 
z
M 47.21875 32.234375 
Q 47.125 39.59375 43.09375 43.984375 
Q 39.0625 48.390625 32.421875 48.390625 
Q 24.90625 48.390625 20.390625 44.140625 
Q 15.875 39.890625 15.1875 32.171875 
z
" id="DejaVuSans-101"/>
      <path d="M 9.421875 75.984375 
L 18.40625 75.984375 
L 18.40625 0 
L 9.421875 0 
z
" id="DejaVuSans-108"/>
      <path d="M 34.28125 27.484375 
Q 23.390625 27.484375 19.1875 25 
Q 14.984375 22.515625 14.984375 16.5 
Q 14.984375 11.71875 18.140625 8.90625 
Q 21.296875 6.109375 26.703125 6.109375 
Q 34.1875 6.109375 38.703125 11.40625 
Q 43.21875 16.703125 43.21875 25.484375 
L 43.21875 27.484375 
z
M 52.203125 31.203125 
L 52.203125 0 
L 43.21875 0 
L 43.21875 8.296875 
Q 40.140625 3.328125 35.546875 0.953125 
Q 30.953125 -1.421875 24.3125 -1.421875 
Q 15.921875 -1.421875 10.953125 3.296875 
Q 6 8.015625 6 15.921875 
Q 6 25.140625 12.171875 29.828125 
Q 18.359375 34.515625 30.609375 34.515625 
L 43.21875 34.515625 
L 43.21875 35.40625 
Q 43.21875 41.609375 39.140625 45 
Q 35.0625 48.390625 27.6875 48.390625 
Q 23 48.390625 18.546875 47.265625 
Q 14.109375 46.140625 10.015625 43.890625 
L 10.015625 52.203125 
Q 14.9375 54.109375 19.578125 55.046875 
Q 24.21875 56 28.609375 56 
Q 40.484375 56 46.34375 49.84375 
Q 52.203125 43.703125 52.203125 31.203125 
z
" id="DejaVuSans-97"/>
      <path d="M 18.3125 70.21875 
L 18.3125 54.6875 
L 36.8125 54.6875 
L 36.8125 47.703125 
L 18.3125 47.703125 
L 18.3125 18.015625 
Q 18.3125 11.328125 20.140625 9.421875 
Q 21.96875 7.515625 27.59375 7.515625 
L 36.8125 7.515625 
L 36.8125 0 
L 27.59375 0 
Q 17.1875 0 13.234375 3.875 
Q 9.28125 7.765625 9.28125 18.015625 
L 9.28125 47.703125 
L 2.6875 47.703125 
L 2.6875 54.6875 
L 9.28125 54.6875 
L 9.28125 70.21875 
z
" id="DejaVuSans-116"/>
      <path d="M 9.421875 54.6875 
L 18.40625 54.6875 
L 18.40625 0 
L 9.421875 0 
z
M 9.421875 75.984375 
L 18.40625 75.984375 
L 18.40625 64.59375 
L 9.421875 64.59375 
z
" id="DejaVuSans-105"/>
      <path d="M 2.984375 54.6875 
L 12.5 54.6875 
L 29.59375 8.796875 
L 46.6875 54.6875 
L 56.203125 54.6875 
L 35.6875 0 
L 23.484375 0 
z
" id="DejaVuSans-118"/>
      <path d="M 54.890625 33.015625 
L 54.890625 0 
L 45.90625 0 
L 45.90625 32.71875 
Q 45.90625 40.484375 42.875 44.328125 
Q 39.84375 48.1875 33.796875 48.1875 
Q 26.515625 48.1875 22.3125 43.546875 
Q 18.109375 38.921875 18.109375 30.90625 
L 18.109375 0 
L 9.078125 0 
L 9.078125 54.6875 
L 18.109375 54.6875 
L 18.109375 46.1875 
Q 21.34375 51.125 25.703125 53.5625 
Q 30.078125 56 35.796875 56 
Q 45.21875 56 50.046875 50.171875 
Q 54.890625 44.34375 54.890625 33.015625 
z
" id="DejaVuSans-110"/>
      <path d="M 45.40625 46.390625 
L 45.40625 75.984375 
L 54.390625 75.984375 
L 54.390625 0 
L 45.40625 0 
L 45.40625 8.203125 
Q 42.578125 3.328125 38.25 0.953125 
Q 33.9375 -1.421875 27.875 -1.421875 
Q 17.96875 -1.421875 11.734375 6.484375 
Q 5.515625 14.40625 5.515625 27.296875 
Q 5.515625 40.1875 11.734375 48.09375 
Q 17.96875 56 27.875 56 
Q 33.9375 56 38.25 53.625 
Q 42.578125 51.265625 45.40625 46.390625 
z
M 14.796875 27.296875 
Q 14.796875 17.390625 18.875 11.75 
Q 22.953125 6.109375 30.078125 6.109375 
Q 37.203125 6.109375 41.296875 11.75 
Q 45.40625 17.390625 45.40625 27.296875 
Q 45.40625 37.203125 41.296875 42.84375 
Q 37.203125 48.484375 30.078125 48.484375 
Q 22.953125 48.484375 18.875 42.84375 
Q 14.796875 37.203125 14.796875 27.296875 
z
" id="DejaVuSans-100"/>
      <path d="M 37.109375 75.984375 
L 37.109375 68.5 
L 28.515625 68.5 
Q 23.6875 68.5 21.796875 66.546875 
Q 19.921875 64.59375 19.921875 59.515625 
L 19.921875 54.6875 
L 34.71875 54.6875 
L 34.71875 47.703125 
L 19.921875 47.703125 
L 19.921875 0 
L 10.890625 0 
L 10.890625 47.703125 
L 2.296875 47.703125 
L 2.296875 54.6875 
L 10.890625 54.6875 
L 10.890625 58.5 
Q 10.890625 67.625 15.140625 71.796875 
Q 19.390625 75.984375 28.609375 75.984375 
z
" id="DejaVuSans-102"/>
     </defs>
     <g transform="translate(163.032656 282.281917)scale(0.1 -0.1)">
      <use xlink:href="#DejaVuSans-72"/>
      <use x="75.195312" xlink:href="#DejaVuSans-111"/>
      <use x="136.376953" xlink:href="#DejaVuSans-117"/>
      <use x="199.755859" xlink:href="#DejaVuSans-114"/>
      <use x="240.869141" xlink:href="#DejaVuSans-115"/>
      <use x="292.96875" xlink:href="#DejaVuSans-32"/>
      <use x="324.755859" xlink:href="#DejaVuSans-114"/>
      <use x="365.837891" xlink:href="#DejaVuSans-101"/>
      <use x="427.361328" xlink:href="#DejaVuSans-108"/>
      <use x="455.144531" xlink:href="#DejaVuSans-97"/>
      <use x="516.423828" xlink:href="#DejaVuSans-116"/>
      <use x="555.632812" xlink:href="#DejaVuSans-105"/>
      <use x="583.416016" xlink:href="#DejaVuSans-118"/>
      <use x="642.595703" xlink:href="#DejaVuSans-101"/>
      <use x="704.119141" xlink:href="#DejaVuSans-32"/>
      <use x="735.90625" xlink:href="#DejaVuSans-116"/>
      <use x="775.115234" xlink:href="#DejaVuSans-111"/>
      <use x="836.296875" xlink:href="#DejaVuSans-32"/>
      <use x="868.083984" xlink:href="#DejaVuSans-108"/>
      <use x="895.867188" xlink:href="#DejaVuSans-97"/>
      <use x="957.146484" xlink:href="#DejaVuSans-110"/>
      <use x="1020.525391" xlink:href="#DejaVuSans-100"/>
      <use x="1084.001953" xlink:href="#DejaVuSans-102"/>
      <use x="1119.207031" xlink:href="#DejaVuSans-97"/>
      <use x="1180.486328" xlink:href="#DejaVuSans-108"/>
      <use x="1208.269531" xlink:href="#DejaVuSans-108"/>
     </g>
    </g>
   </g>
   <g id="matplotlib.axis_2">
    <g id="ytick_1">
     <g id="line2d_19">
      <path clip-path="url(#p739dc770a3)" d="M 26.804646 229.648609 
L 422.865354 229.648609 
" style="fill:none;stroke:#000000;stroke-linecap:square;stroke-opacity:0.1;stroke-width:0.5;"/>
     </g>
     <g id="line2d_20">
      <defs>
       <path d="M 0 0 
L 3.5 0 
" id="mfb976a1072" style="stroke:#000000;stroke-width:0.8;"/>
      </defs>
      <g>
       <use style="stroke:#000000;stroke-width:0.8;" x="26.804646" xlink:href="#mfb976a1072" y="229.648609"/>
      </g>
     </g>
     <g id="text_11">
      <!-- 0 -->
      <g transform="translate(16.942146 233.447828)scale(0.1 -0.1)">
       <use xlink:href="#DejaVuSans-48"/>
      </g>
     </g>
    </g>
    <g id="ytick_2">
     <g id="line2d_21">
      <path clip-path="url(#p739dc770a3)" d="M 26.804646 173.935118 
L 422.865354 173.935118 
" style="fill:none;stroke:#000000;stroke-linecap:square;stroke-opacity:0.1;stroke-width:0.5;"/>
     </g>
     <g id="line2d_22">
      <g>
       <use style="stroke:#000000;stroke-width:0.8;" x="26.804646" xlink:href="#mfb976a1072" y="173.935118"/>
      </g>
     </g>
     <g id="text_12">
      <!-- 1 -->
      <g transform="translate(16.942146 177.734337)scale(0.1 -0.1)">
       <use xlink:href="#DejaVuSans-49"/>
      </g>
     </g>
    </g>
    <g id="ytick_3">
     <g id="line2d_23">
      <path clip-path="url(#p739dc770a3)" d="M 26.804646 118.221627 
L 422.865354 118.221627 
" style="fill:none;stroke:#000000;stroke-linecap:square;stroke-opacity:0.1;stroke-width:0.5;"/>
     </g>
     <g id="line2d_24">
      <g>
       <use style="stroke:#000000;stroke-width:0.8;" x="26.804646" xlink:href="#mfb976a1072" y="118.221627"/>
      </g>
     </g>
     <g id="text_13">
      <!-- 2 -->
      <g transform="translate(16.942146 122.020846)scale(0.1 -0.1)">
       <use xlink:href="#DejaVuSans-50"/>
      </g>
     </g>
    </g>
    <g id="ytick_4">
     <g id="line2d_25">
      <path clip-path="url(#p739dc770a3)" d="M 26.804646 62.508136 
L 422.865354 62.508136 
" style="fill:none;stroke:#000000;stroke-linecap:square;stroke-opacity:0.1;stroke-width:0.5;"/>
     </g>
     <g id="line2d_26">
      <g>
       <use style="stroke:#000000;stroke-width:0.8;" x="26.804646" xlink:href="#mfb976a1072" y="62.508136"/>
      </g>
     </g>
     <g id="text_14">
      <!-- 3 -->
      <g transform="translate(16.942146 66.307355)scale(0.1 -0.1)">
       <use xlink:href="#DejaVuSans-51"/>
      </g>
     </g>
    </g>
    <g id="ytick_5">
     <g id="line2d_27">
      <path clip-path="url(#p739dc770a3)" d="M 26.804646 6.794646 
L 422.865354 6.794646 
" style="fill:none;stroke:#000000;stroke-linecap:square;stroke-opacity:0.1;stroke-width:0.5;"/>
     </g>
     <g id="line2d_28">
      <g>
       <use style="stroke:#000000;stroke-width:0.8;" x="26.804646" xlink:href="#mfb976a1072" y="6.794646"/>
      </g>
     </g>
     <g id="text_15">
      <!-- 4 -->
      <g transform="translate(16.942146 10.593864)scale(0.1 -0.1)">
       <use xlink:href="#DejaVuSans-52"/>
      </g>
     </g>
    </g>
    <g id="text_16">
     <!-- Surface (m) -->
     <defs>
      <path d="M 53.515625 70.515625 
L 53.515625 60.890625 
Q 47.90625 63.578125 42.921875 64.890625 
Q 37.9375 66.21875 33.296875 66.21875 
Q 25.25 66.21875 20.875 63.09375 
Q 16.5 59.96875 16.5 54.203125 
Q 16.5 49.359375 19.40625 46.890625 
Q 22.3125 44.4375 30.421875 42.921875 
L 36.375 41.703125 
Q 47.40625 39.59375 52.65625 34.296875 
Q 57.90625 29 57.90625 20.125 
Q 57.90625 9.515625 50.796875 4.046875 
Q 43.703125 -1.421875 29.984375 -1.421875 
Q 24.8125 -1.421875 18.96875 -0.25 
Q 13.140625 0.921875 6.890625 3.21875 
L 6.890625 13.375 
Q 12.890625 10.015625 18.65625 8.296875 
Q 24.421875 6.59375 29.984375 6.59375 
Q 38.421875 6.59375 43.015625 9.90625 
Q 47.609375 13.234375 47.609375 19.390625 
Q 47.609375 24.75 44.3125 27.78125 
Q 41.015625 30.8125 33.5 32.328125 
L 27.484375 33.5 
Q 16.453125 35.6875 11.515625 40.375 
Q 6.59375 45.0625 6.59375 53.421875 
Q 6.59375 63.09375 13.40625 68.65625 
Q 20.21875 74.21875 32.171875 74.21875 
Q 37.3125 74.21875 42.625 73.28125 
Q 47.953125 72.359375 53.515625 70.515625 
z
" id="DejaVuSans-83"/>
      <path d="M 48.78125 52.59375 
L 48.78125 44.1875 
Q 44.96875 46.296875 41.140625 47.34375 
Q 37.3125 48.390625 33.40625 48.390625 
Q 24.65625 48.390625 19.8125 42.84375 
Q 14.984375 37.3125 14.984375 27.296875 
Q 14.984375 17.28125 19.8125 11.734375 
Q 24.65625 6.203125 33.40625 6.203125 
Q 37.3125 6.203125 41.140625 7.25 
Q 44.96875 8.296875 48.78125 10.40625 
L 48.78125 2.09375 
Q 45.015625 0.34375 40.984375 -0.53125 
Q 36.96875 -1.421875 32.421875 -1.421875 
Q 20.0625 -1.421875 12.78125 6.34375 
Q 5.515625 14.109375 5.515625 27.296875 
Q 5.515625 40.671875 12.859375 48.328125 
Q 20.21875 56 33.015625 56 
Q 37.15625 56 41.109375 55.140625 
Q 45.0625 54.296875 48.78125 52.59375 
z
" id="DejaVuSans-99"/>
      <path d="M 31 75.875 
Q 24.46875 64.65625 21.28125 53.65625 
Q 18.109375 42.671875 18.109375 31.390625 
Q 18.109375 20.125 21.3125 9.0625 
Q 24.515625 -2 31 -13.1875 
L 23.1875 -13.1875 
Q 15.875 -1.703125 12.234375 9.375 
Q 8.59375 20.453125 8.59375 31.390625 
Q 8.59375 42.28125 12.203125 53.3125 
Q 15.828125 64.359375 23.1875 75.875 
z
" id="DejaVuSans-40"/>
      <path d="M 52 44.1875 
Q 55.375 50.25 60.0625 53.125 
Q 64.75 56 71.09375 56 
Q 79.640625 56 84.28125 50.015625 
Q 88.921875 44.046875 88.921875 33.015625 
L 88.921875 0 
L 79.890625 0 
L 79.890625 32.71875 
Q 79.890625 40.578125 77.09375 44.375 
Q 74.3125 48.1875 68.609375 48.1875 
Q 61.625 48.1875 57.5625 43.546875 
Q 53.515625 38.921875 53.515625 30.90625 
L 53.515625 0 
L 44.484375 0 
L 44.484375 32.71875 
Q 44.484375 40.625 41.703125 44.40625 
Q 38.921875 48.1875 33.109375 48.1875 
Q 26.21875 48.1875 22.15625 43.53125 
Q 18.109375 38.875 18.109375 30.90625 
L 18.109375 0 
L 9.078125 0 
L 9.078125 54.6875 
L 18.109375 54.6875 
L 18.109375 46.1875 
Q 21.1875 51.21875 25.484375 53.609375 
Q 29.78125 56 35.6875 56 
Q 41.65625 56 45.828125 52.96875 
Q 50 49.953125 52 44.1875 
z
" id="DejaVuSans-109"/>
      <path d="M 8.015625 75.875 
L 15.828125 75.875 
Q 23.140625 64.359375 26.78125 53.3125 
Q 30.421875 42.28125 30.421875 31.390625 
Q 30.421875 20.453125 26.78125 9.375 
Q 23.140625 -1.703125 15.828125 -13.1875 
L 8.015625 -13.1875 
Q 14.5 -2 17.703125 9.0625 
Q 20.90625 20.125 20.90625 31.390625 
Q 20.90625 42.671875 17.703125 53.65625 
Q 14.5 64.65625 8.015625 75.875 
z
" id="DejaVuSans-41"/>
     </defs>
     <g transform="translate(10.862458 161.559375)rotate(-90)scale(0.1 -0.1)">
      <use xlink:href="#DejaVuSans-83"/>
      <use x="63.476562" xlink:href="#DejaVuSans-117"/>
      <use x="126.855469" xlink:href="#DejaVuSans-114"/>
      <use x="167.96875" xlink:href="#DejaVuSans-102"/>
      <use x="203.173828" xlink:href="#DejaVuSans-97"/>
      <use x="264.453125" xlink:href="#DejaVuSans-99"/>
      <use x="319.433594" xlink:href="#DejaVuSans-101"/>
      <use x="380.957031" xlink:href="#DejaVuSans-32"/>
      <use x="412.744141" xlink:href="#DejaVuSans-40"/>
      <use x="451.757812" xlink:href="#DejaVuSans-109"/>
      <use x="549.169922" xlink:href="#DejaVuSans-41"/>
     </g>
    </g>
   </g>
   <g id="line2d_29">
    <path clip-path="url(#p739dc770a3)" d="M 26.804646 229.648609 
L 36.00939 229.752464 
L 37.850339 230.037289 
L 40.567984 230.743819 
L 42.496603 231.116203 
L 44.074543 231.191683 
L 46.003161 231.043112 
L 52.785701 230.323895 
L 57.694974 229.873742 
L 61.552211 229.572677 
L 64.708091 229.570064 
L 72.860914 229.704985 
L 83.939039 229.450185 
L 87.620936 229.712172 
L 95.51075 230.355424 
L 99.192648 230.364711 
L 104.484917 230.129216 
L 113.426767 229.713693 
L 134.936897 229.274081 
L 141.248771 229.627516 
L 147.034627 229.860359 
L 155.482776 230.073552 
L 157.323725 230.493008 
L 160.655058 231.547665 
L 163.810938 232.431197 
L 166.265574 232.896689 
L 168.369532 233.082031 
L 170.473376 233.041187 
L 172.577334 232.777016 
L 175.11964 232.218828 
L 179.798336 230.909673 
L 184.269147 229.737923 
L 188.301723 228.946491 
L 191.895951 228.177689 
L 194.350473 227.422003 
L 197.068119 226.347534 
L 199.960989 224.966068 
L 202.886407 223.328699 
L 206.217625 221.196092 
L 213.844441 216.194469 
L 223.662828 210.453841 
L 229.831863 206.336809 
L 232.198807 204.240984 
L 232.637132 203.828531 
L 232.856284 202.996317 
L 234.258918 200.902927 
L 236.056032 197.837197 
L 238.422977 193.877461 
L 241.09673 190.120338 
L 241.97337 189.239614 
L 242.981514 188.554227 
L 245.918265 186.754402 
L 247.320888 185.500347 
L 249.030344 183.654169 
L 251.122922 181.03753 
L 255.462297 175.50518 
L 257.259411 173.612593 
L 261.993287 168.831595 
L 263.878071 166.458312 
L 266.157345 163.208711 
L 269.006427 158.742941 
L 271.636369 154.180674 
L 278.550481 141.894847 
L 280.56677 138.974401 
L 282.802221 136.133905 
L 286.834786 131.456868 
L 289.508551 128.545671 
L 292.269985 126.138291 
L 294.286262 124.796878 
L 296.127223 123.862563 
L 297.968171 123.173944 
L 299.490874 122.829634 
L 300.805839 122.75431 
L 301.989311 122.903845 
L 303.128948 123.269771 
L 304.31242 123.894096 
L 305.539715 124.804789 
L 306.898515 126.108206 
L 308.388808 127.861621 
L 309.922936 130.017956 
L 311.369406 132.447733 
L 312.772031 135.262824 
L 314.086996 138.411026 
L 315.708788 142.897801 
L 317.768902 149.308028 
L 323.291762 167.42561 
L 324.68299 173.035958 
L 326.567776 181.685533 
L 328.671724 191.127159 
L 329.811361 195.250359 
L 330.907166 198.423693 
L 332.222132 201.531124 
L 333.493265 204.023668 
L 334.457573 205.491913 
L 335.816368 207.041969 
L 337.262837 208.748116 
L 338.665461 210.812424 
L 340.331082 213.660508 
L 343.443161 220.245793 
L 346.379912 226.567954 
L 348.587744 230.661046 
L 351.979037 236.466369 
L 353.162497 238.085481 
L 353.951479 238.834928 
L 354.608955 239.174947 
L 355.178774 239.227931 
L 355.748593 239.047943 
L 356.537563 238.516481 
L 356.581397 238.481086 
L 357.326544 236.487913 
L 357.984021 235.326649 
L 358.685332 234.597388 
L 359.123646 234.349591 
L 360.087956 234.790591 
L 360.964595 235.66302 
L 362.191879 237.354409 
L 366.31208 243.648034 
L 367.890031 245.384002 
L 369.993954 246.952567 
L 372.360875 247.441915 
L 373.237515 247.524959 
L 374.234405 247.390273 
L 375.461701 246.990164 
L 377.565636 246.017394 
L 380.020215 244.946941 
L 381.685836 244.466118 
L 383.263787 244.239082 
L 384.929408 244.226051 
L 386.945674 244.444042 
L 393.608157 245.350398 
L 395.799762 245.308032 
L 397.991367 245.043072 
L 400.303165 244.543332 
L 403.108423 243.668759 
L 406.702662 242.293966 
L 414.855462 238.855018 
L 421.693274 236.084308 
L 422.832911 235.653454 
L 422.832911 235.653454 
" style="fill:none;stroke:#009afa;stroke-linecap:round;"/>
   </g>
   <g id="line2d_30">
    <path clip-path="url(#p739dc770a3)" d="M 26.804646 229.648609 
L 36.886087 229.758415 
L 38.990045 230.057724 
L 44.86357 231.099684 
L 46.967528 231.087115 
L 51.087774 230.768049 
L 58.045653 230.095264 
L 63.39316 229.515459 
L 66.54904 229.426646 
L 87.007249 229.586366 
L 92.267201 230.10444 
L 96.825681 230.45929 
L 100.507578 230.509923 
L 104.747926 230.332927 
L 120.702893 229.416345 
L 133.621967 229.206996 
L 138.355786 229.39757 
L 150.015167 229.98011 
L 155.921124 230.140292 
L 158.025082 230.496128 
L 160.742728 231.214771 
L 166.090235 232.664792 
L 168.544872 233.078599 
L 170.648715 233.214111 
L 172.665003 233.12654 
L 174.768961 232.806544 
L 177.16836 232.202036 
L 180.1489 231.207617 
L 187.425026 228.685367 
L 196.279092 225.982338 
L 199.69798 224.575857 
L 201.746815 223.595483 
L 203.675434 222.419795 
L 206.217625 220.572129 
L 215.510062 213.324434 
L 222.830011 207.032308 
L 225.71164 204.362166 
L 226.763619 203.180467 
L 228.692226 199.7961 
L 230.051026 197.910912 
L 232.549463 194.937132 
L 238.072321 188.294546 
L 242.280202 182.971846 
L 244.953956 180.30746 
L 249.29333 175.957574 
L 251.429743 173.413306 
L 253.884345 170.10515 
L 264.798545 154.460802 
L 266.902492 150.795411 
L 269.926913 145.214981 
L 272.644501 139.632433 
L 281.311916 121.513515 
L 283.459698 117.492783 
L 286.878621 111.642588 
L 291.086513 104.808047 
L 294.680753 99.346788 
L 297.091532 96.086992 
L 299.315546 93.450852 
L 301.331822 91.3982 
L 303.041278 89.962909 
L 304.619241 88.921178 
L 306.197204 88.150215 
L 307.906659 87.571797 
L 309.528445 87.340141 
L 310.711917 87.372343 
L 312.026883 87.620547 
L 313.166521 88.037117 
L 314.481487 88.772367 
L 315.621124 89.645008 
L 316.892258 90.893826 
L 318.294889 92.560272 
L 319.522192 94.341154 
L 320.661829 96.385449 
L 321.582306 98.480276 
L 322.546615 101.265784 
L 323.850177 105.830278 
L 325.47197 112.325357 
L 326.699272 118.12658 
L 327.926576 125.109319 
L 336.386186 176.469135 
L 339.191444 191.578806 
L 342.303523 206.700111 
L 344.012979 213.197223 
L 346.599075 222.223471 
L 348.823134 229.109581 
L 350.795576 234.626487 
L 352.548855 238.899773 
L 353.819986 241.472314 
L 354.828118 243.06429 
L 355.660923 243.998944 
L 356.406069 244.505807 
L 357.019711 244.676217 
L 357.545695 244.587833 
L 358.247007 244.229233 
L 359.123646 243.645368 
L 359.298974 243.030666 
L 361.227581 242.819117 
L 362.805533 243.153103 
L 363.156188 243.29664 
L 363.331516 243.168544 
L 364.120486 243.641797 
L 365.698438 244.90836 
L 368.503673 247.435397 
L 369.380312 248.224724 
L 369.467971 246.117262 
L 369.55564 246.175701 
L 369.906296 246.391952 
L 370.081624 247.425797 
L 370.607608 248.40446 
L 371.308919 249.242175 
L 371.747233 249.61996 
L 371.834903 248.317192 
L 371.922561 248.350215 
L 372.974529 248.613017 
L 375.111045 248.534989 
L 375.987684 248.318101 
L 378.617603 247.488668 
L 380.896855 247.035362 
L 383.789771 246.677368 
L 386.244362 246.590135 
L 389.312606 246.724518 
L 393.608157 246.896993 
L 395.799762 246.752741 
L 397.903697 246.391602 
L 400.040179 245.795325 
L 402.494781 244.866438 
L 406.001351 243.264594 
L 412.488518 240.024625 
L 418.362032 237.180839 
L 422.745253 235.30715 
L 422.832911 235.272529 
L 422.832911 235.272529 
" style="fill:none;stroke:#e36f47;stroke-linecap:round;"/>
   </g>
   <g id="patch_3">
    <path d="M 26.804646 257.505354 
L 26.804646 6.794646 
" style="fill:none;stroke:#000000;stroke-linecap:square;stroke-linejoin:miter;"/>
   </g>
   <g id="patch_4">
    <path d="M 26.804646 257.505354 
L 422.865354 257.505354 
" style="fill:none;stroke:#000000;stroke-linecap:square;stroke-linejoin:miter;"/>
   </g>
   <g id="line2d_31">
    <path clip-path="url(#p739dc770a3)" d="M 26.804646 229.648609 
L 37.149096 229.757885 
L 39.165384 230.053646 
L 45.038909 231.157403 
L 47.055198 231.127852 
L 55.415677 230.539501 
L 58.571557 230.094439 
L 63.305491 229.415052 
L 66.110691 229.267206 
L 69.967928 229.317103 
L 77.451826 229.4082 
L 84.815736 229.530279 
L 89.023537 229.853601 
L 97.176359 230.551229 
L 100.770587 230.575642 
L 104.835596 230.374645 
L 120.615223 229.314841 
L 131.605678 229.216718 
L 136.953186 229.37617 
L 151.888548 230.047941 
L 155.833455 230.151707 
L 157.849743 230.453468 
L 160.30438 231.074651 
L 166.177905 232.639983 
L 168.720097 233.071222 
L 170.824054 233.214384 
L 172.752673 233.132134 
L 174.681292 232.826813 
L 176.730012 232.274609 
L 179.184648 231.372551 
L 183.39245 229.5299 
L 186.986678 228.066535 
L 190.318011 226.959915 
L 194.438143 225.765217 
L 197.155789 224.935041 
L 197.769362 224.708594 
L 197.857031 226.943413 
L 197.944701 226.917294 
L 198.514497 226.605454 
L 199.347302 225.847372 
L 204.201452 220.963266 
L 219.235783 207.862589 
L 221.865702 204.993289 
L 227.245767 199.047211 
L 232.505628 193.03792 
L 237.896981 186.58598 
L 244.953956 178.130901 
L 247.759214 175.147889 
L 252.131055 170.578492 
L 254.059673 168.157685 
L 256.032115 165.310057 
L 258.355213 161.541764 
L 261.861783 155.362246 
L 267.07782 145.785153 
L 271.022715 137.678561 
L 274.956242 129.115788 
L 284.950002 106.815794 
L 287.185442 102.474822 
L 294.417767 89.11573 
L 300.762004 77.734689 
L 303.391934 73.524086 
L 305.58355 70.419619 
L 307.643662 67.877914 
L 309.791443 65.577114 
L 311.763885 63.77495 
L 313.473346 62.497384 
L 314.963641 61.657001 
L 316.322439 61.1392 
L 317.593573 60.88381 
L 318.820875 60.86821 
L 320.004345 61.068723 
L 321.406977 61.545463 
L 322.45895 62.114855 
L 323.335595 62.859967 
L 324.113171 63.814061 
L 324.902151 65.155363 
L 325.691131 66.957304 
L 326.523943 69.435942 
L 327.488253 73.07654 
L 328.584058 78.164017 
L 329.855193 85.19038 
L 331.564649 96.053396 
L 333.449434 109.459622 
L 335.421877 125.255567 
L 338.051807 148.276994 
L 340.769407 171.894444 
L 342.785684 187.322513 
L 344.40747 198.094059 
L 345.985421 207.052855 
L 348.089368 217.640034 
L 349.568281 223.778647 
L 351.32156 230.081063 
L 353.250167 236.202677 
L 355.003446 241.058875 
L 356.274576 243.959782 
L 357.238874 245.658641 
L 357.984021 246.586354 
L 358.772991 247.212191 
L 359.386644 247.447484 
L 359.912628 247.399274 
L 360.613939 247.057051 
L 362.016551 246.008145 
L 363.156188 245.278803 
L 363.945158 245.057526 
L 364.734128 245.08797 
L 365.610768 245.375463 
L 366.662735 245.980757 
L 368.153017 247.121018 
L 369.380312 248.308987 
L 369.55564 247.548501 
L 369.906296 247.618731 
L 369.993954 240.098395 
L 370.081624 240.210291 
L 370.43228 240.950078 
L 371.045922 242.960369 
L 372.273217 247.36325 
L 372.448545 248.758053 
L 372.536203 248.918035 
L 372.623873 240.927696 
L 372.711531 241.162119 
L 372.799201 241.417636 
L 372.974529 248.913269 
L 373.062187 249.08615 
L 373.149857 241.020854 
L 373.237515 241.280393 
L 373.79608 243.258523 
L 373.971408 248.984685 
L 374.322064 249.697987 
L 374.409733 241.369071 
L 374.497391 241.640158 
L 374.585061 241.928102 
L 374.760389 249.70646 
L 374.848047 249.881559 
L 374.935717 241.479824 
L 375.023375 241.754333 
L 375.111045 242.045515 
L 375.286373 249.905711 
L 375.637029 250.553208 
L 375.724687 241.853622 
L 375.812357 242.113205 
L 375.900015 242.38971 
L 376.075343 250.417148 
L 376.425999 250.972886 
L 376.513668 242.084297 
L 376.601326 242.330067 
L 376.951982 243.465313 
L 377.12731 250.350104 
L 377.740964 251.069772 
L 378.354606 251.441192 
L 379.055917 251.600677 
L 379.932557 251.567143 
L 381.422838 251.244356 
L 385.367722 250.308328 
L 388.085311 249.949063 
L 394.309469 249.241246 
L 396.413404 248.699285 
L 398.549886 247.917652 
L 400.916818 246.8032 
L 405.387697 244.367347 
L 409.946246 241.634256 
L 414.504806 238.984234 
L 418.099046 237.164632 
L 421.517946 235.682664 
L 422.832911 235.179181 
L 422.832911 235.179181 
" style="fill:none;stroke:#3ea44e;stroke-linecap:round;"/>
   </g>
   <g id="line2d_32">
    <path clip-path="url(#p739dc770a3)" d="M 26.804646 229.648609 
L 38.464027 229.756983 
L 40.655654 230.042386 
L 43.548525 230.682005 
L 46.178501 231.177861 
L 48.194789 231.326298 
L 50.649426 231.267554 
L 55.415677 230.877052 
L 58.922235 230.408067 
L 68.214649 228.94604 
L 71.107634 228.894137 
L 75.666114 229.074359 
L 88.234624 229.838068 
L 99.981675 230.803817 
L 103.345326 230.723879 
L 107.202563 230.399733 
L 119.738526 229.133387 
L 124.034112 229.055918 
L 132.044027 229.199358 
L 138.794134 229.50542 
L 151.450314 230.202217 
L 158.025082 230.381882 
L 160.21671 230.748282 
L 162.846686 231.439775 
L 168.807766 233.090917 
L 171.087064 233.453851 
L 173.015682 233.547456 
L 174.856631 233.41464 
L 176.642342 233.059963 
L 178.483291 232.468926 
L 180.674919 231.51661 
L 183.830798 229.869212 
L 188.126384 227.6623 
L 191.194594 226.406351 
L 192.99165 225.910691 
L 193.561561 226.239896 
L 194.262803 226.383782 
L 195.1395 226.328425 
L 196.366761 226.014685 
L 198.032371 225.351422 
L 199.128185 224.679673 
L 200.826341 223.35596 
L 210.20639 215.344766 
L 215.510062 210.526547 
L 218.62213 207.444944 
L 220.726076 205.019196 
L 224.364139 200.370785 
L 245.304612 173.760345 
L 250.246271 167.998456 
L 252.657039 165.001404 
L 254.585657 162.242528 
L 256.601934 158.96702 
L 258.881208 154.822995 
L 261.774125 149.062164 
L 271.899355 128.734039 
L 274.090971 123.65893 
L 277.016354 116.274608 
L 286.615623 91.884969 
L 293.541116 76.004117 
L 301.59482 58.125602 
L 304.005587 53.389621 
L 306.109534 49.751474 
L 308.344973 46.330164 
L 310.361262 43.631124 
L 312.28988 41.410886 
L 313.780172 40.004845 
L 315.095138 39.05571 
L 316.278607 38.469492 
L 317.286749 38.199226 
L 318.251057 38.168695 
L 319.127701 38.367147 
L 320.048178 38.801768 
L 321.012487 39.51529 
L 321.976795 40.515793 
L 322.984937 41.901388 
L 323.937842 43.599145 
L 324.902151 45.782167 
L 325.86646 48.522657 
L 326.874601 52.072108 
L 327.970407 56.797949 
L 329.19771 63.118088 
L 330.731837 72.277831 
L 332.616622 84.962233 
L 334.720566 100.608921 
L 336.956005 118.891136 
L 339.191444 139.162991 
L 344.363635 187.202339 
L 345.766258 197.164674 
L 346.379912 200.351185 
L 347.388056 204.233619 
L 351.935202 220.999981 
L 354.214476 229.040959 
L 355.792427 233.860989 
L 357.063546 237.049466 
L 358.159349 239.229836 
L 359.123646 240.689115 
L 360.000286 241.637833 
L 360.701598 242.118044 
L 361.402909 242.337015 
L 362.454877 242.340156 
L 364.120486 242.125639 
L 365.43544 242.042824 
L 366.575077 242.202315 
L 367.802361 242.605761 
L 369.117326 243.255214 
L 369.55564 243.387454 
L 370.169282 242.980876 
L 370.695266 242.899556 
L 371.22125 243.043933 
L 371.834903 243.473107 
L 372.536203 243.996421 
L 373.237515 244.033447 
L 373.79608 244.263613 
L 374.146736 244.381309 
L 375.286373 244.793592 
L 376.864324 245.491771 
L 376.951982 245.549161 
L 377.12731 253.771564 
L 377.653294 255.186386 
L 378.179278 256.064798 
L 378.79292 256.65023 
L 379.406573 256.925433 
L 380.107885 256.995292 
L 380.984524 256.856487 
L 382.299478 256.402901 
L 392.556178 252.084287 
L 395.09845 250.796456 
L 397.816039 249.159278 
L 401.092146 246.910243 
L 403.37142 245.091726 
L 409.68326 239.886524 
L 412.31319 238.084122 
L 415.118448 236.433025 
L 418.099046 234.935708 
L 421.079632 233.681185 
L 422.832911 233.0495 
L 422.832911 233.0495 
" style="fill:none;stroke:#c371d2;stroke-linecap:round;"/>
   </g>
   <g id="legend_1">
    <g id="patch_5">
     <path d="M 35.204646 86.849646 
L 124.312146 86.849646 
Q 126.712146 86.849646 126.712146 84.449646 
L 126.712146 15.194646 
Q 126.712146 12.794646 124.312146 12.794646 
L 35.204646 12.794646 
Q 32.804646 12.794646 32.804646 15.194646 
L 32.804646 84.449646 
Q 32.804646 86.849646 35.204646 86.849646 
z
" style="fill:#ffffff;stroke:#000000;stroke-linejoin:miter;"/>
    </g>
    <g id="line2d_33">
     <path d="M 37.604646 22.512771 
L 61.604646 22.512771 
" style="fill:none;stroke:#009afa;stroke-linecap:square;"/>
    </g>
    <g id="line2d_34"/>
    <g id="text_17">
     <!-- Gauge 1 -->
     <defs>
      <path d="M 59.515625 10.40625 
L 59.515625 29.984375 
L 43.40625 29.984375 
L 43.40625 38.09375 
L 69.28125 38.09375 
L 69.28125 6.78125 
Q 63.578125 2.734375 56.6875 0.65625 
Q 49.8125 -1.421875 42 -1.421875 
Q 24.90625 -1.421875 15.25 8.5625 
Q 5.609375 18.5625 5.609375 36.375 
Q 5.609375 54.25 15.25 64.234375 
Q 24.90625 74.21875 42 74.21875 
Q 49.125 74.21875 55.546875 72.453125 
Q 61.96875 70.703125 67.390625 67.28125 
L 67.390625 56.78125 
Q 61.921875 61.421875 55.765625 63.765625 
Q 49.609375 66.109375 42.828125 66.109375 
Q 29.4375 66.109375 22.71875 58.640625 
Q 16.015625 51.171875 16.015625 36.375 
Q 16.015625 21.625 22.71875 14.15625 
Q 29.4375 6.6875 42.828125 6.6875 
Q 48.046875 6.6875 52.140625 7.59375 
Q 56.25 8.5 59.515625 10.40625 
z
" id="DejaVuSans-71"/>
      <path d="M 45.40625 27.984375 
Q 45.40625 37.75 41.375 43.109375 
Q 37.359375 48.484375 30.078125 48.484375 
Q 22.859375 48.484375 18.828125 43.109375 
Q 14.796875 37.75 14.796875 27.984375 
Q 14.796875 18.265625 18.828125 12.890625 
Q 22.859375 7.515625 30.078125 7.515625 
Q 37.359375 7.515625 41.375 12.890625 
Q 45.40625 18.265625 45.40625 27.984375 
z
M 54.390625 6.78125 
Q 54.390625 -7.171875 48.1875 -13.984375 
Q 42 -20.796875 29.203125 -20.796875 
Q 24.46875 -20.796875 20.265625 -20.09375 
Q 16.0625 -19.390625 12.109375 -17.921875 
L 12.109375 -9.1875 
Q 16.0625 -11.328125 19.921875 -12.34375 
Q 23.78125 -13.375 27.78125 -13.375 
Q 36.625 -13.375 41.015625 -8.765625 
Q 45.40625 -4.15625 45.40625 5.171875 
L 45.40625 9.625 
Q 42.625 4.78125 38.28125 2.390625 
Q 33.9375 0 27.875 0 
Q 17.828125 0 11.671875 7.65625 
Q 5.515625 15.328125 5.515625 27.984375 
Q 5.515625 40.671875 11.671875 48.328125 
Q 17.828125 56 27.875 56 
Q 33.9375 56 38.28125 53.609375 
Q 42.625 51.21875 45.40625 46.390625 
L 45.40625 54.6875 
L 54.390625 54.6875 
z
" id="DejaVuSans-103"/>
     </defs>
     <g transform="translate(71.204646 26.712771)scale(0.12 -0.12)">
      <use xlink:href="#DejaVuSans-71"/>
      <use x="77.490234" xlink:href="#DejaVuSans-97"/>
      <use x="138.769531" xlink:href="#DejaVuSans-117"/>
      <use x="202.148438" xlink:href="#DejaVuSans-103"/>
      <use x="265.625" xlink:href="#DejaVuSans-101"/>
      <use x="327.148438" xlink:href="#DejaVuSans-32"/>
      <use x="358.935547" xlink:href="#DejaVuSans-49"/>
     </g>
    </g>
    <g id="line2d_35">
     <path d="M 37.604646 40.126521 
L 61.604646 40.126521 
" style="fill:none;stroke:#e36f47;stroke-linecap:square;"/>
    </g>
    <g id="line2d_36"/>
    <g id="text_18">
     <!-- Gauge 2 -->
     <g transform="translate(71.204646 44.326521)scale(0.12 -0.12)">
      <use xlink:href="#DejaVuSans-71"/>
      <use x="77.490234" xlink:href="#DejaVuSans-97"/>
      <use x="138.769531" xlink:href="#DejaVuSans-117"/>
      <use x="202.148438" xlink:href="#DejaVuSans-103"/>
      <use x="265.625" xlink:href="#DejaVuSans-101"/>
      <use x="327.148438" xlink:href="#DejaVuSans-32"/>
      <use x="358.935547" xlink:href="#DejaVuSans-50"/>
     </g>
    </g>
    <g id="line2d_37">
     <path d="M 37.604646 57.740271 
L 61.604646 57.740271 
" style="fill:none;stroke:#3ea44e;stroke-linecap:square;"/>
    </g>
    <g id="line2d_38"/>
    <g id="text_19">
     <!-- Gauge 3 -->
     <g transform="translate(71.204646 61.940271)scale(0.12 -0.12)">
      <use xlink:href="#DejaVuSans-71"/>
      <use x="77.490234" xlink:href="#DejaVuSans-97"/>
      <use x="138.769531" xlink:href="#DejaVuSans-117"/>
      <use x="202.148438" xlink:href="#DejaVuSans-103"/>
      <use x="265.625" xlink:href="#DejaVuSans-101"/>
      <use x="327.148438" xlink:href="#DejaVuSans-32"/>
      <use x="358.935547" xlink:href="#DejaVuSans-51"/>
     </g>
    </g>
    <g id="line2d_39">
     <path d="M 37.604646 75.354021 
L 61.604646 75.354021 
" style="fill:none;stroke:#c371d2;stroke-linecap:square;"/>
    </g>
    <g id="line2d_40"/>
    <g id="text_20">
     <!-- Gauge 4 -->
     <g transform="translate(71.204646 79.554021)scale(0.12 -0.12)">
      <use xlink:href="#DejaVuSans-71"/>
      <use x="77.490234" xlink:href="#DejaVuSans-97"/>
      <use x="138.769531" xlink:href="#DejaVuSans-117"/>
      <use x="202.148438" xlink:href="#DejaVuSans-103"/>
      <use x="265.625" xlink:href="#DejaVuSans-101"/>
      <use x="327.148438" xlink:href="#DejaVuSans-32"/>
      <use x="358.935547" xlink:href="#DejaVuSans-52"/>
     </g>
    </g>
   </g>
  </g>
 </g>
 <defs>
  <clipPath id="p739dc770a3">
   <rect height="250.710709" width="396.060709" x="26.804646" y="6.794646"/>
  </clipPath>
 </defs>
</svg>
